<?xml version="1.0" encoding="UTF-8" standalone="no"?>
<!-- Created with Inkscape (http://www.inkscape.org/) -->

<svg
   xmlns:dc="http://purl.org/dc/elements/1.1/"
   xmlns:cc="http://creativecommons.org/ns#"
   xmlns:rdf="http://www.w3.org/1999/02/22-rdf-syntax-ns#"
   xmlns:svg="http://www.w3.org/2000/svg"
   xmlns="http://www.w3.org/2000/svg"
   xmlns:sodipodi="http://sodipodi.sourceforge.net/DTD/sodipodi-0.dtd"
   xmlns:inkscape="http://www.inkscape.org/namespaces/inkscape"
   width="4in"
   height="2in"
   viewBox="0 0 101.6 50.800002"
   version="1.1"
   id="svg8"
   inkscape:version="0.92.5 (2060ec1f9f, 2020-04-08)"
   sodipodi:docname="brand-label-t-shirt-text.svg"
   inkscape:export-filename="/home/david/brand-label.png"
   inkscape:export-xdpi="2048"
   inkscape:export-ydpi="2048">
  <defs
     id="defs2" />
  <sodipodi:namedview
     id="base"
     pagecolor="#ffffff"
     bordercolor="#666666"
     borderopacity="1.0"
     inkscape:pageopacity="0.0"
     inkscape:pageshadow="2"
     inkscape:zoom="2.7720197"
     inkscape:cx="192.84119"
     inkscape:cy="84.122294"
     inkscape:document-units="mm"
     inkscape:current-layer="layer1"
     showgrid="false"
     units="in"
     inkscape:window-width="1920"
     inkscape:window-height="972"
     inkscape:window-x="0"
     inkscape:window-y="27"
     inkscape:window-maximized="0"
     inkscape:pagecheckerboard="true" />
  <metadata
     id="metadata5">
    <rdf:RDF>
      <cc:Work
         rdf:about="">
        <dc:format>image/svg+xml</dc:format>
        <dc:type
           rdf:resource="http://purl.org/dc/dcmitype/StillImage" />
        <dc:title></dc:title>
      </cc:Work>
    </rdf:RDF>
  </metadata>
  <g
     inkscape:label="Layer 1"
     inkscape:groupmode="layer"
     id="layer1"
     transform="translate(0,-246.19999)">
    <rect
       id="rect46"
       width="94.949059"
       height="44.149063"
       x="3.3254707"
       y="249.52545"
       style="fill:none;stroke:#ff0000;stroke-width:0.30093873;stroke-miterlimit:4;stroke-dasharray:none;stroke-opacity:1" />
    <g
       id="g1203">
      <rect
         y="306.95703"
         x="6.1401658"
         height="20.245953"
         width="46.798019"
         id="rect1463"
         style="fill:#2f2c4a;fill-opacity:0;stroke-width:0.26458332" />
      <rect
         y="294.34479"
         x="-11.616529"
         height="21.573555"
         width="22.071405"
         id="rect1465"
         style="fill:#2f2c4a;fill-opacity:0;stroke-width:0.26458332" />
      <rect
         y="305.46347"
         x="-13.276033"
         height="16.097191"
         width="25.058514"
         id="rect1467"
         style="fill:#2f2c4a;fill-opacity:0;stroke-width:0.26458332" />
      <rect
         y="230.45387"
         x="-36.343143"
         height="15.26744"
         width="22.735209"
         id="rect1469"
         style="fill:#2f2c4a;fill-opacity:0;stroke-width:0.26458332" />
      <rect
         y="309.45856"
         x="49.287277"
         height="19.7358"
         width="53.071056"
         id="rect1471"
         style="fill:#2f2c4a;fill-opacity:0;stroke-width:0.52883708;stroke-miterlimit:4;stroke-dasharray:none" />
      <g
         transform="translate(6.6828358,-0.35270679)"
         id="g999">
        <g
           id="g971"
           transform="matrix(0.90467634,0,0,0.90467634,9.0040811,26.663501)"
           style="fill:#2f2c49;fill-opacity:0.94117647">
          <g
             transform="matrix(0.85,0,0,0.85,-0.4425466,35.156256)"
             id="g1565">
            <g
               transform="matrix(0.09185998,0,0,0.09185998,-17.533515,248.82984)"
               id="g38"
               style="fill:#2f2c4a;fill-opacity:0.94117647">
              <g
                 id="g32"
                 style="fill:#2f2c4a;fill-opacity:0.94117647">
                <path
                   inkscape:connector-curvature="0"
                   d="m 120.47,359.86 h 5.9 v 15.72 c 2.2,-2.62 5.42,-4.29 9.41,-4.29 8.46,0 15.37,6.85 15.37,15.37 0,8.52 -6.91,15.37 -15.37,15.37 -8.46,0 -15.31,-6.85 -15.31,-15.37 z m 5.78,26.8 c 0,5.42 4.11,9.71 9.53,9.71 5.48,0 9.53,-4.29 9.53,-9.71 0,-5.42 -4.11,-9.71 -9.53,-9.71 -5.37,0 -9.53,4.29 -9.53,9.71 z"
                   id="path4"
                   style="fill:#2f2c4a;fill-opacity:0.94117647" />
                <path
                   inkscape:connector-curvature="0"
                   d="m 184.25,386.66 c 0,8.52 -6.85,15.37 -15.37,15.37 -8.52,0 -15.37,-6.85 -15.37,-15.37 0,-8.52 6.85,-15.37 15.37,-15.37 8.52,0.01 15.37,6.85 15.37,15.37 z m -24.89,0 c 0,5.42 4.17,9.71 9.59,9.71 5.42,0 9.47,-4.29 9.47,-9.71 0,-5.42 -3.99,-9.71 -9.47,-9.71 -5.48,0 -9.59,4.29 -9.59,9.71 z"
                   id="path6"
                   style="fill:#2f2c4a;fill-opacity:0.94117647" />
                <path
                   inkscape:connector-curvature="0"
                   d="m 213.73,401.55 h -5.84 v -15.66 c 0,-6.07 -2.62,-8.93 -7.27,-8.93 -4.65,0 -7.27,2.86 -7.27,8.93 v 15.66 h -5.84 v -15.66 c 0,-10.01 5.48,-14.59 13.1,-14.59 7.62,0 13.1,4.59 13.1,14.59 v 15.66 z"
                   id="path8"
                   style="fill:#2f2c4a;fill-opacity:0.94117647" />
                <path
                   inkscape:connector-curvature="0"
                   d="m 232.78,386.66 c 0,-8.52 6.91,-15.37 15.37,-15.37 8.46,0 15.31,6.85 15.31,15.37 v 14.89 h -5.84 v -4.7 c -1.43,2.92 -5.24,5.18 -9.47,5.18 -8.46,0 -15.37,-6.85 -15.37,-15.37 z m 24.9,0 c 0,-5.42 -3.99,-9.71 -9.47,-9.71 -5.48,0 -9.59,4.29 -9.59,9.71 0,5.42 4.17,9.71 9.59,9.71 5.42,0 9.47,-4.29 9.47,-9.71 z"
                   id="path10"
                   style="fill:#2f2c4a;fill-opacity:0.94117647" />
                <path
                   inkscape:connector-curvature="0"
                   d="m 267.62,364.09 c 0,-2.03 1.55,-3.57 3.57,-3.57 1.97,0 3.51,1.55 3.51,3.57 0,2.02 -1.55,3.57 -3.51,3.57 -2.02,0 -3.57,-1.55 -3.57,-3.57 z m 0.65,7.68 h 5.84 v 29.78 h -5.84 z"
                   id="path12"
                   style="fill:#2f2c4a;fill-opacity:0.94117647" />
                <path
                   inkscape:connector-curvature="0"
                   d="m 279.47,386.01 c 0,-9.89 5.3,-14.35 12.51,-14.35 h 0.6 v 5.66 h -0.6 c -4.17,0 -6.67,2.68 -6.67,8.7 v 15.54 h -5.84 z"
                   id="path14"
                   style="fill:#2f2c4a;fill-opacity:0.94117647" />
                <path
                   inkscape:connector-curvature="0"
                   d="m 342.3,413.46 h -5.9 v -15.72 c -2.2,2.62 -5.42,4.29 -9.41,4.29 -8.46,0 -15.37,-6.85 -15.37,-15.37 0,-8.52 6.91,-15.37 15.37,-15.37 8.46,0 15.31,6.85 15.31,15.37 z m -5.78,-26.8 c 0,-5.42 -4.11,-9.71 -9.53,-9.71 -5.48,0 -9.53,4.29 -9.53,9.71 0,5.42 4.11,9.71 9.53,9.71 5.36,0 9.53,-4.29 9.53,-9.71 z"
                   id="path16"
                   style="fill:#2f2c4a;fill-opacity:0.94117647" />
                <path
                   inkscape:connector-curvature="0"
                   d="m 372.07,371.77 v 15.66 c 0,10.01 -5.48,14.59 -13.1,14.59 -7.62,0 -13.1,-4.59 -13.1,-14.59 v -15.66 h 5.84 v 15.66 c 0,6.07 2.62,8.93 7.27,8.93 4.65,0 7.27,-2.86 7.27,-8.93 v -15.66 z"
                   id="path18"
                   style="fill:#2f2c4a;fill-opacity:0.94117647" />
                <path
                   inkscape:connector-curvature="0"
                   d="m 376.24,364.09 c 0,-2.03 1.55,-3.57 3.57,-3.57 1.97,0 3.51,1.55 3.51,3.57 0,2.02 -1.55,3.57 -3.51,3.57 -2.02,0 -3.57,-1.55 -3.57,-3.57 z m 0.65,7.68 h 5.84 v 29.78 h -5.84 z"
                   id="path20"
                   style="fill:#2f2c4a;fill-opacity:0.94117647" />
                <path
                   inkscape:connector-curvature="0"
                   d="m 388.09,401.55 v -41.69 h 5.84 v 41.69 z"
                   id="path22"
                   style="fill:#2f2c4a;fill-opacity:0.94117647" />
                <path
                   inkscape:connector-curvature="0"
                   d="m 406.31,377.43 v 10.01 c 0,5.66 2.2,8.28 6.43,8.64 v 5.66 c -7.15,-0.3 -12.21,-4.65 -12.27,-14.23 v -10.07 h -4.41 v -5.66 h 4.41 v -10.66 h 5.84 v 10.66 h 6.43 v 5.66 h -6.43 z"
                   id="path24"
                   style="fill:#2f2c4a;fill-opacity:0.94117647" />
                <path
                   inkscape:connector-curvature="0"
                   d="m 430.61,386.66 c 0,-8.52 6.85,-15.37 15.37,-15.37 6.55,0 12.09,4.11 14.18,9.83 h -6.25 c -1.67,-2.5 -4.47,-4.17 -7.86,-4.17 -5.48,0 -9.59,4.29 -9.59,9.71 0,5.42 4.17,9.71 9.59,9.71 3.34,0 6.07,-1.61 7.74,-4.05 h 6.37 c -2.14,5.72 -7.68,9.71 -14.18,9.71 -8.52,0 -15.37,-6.85 -15.37,-15.37 z"
                   id="path26"
                   style="fill:#2f2c4a;fill-opacity:0.94117647" />
                <path
                   inkscape:connector-curvature="0"
                   d="m 493.91,386.66 c 0,8.52 -6.85,15.37 -15.37,15.37 -8.52,0 -15.37,-6.85 -15.37,-15.37 0,-8.52 6.85,-15.37 15.37,-15.37 8.52,0.01 15.37,6.85 15.37,15.37 z m -24.89,0 c 0,5.42 4.17,9.71 9.59,9.71 5.42,0 9.47,-4.29 9.47,-9.71 0,-5.42 -3.99,-9.71 -9.47,-9.71 -5.48,0 -9.59,4.29 -9.59,9.71 z"
                   id="path28"
                   style="fill:#2f2c4a;fill-opacity:0.94117647" />
                <path
                   inkscape:connector-curvature="0"
                   d="m 495.7,394.28 h 5.84 v 7.27 h -5.84 z"
                   id="path30"
                   style="fill:#2f2c4a;fill-opacity:0.94117647" />
              </g>
              <g
                 id="g36"
                 style="fill:#2f2c4a;fill-opacity:0.94117647">
                <path
                   inkscape:connector-curvature="0"
                   d="m 394.58,137.9 c -37.54,0 -70.37,20.79 -87.38,51.62 -17.01,-30.82 -49.85,-51.62 -87.38,-51.62 -32.08,0 -59.14,17.01 -74.61,41.36 V 63.68 h -24.74 v 173.95 c 0,55.28 44.45,99.73 99.35,99.73 37.54,0 70.37,-20.79 87.38,-51.62 17.01,30.82 49.84,51.62 87.38,51.62 32.86,0 61.85,-18.94 74.61,-44.45 v 41.36 h 24.74 v -96.64 c 0,-55.27 -44.46,-99.73 -99.35,-99.73 z M 219.82,313.79 c -42.91,0 -74.99,-33.63 -74.99,-76.15 0,-42.52 32.86,-76.15 74.99,-76.15 41.75,0 74.99,33.63 74.99,76.15 0,42.52 -32.47,76.15 -74.99,76.15 z m 175.15,0 c -41.75,0 -75.38,-33.63 -75.38,-76.15 0,-42.52 32.86,-76.15 75.38,-76.15 42.52,0 74.61,33.63 74.61,76.15 0,42.52 -32.86,76.15 -74.61,76.15 z"
                   id="path34"
                   style="fill:#2f2c4a;fill-opacity:0.94117647" />
              </g>
            </g>
            <g
               id="g1502">
              <g
                 id="g946"
                 transform="translate(8.8889983e-8,-0.85586322)"
                 style="fill:#2f2c49;fill-opacity:0.94117647">
                <g
                   id="g1004">
                  <text
                     xml:space="preserve"
                     style="font-style:normal;font-variant:normal;font-weight:normal;font-stretch:normal;font-size:4.93888903px;line-height:1.25;font-family:'Nordique Pro';-inkscape-font-specification:'Nordique Pro, Normal';font-variant-ligatures:normal;font-variant-caps:normal;font-variant-numeric:normal;font-feature-settings:normal;text-align:start;letter-spacing:0px;word-spacing:0px;writing-mode:lr-tb;text-anchor:start;fill:#2f2c49;fill-opacity:0.94117647;stroke:none;stroke-width:0.26458332"
                     x="40.623272"
                     y="253.58835"
                     id="text1395"><tspan
                       sodipodi:role="line"
                       id="tspan1393"
                       x="40.623272"
                       y="253.58835"
                       style="font-style:normal;font-variant:normal;font-weight:normal;font-stretch:normal;font-size:4.93888903px;font-family:'Nordique Pro';-inkscape-font-specification:'Nordique Pro, Normal';font-variant-ligatures:normal;font-variant-caps:normal;font-variant-numeric:normal;font-feature-settings:normal;text-align:start;writing-mode:lr-tb;text-anchor:start;fill:#2f2c49;fill-opacity:0.94117647;stroke-width:0.26458332">bonairquiltco.com</tspan></text>
                  <path
                     id="path1397"
                     d="m 36.254325,249.5755 c -1.534354,0 -2.778125,1.24377 -2.778125,2.77812 0,1.53436 1.243771,2.77813 2.778125,2.77813 1.534355,0 2.778125,-1.24377 2.778125,-2.77813 0,-1.53435 -1.24377,-2.77812 -2.778125,-2.77812 z m 0.921822,4.00588 c -0.04369,0.0435 -0.0895,0.089 -0.126695,0.12636 -0.0335,0.0336 -0.05713,0.0751 -0.06912,0.11997 -0.01691,0.0634 -0.03058,0.12748 -0.05344,0.18898 l -0.194805,0.52482 c -0.154141,0.0336 -0.313659,0.0525 -0.47777,0.0525 v -0.30671 c 0.01893,-0.14137 -0.08558,-0.40619 -0.253504,-0.57411 -0.06721,-0.0672 -0.104964,-0.1584 -0.104964,-0.2535 v -0.35858 c 0,-0.13039 -0.07024,-0.25026 -0.184387,-0.31333 -0.160974,-0.0891 -0.389946,-0.21351 -0.546775,-0.29248 -0.1286,-0.0648 -0.247567,-0.1472 -0.354547,-0.24365 l -0.009,-0.008 a 1.2859134,1.2859134 0 0 1 -0.20231,-0.23233 c -0.105076,-0.15426 -0.276245,-0.40799 -0.387482,-0.57288 0.229308,-0.5097 0.642554,-0.91902 1.156059,-1.14139 l 0.268963,0.13454 c 0.11919,0.0596 0.259441,-0.0269 0.259441,-0.1603 v -0.12658 c 0.08951,-0.0144 0.180578,-0.0236 0.273219,-0.0271 l 0.317021,0.31702 c 0.07002,0.07 0.07002,0.18349 0,0.25351 l -0.05253,0.0524 -0.11583,0.11583 c -0.03495,0.0349 -0.03495,0.0917 0,0.12669 l 0.05253,0.0525 c 0.03495,0.0349 0.03495,0.0917 0,0.12669 l -0.08962,0.0896 a 0.08970655,0.08970655 0 0 1 -0.0634,0.0263 h -0.100707 c -0.0233,0 -0.0457,0.009 -0.06251,0.0255 l -0.111125,0.1081 a 0.08970655,0.08970655 0 0 0 -0.0177,0.1043 l 0.174642,0.34939 c 0.02979,0.0596 -0.01355,0.12972 -0.0801,0.12972 h -0.06318 c -0.02162,0 -0.04246,-0.008 -0.0587,-0.022 l -0.103955,-0.0903 a 0.17942431,0.17942431 0 0 0 -0.174193,-0.0347 l -0.34917,0.11638 a 0.1338653,0.1338653 0 0 0 -0.09152,0.12703 c 0,0.0507 0.02867,0.097 0.07404,0.11976 l 0.12412,0.062 c 0.105411,0.0528 0.221689,0.0802 0.339536,0.0802 0.117846,0 0.253056,0.30571 0.358467,0.35847 h 0.747742 c 0.09511,0 0.186179,0.0377 0.253504,0.10497 l 0.153357,0.15335 a 0.34169817,0.34169817 0 0 1 0.100034,0.24163 0.52130171,0.52130171 0 0 1 -0.153693,0.36945 z m 0.971336,-1.02332 c -0.06486,-0.0163 -0.121431,-0.056 -0.15851,-0.11168 l -0.201414,-0.30213 a 0.26851474,0.26851474 0 0 1 0,-0.29819 l 0.21945,-0.32912 c 0.02599,-0.0389 0.06161,-0.0704 0.103507,-0.0913 l 0.145404,-0.0727 c 0.151452,0.30156 0.238829,0.64076 0.238829,1.00069 0,0.0971 -0.0083,0.19223 -0.02039,0.2861 z"
                     inkscape:connector-curvature="0"
                     style="fill:#2f2c49;fill-opacity:0.94117647;stroke-width:0.01120212"
                     inkscape:transform-center-x="37.06625"
                     inkscape:transform-center-y="22.178144" />
                </g>
              </g>
              <g
                 id="g951"
                 transform="translate(8.8889983e-8,-1.2954012)"
                 style="fill:#2f2c49;fill-opacity:0.94117647">
                <path
                   style="fill:#2f2c49;fill-opacity:0.94117647;stroke-width:0.01085205"
                   inkscape:connector-curvature="0"
                   d="m 37.547239,260.83622 0.154315,-1.00555 h -0.964856 v -0.65254 c 0,-0.2751 0.134783,-0.54325 0.566912,-0.54325 h 0.43864 v -0.85612 c 0,0 -0.398054,-0.068 -0.778635,-0.068 -0.794588,0 -1.313967,0.48161 -1.313967,1.35347 v 0.76637 h -0.883249 v 1.00555 h 0.883249 v 2.43086 h 1.08705 v -2.43086 z"
                   id="path1408" />
                <text
                   id="text1395-3"
                   y="261.73102"
                   x="40.672665"
                   style="font-style:normal;font-variant:normal;font-weight:normal;font-stretch:normal;font-size:4.93888903px;line-height:1.25;font-family:'Nordique Pro';-inkscape-font-specification:'Nordique Pro, Normal';font-variant-ligatures:normal;font-variant-caps:normal;font-variant-numeric:normal;font-feature-settings:normal;text-align:start;letter-spacing:0px;word-spacing:0px;writing-mode:lr-tb;text-anchor:start;fill:#2f2c49;fill-opacity:0.94117647;stroke:none;stroke-width:0.26458332"
                   xml:space="preserve"><tspan
                     style="font-style:normal;font-variant:normal;font-weight:normal;font-stretch:normal;font-size:4.93888903px;font-family:'Nordique Pro';-inkscape-font-specification:'Nordique Pro, Normal';font-variant-ligatures:normal;font-variant-caps:normal;font-variant-numeric:normal;font-feature-settings:normal;text-align:start;writing-mode:lr-tb;text-anchor:start;fill:#2f2c49;fill-opacity:0.94117647;stroke-width:0.26458332"
                     y="261.73102"
                     x="40.672665"
                     id="tspan1393-6"
                     sodipodi:role="line">facebook.com/bonairquiltco</tspan></text>
              </g>
              <g
                 id="g956"
                 transform="translate(8.8889983e-8,-1.2130235)"
                 style="fill:#2f2c49;fill-opacity:0.94117647">
                <path
                   style="fill:#2f2c49;fill-opacity:0.94117647;stroke-width:0.01239819"
                   inkscape:connector-curvature="0"
                   d="m 36.254945,266.67767 c -0.788525,0 -1.424552,0.63603 -1.424552,1.42455 0,0.78853 0.636027,1.42455 1.424552,1.42455 0.788525,0 1.424552,-0.63602 1.424552,-1.42455 0,-0.78852 -0.636027,-1.42455 -1.424552,-1.42455 z m 0,2.35069 c -0.509566,0 -0.926145,-0.41533 -0.926145,-0.92614 0,-0.51081 0.41534,-0.92614 0.926145,-0.92614 0.510806,0 0.926145,0.41533 0.926145,0.92614 0,0.51081 -0.416579,0.92614 -0.926145,0.92614 z m 1.815095,-2.40896 c 0,0.18473 -0.148778,0.33227 -0.332271,0.33227 -0.184733,0 -0.332272,-0.14878 -0.332272,-0.33227 0,-0.1835 0.148779,-0.33228 0.332272,-0.33228 0.183493,0 0.332271,0.14878 0.332271,0.33228 z m 0.943503,0.33723 c -0.02108,-0.4451 -0.122742,-0.83936 -0.448815,-1.16419 -0.324832,-0.32484 -0.719095,-0.4265 -1.16419,-0.44882 -0.458733,-0.026 -1.833693,-0.026 -2.292426,0 -0.443855,0.0211 -0.838118,0.12274 -1.16419,0.44758 -0.326072,0.32483 -0.426498,0.71909 -0.448815,1.16419 -0.02604,0.45873 -0.02604,1.83369 0,2.29242 0.02108,0.4451 0.122743,0.83936 0.448815,1.16419 0.326072,0.32484 0.719095,0.4265 1.16419,0.44882 0.458733,0.026 1.833693,0.026 2.292426,0 0.445095,-0.0211 0.839358,-0.12274 1.16419,-0.44882 0.324833,-0.32483 0.426498,-0.71909 0.448815,-1.16419 0.02604,-0.45873 0.02604,-1.83245 0,-2.29118 z m -0.592634,2.78339 c -0.09671,0.24301 -0.283918,0.43022 -0.528163,0.52816 -0.365746,0.14506 -1.23362,0.11159 -1.637801,0.11159 -0.404181,0 -1.273294,0.0322 -1.637801,-0.11159 -0.243005,-0.0967 -0.430217,-0.28391 -0.528163,-0.52816 -0.145059,-0.36575 -0.111584,-1.23362 -0.111584,-1.6378 0,-0.40418 -0.03224,-1.27329 0.111584,-1.6378 0.09671,-0.24301 0.283918,-0.43022 0.528163,-0.52816 0.365747,-0.14506 1.23362,-0.11159 1.637801,-0.11159 0.404181,0 1.273294,-0.0322 1.637801,0.11159 0.243005,0.0967 0.430217,0.28391 0.528163,0.52816 0.145059,0.36575 0.111584,1.23362 0.111584,1.6378 0,0.40418 0.03348,1.27329 -0.111584,1.6378 z"
                   id="path1419" />
                <text
                   id="text1395-3-8"
                   y="269.33694"
                   x="40.623272"
                   style="font-style:normal;font-variant:normal;font-weight:normal;font-stretch:normal;font-size:4.93888903px;line-height:1.25;font-family:'Nordique Pro';-inkscape-font-specification:'Nordique Pro, Normal';font-variant-ligatures:normal;font-variant-caps:normal;font-variant-numeric:normal;font-feature-settings:normal;text-align:start;letter-spacing:0px;word-spacing:0px;writing-mode:lr-tb;text-anchor:start;fill:#2f2c49;fill-opacity:0.94117647;stroke:none;stroke-width:0.26458332"
                   xml:space="preserve"><tspan
                     style="font-style:normal;font-variant:normal;font-weight:normal;font-stretch:normal;font-size:4.93888903px;font-family:'Nordique Pro';-inkscape-font-specification:'Nordique Pro, Normal';font-variant-ligatures:normal;font-variant-caps:normal;font-variant-numeric:normal;font-feature-settings:normal;text-align:start;writing-mode:lr-tb;text-anchor:start;fill:#2f2c49;fill-opacity:0.94117647;stroke-width:0.26458332"
                     y="269.33694"
                     x="40.623272"
                     id="tspan1393-6-4"
                     sodipodi:role="line">instagram.com/bonairquiltco</tspan></text>
              </g>
              <g
                 id="g961"
                 transform="translate(8.8889983e-8,-1.0008366)"
                 style="fill:#2f2c49;fill-opacity:0.94117647">
                <path
                   style="fill:#2f2c49;fill-opacity:0.94117647;stroke-width:0.01120269"
                   inkscape:connector-curvature="0"
                   d="m 36.26047,272.80762 c -1.56871,0 -2.78442,1.14648 -2.78442,2.69503 0,0.80995 0.33283,1.50989 0.87459,1.9934 0.0935,0.0841 0.0743,0.13287 0.0902,0.65234 a 0.22315758,0.22315758 0 0 0 0.31233,0.19683 c 0.59273,-0.26103 0.60035,-0.28164 0.70084,-0.2543 1.71726,0.47264 3.57859,-0.62635 3.57859,-2.58827 0,-1.54855 -1.20328,-2.69503 -2.77211,-2.69503 z m 1.67189,2.07395 -0.81779,1.29469 a 0.41864451,0.41864451 0 0 1 -0.60394,0.11125 l -0.65065,-0.48698 a 0.16804034,0.16804034 0 0 0 -0.20165,0 l -0.87796,0.66588 c -0.11718,0.0888 -0.27065,-0.0515 -0.19167,-0.17554 l 0.81779,-1.2947 a 0.41853248,0.41853248 0 0 1 0.60394,-0.11124 l 0.65043,0.48687 a 0.16804034,0.16804034 0 0 0 0.20165,0 l 0.8784,-0.66522 c 0.11696,-0.0894 0.27043,0.0509 0.19145,0.17499 z"
                   id="path1441" />
                <text
                   id="text1395-3-7"
                   y="276.82047"
                   x="40.623272"
                   style="font-style:normal;font-variant:normal;font-weight:normal;font-stretch:normal;font-size:4.93888903px;line-height:1.25;font-family:'Nordique Pro';-inkscape-font-specification:'Nordique Pro, Normal';font-variant-ligatures:normal;font-variant-caps:normal;font-variant-numeric:normal;font-feature-settings:normal;text-align:start;letter-spacing:0px;word-spacing:0px;writing-mode:lr-tb;text-anchor:start;fill:#2f2c49;fill-opacity:0.94117647;stroke:none;stroke-width:0.26458332"
                   xml:space="preserve"><tspan
                     style="font-style:normal;font-variant:normal;font-weight:normal;font-stretch:normal;font-size:4.93888903px;font-family:'Nordique Pro';-inkscape-font-specification:'Nordique Pro, Normal';font-variant-ligatures:normal;font-variant-caps:normal;font-variant-numeric:normal;font-feature-settings:normal;text-align:start;writing-mode:lr-tb;text-anchor:start;fill:#2f2c49;fill-opacity:0.94117647;stroke-width:0.26458332"
                     y="276.82047"
                     x="40.623272"
                     id="tspan1393-6-6"
                     sodipodi:role="line">m.me/bonairquiltco</tspan></text>
              </g>
              <g
                 id="g966"
                 transform="translate(8.8889983e-8,-0.31354241)"
                 style="fill:#2f2c49;fill-opacity:0.94117647">
                <path
                   style="fill:#2f2c49;fill-opacity:0.94117647;stroke-width:0.0133616"
                   inkscape:connector-curvature="0"
                   d="m 38.971733,281.20083 c 0.0043,0.0608 0.0043,0.12155 0.0043,0.18232 0,1.85352 -1.410759,3.98921 -3.989215,3.98921 -0.794374,0 -1.532309,-0.23007 -2.153049,-0.62941 0.112865,0.013 0.221375,0.0173 0.338583,0.0173 0.655454,0 1.258837,-0.22137 1.74067,-0.59902 -0.616398,-0.013 -1.132957,-0.41672 -1.310934,-0.97235 0.08682,0.013 0.173634,0.0217 0.2648,0.0217 0.12588,0 0.251773,-0.0174 0.368968,-0.0478 -0.64244,-0.13023 -1.124286,-0.69453 -1.124286,-1.37604 v -0.0174 c 0.186648,0.10418 0.403707,0.16929 0.633754,0.17797 -0.377652,-0.25178 -0.625069,-0.68151 -0.625069,-1.16769 0,-0.26044 0.06944,-0.49919 0.19099,-0.70755 0.690194,0.8508 1.727656,1.40642 2.890984,1.4672 -0.0217,-0.10418 -0.03473,-0.21269 -0.03473,-0.32121 0,-0.77268 0.625083,-1.40209 1.402087,-1.40209 0.403694,0 0.768319,0.16929 1.024435,0.44276 0.31687,-0.0608 0.620726,-0.17797 0.889869,-0.33858 -0.104194,0.32557 -0.325569,0.59904 -0.616398,0.77266 0.282157,-0.0304 0.555629,-0.10852 0.807389,-0.21703 -0.190965,0.2778 -0.429723,0.52522 -0.703195,0.72491 z"
                   id="path1430" />
                <text
                   id="text1395-3-8-0"
                   y="283.82889"
                   x="40.697357"
                   style="font-style:normal;font-variant:normal;font-weight:normal;font-stretch:normal;font-size:4.93888903px;line-height:1.25;font-family:'Nordique Pro';-inkscape-font-specification:'Nordique Pro, Normal';font-variant-ligatures:normal;font-variant-caps:normal;font-variant-numeric:normal;font-feature-settings:normal;text-align:start;letter-spacing:0px;word-spacing:0px;writing-mode:lr-tb;text-anchor:start;fill:#2f2c49;fill-opacity:0.94117647;stroke:none;stroke-width:0.26458332"
                   xml:space="preserve"><tspan
                     style="font-style:normal;font-variant:normal;font-weight:normal;font-stretch:normal;font-size:4.93888903px;font-family:'Nordique Pro';-inkscape-font-specification:'Nordique Pro, Normal';font-variant-ligatures:normal;font-variant-caps:normal;font-variant-numeric:normal;font-feature-settings:normal;text-align:start;writing-mode:lr-tb;text-anchor:start;fill:#2f2c49;fill-opacity:0.94117647;stroke-width:0.26458332"
                     y="283.82889"
                     x="40.697357"
                     id="tspan1393-6-4-0"
                     sodipodi:role="line">twitter.com/bonairquiltco</tspan></text>
              </g>
              <path
                 style="fill:#2f2c49;fill-opacity:0.94117647;stroke-width:0.01085205"
                 inkscape:connector-curvature="0"
                 d="m 37.469755,287.19821 h -2.43086 c -0.28758,0 -0.5209,0.23332 -0.5209,0.5209 v 4.51445 c 0,0.28758 0.23332,0.5209 0.5209,0.5209 h 2.43086 c 0.28758,0 0.5209,-0.23332 0.5209,-0.5209 v -4.51445 c 0,-0.28758 -0.23332,-0.5209 -0.5209,-0.5209 z m -1.21543,5.20898 c -0.19208,0 -0.34727,-0.15518 -0.34727,-0.34726 0,-0.19208 0.15519,-0.34727 0.34727,-0.34727 0.19208,0 0.34726,0.15519 0.34726,0.34727 0,0.19208 -0.15518,0.34726 -0.34726,0.34726 z"
                 id="path1452" />
              <text
                 id="text1395-3-8-0-8"
                 y="291.30243"
                 x="40.647968"
                 style="font-style:normal;font-variant:normal;font-weight:normal;font-stretch:normal;font-size:4.93888903px;line-height:1.25;font-family:'Nordique Pro';-inkscape-font-specification:'Nordique Pro, Normal';font-variant-ligatures:normal;font-variant-caps:normal;font-variant-numeric:normal;font-feature-settings:normal;text-align:start;letter-spacing:0px;word-spacing:0px;writing-mode:lr-tb;text-anchor:start;fill:#2f2c49;fill-opacity:0.94117647;stroke:none;stroke-width:0.26458332"
                 xml:space="preserve"><tspan
                   style="font-style:normal;font-variant:normal;font-weight:normal;font-stretch:normal;font-size:4.93888903px;font-family:'Nordique Pro';-inkscape-font-specification:'Nordique Pro, Normal';font-variant-ligatures:normal;font-variant-caps:normal;font-variant-numeric:normal;font-feature-settings:normal;text-align:start;writing-mode:lr-tb;text-anchor:start;fill:#2f2c49;fill-opacity:0.94117647;stroke-width:0.26458332"
                   y="291.30243"
                   x="40.647968"
                   id="tspan1393-6-4-0-1"
                   sodipodi:role="line">(804) 335-6042</tspan></text>
            </g>
          </g>
        </g>
      </g>
      <g
         transform="translate(3.1893373,2.7774541)"
         id="g1106">
        <text
           xml:space="preserve"
           style="font-style:normal;font-variant:normal;font-weight:bold;font-stretch:normal;font-size:4.76249981px;line-height:1.25;font-family:'Nordique Pro';-inkscape-font-specification:'Nordique Pro, Bold';font-variant-ligatures:normal;font-variant-caps:normal;font-variant-numeric:normal;font-feature-settings:normal;text-align:start;letter-spacing:0px;word-spacing:0px;writing-mode:lr-tb;text-anchor:start;fill:#2f2c49;fill-opacity:0.94117647;stroke:none;stroke-width:0.26458332"
           x="16.415903"
           y="289.25629"
           id="text885"><tspan
             sodipodi:role="line"
             id="tspan883"
             x="16.415903"
             y="289.25629"
             style="font-style:normal;font-variant:normal;font-weight:bold;font-stretch:normal;font-size:4.76249981px;font-family:'Nordique Pro';-inkscape-font-specification:'Nordique Pro, Bold';font-variant-ligatures:normal;font-variant-caps:normal;font-variant-numeric:normal;font-feature-settings:normal;text-align:start;writing-mode:lr-tb;text-anchor:start;fill:#2f2c49;fill-opacity:0.94117647;stroke-width:0.26458332">great for t-shirt quilts!</tspan></text>
        <g
           id="g1099">
          <path
             id="path2"
             d="m 10.398641,289.41894 c -0.148519,0 -0.291412,-0.0593 -0.39795,-0.16496 l -1.4117636,-1.41306 c -0.2195692,-0.2195 -0.2195692,-0.5754 0,-0.7954 0.2200019,-0.22 0.5758278,-0.22 0.7958299,0 l 0.9290567,0.9287 2.408408,-3.58099 c 0.173621,-0.25772 0.523244,-0.3261 0.781332,-0.15241 0.258015,0.17283 0.326035,0.52281 0.153568,0.7809 l -2.791355,4.14815 c -0.09428,0.13986 -0.245104,0.22981 -0.412522,0.24597 -0.01803,0.002 -0.03607,0.003 -0.0546,0.003"
             style="fill:#2f2c49;fill-opacity:0.94117647;stroke-width:0.07213177"
             inkscape:connector-curvature="0" />
          <path
             id="path4-7"
             d="m 12.375773,288.25777 v 1.66436 c 0,0.20782 -0.168067,0.37516 -0.375518,0.37516 H 8.2496196 c -0.2070185,0 -0.3755181,-0.16734 -0.3755181,-0.37516 v -3.75106 c 0,-0.20659 0.1684996,-0.37509 0.3755181,-0.37509 h 2.6114584 l 0.500451,-0.75031 H 8.2496196 c -0.6199007,0 -1.1254722,0.50557 -1.1254722,1.1254 v 3.75106 c 0,0.62063 0.5055715,1.1254 1.1254722,1.1254 h 3.7506354 c 0.620622,0 1.125472,-0.50477 1.125472,-1.1254 v -2.78984 z"
             style="fill:#2f2c49;fill-opacity:0.94117647;stroke-width:0.07213177"
             inkscape:connector-curvature="0" />
        </g>
      </g>
    </g>
  </g>
</svg>
