<?xml version="1.0" encoding="UTF-8" standalone="no"?>
<!-- Created with Inkscape (http://www.inkscape.org/) -->

<svg
   xmlns:dc="http://purl.org/dc/elements/1.1/"
   xmlns:cc="http://creativecommons.org/ns#"
   xmlns:rdf="http://www.w3.org/1999/02/22-rdf-syntax-ns#"
   xmlns:svg="http://www.w3.org/2000/svg"
   xmlns="http://www.w3.org/2000/svg"
   xmlns:sodipodi="http://sodipodi.sourceforge.net/DTD/sodipodi-0.dtd"
   xmlns:inkscape="http://www.inkscape.org/namespaces/inkscape"
   width="5.5in"
   height="4in"
   viewBox="0 0 139.7 101.6"
   version="1.1"
   id="svg8"
   inkscape:version="0.92.5 (2060ec1f9f, 2020-04-08)"
   sodipodi:docname="blank-note-card.svg">
  <defs
     id="defs2" />
  <sodipodi:namedview
     id="base"
     pagecolor="#ffffff"
     bordercolor="#666666"
     borderopacity="1.0"
     inkscape:pageopacity="0.0"
     inkscape:pageshadow="2"
     inkscape:zoom="0.98994949"
     inkscape:cx="263.56558"
     inkscape:cy="167.81333"
     inkscape:document-units="in"
     inkscape:current-layer="layer1"
     showgrid="true"
     inkscape:window-width="1920"
     inkscape:window-height="1016"
     inkscape:window-x="0"
     inkscape:window-y="27"
     inkscape:window-maximized="1"
     units="in"
     objecttolerance="20"
     gridtolerance="10000">
    <inkscape:grid
       type="xygrid"
       id="grid893"
       units="in"
       spacingx="6.35"
       spacingy="6.35"
       originx="3.175"
       originy="3.175" />
  </sodipodi:namedview>
  <metadata
     id="metadata5">
    <rdf:RDF>
      <cc:Work
         rdf:about="">
        <dc:format>image/svg+xml</dc:format>
        <dc:type
           rdf:resource="http://purl.org/dc/dcmitype/StillImage" />
        <dc:title></dc:title>
      </cc:Work>
    </rdf:RDF>
  </metadata>
  <g
     inkscape:label="Layer 1"
     inkscape:groupmode="layer"
     id="layer1"
     transform="translate(0,-195.4)">
    <rect
       style="opacity:1;fill:none;fill-opacity:1;stroke:#00ffff;stroke-width:0.13229166;stroke-linecap:round;stroke-linejoin:round;stroke-miterlimit:4;stroke-dasharray:none;stroke-dashoffset:0;stroke-opacity:1;paint-order:markers fill stroke"
       id="rect834"
       width="126.86771"
       height="88.767708"
       x="6.4161458"
       y="201.81613" />
    <g
       id="g40"
       transform="matrix(0.09998163,0,0,0.09998163,-2.5466153,247.35244)"
       style="stroke-width:2.77777767">
      <path
         id="path12"
         d="m 120.47,359.86 h 5.9 v 15.72 c 2.2,-2.62 5.42,-4.29 9.41,-4.29 8.46,0 15.37,6.85 15.37,15.37 0,8.52 -6.91,15.37 -15.37,15.37 -8.46,0 -15.31,-6.85 -15.31,-15.37 z m 5.78,26.8 c 0,5.42 4.11,9.71 9.53,9.71 5.48,0 9.53,-4.29 9.53,-9.71 0,-5.42 -4.11,-9.71 -9.53,-9.71 -5.37,0 -9.53,4.29 -9.53,9.71 z"
         inkscape:connector-curvature="0"
         style="stroke-width:2.77777767" />
      <path
         id="path14"
         d="m 184.25,386.66 c 0,8.52 -6.85,15.37 -15.37,15.37 -8.52,0 -15.37,-6.85 -15.37,-15.37 0,-8.52 6.85,-15.37 15.37,-15.37 8.52,0.01 15.37,6.85 15.37,15.37 z m -24.89,0 c 0,5.42 4.17,9.71 9.59,9.71 5.42,0 9.47,-4.29 9.47,-9.71 0,-5.42 -3.99,-9.71 -9.47,-9.71 -5.48,0 -9.59,4.29 -9.59,9.71 z"
         inkscape:connector-curvature="0"
         style="stroke-width:2.77777767" />
      <path
         id="path16"
         d="m 213.73,401.55 h -5.84 v -15.66 c 0,-6.07 -2.62,-8.93 -7.27,-8.93 -4.65,0 -7.27,2.86 -7.27,8.93 v 15.66 h -5.84 v -15.66 c 0,-10.01 5.48,-14.59 13.1,-14.59 7.62,0 13.1,4.59 13.1,14.59 v 15.66 z"
         inkscape:connector-curvature="0"
         style="stroke-width:2.77777767" />
      <path
         id="path18"
         d="m 232.78,386.66 c 0,-8.52 6.91,-15.37 15.37,-15.37 8.46,0 15.31,6.85 15.31,15.37 v 14.89 h -5.84 v -4.7 c -1.43,2.92 -5.24,5.18 -9.47,5.18 -8.46,0 -15.37,-6.85 -15.37,-15.37 z m 24.9,0 c 0,-5.42 -3.99,-9.71 -9.47,-9.71 -5.48,0 -9.59,4.29 -9.59,9.71 0,5.42 4.17,9.71 9.59,9.71 5.42,0 9.47,-4.29 9.47,-9.71 z"
         inkscape:connector-curvature="0"
         style="stroke-width:2.77777767" />
      <path
         id="path20"
         d="m 267.62,364.09 c 0,-2.03 1.55,-3.57 3.57,-3.57 1.97,0 3.51,1.55 3.51,3.57 0,2.02 -1.55,3.57 -3.51,3.57 -2.02,0 -3.57,-1.55 -3.57,-3.57 z m 0.65,7.68 h 5.84 v 29.78 h -5.84 z"
         inkscape:connector-curvature="0"
         style="stroke-width:2.77777767" />
      <path
         id="path22"
         d="m 279.47,386.01 c 0,-9.89 5.3,-14.35 12.51,-14.35 h 0.6 v 5.66 h -0.6 c -4.17,0 -6.67,2.68 -6.67,8.7 v 15.54 h -5.84 z"
         inkscape:connector-curvature="0"
         style="stroke-width:2.77777767" />
      <path
         id="path24"
         d="m 342.3,413.46 h -5.9 v -15.72 c -2.2,2.62 -5.42,4.29 -9.41,4.29 -8.46,0 -15.37,-6.85 -15.37,-15.37 0,-8.52 6.91,-15.37 15.37,-15.37 8.46,0 15.31,6.85 15.31,15.37 z m -5.78,-26.8 c 0,-5.42 -4.11,-9.71 -9.53,-9.71 -5.48,0 -9.53,4.29 -9.53,9.71 0,5.42 4.11,9.71 9.53,9.71 5.36,0 9.53,-4.29 9.53,-9.71 z"
         inkscape:connector-curvature="0"
         style="stroke-width:2.77777767" />
      <path
         id="path26"
         d="m 372.07,371.77 v 15.66 c 0,10.01 -5.48,14.59 -13.1,14.59 -7.62,0 -13.1,-4.59 -13.1,-14.59 v -15.66 h 5.84 v 15.66 c 0,6.07 2.62,8.93 7.27,8.93 4.65,0 7.27,-2.86 7.27,-8.93 v -15.66 z"
         inkscape:connector-curvature="0"
         style="stroke-width:2.77777767" />
      <path
         id="path28"
         d="m 376.24,364.09 c 0,-2.03 1.55,-3.57 3.57,-3.57 1.97,0 3.51,1.55 3.51,3.57 0,2.02 -1.55,3.57 -3.51,3.57 -2.02,0 -3.57,-1.55 -3.57,-3.57 z m 0.65,7.68 h 5.84 v 29.78 h -5.84 z"
         inkscape:connector-curvature="0"
         style="stroke-width:2.77777767" />
      <path
         id="path30"
         d="m 388.09,401.55 v -41.69 h 5.84 v 41.69 z"
         inkscape:connector-curvature="0"
         style="stroke-width:2.77777767" />
      <path
         id="path32"
         d="m 406.31,377.43 v 10.01 c 0,5.66 2.2,8.28 6.43,8.64 v 5.66 c -7.15,-0.3 -12.21,-4.65 -12.27,-14.23 v -10.07 h -4.41 v -5.66 h 4.41 v -10.66 h 5.84 v 10.66 h 6.43 v 5.66 h -6.43 z"
         inkscape:connector-curvature="0"
         style="stroke-width:2.77777767" />
      <path
         id="path34"
         d="m 430.61,386.66 c 0,-8.52 6.85,-15.37 15.37,-15.37 6.55,0 12.09,4.11 14.18,9.83 h -6.25 c -1.67,-2.5 -4.47,-4.17 -7.86,-4.17 -5.48,0 -9.59,4.29 -9.59,9.71 0,5.42 4.17,9.71 9.59,9.71 3.34,0 6.07,-1.61 7.74,-4.05 h 6.37 c -2.14,5.72 -7.68,9.71 -14.18,9.71 -8.52,0 -15.37,-6.85 -15.37,-15.37 z"
         inkscape:connector-curvature="0"
         style="stroke-width:2.77777767" />
      <path
         id="path36"
         d="m 493.91,386.66 c 0,8.52 -6.85,15.37 -15.37,15.37 -8.52,0 -15.37,-6.85 -15.37,-15.37 0,-8.52 6.85,-15.37 15.37,-15.37 8.52,0.01 15.37,6.85 15.37,15.37 z m -24.89,0 c 0,5.42 4.17,9.71 9.59,9.71 5.42,0 9.47,-4.29 9.47,-9.71 0,-5.42 -3.99,-9.71 -9.47,-9.71 -5.48,0 -9.59,4.29 -9.59,9.71 z"
         inkscape:connector-curvature="0"
         style="stroke-width:2.77777767" />
      <path
         id="path38"
         d="m 495.7,394.28 h 5.84 v 7.27 h -5.84 z"
         inkscape:connector-curvature="0"
         style="stroke-width:2.77777767" />
    </g>
    <g
       id="g44"
       transform="matrix(0.06801264,0,0,0.06801264,96.581517,200.64323)"
       style="stroke-width:4.08345795">
      <path
         id="path42"
         d="m 394.58,137.9 c -37.54,0 -70.37,20.79 -87.38,51.62 -17.01,-30.82 -49.85,-51.62 -87.38,-51.62 -32.08,0 -59.14,17.01 -74.61,41.36 V 63.68 h -24.74 v 173.95 c 0,55.28 44.45,99.73 99.35,99.73 37.54,0 70.37,-20.79 87.38,-51.62 17.01,30.82 49.84,51.62 87.38,51.62 32.86,0 61.85,-18.94 74.61,-44.45 v 41.36 h 24.74 v -96.64 c 0,-55.27 -44.46,-99.73 -99.35,-99.73 z M 219.82,313.79 c -42.91,0 -74.99,-33.63 -74.99,-76.15 0,-42.52 32.86,-76.15 74.99,-76.15 41.75,0 74.99,33.63 74.99,76.15 0,42.52 -32.47,76.15 -74.99,76.15 z m 175.15,0 c -41.75,0 -75.38,-33.63 -75.38,-76.15 0,-42.52 32.86,-76.15 75.38,-76.15 42.52,0 74.61,33.63 74.61,76.15 0,42.52 -32.86,76.15 -74.61,76.15 z"
         inkscape:connector-curvature="0"
         style="stroke-width:4.08345795" />
    </g>
    <g
       id="g910"
       transform="translate(0.0368844,-3.234227)">
      <text
         id="text897"
         y="242.15187"
         x="50.799889"
         style="font-style:italic;font-variant:normal;font-weight:500;font-stretch:normal;font-size:26.45833397px;line-height:1.25;font-family:Z003;-inkscape-font-specification:'Z003, Medium Italic';font-variant-ligatures:normal;font-variant-caps:normal;font-variant-numeric:normal;font-feature-settings:normal;text-align:center;letter-spacing:0px;word-spacing:0px;writing-mode:lr-tb;text-anchor:middle;fill:#cccccc;fill-opacity:1;stroke:none;stroke-width:0.26458332"
         xml:space="preserve"><tspan
           style="font-style:italic;font-variant:normal;font-weight:500;font-stretch:normal;font-size:26.45833397px;font-family:Z003;-inkscape-font-specification:'Z003, Medium Italic';font-variant-ligatures:normal;font-variant-caps:normal;font-variant-numeric:normal;font-feature-settings:normal;text-align:center;writing-mode:lr-tb;text-anchor:middle;fill:#cccccc;stroke-width:0.26458332"
           y="242.15187"
           x="50.799889"
           id="tspan895"
           sodipodi:role="line">Thank</tspan><tspan
           id="tspan899"
           style="font-style:italic;font-variant:normal;font-weight:500;font-stretch:normal;font-size:26.45833397px;font-family:Z003;-inkscape-font-specification:'Z003, Medium Italic';font-variant-ligatures:normal;font-variant-caps:normal;font-variant-numeric:normal;font-feature-settings:normal;text-align:center;writing-mode:lr-tb;text-anchor:middle;fill:#cccccc;stroke-width:0.26458332"
           y="275.22479"
           x="50.799889"
           sodipodi:role="line" /></text>
      <text
         id="text903"
         y="270.63367"
         x="71.919411"
         style="font-style:normal;font-weight:normal;font-size:10.58333302px;line-height:1.25;font-family:sans-serif;letter-spacing:0px;word-spacing:0px;fill:#cccccc;fill-opacity:1;stroke:none;stroke-width:0.26458332"
         xml:space="preserve"><tspan
           style="font-style:italic;font-variant:normal;font-weight:500;font-stretch:normal;font-size:26.45833397px;font-family:Z003;-inkscape-font-specification:'Z003, Medium Italic';font-variant-ligatures:normal;font-variant-caps:normal;font-variant-numeric:normal;font-feature-settings:normal;text-align:start;writing-mode:lr-tb;text-anchor:start;fill:#cccccc;stroke-width:0.26458332"
           y="270.63367"
           x="71.919411"
           id="tspan901"
           sodipodi:role="line">You!</tspan></text>
    </g>
  </g>
</svg>
