<?xml version="1.0" encoding="UTF-8" standalone="no"?>
<!-- Created with Inkscape (http://www.inkscape.org/) -->

<svg
   xmlns:dc="http://purl.org/dc/elements/1.1/"
   xmlns:cc="http://creativecommons.org/ns#"
   xmlns:rdf="http://www.w3.org/1999/02/22-rdf-syntax-ns#"
   xmlns:svg="http://www.w3.org/2000/svg"
   xmlns="http://www.w3.org/2000/svg"
   xmlns:sodipodi="http://sodipodi.sourceforge.net/DTD/sodipodi-0.dtd"
   xmlns:inkscape="http://www.inkscape.org/namespaces/inkscape"
   width="5.5in"
   height="4in"
   viewBox="0 0 139.7 101.6"
   version="1.1"
   id="svg8"
   inkscape:version="0.92.5 (2060ec1f9f, 2020-04-08)"
   sodipodi:docname="thank-you-5.5x4.0-outlines.svg">
  <defs
     id="defs2" />
  <sodipodi:namedview
     id="base"
     pagecolor="#ffffff"
     bordercolor="#666666"
     borderopacity="1.0"
     inkscape:pageopacity="0.0"
     inkscape:pageshadow="2"
     inkscape:zoom="0.98994949"
     inkscape:cx="263.56558"
     inkscape:cy="167.81333"
     inkscape:document-units="in"
     inkscape:current-layer="layer1"
     showgrid="true"
     inkscape:window-width="1920"
     inkscape:window-height="1016"
     inkscape:window-x="0"
     inkscape:window-y="27"
     inkscape:window-maximized="1"
     units="in"
     objecttolerance="20"
     gridtolerance="10000">
    <inkscape:grid
       type="xygrid"
       id="grid893"
       units="in"
       spacingx="6.35"
       spacingy="6.35"
       originx="3.175"
       originy="3.175" />
  </sodipodi:namedview>
  <metadata
     id="metadata5">
    <rdf:RDF>
      <cc:Work
         rdf:about="">
        <dc:format>image/svg+xml</dc:format>
        <dc:type
           rdf:resource="http://purl.org/dc/dcmitype/StillImage" />
        <dc:title></dc:title>
      </cc:Work>
    </rdf:RDF>
  </metadata>
  <g
     inkscape:label="Layer 1"
     inkscape:groupmode="layer"
     id="layer1"
     transform="translate(0,-195.4)">
    <g
       id="g980">
      <g
         style="stroke-width:2.77777767"
         transform="matrix(0.09998163,0,0,0.09998163,-2.5466153,247.35244)"
         id="g40">
        <path
           style="stroke-width:2.77777767"
           inkscape:connector-curvature="0"
           d="m 120.47,359.86 h 5.9 v 15.72 c 2.2,-2.62 5.42,-4.29 9.41,-4.29 8.46,0 15.37,6.85 15.37,15.37 0,8.52 -6.91,15.37 -15.37,15.37 -8.46,0 -15.31,-6.85 -15.31,-15.37 z m 5.78,26.8 c 0,5.42 4.11,9.71 9.53,9.71 5.48,0 9.53,-4.29 9.53,-9.71 0,-5.42 -4.11,-9.71 -9.53,-9.71 -5.37,0 -9.53,4.29 -9.53,9.71 z"
           id="path12" />
        <path
           style="stroke-width:2.77777767"
           inkscape:connector-curvature="0"
           d="m 184.25,386.66 c 0,8.52 -6.85,15.37 -15.37,15.37 -8.52,0 -15.37,-6.85 -15.37,-15.37 0,-8.52 6.85,-15.37 15.37,-15.37 8.52,0.01 15.37,6.85 15.37,15.37 z m -24.89,0 c 0,5.42 4.17,9.71 9.59,9.71 5.42,0 9.47,-4.29 9.47,-9.71 0,-5.42 -3.99,-9.71 -9.47,-9.71 -5.48,0 -9.59,4.29 -9.59,9.71 z"
           id="path14" />
        <path
           style="stroke-width:2.77777767"
           inkscape:connector-curvature="0"
           d="m 213.73,401.55 h -5.84 v -15.66 c 0,-6.07 -2.62,-8.93 -7.27,-8.93 -4.65,0 -7.27,2.86 -7.27,8.93 v 15.66 h -5.84 v -15.66 c 0,-10.01 5.48,-14.59 13.1,-14.59 7.62,0 13.1,4.59 13.1,14.59 v 15.66 z"
           id="path16" />
        <path
           style="stroke-width:2.77777767"
           inkscape:connector-curvature="0"
           d="m 232.78,386.66 c 0,-8.52 6.91,-15.37 15.37,-15.37 8.46,0 15.31,6.85 15.31,15.37 v 14.89 h -5.84 v -4.7 c -1.43,2.92 -5.24,5.18 -9.47,5.18 -8.46,0 -15.37,-6.85 -15.37,-15.37 z m 24.9,0 c 0,-5.42 -3.99,-9.71 -9.47,-9.71 -5.48,0 -9.59,4.29 -9.59,9.71 0,5.42 4.17,9.71 9.59,9.71 5.42,0 9.47,-4.29 9.47,-9.71 z"
           id="path18" />
        <path
           style="stroke-width:2.77777767"
           inkscape:connector-curvature="0"
           d="m 267.62,364.09 c 0,-2.03 1.55,-3.57 3.57,-3.57 1.97,0 3.51,1.55 3.51,3.57 0,2.02 -1.55,3.57 -3.51,3.57 -2.02,0 -3.57,-1.55 -3.57,-3.57 z m 0.65,7.68 h 5.84 v 29.78 h -5.84 z"
           id="path20" />
        <path
           style="stroke-width:2.77777767"
           inkscape:connector-curvature="0"
           d="m 279.47,386.01 c 0,-9.89 5.3,-14.35 12.51,-14.35 h 0.6 v 5.66 h -0.6 c -4.17,0 -6.67,2.68 -6.67,8.7 v 15.54 h -5.84 z"
           id="path22" />
        <path
           style="stroke-width:2.77777767"
           inkscape:connector-curvature="0"
           d="m 342.3,413.46 h -5.9 v -15.72 c -2.2,2.62 -5.42,4.29 -9.41,4.29 -8.46,0 -15.37,-6.85 -15.37,-15.37 0,-8.52 6.91,-15.37 15.37,-15.37 8.46,0 15.31,6.85 15.31,15.37 z m -5.78,-26.8 c 0,-5.42 -4.11,-9.71 -9.53,-9.71 -5.48,0 -9.53,4.29 -9.53,9.71 0,5.42 4.11,9.71 9.53,9.71 5.36,0 9.53,-4.29 9.53,-9.71 z"
           id="path24" />
        <path
           style="stroke-width:2.77777767"
           inkscape:connector-curvature="0"
           d="m 372.07,371.77 v 15.66 c 0,10.01 -5.48,14.59 -13.1,14.59 -7.62,0 -13.1,-4.59 -13.1,-14.59 v -15.66 h 5.84 v 15.66 c 0,6.07 2.62,8.93 7.27,8.93 4.65,0 7.27,-2.86 7.27,-8.93 v -15.66 z"
           id="path26" />
        <path
           style="stroke-width:2.77777767"
           inkscape:connector-curvature="0"
           d="m 376.24,364.09 c 0,-2.03 1.55,-3.57 3.57,-3.57 1.97,0 3.51,1.55 3.51,3.57 0,2.02 -1.55,3.57 -3.51,3.57 -2.02,0 -3.57,-1.55 -3.57,-3.57 z m 0.65,7.68 h 5.84 v 29.78 h -5.84 z"
           id="path28" />
        <path
           style="stroke-width:2.77777767"
           inkscape:connector-curvature="0"
           d="m 388.09,401.55 v -41.69 h 5.84 v 41.69 z"
           id="path30" />
        <path
           style="stroke-width:2.77777767"
           inkscape:connector-curvature="0"
           d="m 406.31,377.43 v 10.01 c 0,5.66 2.2,8.28 6.43,8.64 v 5.66 c -7.15,-0.3 -12.21,-4.65 -12.27,-14.23 v -10.07 h -4.41 v -5.66 h 4.41 v -10.66 h 5.84 v 10.66 h 6.43 v 5.66 h -6.43 z"
           id="path32" />
        <path
           style="stroke-width:2.77777767"
           inkscape:connector-curvature="0"
           d="m 430.61,386.66 c 0,-8.52 6.85,-15.37 15.37,-15.37 6.55,0 12.09,4.11 14.18,9.83 h -6.25 c -1.67,-2.5 -4.47,-4.17 -7.86,-4.17 -5.48,0 -9.59,4.29 -9.59,9.71 0,5.42 4.17,9.71 9.59,9.71 3.34,0 6.07,-1.61 7.74,-4.05 h 6.37 c -2.14,5.72 -7.68,9.71 -14.18,9.71 -8.52,0 -15.37,-6.85 -15.37,-15.37 z"
           id="path34" />
        <path
           style="stroke-width:2.77777767"
           inkscape:connector-curvature="0"
           d="m 493.91,386.66 c 0,8.52 -6.85,15.37 -15.37,15.37 -8.52,0 -15.37,-6.85 -15.37,-15.37 0,-8.52 6.85,-15.37 15.37,-15.37 8.52,0.01 15.37,6.85 15.37,15.37 z m -24.89,0 c 0,5.42 4.17,9.71 9.59,9.71 5.42,0 9.47,-4.29 9.47,-9.71 0,-5.42 -3.99,-9.71 -9.47,-9.71 -5.48,0 -9.59,4.29 -9.59,9.71 z"
           id="path36" />
        <path
           style="stroke-width:2.77777767"
           inkscape:connector-curvature="0"
           d="m 495.7,394.28 h 5.84 v 7.27 h -5.84 z"
           id="path38" />
      </g>
      <g
         style="stroke-width:4.08345795"
         transform="matrix(0.06801264,0,0,0.06801264,96.581517,200.64323)"
         id="g44">
        <path
           style="stroke-width:4.08345795"
           inkscape:connector-curvature="0"
           d="m 394.58,137.9 c -37.54,0 -70.37,20.79 -87.38,51.62 -17.01,-30.82 -49.85,-51.62 -87.38,-51.62 -32.08,0 -59.14,17.01 -74.61,41.36 V 63.68 h -24.74 v 173.95 c 0,55.28 44.45,99.73 99.35,99.73 37.54,0 70.37,-20.79 87.38,-51.62 17.01,30.82 49.84,51.62 87.38,51.62 32.86,0 61.85,-18.94 74.61,-44.45 v 41.36 h 24.74 v -96.64 c 0,-55.27 -44.46,-99.73 -99.35,-99.73 z M 219.82,313.79 c -42.91,0 -74.99,-33.63 -74.99,-76.15 0,-42.52 32.86,-76.15 74.99,-76.15 41.75,0 74.99,33.63 74.99,76.15 0,42.52 -32.47,76.15 -74.99,76.15 z m 175.15,0 c -41.75,0 -75.38,-33.63 -75.38,-76.15 0,-42.52 32.86,-76.15 75.38,-76.15 42.52,0 74.61,33.63 74.61,76.15 0,42.52 -32.86,76.15 -74.61,76.15 z"
           id="path42" />
      </g>
      <g
         transform="translate(0.0368844,-3.234227)"
         id="g910">
        <g
           id="text897"
           style="font-style:italic;font-variant:normal;font-weight:500;font-stretch:normal;font-size:26.45833397px;line-height:1.25;font-family:Z003;-inkscape-font-specification:'Z003, Medium Italic';font-variant-ligatures:normal;font-variant-caps:normal;font-variant-numeric:normal;font-feature-settings:normal;text-align:center;letter-spacing:0px;word-spacing:0px;writing-mode:lr-tb;text-anchor:middle;fill:#cccccc;fill-opacity:1;stroke:none;stroke-width:0.26458332"
           aria-label="Thank
">
          <path
             id="path931"
             style="font-style:italic;font-variant:normal;font-weight:500;font-stretch:normal;font-size:26.45833397px;font-family:Z003;-inkscape-font-specification:'Z003, Medium Italic';font-variant-ligatures:normal;font-variant-caps:normal;font-variant-numeric:normal;font-feature-settings:normal;text-align:center;writing-mode:lr-tb;text-anchor:middle;fill:#cccccc;stroke-width:0.26458332"
             d="m 24.923751,242.15187 c 6.376459,0 6.773334,-0.0529 8.916459,-1.24354 l 0.05292,-0.21167 c -1.190625,0.15875 -2.831041,0.26459 -4.28625,0.26459 -0.211666,0 -0.661458,-0.0265 -1.217083,-0.0529 2.037292,-1.71979 2.69875,-2.67229 3.148542,-4.68313 l 2.06375,-8.28145 c 3.439583,0.29104 3.466042,0.29104 4.021667,0.29104 1.243541,0 1.42875,-0.26459 2.06375,-2.8575 l -0.343959,-0.39688 c -1.084791,1.85209 -1.217083,1.98438 -2.169583,1.98438 -0.264583,0 -0.846667,-0.0265 -1.666875,-0.0529 -3.862917,-0.18521 -4.28625,-0.21167 -5.212292,-0.21167 -4.630208,0 -8.069792,2.51355 -8.069792,5.90021 0,0.87313 0.185209,1.5875 0.661459,2.51354 l 1.984375,-1.29645 c -0.502709,-1.27 -0.608542,-1.69334 -0.608542,-2.43417 0,-1.50813 0.687917,-2.61938 1.984375,-3.22792 0.687917,-0.3175 1.5875,-0.44979 3.069167,-0.44979 0.582083,0 0.687916,0 2.38125,0.13229 l -2.143125,8.62542 c -0.9525,3.88937 -1.455209,4.55083 -3.704167,4.65667 z" />
          <path
             id="path933"
             style="font-style:italic;font-variant:normal;font-weight:500;font-stretch:normal;font-size:26.45833397px;font-family:Z003;-inkscape-font-specification:'Z003, Medium Italic';font-variant-ligatures:normal;font-variant-caps:normal;font-variant-numeric:normal;font-feature-settings:normal;text-align:center;writing-mode:lr-tb;text-anchor:middle;fill:#cccccc;stroke-width:0.26458332"
             d="m 36.327212,242.39 1.878542,-0.7673 1.561041,-6.16479 c 0.264584,-0.18521 0.502709,-0.3175 0.635,-0.39687 0.687917,-0.44979 1.164167,-0.74084 1.27,-0.79375 1.74625,-0.9525 1.74625,-0.9525 1.984375,-0.9525 0.15875,0 0.291042,0.15875 0.291042,0.39687 0,0.37042 -0.105833,0.87313 -0.47625,2.27542 -0.767292,2.98979 -1.137708,4.70958 -1.137708,5.42396 0,0.34396 0.105833,0.635 0.396875,1.13771 1.455208,-0.74084 3.386667,-1.95792 4.815417,-3.01625 l 0.185208,-0.7673 c -2.196042,1.29646 -2.619375,1.50813 -2.963334,1.50813 -0.238125,0 -0.396875,-0.26458 -0.396875,-0.68792 0,-0.71437 0.132292,-1.24354 1.190625,-5.13291 0.687917,-2.56646 0.687917,-2.56646 0.687917,-2.72521 0,-0.26459 -0.211666,-0.44979 -0.555625,-0.44979 -0.582083,0 -2.301875,0.9525 -5.688542,3.14854 l 0.899584,-3.54542 c 0.635,-2.59292 0.899583,-3.41312 1.243541,-4.07458 0.370417,-0.74084 0.926042,-1.08479 1.640417,-1.08479 0.343958,0 0.555625,0.0265 1.5875,0.23812 l 1.137709,-1.61396 c -0.47625,-0.10583 -0.687917,-0.13229 -1.111251,-0.13229 -1.42875,0 -2.196041,0.39688 -4.1275,2.09021 -1.375833,1.21708 -1.5875,1.66687 -2.407708,5.15937 z" />
          <path
             id="path935"
             style="font-style:italic;font-variant:normal;font-weight:500;font-stretch:normal;font-size:26.45833397px;font-family:Z003;-inkscape-font-specification:'Z003, Medium Italic';font-variant-ligatures:normal;font-variant-caps:normal;font-variant-numeric:normal;font-feature-settings:normal;text-align:center;writing-mode:lr-tb;text-anchor:middle;fill:#cccccc;stroke-width:0.26458332"
             d="m 59.001966,238.68583 c -1.931458,1.32292 -2.38125,1.5875 -2.645833,1.5875 -0.185208,0 -0.3175,-0.21167 -0.3175,-0.52917 0,-0.71437 0.608542,-3.4925 1.5875,-7.11729 0.291042,-0.42333 0.343958,-0.47625 0.767292,-0.9525 -1.27,-0.29104 -2.169584,-0.39687 -3.33375,-0.39687 -1.084792,0 -1.613959,0.10583 -2.275417,0.52916 -0.9525,0.55563 -2.06375,1.37584 -2.407708,1.74625 -1.005417,1.11125 -2.090209,4.68313 -2.090209,6.82625 0,1.27 0.423334,2.11667 1.084792,2.11667 0.582083,0 1.455208,-0.52917 4.7625,-2.91042 -0.291042,1.34938 -0.396875,2.01084 -0.396875,2.35479 0,0.37042 0.15875,0.55563 0.423333,0.55563 0.343959,0 0.555625,-0.10583 2.434167,-1.34938 0.899583,-0.60854 1.402292,-0.9525 2.38125,-1.66687 z M 54.3453,238.50062 c -0.926042,0.68792 -1.402292,1.03188 -1.42875,1.05833 -0.873125,0.55563 -1.561042,0.89959 -1.905,0.89959 -0.449792,0 -0.687917,-0.47625 -0.687917,-1.32292 0,-1.34937 0.396875,-3.09562 1.084792,-4.63021 0.635,-1.45521 1.217083,-2.01083 2.116666,-2.01083 0.47625,0 1.375834,0.13229 2.248959,0.34396 -0.529167,1.905 -0.714375,2.61937 -0.740834,2.75166 -0.15875,0.66146 -0.291041,1.32292 -0.449791,2.01084 -0.02646,0.13229 -0.105834,0.44979 -0.238125,0.89958 z" />
          <path
             id="path937"
             style="font-style:italic;font-variant:normal;font-weight:500;font-stretch:normal;font-size:26.45833397px;font-family:Z003;-inkscape-font-specification:'Z003, Medium Italic';font-variant-ligatures:normal;font-variant-caps:normal;font-variant-numeric:normal;font-feature-settings:normal;text-align:center;writing-mode:lr-tb;text-anchor:middle;fill:#cccccc;stroke-width:0.26458332"
             d="m 61.436086,241.64916 1.561042,-6.21771 0.661458,-0.42333 c 2.460625,-1.53458 2.751667,-1.69333 3.122084,-1.69333 0.15875,0 0.264583,0.13229 0.264583,0.34396 0,0.42333 -0.185208,1.19062 -0.978958,4.41854 -0.582084,2.32833 -0.687917,2.80458 -0.687917,3.30729 0,0.37042 0.105833,0.68792 0.396875,1.19062 1.190625,-0.52916 3.042709,-1.69333 4.894792,-3.06916 l 0.185208,-0.74084 c -2.566458,1.48167 -2.751667,1.56105 -3.01625,1.56105 -0.264583,0 -0.423333,-0.26459 -0.423333,-0.71438 0,-0.71437 0.105833,-1.16417 1.27,-5.37104 0.661458,-2.35479 0.661458,-2.35479 0.661458,-2.51354 0,-0.29104 -0.185208,-0.44979 -0.502708,-0.44979 -0.582083,0 -0.661458,0.0529 -3.518959,1.79916 -1.058333,0.66146 -1.74625,1.08479 -2.06375,1.29646 0.264584,-0.92604 0.635,-2.54 0.635,-2.75167 0,-0.21166 -0.132291,-0.34395 -0.343958,-0.34395 -0.291042,0 -2.090208,0.92604 -4.153958,2.14312 l -0.15875,0.68792 c 1.693333,-0.76729 1.799166,-0.79375 2.037291,-0.79375 0.185209,0 0.3175,0.15875 0.3175,0.37041 0,0.58209 -0.47625,2.69875 -1.164166,5.15938 l -0.608542,2.14312 c -0.05292,0.18521 -0.185208,0.68792 -0.370417,1.42875 z" />
          <path
             id="path939"
             style="font-style:italic;font-variant:normal;font-weight:500;font-stretch:normal;font-size:26.45833397px;font-family:Z003;-inkscape-font-specification:'Z003, Medium Italic';font-variant-ligatures:normal;font-variant-caps:normal;font-variant-numeric:normal;font-feature-settings:normal;text-align:center;writing-mode:lr-tb;text-anchor:middle;fill:#cccccc;stroke-width:0.26458332"
             d="m 71.569602,242.44291 c 0.291041,-0.10583 0.555625,-0.21166 0.635,-0.23812 0.15875,-0.0529 0.423333,-0.13229 0.714375,-0.23813 0.07937,-0.0265 0.3175,-0.10583 0.582083,-0.18521 l 1.031875,-4.70958 0.608542,-0.37042 c 0.529166,1.21709 0.635,1.45521 1.481666,3.43959 1.137709,2.69875 1.825625,3.78354 2.910417,4.63021 1.137708,0.87312 2.778125,1.42875 4.180417,1.42875 1.217083,0 2.06375,-0.26459 2.883958,-0.92605 l -0.529166,-1.905 c -0.846667,1.42875 -1.613959,1.98438 -2.725209,1.98438 -0.873125,0 -1.5875,-0.42333 -2.407708,-1.40229 -0.714375,-0.84667 -0.714375,-0.84667 -3.545417,-6.85271 l -0.767292,-1.64042 1.772709,-1.61396 c 1.058333,-0.92604 1.349375,-1.11125 1.852083,-1.11125 0.449792,0 0.767292,0.21167 1.190625,0.7673 l 1.349375,-2.01084 C 82.258768,231.09229 81.888352,230.96 81.306268,230.96 c -0.714375,0 -1.164166,0.23812 -1.957916,0.97895 -0.820209,0.79375 -0.846667,0.82021 -1.137709,1.0848 l -3.413125,3.0427 1.005417,-4.04812 c 0.846667,-3.4925 1.137708,-4.33917 1.5875,-5.08 0.47625,-0.76729 1.164167,-1.13771 2.06375,-1.13771 0.238125,0 0.449792,0.0265 0.926042,0.10583 l 1.058333,-1.53458 c -0.343958,-0.0529 -0.502708,-0.0794 -0.767292,-0.0794 -0.9525,0 -1.561041,0.21166 -2.407708,0.8202 -1.693333,1.19063 -2.883958,2.3548 -3.227917,3.12209 -0.264583,0.58208 -0.767291,2.32833 -1.11125,3.86291 z" />
        </g>
        <g
           id="text903"
           style="font-style:normal;font-weight:normal;font-size:10.58333302px;line-height:1.25;font-family:sans-serif;letter-spacing:0px;word-spacing:0px;fill:#cccccc;fill-opacity:1;stroke:none;stroke-width:0.26458332"
           aria-label="You!">
          <path
             id="path942"
             style="font-style:italic;font-variant:normal;font-weight:500;font-stretch:normal;font-size:26.45833397px;font-family:Z003;-inkscape-font-specification:'Z003, Medium Italic';font-variant-ligatures:normal;font-variant-caps:normal;font-variant-numeric:normal;font-feature-settings:normal;text-align:start;writing-mode:lr-tb;text-anchor:start;fill:#cccccc;stroke-width:0.26458332"
             d="m 72.739619,274.60242 c 0.529167,0.0529 0.687917,0.0529 1.217083,0.0529 2.434167,0 3.598334,-0.23812 4.709584,-0.97895 1.296458,-0.84667 2.725208,-3.09563 5.371042,-8.3873 2.751666,-5.52979 3.069166,-6.13833 3.783541,-7.1702 0.79375,-1.11126 1.402292,-1.53459 2.2225,-1.53459 0.423334,0 0.714375,0.0794 1.322917,0.3175 l 0.740834,-1.93146 c -0.396875,-0.34396 -0.608542,-0.42333 -1.058334,-0.42333 -2.116667,0 -3.730625,2.09021 -7.223125,9.39271 0.211667,-1.40229 0.291042,-2.06375 0.291042,-2.91042 0,-3.46604 -1.402292,-5.63562 -3.65125,-5.63562 -3.201459,0 -6.746876,3.33375 -6.746876,6.35 0,0.79375 0.185209,1.5875 0.555625,2.40771 l 2.010834,-1.27 c -0.423334,-1.27 -0.529167,-1.85209 -0.529167,-2.6723 0,-1.85208 1.27,-3.30729 2.883959,-3.30729 2.354791,0 3.81,2.67229 3.81,6.985 0,1.34938 -0.15875,2.38125 -0.502709,3.36021 -0.502708,1.34938 -1.11125,2.56646 -1.825625,3.57188 -0.978958,1.40229 -2.2225,1.93145 -4.524375,1.93145 -0.449792,0 -0.873125,-0.0265 -1.931458,-0.10583 z" />
          <path
             id="path944"
             style="font-style:italic;font-variant:normal;font-weight:500;font-stretch:normal;font-size:26.45833397px;font-family:Z003;-inkscape-font-specification:'Z003, Medium Italic';font-variant-ligatures:normal;font-variant-caps:normal;font-variant-numeric:normal;font-feature-settings:normal;text-align:start;writing-mode:lr-tb;text-anchor:start;fill:#cccccc;stroke-width:0.26458332"
             d="m 94.964597,259.75929 c -1.058334,0 -2.751667,0.76729 -4.312709,1.93146 -1.693333,1.27 -2.883958,4.02167 -2.883958,6.6675 0,1.5875 0.899583,2.61938 2.301875,2.61938 0.740833,0 1.508125,-0.26459 2.69875,-0.89959 1.322917,-0.74083 2.196042,-1.40229 2.672292,-2.01083 1.058333,-1.45521 1.905,-4.04813 1.905,-5.87375 0,-1.42875 -0.978958,-2.43417 -2.38125,-2.43417 z m -1.375834,1.24354 c 1.058334,0 1.719792,1.00542 1.719792,2.61938 0,1.13771 -0.370417,2.48708 -1.005417,3.78354 -0.767291,1.50813 -1.719791,2.32833 -2.725208,2.32833 -1.084792,0 -1.772708,-0.97895 -1.772708,-2.48708 0,-3.06917 1.931458,-6.24417 3.783541,-6.24417 z" />
          <path
             id="path946"
             style="font-style:italic;font-variant:normal;font-weight:500;font-stretch:normal;font-size:26.45833397px;font-family:Z003;-inkscape-font-specification:'Z003, Medium Italic';font-variant-ligatures:normal;font-variant-caps:normal;font-variant-numeric:normal;font-feature-settings:normal;text-align:start;writing-mode:lr-tb;text-anchor:start;fill:#cccccc;stroke-width:0.26458332"
             d="m 104.78063,267.14117 c -2.01084,1.37583 -2.93688,1.93146 -3.28084,1.93146 -0.29104,0 -0.5027,-0.37042 -0.5027,-0.87313 0,-0.60854 0.21166,-1.66687 0.66145,-3.36021 0.26459,-1.00541 0.52917,-2.01083 0.55563,-2.16958 0.23812,-1.00542 0.42333,-1.66688 0.47625,-1.85208 0.0794,-0.29105 0.13229,-0.55563 0.13229,-0.71438 0,-0.21167 -0.13229,-0.34396 -0.3175,-0.34396 -0.26458,0 -2.16958,1.03188 -4.101041,2.2225 l -0.185208,0.71438 c 1.137708,-0.58209 1.613958,-0.76729 1.931459,-0.76729 0.21167,0 0.37042,0.1852 0.37042,0.5027 0,0.37042 -0.23813,1.4023 -0.740837,3.28084 -0.661459,2.48708 -0.820209,3.20146 -0.820209,3.96875 0,0.74083 0.3175,1.29646 0.740834,1.29646 0.396872,0 0.846662,-0.23813 2.196042,-1.11125 2.06375,-1.32292 2.06375,-1.32292 2.72521,-1.77271 -0.23813,0.89958 -0.37042,1.79916 -0.37042,2.27541 0,0.37042 0.18521,0.60855 0.47625,0.60855 0.52917,0 3.01625,-1.45521 4.84188,-2.83105 l 0.1852,-0.79375 c -1.87854,1.11125 -2.75166,1.5875 -3.0427,1.5875 -0.18521,0 -0.29105,-0.1852 -0.29105,-0.635 0,-1.34937 0.9525,-5.2652 2.11667,-8.65187 -0.34396,0.18521 -0.58208,0.3175 -0.68792,0.37042 -0.3175,0.15875 -0.635,0.3175 -0.97895,0.44979 -0.0794,0.0529 -0.23813,0.13229 -0.52917,0.29104 -0.18521,0.66146 -0.60854,2.43417 -1.29646,5.31812 z" />
          <path
             id="path948"
             style="font-style:italic;font-variant:normal;font-weight:500;font-stretch:normal;font-size:26.45833397px;font-family:Z003;-inkscape-font-specification:'Z003, Medium Italic';font-variant-ligatures:normal;font-variant-caps:normal;font-variant-numeric:normal;font-feature-settings:normal;text-align:start;writing-mode:lr-tb;text-anchor:start;fill:#cccccc;stroke-width:0.26458332"
             d="m 111.10415,268.8345 c 0.23812,0.60854 0.74083,1.42875 1.24354,2.03729 0.97896,-0.71437 1.21708,-0.89958 1.95791,-1.66687 -0.47625,-0.68792 -0.89958,-1.34938 -1.24354,-1.95792 -0.87312,0.71438 -1.53458,1.24354 -1.95791,1.5875 z m 1.37583,-2.32833 c 0.55562,-0.3175 0.58208,-0.3175 1.45521,-0.87313 l 0.52916,-1.56104 c 0.26459,-0.76729 0.50271,-1.53458 0.74084,-2.30187 1.5875,-4.84188 1.5875,-4.84188 2.19604,-6.66751 -0.23812,0.10584 -0.47625,0.21167 -0.71437,0.34396 -0.3175,0.13229 -0.63501,0.29104 -0.92605,0.42334 l -0.71437,0.34395 c -0.47625,1.85209 -0.60854,2.3548 -0.89959,3.51896 -0.44979,1.79917 -0.8202,3.33375 -1.21708,4.8948 z" />
        </g>
      </g>
    </g>
  </g>
</svg>
