<?xml version="1.0" encoding="UTF-8" standalone="no"?>
<svg
   xmlns:dc="http://purl.org/dc/elements/1.1/"
   xmlns:cc="http://creativecommons.org/ns#"
   xmlns:rdf="http://www.w3.org/1999/02/22-rdf-syntax-ns#"
   xmlns:svg="http://www.w3.org/2000/svg"
   xmlns="http://www.w3.org/2000/svg"
   xmlns:sodipodi="http://sodipodi.sourceforge.net/DTD/sodipodi-0.dtd"
   xmlns:inkscape="http://www.inkscape.org/namespaces/inkscape"
   aria-hidden="true"
   focusable="false"
   data-prefix="fab"
   data-icon="facebook-square"
   class="svg-inline--fa fa-facebook-square fa-w-14"
   role="img"
   viewBox="0 0 17.999998 18"
   version="1.1"
   id="svg4"
   sodipodi:docname="fa-facebook.svg"
   width="17.999998"
   height="18"
   inkscape:version="0.92.5 (2060ec1f9f, 2020-04-08)">
  <metadata
     id="metadata10">
    <rdf:RDF>
      <cc:Work
         rdf:about="">
        <dc:format>image/svg+xml</dc:format>
        <dc:type
           rdf:resource="http://purl.org/dc/dcmitype/StillImage" />
        <dc:title></dc:title>
      </cc:Work>
    </rdf:RDF>
  </metadata>
  <defs
     id="defs8" />
  <sodipodi:namedview
     pagecolor="#ffffff"
     bordercolor="#666666"
     borderopacity="1"
     objecttolerance="10"
     gridtolerance="10"
     guidetolerance="10"
     inkscape:pageopacity="0"
     inkscape:pageshadow="2"
     inkscape:window-width="1920"
     inkscape:window-height="1024"
     id="namedview6"
     showgrid="false"
     inkscape:pagecheckerboard="true"
     inkscape:zoom="5.2149125"
     inkscape:cx="55.063715"
     inkscape:cy="12.870654"
     inkscape:window-x="0"
     inkscape:window-y="0"
     inkscape:window-maximized="1"
     inkscape:current-layer="svg4"
     fit-margin-top="0"
     fit-margin-left="0"
     fit-margin-right="0"
     fit-margin-bottom="0" />
  <path
     d="M 16.071428,0 H 1.9285714 A 1.9285714,1.9285714 0 0 0 0,1.92858 V 16.07143 A 1.9285714,1.9285714 0 0 0 1.9285714,18 H 7.4430801 V 11.88041 H 4.9118302 V 9 H 7.4430801 V 6.80465 c 0,-2.4971 1.4866071,-3.87643 3.7635269,-3.87643 1.090446,0 2.230714,0.19446 2.230714,0.19446 v 2.4509 h -1.256384 c -1.237902,0 -1.624018,0.76821 -1.624018,1.55611 V 9 h 2.763482 l -0.441964,2.88041 H 10.556919 V 18 h 5.514509 a 1.9285714,1.9285714 0 0 0 1.928571,-1.92857 V 1.92858 A 1.9285714,1.9285714 0 0 0 16.071428,0 Z"
     id="path2"
     style="fill:#444444;fill-opacity:1;stroke-width:1"
     inkscape:connector-curvature="0"
     inkscape:export-filename="/home/david/Documents/web-projects/bon-air-quilt/bon-air-quilt-brand/icons/social/png/email-sig/fa-facebook.png"
     inkscape:export-xdpi="96"
     inkscape:export-ydpi="96" />
</svg>
