<?xml version="1.0" encoding="UTF-8" standalone="no"?>
<svg
   xmlns:dc="http://purl.org/dc/elements/1.1/"
   xmlns:cc="http://creativecommons.org/ns#"
   xmlns:rdf="http://www.w3.org/1999/02/22-rdf-syntax-ns#"
   xmlns:svg="http://www.w3.org/2000/svg"
   xmlns="http://www.w3.org/2000/svg"
   xmlns:sodipodi="http://sodipodi.sourceforge.net/DTD/sodipodi-0.dtd"
   xmlns:inkscape="http://www.inkscape.org/namespaces/inkscape"
   aria-hidden="true"
   focusable="false"
   data-prefix="fab"
   data-icon="facebook-messenger"
   class="svg-inline--fa fa-facebook-messenger fa-w-16"
   role="img"
   viewBox="0 0 18.000921 18"
   version="1.1"
   id="svg4"
   sodipodi:docname="fa-fb-messenger.svg"
   inkscape:version="0.92.5 (2060ec1f9f, 2020-04-08)"
   width="18.000921"
   height="18">
  <metadata
     id="metadata10">
    <rdf:RDF>
      <cc:Work
         rdf:about="">
        <dc:format>image/svg+xml</dc:format>
        <dc:type
           rdf:resource="http://purl.org/dc/dcmitype/StillImage" />
        <dc:title></dc:title>
      </cc:Work>
    </rdf:RDF>
  </metadata>
  <defs
     id="defs8" />
  <sodipodi:namedview
     pagecolor="#ffffff"
     bordercolor="#666666"
     borderopacity="1"
     objecttolerance="10"
     gridtolerance="10"
     guidetolerance="10"
     inkscape:pageopacity="0"
     inkscape:pageshadow="2"
     inkscape:window-width="1920"
     inkscape:window-height="1024"
     id="namedview6"
     showgrid="false"
     inkscape:zoom="10.429825"
     inkscape:cx="3.3870094"
     inkscape:cy="-7.1904154"
     inkscape:window-x="0"
     inkscape:window-y="0"
     inkscape:window-maximized="1"
     inkscape:current-layer="svg4"
     inkscape:pagecheckerboard="true"
     fit-margin-top="0"
     fit-margin-left="0"
     fit-margin-right="0"
     fit-margin-bottom="0" />
  <path
     d="M 9.0204212,0 C 3.9384275,0 0,3.7141385 0,8.7308115 c 0,2.6239235 1.0782407,4.8914555 2.8333308,6.4578245 0.3030391,0.272556 0.2406169,0.430425 0.2921518,2.113299 a 0.72294024,0.72294024 0 0 0 1.011826,0.63765 C 6.0575281,17.093981 6.0822061,17.027201 6.407747,17.115752 11.970976,18.646922 18.000921,15.086657 18.000921,8.7308115 18.000921,3.7141385 14.102779,0 9.0204212,0 Z M 14.436667,6.7187708 11.787337,10.91306 A 1.3562388,1.3562388 0 0 1 9.8308263,11.273438 L 7.7229756,9.6958185 a 0.54438271,0.54438271 0 0 0 -0.6532587,0 L 4.2254987,11.85302 C 3.8458823,12.140822 3.3486799,11.686079 3.6045391,11.284328 L 6.2538686,7.0900389 A 1.3558759,1.3558759 0 0 1 8.2103797,6.7296608 l 2.1071243,1.5772507 a 0.54438271,0.54438271 0 0 0 0.653259,0 l 2.84567,-2.1550237 c 0.378891,-0.2896111 0.876093,0.164763 0.620234,0.566883 z"
     id="path2"
     style="fill:#444444;fill-opacity:1;stroke-width:0.99999994"
     inkscape:connector-curvature="0"
     inkscape:export-filename="/home/david/Documents/web-projects/bon-air-quilt/bon-air-quilt-brand/icons/social/png/email-sig/fa-fb-messenger.png"
     inkscape:export-xdpi="96"
     inkscape:export-ydpi="96" />
</svg>
