<?xml version="1.0" encoding="UTF-8" standalone="no"?>
<svg
   xmlns:dc="http://purl.org/dc/elements/1.1/"
   xmlns:cc="http://creativecommons.org/ns#"
   xmlns:rdf="http://www.w3.org/1999/02/22-rdf-syntax-ns#"
   xmlns:svg="http://www.w3.org/2000/svg"
   xmlns="http://www.w3.org/2000/svg"
   xmlns:sodipodi="http://sodipodi.sourceforge.net/DTD/sodipodi-0.dtd"
   xmlns:inkscape="http://www.inkscape.org/namespaces/inkscape"
   aria-hidden="true"
   focusable="false"
   data-prefix="fab"
   data-icon="instagram"
   class="svg-inline--fa fa-instagram fa-w-14"
   role="img"
   viewBox="0 0 18.004043 18"
   version="1.1"
   id="svg4"
   sodipodi:docname="fa-instagram.svg"
   width="18.004044"
   height="18"
   inkscape:version="0.92.5 (2060ec1f9f, 2020-04-08)">
  <metadata
     id="metadata10">
    <rdf:RDF>
      <cc:Work
         rdf:about="">
        <dc:format>image/svg+xml</dc:format>
        <dc:type
           rdf:resource="http://purl.org/dc/dcmitype/StillImage" />
        <dc:title></dc:title>
      </cc:Work>
    </rdf:RDF>
  </metadata>
  <defs
     id="defs8" />
  <sodipodi:namedview
     pagecolor="#ffffff"
     bordercolor="#666666"
     borderopacity="1"
     objecttolerance="10"
     gridtolerance="10"
     guidetolerance="10"
     inkscape:pageopacity="0"
     inkscape:pageshadow="2"
     inkscape:window-width="1920"
     inkscape:window-height="1024"
     id="namedview6"
     showgrid="false"
     inkscape:zoom="10.429825"
     inkscape:cx="13.511477"
     inkscape:cy="-4.6746926"
     inkscape:window-x="0"
     inkscape:window-y="0"
     inkscape:window-maximized="1"
     inkscape:current-layer="svg4"
     inkscape:pagecheckerboard="true"
     fit-margin-top="0"
     fit-margin-left="0"
     fit-margin-right="0"
     fit-margin-bottom="0" />
  <path
     d="m 9.0040293,4.385027 c -2.5545057,0 -4.6149793,2.0604721 -4.6149793,4.6149729 0,2.5545101 2.0604736,4.6149821 4.6149793,4.6149821 2.5545057,0 4.6149797,-2.060472 4.6149797,-4.6149821 0,-2.5545008 -2.060474,-4.6149729 -4.6149797,-4.6149729 z m 0,7.615317 c -1.6507891,0 -3.0003392,-1.345539 -3.0003392,-3.0003441 0,-1.6548055 1.3455335,-3.0003345 3.0003392,-3.0003345 1.6548057,0 3.0003387,1.345529 3.0003387,3.0003345 0,1.6548051 -1.34955,3.0003441 -3.0003387,3.0003441 z M 14.884212,4.1962427 c 0,0.5984649 -0.481983,1.0764286 -1.076427,1.0764286 -0.598462,0 -1.076427,-0.4819777 -1.076427,-1.0764286 0,-0.5944419 0.481982,-1.0764196 1.076427,-1.0764196 0.594444,0 1.076427,0.4819777 1.076427,1.0764196 z m 3.05657,1.0924936 c -0.06828,-1.4419281 -0.397636,-2.719183 -1.45398,-3.7715096 -1.052328,-1.0523266 -2.32958,-1.3816821 -3.77151,-1.4539792 -1.486112,-0.08433 -5.9404304,-0.08433 -7.4265421,0 -1.4379133,0.06831 -2.7151661,0.3976386 -3.7715103,1.4499652 -1.05634417,1.0523265 -1.38168212,2.3295815 -1.45397944,3.7715096 -0.08434688,1.4861093 -0.08434688,5.9404317 0,7.4265417 0.06828081,1.441928 0.39763527,2.719183 1.45397944,3.771509 1.0563442,1.052327 2.3295805,1.381682 3.7715103,1.453979 1.4861117,0.08433 5.9404301,0.08433 7.4265421,0 1.44193,-0.06831 2.719182,-0.397629 3.77151,-1.453979 1.052328,-1.052326 1.381682,-2.329581 1.45398,-3.771509 0.08435,-1.48611 0.08435,-5.9364094 0,-7.4225277 z m -1.919896,9.0170867 c -0.313288,0.78724 -0.919783,1.393733 -1.711036,1.711038 -1.184874,0.469926 -3.996436,0.361485 -5.3058207,0.361485 -1.309385,0 -4.1249641,0.104427 -5.3058204,-0.361485 C 2.9109714,15.70357 2.3044771,15.097077 1.9871722,14.305823 1.5172396,13.120953 1.6256857,10.309385 1.6256857,8.9999999 c 0,-1.309385 -0.1044295,-4.1249582 0.3614865,-5.305814 C 2.3004606,2.9069458 2.9069549,2.3004529 3.6982089,1.9831484 4.8830817,1.5132127 7.6946443,1.6216628 9.0040293,1.6216628 c 1.3093847,0 4.1249637,-0.1044361 5.3058207,0.3614856 0.787237,0.3132814 1.393731,0.9197834 1.711036,1.7110375 0.469932,1.1848698 0.361487,3.996429 0.361487,5.305814 0,1.3093851 0.108445,4.1249671 -0.361487,5.3058231 z"
     id="path2"
     style="fill:#444444;fill-opacity:1;stroke-width:0.99999982"
     inkscape:connector-curvature="0"
     inkscape:export-filename="/home/david/Documents/web-projects/bon-air-quilt/bon-air-quilt-brand/icons/social/png/email-sig/fa-instagram.png"
     inkscape:export-xdpi="96"
     inkscape:export-ydpi="96" />
</svg>
