<?xml version="1.0" encoding="UTF-8" standalone="no"?>
<svg
   xmlns:dc="http://purl.org/dc/elements/1.1/"
   xmlns:cc="http://creativecommons.org/ns#"
   xmlns:rdf="http://www.w3.org/1999/02/22-rdf-syntax-ns#"
   xmlns:svg="http://www.w3.org/2000/svg"
   xmlns="http://www.w3.org/2000/svg"
   xmlns:sodipodi="http://sodipodi.sourceforge.net/DTD/sodipodi-0.dtd"
   xmlns:inkscape="http://www.inkscape.org/namespaces/inkscape"
   aria-hidden="true"
   focusable="false"
   data-prefix="fab"
   data-icon="twitter"
   class="svg-inline--fa fa-twitter fa-w-16"
   role="img"
   viewBox="0 0 22.162443 17.99999"
   version="1.1"
   id="svg4"
   sodipodi:docname="fa-twitter.svg"
   inkscape:version="0.92.5 (2060ec1f9f, 2020-04-08)"
   width="22.162443"
   height="17.99999">
  <metadata
     id="metadata10">
    <rdf:RDF>
      <cc:Work
         rdf:about="">
        <dc:format>image/svg+xml</dc:format>
        <dc:type
           rdf:resource="http://purl.org/dc/dcmitype/StillImage" />
        <dc:title></dc:title>
      </cc:Work>
    </rdf:RDF>
  </metadata>
  <defs
     id="defs8" />
  <sodipodi:namedview
     pagecolor="#ffffff"
     bordercolor="#666666"
     borderopacity="1"
     objecttolerance="10"
     gridtolerance="10"
     guidetolerance="10"
     inkscape:pageopacity="0"
     inkscape:pageshadow="2"
     inkscape:window-width="1920"
     inkscape:window-height="1024"
     id="namedview6"
     showgrid="false"
     inkscape:pagecheckerboard="true"
     inkscape:zoom="3.6875"
     inkscape:cx="142.08252"
     inkscape:cy="20.701351"
     inkscape:window-x="0"
     inkscape:window-y="0"
     inkscape:window-maximized="1"
     inkscape:current-layer="svg4"
     fit-margin-top="0"
     fit-margin-left="0"
     fit-margin-right="0"
     fit-margin-bottom="0" />
  <path
     d="m 19.884375,4.48591 c 0.01407,0.19686 0.01407,0.39377 0.01407,0.59064 0,6.00466 -4.570286,12.92344 -12.9234382,12.92344 -2.5734506,0 -4.9640603,-0.74535 -6.9750068,-2.03904 0.36563845,0.0422 0.7171656,0.0562 1.0968721,0.0562 2.123404,0 4.0781218,-0.71717 5.6390651,-1.94061 -1.9968785,-0.0422 -3.6703227,-1.35001 -4.2468947,-3.15002 0.2812737,0.0422 0.562504,0.0703 0.8578457,0.0703 0.4077992,0 0.8156417,-0.0563 1.1953049,-0.15466 C 2.4609498,10.42025 0.89996318,8.59215 0.89996318,6.38433 V 6.32813 C 1.504628,6.66564 2.2078121,6.87657 2.9530705,6.90466 1.7296296,6.08902 0.9280992,4.69685 0.9280992,3.12184 c 0,-0.84373 0.2249583,-1.61717 0.6187328,-2.29218 2.2359481,2.75625 5.5969044,4.55622 9.365616,4.75313 -0.0703,-0.3375 -0.1125,-0.68903 -0.1125,-1.0406 C 10.799948,2.03904 12.824962,0 15.342141,0 c 1.307805,0 2.489042,0.54843 3.318752,1.43437 1.026532,-0.19686 2.010903,-0.57657 2.882817,-1.09687 -0.337546,1.05471 -1.054711,1.94065 -1.996879,2.50311 0.914075,-0.0984 1.800013,-0.35157 2.615612,-0.7031 -0.618647,0.89997 -1.392127,1.7015 -2.278066,2.34841 z"
     id="path2"
     inkscape:connector-curvature="0"
     style="fill:#444444;fill-opacity:1;stroke-width:1"
     inkscape:export-filename="/home/david/Documents/web-projects/bon-air-quilt/bon-air-quilt-brand/icons/social/png/email-sig/fa-twitter.png"
     inkscape:export-xdpi="96"
     inkscape:export-ydpi="96" />
</svg>
