<?xml version="1.0" encoding="utf-8"?>
<!-- Generator: Adobe Illustrator 24.0.0, SVG Export Plug-In . SVG Version: 6.00 Build 0)  -->
<svg version="1.1" id="Layer_1" xmlns="http://www.w3.org/2000/svg" xmlns:xlink="http://www.w3.org/1999/xlink" x="0px" y="0px"
	 viewBox="0 0 612 738.64" style="enable-background:new 0 0 612 738.64;" xml:space="preserve">
<style type="text/css">
	.st0{fill:#2F2C4A;}
	.st1{fill:#203E4A;}
	.st2{fill:#B86D49;}
</style>
<g>
	<g>
		<path d="M120.47,359.86h5.9v15.72c2.2-2.62,5.42-4.29,9.41-4.29c8.46,0,15.37,6.85,15.37,15.37s-6.91,15.37-15.37,15.37
			c-8.46,0-15.31-6.85-15.31-15.37V359.86z M126.25,386.66c0,5.42,4.11,9.71,9.53,9.71c5.48,0,9.53-4.29,9.53-9.71
			c0-5.42-4.11-9.71-9.53-9.71C130.41,376.95,126.25,381.24,126.25,386.66z"/>
		<path d="M184.25,386.66c0,8.52-6.85,15.37-15.37,15.37c-8.52,0-15.37-6.85-15.37-15.37s6.85-15.37,15.37-15.37
			C177.4,371.3,184.25,378.14,184.25,386.66z M159.36,386.66c0,5.42,4.17,9.71,9.59,9.71c5.42,0,9.47-4.29,9.47-9.71
			c0-5.42-3.99-9.71-9.47-9.71C163.47,376.95,159.36,381.24,159.36,386.66z"/>
		<path d="M213.73,401.55h-5.84v-15.66c0-6.07-2.62-8.93-7.27-8.93c-4.65,0-7.27,2.86-7.27,8.93v15.66h-5.84v-15.66
			c0-10.01,5.48-14.59,13.1-14.59s13.1,4.59,13.1,14.59V401.55z"/>
		<path d="M232.78,386.66c0-8.52,6.91-15.37,15.37-15.37c8.46,0,15.31,6.85,15.31,15.37v14.89h-5.84v-4.7
			c-1.43,2.92-5.24,5.18-9.47,5.18C239.69,402.03,232.78,395.18,232.78,386.66z M257.68,386.66c0-5.42-3.99-9.71-9.47-9.71
			s-9.59,4.29-9.59,9.71c0,5.42,4.17,9.71,9.59,9.71C253.63,396.37,257.68,392.08,257.68,386.66z"/>
		<path d="M267.62,364.09c0-2.03,1.55-3.57,3.57-3.57c1.97,0,3.51,1.55,3.51,3.57c0,2.02-1.55,3.57-3.51,3.57
			C269.17,367.66,267.62,366.11,267.62,364.09z M268.27,371.77h5.84v29.78h-5.84V371.77z"/>
		<path d="M279.47,386.01c0-9.89,5.3-14.35,12.51-14.35h0.6v5.66h-0.6c-4.17,0-6.67,2.68-6.67,8.7v15.54h-5.84V386.01z"/>
		<path d="M342.3,413.46h-5.9v-15.72c-2.2,2.62-5.42,4.29-9.41,4.29c-8.46,0-15.37-6.85-15.37-15.37s6.91-15.37,15.37-15.37
			s15.31,6.85,15.31,15.37V413.46z M336.52,386.66c0-5.42-4.11-9.71-9.53-9.71c-5.48,0-9.53,4.29-9.53,9.71
			c0,5.42,4.11,9.71,9.53,9.71C332.35,396.37,336.52,392.08,336.52,386.66z"/>
		<path d="M372.07,371.77v15.66c0,10.01-5.48,14.59-13.1,14.59c-7.62,0-13.1-4.59-13.1-14.59v-15.66h5.84v15.66
			c0,6.07,2.62,8.93,7.27,8.93c4.65,0,7.27-2.86,7.27-8.93v-15.66H372.07z"/>
		<path d="M376.24,364.09c0-2.03,1.55-3.57,3.57-3.57c1.97,0,3.51,1.55,3.51,3.57c0,2.02-1.55,3.57-3.51,3.57
			C377.79,367.66,376.24,366.11,376.24,364.09z M376.89,371.77h5.84v29.78h-5.84V371.77z"/>
		<path d="M388.09,401.55v-41.69h5.84v41.69H388.09z"/>
		<path d="M406.31,377.43v10.01c0,5.66,2.2,8.28,6.43,8.64v5.66c-7.15-0.3-12.21-4.65-12.27-14.23v-10.07h-4.41v-5.66h4.41v-10.66
			h5.84v10.66h6.43v5.66H406.31z"/>
		<path d="M430.61,386.66c0-8.52,6.85-15.37,15.37-15.37c6.55,0,12.09,4.11,14.18,9.83h-6.25c-1.67-2.5-4.47-4.17-7.86-4.17
			c-5.48,0-9.59,4.29-9.59,9.71c0,5.42,4.17,9.71,9.59,9.71c3.34,0,6.07-1.61,7.74-4.05h6.37c-2.14,5.72-7.68,9.71-14.18,9.71
			C437.46,402.03,430.61,395.18,430.61,386.66z"/>
		<path d="M493.91,386.66c0,8.52-6.85,15.37-15.37,15.37c-8.52,0-15.37-6.85-15.37-15.37s6.85-15.37,15.37-15.37
			C487.06,371.3,493.91,378.14,493.91,386.66z M469.02,386.66c0,5.42,4.17,9.71,9.59,9.71c5.42,0,9.47-4.29,9.47-9.71
			c0-5.42-3.99-9.71-9.47-9.71C473.13,376.95,469.02,381.24,469.02,386.66z"/>
		<path d="M495.7,394.28h5.84v7.27h-5.84V394.28z"/>
	</g>
	<g>
		<path d="M394.58,137.9c-37.54,0-70.37,20.79-87.38,51.62c-17.01-30.82-49.85-51.62-87.38-51.62c-32.08,0-59.14,17.01-74.61,41.36
			V63.68h-24.74v173.95c0,55.28,44.45,99.73,99.35,99.73c37.54,0,70.37-20.79,87.38-51.62c17.01,30.82,49.84,51.62,87.38,51.62
			c32.86,0,61.85-18.94,74.61-44.45v41.36h24.74v-96.64C493.93,182.36,449.47,137.9,394.58,137.9z M219.82,313.79
			c-42.91,0-74.99-33.63-74.99-76.15s32.86-76.15,74.99-76.15c41.75,0,74.99,33.63,74.99,76.15S262.34,313.79,219.82,313.79z
			 M394.97,313.79c-41.75,0-75.38-33.63-75.38-76.15s32.86-76.15,75.38-76.15c42.52,0,74.61,33.63,74.61,76.15
			S436.72,313.79,394.97,313.79z"/>
	</g>
</g>
<g>
	<rect x="22.48" y="573.62" class="st0" width="132.27" height="132.27"/>
	<rect x="167.3" y="573.62" class="st1" width="132.27" height="132.27"/>
	<g>
		<g>
			<path class="st2" d="M201.62,660.01h0.98v2.63c0.37-0.44,0.9-0.72,1.57-0.72c1.41,0,2.57,1.14,2.57,2.57s-1.15,2.57-2.57,2.57
				c-1.41,0-2.56-1.14-2.56-2.57V660.01z M202.58,664.48c0,0.91,0.69,1.62,1.59,1.62c0.92,0,1.59-0.72,1.59-1.62
				c0-0.9-0.69-1.62-1.59-1.62C203.28,662.86,202.58,663.58,202.58,664.48z"/>
			<path class="st2" d="M212.27,664.48c0,1.42-1.14,2.57-2.57,2.57c-1.42,0-2.57-1.14-2.57-2.57s1.14-2.57,2.57-2.57
				C211.13,661.91,212.27,663.06,212.27,664.48z M208.11,664.48c0,0.91,0.7,1.62,1.6,1.62c0.91,0,1.58-0.72,1.58-1.62
				c0-0.9-0.67-1.62-1.58-1.62S208.11,663.58,208.11,664.48z"/>
			<path class="st2" d="M217.19,666.97h-0.97v-2.62c0-1.01-0.44-1.49-1.21-1.49c-0.78,0-1.21,0.48-1.21,1.49v2.62h-0.97v-2.62
				c0-1.67,0.91-2.44,2.19-2.44c1.27,0,2.19,0.77,2.19,2.44V666.97z"/>
			<path class="st2" d="M220.37,664.48c0-1.42,1.15-2.57,2.57-2.57c1.41,0,2.56,1.14,2.56,2.57v2.49h-0.97v-0.79
				c-0.24,0.49-0.88,0.87-1.58,0.87C221.53,667.05,220.37,665.9,220.37,664.48z M224.53,664.48c0-0.9-0.67-1.62-1.58-1.62
				c-0.91,0-1.6,0.72-1.6,1.62c0,0.91,0.7,1.62,1.6,1.62C223.86,666.1,224.53,665.39,224.53,664.48z"/>
			<path class="st2" d="M226.19,660.71c0-0.34,0.26-0.6,0.6-0.6c0.33,0,0.59,0.26,0.59,0.6c0,0.34-0.26,0.6-0.59,0.6
				C226.45,661.31,226.19,661.05,226.19,660.71z M226.3,661.99h0.97v4.97h-0.97V661.99z"/>
			<path class="st2" d="M228.17,664.37c0-1.65,0.89-2.4,2.09-2.4h0.1v0.94h-0.1c-0.7,0-1.11,0.45-1.11,1.45v2.6h-0.97V664.37z"/>
			<path class="st2" d="M238.66,668.96h-0.98v-2.63c-0.37,0.44-0.91,0.72-1.57,0.72c-1.41,0-2.57-1.14-2.57-2.57
				s1.15-2.57,2.57-2.57s2.56,1.14,2.56,2.57V668.96z M237.7,664.48c0-0.9-0.69-1.62-1.59-1.62c-0.92,0-1.59,0.72-1.59,1.62
				c0,0.91,0.69,1.62,1.59,1.62C237,666.1,237.7,665.39,237.7,664.48z"/>
			<path class="st2" d="M243.63,661.99v2.62c0,1.67-0.92,2.44-2.19,2.44s-2.19-0.77-2.19-2.44v-2.62h0.97v2.62
				c0,1.01,0.44,1.49,1.21,1.49c0.78,0,1.21-0.48,1.21-1.49v-2.62H243.63z"/>
			<path class="st2" d="M244.33,660.71c0-0.34,0.26-0.6,0.6-0.6c0.33,0,0.59,0.26,0.59,0.6c0,0.34-0.26,0.6-0.59,0.6
				C244.59,661.31,244.33,661.05,244.33,660.71z M244.44,661.99h0.97v4.97h-0.97V661.99z"/>
			<path class="st2" d="M246.31,666.97v-6.96h0.97v6.96H246.31z"/>
			<path class="st2" d="M249.35,662.94v1.67c0,0.94,0.37,1.38,1.07,1.44V667c-1.19-0.05-2.04-0.78-2.05-2.38v-1.68h-0.74v-0.94h0.74
				v-1.78h0.97v1.78h1.07v0.94H249.35z"/>
			<path class="st2" d="M253.41,664.48c0-1.42,1.14-2.57,2.57-2.57c1.09,0,2.02,0.69,2.37,1.64h-1.04c-0.28-0.42-0.75-0.7-1.31-0.7
				c-0.92,0-1.6,0.72-1.6,1.62c0,0.91,0.7,1.62,1.6,1.62c0.56,0,1.01-0.27,1.29-0.68h1.06c-0.36,0.95-1.28,1.62-2.37,1.62
				C254.55,667.05,253.41,665.9,253.41,664.48z"/>
			<path class="st2" d="M263.98,664.48c0,1.42-1.14,2.57-2.57,2.57c-1.42,0-2.57-1.14-2.57-2.57s1.14-2.57,2.57-2.57
				C262.84,661.91,263.98,663.06,263.98,664.48z M259.82,664.48c0,0.91,0.7,1.62,1.6,1.62c0.9,0,1.58-0.72,1.58-1.62
				c0-0.9-0.67-1.62-1.58-1.62C260.51,662.86,259.82,663.58,259.82,664.48z"/>
			<path class="st2" d="M264.28,665.75h0.97v1.21h-0.97V665.75z"/>
		</g>
		<g>
			<path class="st2" d="M247.39,622.94c-6.27,0-11.75,3.47-14.59,8.62c-2.84-5.15-8.32-8.62-14.59-8.62
				c-5.36,0-9.88,2.84-12.46,6.91v-19.3h-4.13v29.05c0,9.23,7.42,16.65,16.59,16.65c6.27,0,11.75-3.47,14.59-8.62
				c2.84,5.15,8.32,8.62,14.59,8.62c5.49,0,10.33-3.16,12.46-7.42v6.91h4.13V639.6C263.98,630.36,256.56,622.94,247.39,622.94z
				 M218.21,652.31c-7.17,0-12.52-5.62-12.52-12.72c0-7.1,5.49-12.72,12.52-12.72c6.97,0,12.52,5.62,12.52,12.72
				C230.73,646.7,225.31,652.31,218.21,652.31z M247.46,652.31c-6.97,0-12.59-5.62-12.59-12.72c0-7.1,5.49-12.72,12.59-12.72
				c7.1,0,12.46,5.62,12.46,12.72C259.92,646.7,254.43,652.31,247.46,652.31z"/>
		</g>
	</g>
	<g>
		<g>
			<path class="st2" d="M56.8,660.01h0.98v2.63c0.37-0.44,0.9-0.72,1.57-0.72c1.41,0,2.57,1.14,2.57,2.57s-1.15,2.57-2.57,2.57
				c-1.41,0-2.56-1.14-2.56-2.57V660.01z M57.77,664.48c0,0.91,0.69,1.62,1.59,1.62c0.92,0,1.59-0.72,1.59-1.62
				c0-0.9-0.69-1.62-1.59-1.62C58.47,662.86,57.77,663.58,57.77,664.48z"/>
			<path class="st2" d="M67.46,664.48c0,1.42-1.14,2.57-2.57,2.57c-1.42,0-2.57-1.14-2.57-2.57s1.14-2.57,2.57-2.57
				C66.31,661.91,67.46,663.06,67.46,664.48z M63.3,664.48c0,0.91,0.7,1.62,1.6,1.62c0.91,0,1.58-0.72,1.58-1.62
				c0-0.9-0.67-1.62-1.58-1.62C63.98,662.86,63.3,663.58,63.3,664.48z"/>
			<path class="st2" d="M72.38,666.97H71.4v-2.62c0-1.01-0.44-1.49-1.21-1.49c-0.78,0-1.21,0.48-1.21,1.49v2.62H68v-2.62
				c0-1.67,0.91-2.44,2.19-2.44c1.27,0,2.19,0.77,2.19,2.44V666.97z"/>
			<path class="st2" d="M75.56,664.48c0-1.42,1.15-2.57,2.57-2.57c1.41,0,2.56,1.14,2.56,2.57v2.49h-0.97v-0.79
				c-0.24,0.49-0.88,0.87-1.58,0.87C76.71,667.05,75.56,665.9,75.56,664.48z M79.72,664.48c0-0.9-0.67-1.62-1.58-1.62
				c-0.91,0-1.6,0.72-1.6,1.62c0,0.91,0.7,1.62,1.6,1.62C79.04,666.1,79.72,665.39,79.72,664.48z"/>
			<path class="st2" d="M81.38,660.71c0-0.34,0.26-0.6,0.6-0.6c0.33,0,0.59,0.26,0.59,0.6c0,0.34-0.26,0.6-0.59,0.6
				C81.64,661.31,81.38,661.05,81.38,660.71z M81.49,661.99h0.97v4.97h-0.97V661.99z"/>
			<path class="st2" d="M83.36,664.37c0-1.65,0.89-2.4,2.09-2.4h0.1v0.94h-0.1c-0.7,0-1.11,0.45-1.11,1.45v2.6h-0.97V664.37z"/>
			<path class="st2" d="M93.85,668.96h-0.98v-2.63c-0.37,0.44-0.91,0.72-1.57,0.72c-1.41,0-2.57-1.14-2.57-2.57s1.15-2.57,2.57-2.57
				c1.41,0,2.56,1.14,2.56,2.57V668.96z M92.88,664.48c0-0.9-0.69-1.62-1.59-1.62c-0.92,0-1.59,0.72-1.59,1.62
				c0,0.91,0.69,1.62,1.59,1.62C92.19,666.1,92.88,665.39,92.88,664.48z"/>
			<path class="st2" d="M98.82,661.99v2.62c0,1.67-0.92,2.44-2.19,2.44s-2.19-0.77-2.19-2.44v-2.62h0.97v2.62
				c0,1.01,0.44,1.49,1.21,1.49s1.21-0.48,1.21-1.49v-2.62H98.82z"/>
			<path class="st2" d="M99.51,660.71c0-0.34,0.26-0.6,0.6-0.6c0.33,0,0.59,0.26,0.59,0.6c0,0.34-0.26,0.6-0.59,0.6
				C99.77,661.31,99.51,661.05,99.51,660.71z M99.62,661.99h0.97v4.97h-0.97V661.99z"/>
			<path class="st2" d="M101.49,666.97v-6.96h0.97v6.96H101.49z"/>
			<path class="st2" d="M104.54,662.94v1.67c0,0.94,0.37,1.38,1.07,1.44V667c-1.19-0.05-2.04-0.78-2.05-2.38v-1.68h-0.74v-0.94h0.74
				v-1.78h0.97v1.78h1.07v0.94H104.54z"/>
			<path class="st2" d="M108.59,664.48c0-1.42,1.14-2.57,2.57-2.57c1.09,0,2.02,0.69,2.37,1.64h-1.04c-0.28-0.42-0.75-0.7-1.31-0.7
				c-0.92,0-1.6,0.72-1.6,1.62c0,0.91,0.7,1.62,1.6,1.62c0.56,0,1.01-0.27,1.29-0.68h1.06c-0.36,0.95-1.28,1.62-2.37,1.62
				C109.74,667.05,108.59,665.9,108.59,664.48z"/>
			<path class="st2" d="M119.16,664.48c0,1.42-1.14,2.57-2.57,2.57c-1.42,0-2.57-1.14-2.57-2.57s1.14-2.57,2.57-2.57
				C118.02,661.91,119.16,663.06,119.16,664.48z M115.01,664.48c0,0.91,0.7,1.62,1.6,1.62c0.9,0,1.58-0.72,1.58-1.62
				c0-0.9-0.67-1.62-1.58-1.62C115.69,662.86,115.01,663.58,115.01,664.48z"/>
			<path class="st2" d="M119.46,665.75h0.97v1.21h-0.97V665.75z"/>
		</g>
		<g>
			<path class="st2" d="M102.58,622.94c-6.27,0-11.75,3.47-14.59,8.62c-2.84-5.15-8.32-8.62-14.59-8.62
				c-5.36,0-9.88,2.84-12.46,6.91v-19.3H56.8v29.05c0,9.23,7.42,16.65,16.59,16.65c6.27,0,11.75-3.47,14.59-8.62
				c2.84,5.15,8.32,8.62,14.59,8.62c5.49,0,10.33-3.16,12.46-7.42v6.91h4.13V639.6C119.17,630.36,111.74,622.94,102.58,622.94z
				 M73.39,652.31c-7.17,0-12.52-5.62-12.52-12.72c0-7.1,5.49-12.72,12.52-12.72c6.97,0,12.52,5.62,12.52,12.72
				C85.92,646.7,80.49,652.31,73.39,652.31z M102.64,652.31c-6.97,0-12.59-5.62-12.59-12.72c0-7.1,5.49-12.72,12.59-12.72
				c7.1,0,12.46,5.62,12.46,12.72C115.1,646.7,109.61,652.31,102.64,652.31z"/>
		</g>
	</g>
	<g>
		<g>
			<path class="st1" d="M189.29,546.73h1.37v3.64c0.51-0.61,1.26-0.99,2.18-0.99c1.96,0,3.56,1.59,3.56,3.56s-1.6,3.56-3.56,3.56
				c-1.96,0-3.55-1.59-3.55-3.56V546.73z M190.63,552.94c0,1.26,0.95,2.25,2.21,2.25c1.27,0,2.21-0.99,2.21-2.25
				c0-1.26-0.95-2.25-2.21-2.25C191.59,550.69,190.63,551.68,190.63,552.94z"/>
			<path class="st1" d="M204.07,552.94c0,1.97-1.59,3.56-3.56,3.56c-1.97,0-3.56-1.59-3.56-3.56s1.59-3.56,3.56-3.56
				C202.48,549.37,204.07,550.96,204.07,552.94z M198.3,552.94c0,1.26,0.97,2.25,2.22,2.25c1.26,0,2.19-0.99,2.19-2.25
				c0-1.26-0.92-2.25-2.19-2.25C199.25,550.69,198.3,551.68,198.3,552.94z"/>
			<path class="st1" d="M210.9,556.39h-1.35v-3.63c0-1.41-0.61-2.07-1.68-2.07c-1.08,0-1.68,0.66-1.68,2.07v3.63h-1.35v-3.63
				c0-2.32,1.27-3.38,3.04-3.38s3.04,1.06,3.04,3.38V556.39z"/>
			<path class="st1" d="M215.31,552.94c0-1.97,1.6-3.56,3.56-3.56c1.96,0,3.55,1.59,3.55,3.56v3.45h-1.35v-1.09
				c-0.33,0.68-1.21,1.2-2.19,1.2C216.91,556.5,215.31,554.91,215.31,552.94z M221.08,552.94c0-1.26-0.92-2.25-2.19-2.25
				c-1.27,0-2.22,0.99-2.22,2.25c0,1.26,0.97,2.25,2.22,2.25C220.14,555.18,221.08,554.19,221.08,552.94z"/>
			<path class="st1" d="M223.38,547.71c0-0.47,0.36-0.83,0.83-0.83c0.46,0,0.81,0.36,0.81,0.83c0,0.47-0.36,0.83-0.81,0.83
				C223.74,548.53,223.38,548.17,223.38,547.71z M223.54,549.49h1.35v6.9h-1.35V549.49z"/>
			<path class="st1" d="M226.13,552.78c0-2.29,1.23-3.33,2.9-3.33h0.14v1.31h-0.14c-0.97,0-1.55,0.62-1.55,2.01v3.6h-1.35V552.78z"
				/>
			<path class="st1" d="M240.69,559.15h-1.37v-3.64c-0.51,0.61-1.26,0.99-2.18,0.99c-1.96,0-3.56-1.59-3.56-3.56s1.6-3.56,3.56-3.56
				c1.96,0,3.55,1.59,3.55,3.56V559.15z M239.35,552.94c0-1.26-0.95-2.25-2.21-2.25c-1.27,0-2.21,0.99-2.21,2.25
				c0,1.26,0.95,2.25,2.21,2.25C238.38,555.18,239.35,554.19,239.35,552.94z"/>
			<path class="st1" d="M247.59,549.49v3.63c0,2.32-1.27,3.38-3.04,3.38s-3.04-1.06-3.04-3.38v-3.63h1.35v3.63
				c0,1.41,0.61,2.07,1.68,2.07s1.68-0.66,1.68-2.07v-3.63H247.59z"/>
			<path class="st1" d="M248.55,547.71c0-0.47,0.36-0.83,0.83-0.83c0.46,0,0.81,0.36,0.81,0.83c0,0.47-0.36,0.83-0.81,0.83
				C248.91,548.53,248.55,548.17,248.55,547.71z M248.7,549.49h1.35v6.9h-1.35V549.49z"/>
			<path class="st1" d="M251.3,556.39v-9.66h1.35v9.66H251.3z"/>
			<path class="st1" d="M255.52,550.8v2.32c0,1.31,0.51,1.92,1.49,2v1.31c-1.66-0.07-2.83-1.08-2.84-3.3v-2.33h-1.02v-1.31h1.02
				v-2.47h1.35v2.47h1.49v1.31H255.52z"/>
			<path class="st1" d="M261.15,552.94c0-1.97,1.59-3.56,3.56-3.56c1.52,0,2.8,0.95,3.28,2.28h-1.45c-0.39-0.58-1.03-0.97-1.82-0.97
				c-1.27,0-2.22,0.99-2.22,2.25c0,1.26,0.97,2.25,2.22,2.25c0.77,0,1.41-0.37,1.79-0.94h1.48c-0.5,1.32-1.78,2.25-3.28,2.25
				C262.74,556.5,261.15,554.91,261.15,552.94z"/>
			<path class="st1" d="M275.82,552.94c0,1.97-1.59,3.56-3.56,3.56c-1.97,0-3.56-1.59-3.56-3.56s1.59-3.56,3.56-3.56
				C274.23,549.37,275.82,550.96,275.82,552.94z M270.05,552.94c0,1.26,0.97,2.25,2.22,2.25c1.26,0,2.19-0.99,2.19-2.25
				c0-1.26-0.92-2.25-2.19-2.25C271,550.69,270.05,551.68,270.05,552.94z"/>
			<path class="st1" d="M276.23,554.7h1.35v1.68h-1.35V554.7z"/>
		</g>
		<g>
			<path class="st1" d="M252.8,495.3c-8.7,0-16.31,4.82-20.25,11.96c-3.94-7.14-11.55-11.96-20.25-11.96
				c-7.43,0-13.7,3.94-17.29,9.58V478.1h-5.73v40.31c0,12.81,10.3,23.11,23.02,23.11c8.7,0,16.31-4.82,20.25-11.96
				c3.94,7.14,11.55,11.96,20.25,11.96c7.61,0,14.33-4.39,17.29-10.3v9.58h5.73v-22.39C275.82,505.6,265.52,495.3,252.8,495.3z
				 M212.31,536.05c-9.94,0-17.38-7.79-17.38-17.64c0-9.85,7.61-17.64,17.38-17.64c9.67,0,17.38,7.79,17.38,17.64
				C229.68,528.26,222.16,536.05,212.31,536.05z M252.89,536.05c-9.67,0-17.47-7.79-17.47-17.64c0-9.85,7.61-17.64,17.47-17.64
				c9.85,0,17.29,7.79,17.29,17.64C270.18,528.26,262.57,536.05,252.89,536.05z"/>
		</g>
	</g>
	<g>
		<g>
			<path class="st0" d="M44.47,546.73h1.37v3.64c0.51-0.61,1.26-0.99,2.18-0.99c1.96,0,3.56,1.59,3.56,3.56s-1.6,3.56-3.56,3.56
				c-1.96,0-3.55-1.59-3.55-3.56V546.73z M45.81,552.94c0,1.26,0.95,2.25,2.21,2.25c1.27,0,2.21-0.99,2.21-2.25
				c0-1.26-0.95-2.25-2.21-2.25C46.78,550.69,45.81,551.68,45.81,552.94z"/>
			<path class="st0" d="M59.25,552.94c0,1.97-1.59,3.56-3.56,3.56c-1.97,0-3.56-1.59-3.56-3.56s1.59-3.56,3.56-3.56
				C57.67,549.37,59.25,550.96,59.25,552.94z M53.48,552.94c0,1.26,0.97,2.25,2.22,2.25c1.26,0,2.19-0.99,2.19-2.25
				c0-1.26-0.92-2.25-2.19-2.25C54.44,550.69,53.48,551.68,53.48,552.94z"/>
			<path class="st0" d="M66.08,556.39h-1.35v-3.63c0-1.41-0.61-2.07-1.68-2.07c-1.08,0-1.68,0.66-1.68,2.07v3.63h-1.35v-3.63
				c0-2.32,1.27-3.38,3.04-3.38s3.04,1.06,3.04,3.38V556.39z"/>
			<path class="st0" d="M70.5,552.94c0-1.97,1.6-3.56,3.56-3.56c1.96,0,3.55,1.59,3.55,3.56v3.45h-1.35v-1.09
				c-0.33,0.68-1.21,1.2-2.19,1.2C72.1,556.5,70.5,554.91,70.5,552.94z M76.27,552.94c0-1.26-0.92-2.25-2.19-2.25
				s-2.22,0.99-2.22,2.25c0,1.26,0.97,2.25,2.22,2.25C75.33,555.18,76.27,554.19,76.27,552.94z"/>
			<path class="st0" d="M78.57,547.71c0-0.47,0.36-0.83,0.83-0.83c0.46,0,0.81,0.36,0.81,0.83c0,0.47-0.36,0.83-0.81,0.83
				C78.93,548.53,78.57,548.17,78.57,547.71z M78.72,549.49h1.35v6.9h-1.35V549.49z"/>
			<path class="st0" d="M81.31,552.78c0-2.29,1.23-3.33,2.9-3.33h0.14v1.31h-0.14c-0.97,0-1.55,0.62-1.55,2.01v3.6h-1.35V552.78z"/>
			<path class="st0" d="M95.87,559.15h-1.37v-3.64c-0.51,0.61-1.26,0.99-2.18,0.99c-1.96,0-3.56-1.59-3.56-3.56s1.6-3.56,3.56-3.56
				s3.55,1.59,3.55,3.56V559.15z M94.53,552.94c0-1.26-0.95-2.25-2.21-2.25c-1.27,0-2.21,0.99-2.21,2.25c0,1.26,0.95,2.25,2.21,2.25
				C93.57,555.18,94.53,554.19,94.53,552.94z"/>
			<path class="st0" d="M102.77,549.49v3.63c0,2.32-1.27,3.38-3.04,3.38c-1.77,0-3.04-1.06-3.04-3.38v-3.63h1.35v3.63
				c0,1.41,0.61,2.07,1.68,2.07c1.08,0,1.68-0.66,1.68-2.07v-3.63H102.77z"/>
			<path class="st0" d="M103.74,547.71c0-0.47,0.36-0.83,0.83-0.83c0.46,0,0.81,0.36,0.81,0.83c0,0.47-0.36,0.83-0.81,0.83
				C104.1,548.53,103.74,548.17,103.74,547.71z M103.89,549.49h1.35v6.9h-1.35V549.49z"/>
			<path class="st0" d="M106.48,556.39v-9.66h1.35v9.66H106.48z"/>
			<path class="st0" d="M110.7,550.8v2.32c0,1.31,0.51,1.92,1.49,2v1.31c-1.66-0.07-2.83-1.08-2.84-3.3v-2.33h-1.02v-1.31h1.02
				v-2.47h1.35v2.47h1.49v1.31H110.7z"/>
			<path class="st0" d="M116.33,552.94c0-1.97,1.59-3.56,3.56-3.56c1.52,0,2.8,0.95,3.28,2.28h-1.45c-0.39-0.58-1.03-0.97-1.82-0.97
				c-1.27,0-2.22,0.99-2.22,2.25c0,1.26,0.97,2.25,2.22,2.25c0.77,0,1.41-0.37,1.79-0.94h1.48c-0.5,1.32-1.78,2.25-3.28,2.25
				C117.92,556.5,116.33,554.91,116.33,552.94z"/>
			<path class="st0" d="M131,552.94c0,1.97-1.59,3.56-3.56,3.56c-1.97,0-3.56-1.59-3.56-3.56s1.59-3.56,3.56-3.56
				C129.41,549.37,131,550.96,131,552.94z M125.23,552.94c0,1.26,0.97,2.25,2.22,2.25c1.26,0,2.19-0.99,2.19-2.25
				c0-1.26-0.92-2.25-2.19-2.25C126.19,550.69,125.23,551.68,125.23,552.94z"/>
			<path class="st0" d="M131.42,554.7h1.35v1.68h-1.35V554.7z"/>
		</g>
		<g>
			<path class="st0" d="M107.99,495.3c-8.7,0-16.31,4.82-20.25,11.96c-3.94-7.14-11.55-11.96-20.25-11.96
				c-7.43,0-13.7,3.94-17.29,9.58V478.1h-5.73v40.31c0,12.81,10.3,23.11,23.02,23.11c8.7,0,16.31-4.82,20.25-11.96
				c3.94,7.14,11.55,11.96,20.25,11.96c7.61,0,14.33-4.39,17.29-10.3v9.58h5.73v-22.39C131.01,505.6,120.71,495.3,107.99,495.3z
				 M67.49,536.05c-9.94,0-17.38-7.79-17.38-17.64c0-9.85,7.61-17.64,17.38-17.64c9.67,0,17.38,7.79,17.38,17.64
				C84.87,528.26,77.35,536.05,67.49,536.05z M108.08,536.05c-9.67,0-17.47-7.79-17.47-17.64c0-9.85,7.61-17.64,17.47-17.64
				c9.85,0,17.29,7.79,17.29,17.64C125.36,528.26,117.75,536.05,108.08,536.05z"/>
		</g>
	</g>
	<g>
		<g>
			<path class="st2" d="M406.67,546.73h1.37v3.64c0.51-0.61,1.26-0.99,2.18-0.99c1.96,0,3.56,1.59,3.56,3.56s-1.6,3.56-3.56,3.56
				c-1.96,0-3.55-1.59-3.55-3.56V546.73z M408.01,552.94c0,1.26,0.95,2.25,2.21,2.25c1.27,0,2.21-0.99,2.21-2.25
				c0-1.26-0.95-2.25-2.21-2.25C408.97,550.69,408.01,551.68,408.01,552.94z"/>
			<path class="st2" d="M421.45,552.94c0,1.97-1.59,3.56-3.56,3.56c-1.97,0-3.56-1.59-3.56-3.56s1.59-3.56,3.56-3.56
				C419.86,549.37,421.45,550.96,421.45,552.94z M415.68,552.94c0,1.26,0.97,2.25,2.22,2.25c1.26,0,2.19-0.99,2.19-2.25
				c0-1.26-0.92-2.25-2.19-2.25S415.68,551.68,415.68,552.94z"/>
			<path class="st2" d="M428.28,556.39h-1.35v-3.63c0-1.41-0.61-2.07-1.68-2.07c-1.08,0-1.68,0.66-1.68,2.07v3.63h-1.35v-3.63
				c0-2.32,1.27-3.38,3.04-3.38s3.04,1.06,3.04,3.38V556.39z"/>
			<path class="st2" d="M432.69,552.94c0-1.97,1.6-3.56,3.56-3.56c1.96,0,3.55,1.59,3.55,3.56v3.45h-1.35v-1.09
				c-0.33,0.68-1.21,1.2-2.19,1.2C434.29,556.5,432.69,554.91,432.69,552.94z M438.46,552.94c0-1.26-0.92-2.25-2.19-2.25
				s-2.22,0.99-2.22,2.25c0,1.26,0.97,2.25,2.22,2.25C437.52,555.18,438.46,554.19,438.46,552.94z"/>
			<path class="st2" d="M440.76,547.71c0-0.47,0.36-0.83,0.83-0.83c0.46,0,0.81,0.36,0.81,0.83c0,0.47-0.36,0.83-0.81,0.83
				C441.12,548.53,440.76,548.17,440.76,547.71z M440.92,549.49h1.35v6.9h-1.35V549.49z"/>
			<path class="st2" d="M443.51,552.78c0-2.29,1.23-3.33,2.9-3.33h0.14v1.31h-0.14c-0.97,0-1.55,0.62-1.55,2.01v3.6h-1.35V552.78z"
				/>
			<path class="st2" d="M458.07,559.15h-1.37v-3.64c-0.51,0.61-1.26,0.99-2.18,0.99c-1.96,0-3.56-1.59-3.56-3.56s1.6-3.56,3.56-3.56
				s3.55,1.59,3.55,3.56V559.15z M456.73,552.94c0-1.26-0.95-2.25-2.21-2.25c-1.27,0-2.21,0.99-2.21,2.25
				c0,1.26,0.95,2.25,2.21,2.25C455.76,555.18,456.73,554.19,456.73,552.94z"/>
			<path class="st2" d="M464.97,549.49v3.63c0,2.32-1.27,3.38-3.04,3.38c-1.77,0-3.04-1.06-3.04-3.38v-3.63h1.35v3.63
				c0,1.41,0.61,2.07,1.68,2.07c1.08,0,1.68-0.66,1.68-2.07v-3.63H464.97z"/>
			<path class="st2" d="M465.93,547.71c0-0.47,0.36-0.83,0.83-0.83c0.46,0,0.81,0.36,0.81,0.83c0,0.47-0.36,0.83-0.81,0.83
				C466.29,548.53,465.93,548.17,465.93,547.71z M466.08,549.49h1.35v6.9h-1.35V549.49z"/>
			<path class="st2" d="M468.68,556.39v-9.66h1.35v9.66H468.68z"/>
			<path class="st2" d="M472.9,550.8v2.32c0,1.31,0.51,1.92,1.49,2v1.31c-1.66-0.07-2.83-1.08-2.84-3.3v-2.33h-1.02v-1.31h1.02
				v-2.47h1.35v2.47h1.49v1.31H472.9z"/>
			<path class="st2" d="M478.53,552.94c0-1.97,1.59-3.56,3.56-3.56c1.52,0,2.8,0.95,3.28,2.28h-1.45c-0.39-0.58-1.03-0.97-1.82-0.97
				c-1.27,0-2.22,0.99-2.22,2.25c0,1.26,0.97,2.25,2.22,2.25c0.77,0,1.41-0.37,1.79-0.94h1.48c-0.5,1.32-1.78,2.25-3.28,2.25
				C480.12,556.5,478.53,554.91,478.53,552.94z"/>
			<path class="st2" d="M493.2,552.94c0,1.97-1.59,3.56-3.56,3.56c-1.97,0-3.56-1.59-3.56-3.56s1.59-3.56,3.56-3.56
				C491.61,549.37,493.2,550.96,493.2,552.94z M487.43,552.94c0,1.26,0.97,2.25,2.22,2.25c1.26,0,2.19-0.99,2.19-2.25
				c0-1.26-0.92-2.25-2.19-2.25C488.38,550.69,487.43,551.68,487.43,552.94z"/>
			<path class="st2" d="M493.61,554.7h1.35v1.68h-1.35V554.7z"/>
		</g>
		<g>
			<path class="st2" d="M470.18,495.3c-8.7,0-16.31,4.82-20.25,11.96c-3.94-7.14-11.55-11.96-20.25-11.96
				c-7.43,0-13.7,3.94-17.29,9.58V478.1h-5.73v40.31c0,12.81,10.3,23.11,23.02,23.11c8.7,0,16.31-4.82,20.25-11.96
				c3.94,7.14,11.55,11.96,20.25,11.96c7.61,0,14.33-4.39,17.29-10.3v9.58h5.73v-22.39C493.2,505.6,482.9,495.3,470.18,495.3z
				 M429.69,536.05c-9.94,0-17.38-7.79-17.38-17.64c0-9.85,7.61-17.64,17.38-17.64c9.67,0,17.38,7.79,17.38,17.64
				C447.06,528.26,439.54,536.05,429.69,536.05z M470.27,536.05c-9.67,0-17.47-7.79-17.47-17.64c0-9.85,7.61-17.64,17.47-17.64
				s17.29,7.79,17.29,17.64C487.56,528.26,479.94,536.05,470.27,536.05z"/>
		</g>
	</g>
	<g>
		<rect x="312.12" y="573.62" class="st2" width="132.27" height="132.27"/>
		<g>
			<g>
				<path class="st0" d="M346.44,660.01h0.98v2.63c0.37-0.44,0.9-0.72,1.57-0.72c1.41,0,2.57,1.14,2.57,2.57s-1.15,2.57-2.57,2.57
					c-1.41,0-2.56-1.14-2.56-2.57V660.01z M347.4,664.48c0,0.91,0.69,1.62,1.59,1.62c0.92,0,1.59-0.72,1.59-1.62
					c0-0.9-0.69-1.62-1.59-1.62C348.1,662.86,347.4,663.58,347.4,664.48z"/>
				<path class="st0" d="M357.09,664.48c0,1.42-1.14,2.57-2.57,2.57c-1.42,0-2.57-1.14-2.57-2.57s1.14-2.57,2.57-2.57
					C355.94,661.91,357.09,663.06,357.09,664.48z M352.93,664.48c0,0.91,0.7,1.62,1.6,1.62c0.91,0,1.58-0.72,1.58-1.62
					c0-0.9-0.67-1.62-1.58-1.62C353.62,662.86,352.93,663.58,352.93,664.48z"/>
				<path class="st0" d="M362.01,666.97h-0.97v-2.62c0-1.01-0.44-1.49-1.21-1.49c-0.78,0-1.21,0.48-1.21,1.49v2.62h-0.97v-2.62
					c0-1.67,0.91-2.44,2.19-2.44c1.27,0,2.19,0.77,2.19,2.44V666.97z"/>
				<path class="st0" d="M365.19,664.48c0-1.42,1.15-2.57,2.57-2.57c1.41,0,2.56,1.14,2.56,2.57v2.49h-0.97v-0.79
					c-0.24,0.49-0.88,0.87-1.58,0.87C366.34,667.05,365.19,665.9,365.19,664.48z M369.35,664.48c0-0.9-0.67-1.62-1.58-1.62
					c-0.91,0-1.6,0.72-1.6,1.62c0,0.91,0.7,1.62,1.6,1.62C368.67,666.1,369.35,665.39,369.35,664.48z"/>
				<path class="st0" d="M371.01,660.71c0-0.34,0.26-0.6,0.6-0.6c0.33,0,0.59,0.26,0.59,0.6c0,0.34-0.26,0.6-0.59,0.6
					C371.27,661.31,371.01,661.05,371.01,660.71z M371.12,661.99h0.97v4.97h-0.97V661.99z"/>
				<path class="st0" d="M372.99,664.37c0-1.65,0.89-2.4,2.09-2.4h0.1v0.94h-0.1c-0.7,0-1.11,0.45-1.11,1.45v2.6h-0.97V664.37z"/>
				<path class="st0" d="M383.48,668.96h-0.98v-2.63c-0.37,0.44-0.91,0.72-1.57,0.72c-1.41,0-2.57-1.14-2.57-2.57
					s1.15-2.57,2.57-2.57s2.56,1.14,2.56,2.57V668.96z M382.51,664.48c0-0.9-0.69-1.62-1.59-1.62c-0.92,0-1.59,0.72-1.59,1.62
					c0,0.91,0.69,1.62,1.59,1.62C381.82,666.1,382.51,665.39,382.51,664.48z"/>
				<path class="st0" d="M388.45,661.99v2.62c0,1.67-0.92,2.44-2.19,2.44c-1.27,0-2.19-0.77-2.19-2.44v-2.62h0.97v2.62
					c0,1.01,0.44,1.49,1.21,1.49c0.78,0,1.21-0.48,1.21-1.49v-2.62H388.45z"/>
				<path class="st0" d="M389.15,660.71c0-0.34,0.26-0.6,0.6-0.6c0.33,0,0.59,0.26,0.59,0.6c0,0.34-0.26,0.6-0.59,0.6
					C389.4,661.31,389.15,661.05,389.15,660.71z M389.25,661.99h0.97v4.97h-0.97V661.99z"/>
				<path class="st0" d="M391.12,666.97v-6.96h0.97v6.96H391.12z"/>
				<path class="st0" d="M394.17,662.94v1.67c0,0.94,0.37,1.38,1.07,1.44V667c-1.19-0.05-2.04-0.78-2.05-2.38v-1.68h-0.74v-0.94
					h0.74v-1.78h0.97v1.78h1.07v0.94H394.17z"/>
				<path class="st0" d="M398.22,664.48c0-1.42,1.14-2.57,2.57-2.57c1.09,0,2.02,0.69,2.37,1.64h-1.04c-0.28-0.42-0.75-0.7-1.31-0.7
					c-0.92,0-1.6,0.72-1.6,1.62c0,0.91,0.7,1.62,1.6,1.62c0.56,0,1.01-0.27,1.29-0.68h1.06c-0.36,0.95-1.28,1.62-2.37,1.62
					C399.37,667.05,398.22,665.9,398.22,664.48z"/>
				<path class="st0" d="M408.8,664.48c0,1.42-1.14,2.57-2.57,2.57c-1.42,0-2.57-1.14-2.57-2.57s1.14-2.57,2.57-2.57
					C407.65,661.91,408.8,663.06,408.8,664.48z M404.64,664.48c0,0.91,0.7,1.62,1.6,1.62c0.9,0,1.58-0.72,1.58-1.62
					c0-0.9-0.67-1.62-1.58-1.62C405.32,662.86,404.64,663.58,404.64,664.48z"/>
				<path class="st0" d="M409.09,665.75h0.97v1.21h-0.97V665.75z"/>
			</g>
			<g>
				<path class="st0" d="M392.21,622.94c-6.27,0-11.75,3.47-14.59,8.62c-2.84-5.15-8.32-8.62-14.59-8.62
					c-5.36,0-9.88,2.84-12.46,6.91v-19.3h-4.13v29.05c0,9.23,7.42,16.65,16.59,16.65c6.27,0,11.75-3.47,14.59-8.62
					c2.84,5.15,8.32,8.62,14.59,8.62c5.49,0,10.33-3.16,12.46-7.42v6.91h4.13V639.6C408.8,630.36,401.37,622.94,392.21,622.94z
					 M363.02,652.31c-7.17,0-12.52-5.62-12.52-12.72c0-7.1,5.49-12.72,12.52-12.72c6.97,0,12.52,5.62,12.52,12.72
					C375.55,646.7,370.13,652.31,363.02,652.31z M392.27,652.31c-6.97,0-12.59-5.62-12.59-12.72c0-7.1,5.49-12.72,12.59-12.72
					s12.46,5.62,12.46,12.72C404.73,646.7,399.24,652.31,392.27,652.31z"/>
			</g>
		</g>
		<rect x="457.24" y="573.46" class="st2" width="132.27" height="132.27"/>
		<g>
			<g>
				<path class="st1" d="M491.56,659.85h0.98v2.63c0.37-0.44,0.9-0.72,1.57-0.72c1.41,0,2.57,1.14,2.57,2.57s-1.15,2.57-2.57,2.57
					c-1.41,0-2.56-1.14-2.56-2.57V659.85z M492.53,664.32c0,0.91,0.69,1.62,1.59,1.62c0.92,0,1.59-0.72,1.59-1.62
					c0-0.9-0.69-1.62-1.59-1.62C493.22,662.7,492.53,663.42,492.53,664.32z"/>
				<path class="st1" d="M502.21,664.32c0,1.42-1.14,2.57-2.57,2.57c-1.42,0-2.57-1.14-2.57-2.57s1.14-2.57,2.57-2.57
					C501.07,661.76,502.21,662.9,502.21,664.32z M498.06,664.32c0,0.91,0.7,1.62,1.6,1.62c0.91,0,1.58-0.72,1.58-1.62
					c0-0.9-0.67-1.62-1.58-1.62C498.74,662.7,498.06,663.42,498.06,664.32z"/>
				<path class="st1" d="M507.14,666.81h-0.97v-2.62c0-1.01-0.44-1.49-1.21-1.49c-0.78,0-1.21,0.48-1.21,1.49v2.62h-0.97v-2.62
					c0-1.67,0.91-2.44,2.19-2.44c1.27,0,2.19,0.77,2.19,2.44V666.81z"/>
				<path class="st1" d="M510.32,664.32c0-1.42,1.15-2.57,2.57-2.57c1.41,0,2.56,1.14,2.56,2.57v2.49h-0.97v-0.79
					c-0.24,0.49-0.88,0.87-1.58,0.87C511.47,666.89,510.32,665.75,510.32,664.32z M514.47,664.32c0-0.9-0.67-1.62-1.58-1.62
					c-0.92,0-1.6,0.72-1.6,1.62c0,0.91,0.7,1.62,1.6,1.62S514.47,665.23,514.47,664.32z"/>
				<path class="st1" d="M516.13,660.55c0-0.34,0.26-0.6,0.6-0.6c0.33,0,0.59,0.26,0.59,0.6c0,0.34-0.26,0.6-0.59,0.6
					C516.39,661.15,516.13,660.89,516.13,660.55z M516.24,661.84h0.97v4.97h-0.97V661.84z"/>
				<path class="st1" d="M518.11,664.21c0-1.65,0.89-2.4,2.09-2.4h0.1v0.94h-0.1c-0.7,0-1.11,0.45-1.11,1.45v2.6h-0.97V664.21z"/>
				<path class="st1" d="M528.61,668.8h-0.98v-2.63c-0.37,0.44-0.91,0.72-1.57,0.72c-1.41,0-2.57-1.14-2.57-2.57
					s1.15-2.57,2.57-2.57s2.56,1.14,2.56,2.57V668.8z M527.64,664.32c0-0.9-0.69-1.62-1.59-1.62c-0.92,0-1.59,0.72-1.59,1.62
					c0,0.91,0.69,1.62,1.59,1.62C526.94,665.95,527.64,665.23,527.64,664.32z"/>
				<path class="st1" d="M533.58,661.84v2.62c0,1.67-0.92,2.44-2.19,2.44c-1.27,0-2.19-0.77-2.19-2.44v-2.62h0.97v2.62
					c0,1.01,0.44,1.49,1.21,1.49c0.78,0,1.21-0.48,1.21-1.49v-2.62H533.58z"/>
				<path class="st1" d="M534.27,660.55c0-0.34,0.26-0.6,0.6-0.6c0.33,0,0.59,0.26,0.59,0.6c0,0.34-0.26,0.6-0.59,0.6
					C534.53,661.15,534.27,660.89,534.27,660.55z M534.38,661.84h0.97v4.97h-0.97V661.84z"/>
				<path class="st1" d="M536.25,666.81v-6.96h0.97v6.96H536.25z"/>
				<path class="st1" d="M539.29,662.78v1.67c0,0.94,0.37,1.38,1.07,1.44v0.94c-1.19-0.05-2.04-0.78-2.05-2.38v-1.68h-0.74v-0.94
					h0.74v-1.78h0.97v1.78h1.07v0.94H539.29z"/>
				<path class="st1" d="M543.35,664.32c0-1.42,1.14-2.57,2.57-2.57c1.09,0,2.02,0.69,2.37,1.64h-1.04c-0.28-0.42-0.75-0.7-1.31-0.7
					c-0.92,0-1.6,0.72-1.6,1.62c0,0.91,0.7,1.62,1.6,1.62c0.56,0,1.01-0.27,1.29-0.68h1.06c-0.36,0.95-1.28,1.62-2.37,1.62
					C544.5,666.89,543.35,665.75,543.35,664.32z"/>
				<path class="st1" d="M553.92,664.32c0,1.42-1.14,2.57-2.57,2.57c-1.42,0-2.57-1.14-2.57-2.57s1.14-2.57,2.57-2.57
					C552.78,661.76,553.92,662.9,553.92,664.32z M549.77,664.32c0,0.91,0.7,1.62,1.6,1.62c0.9,0,1.58-0.72,1.58-1.62
					c0-0.9-0.67-1.62-1.58-1.62C550.45,662.7,549.77,663.42,549.77,664.32z"/>
				<path class="st1" d="M554.22,665.6h0.97v1.21h-0.97V665.6z"/>
			</g>
			<g>
				<path class="st1" d="M537.34,622.78c-6.27,0-11.75,3.47-14.59,8.62c-2.84-5.15-8.32-8.62-14.59-8.62
					c-5.36,0-9.88,2.84-12.46,6.91v-19.3h-4.13v29.05c0,9.23,7.42,16.65,16.59,16.65c6.27,0,11.75-3.47,14.59-8.62
					c2.84,5.15,8.32,8.62,14.59,8.62c5.49,0,10.33-3.16,12.46-7.42v6.91h4.13v-16.14C553.93,630.21,546.5,622.78,537.34,622.78z
					 M508.15,652.16c-7.17,0-12.52-5.62-12.52-12.72c0-7.1,5.49-12.72,12.52-12.72c6.97,0,12.52,5.62,12.52,12.72
					C520.68,646.54,515.25,652.16,508.15,652.16z M537.4,652.16c-6.97,0-12.59-5.62-12.59-12.72c0-7.1,5.49-12.72,12.59-12.72
					c7.1,0,12.46,5.62,12.46,12.72C549.86,646.54,544.37,652.16,537.4,652.16z"/>
			</g>
		</g>
	</g>
</g>
</svg>
