<?xml version="1.0" encoding="UTF-8" standalone="no"?>
<!-- Created with Inkscape (http://www.inkscape.org/) -->

<svg
   xmlns:dc="http://purl.org/dc/elements/1.1/"
   xmlns:cc="http://creativecommons.org/ns#"
   xmlns:rdf="http://www.w3.org/1999/02/22-rdf-syntax-ns#"
   xmlns:svg="http://www.w3.org/2000/svg"
   xmlns="http://www.w3.org/2000/svg"
   xmlns:sodipodi="http://sodipodi.sourceforge.net/DTD/sodipodi-0.dtd"
   xmlns:inkscape="http://www.inkscape.org/namespaces/inkscape"
   width="76.766296"
   height="81.742569"
   viewBox="0 0 20.311081 21.627721"
   version="1.1"
   id="svg8"
   sodipodi:docname="q-icon.svg"
   inkscape:version="0.92.4 (5da689c313, 2019-01-14)"
   inkscape:export-filename="C:\Users\dstoc\Desktop\web-projects\quaker-quilts\quaker-quilts-brand\logo\q-icon.png"
   inkscape:export-xdpi="598.85712"
   inkscape:export-ydpi="598.85712">
  <defs
     id="defs2">
    <pattern
       y="0"
       x="0"
       height="6"
       width="6"
       patternUnits="userSpaceOnUse"
       id="EMFhbasepattern" />
  </defs>
  <sodipodi:namedview
     id="base"
     pagecolor="#ffffff"
     bordercolor="#666666"
     borderopacity="0.39215686"
     inkscape:pageopacity="0.0"
     inkscape:pageshadow="2"
     inkscape:zoom="5.6568543"
     inkscape:cx="71.951407"
     inkscape:cy="39.995731"
     inkscape:document-units="mm"
     inkscape:current-layer="text16-0"
     showgrid="false"
     units="px"
     inkscape:pagecheckerboard="true"
     inkscape:window-width="1920"
     inkscape:window-height="1017"
     inkscape:window-x="-8"
     inkscape:window-y="-8"
     inkscape:window-maximized="1"
     showborder="true"
     showguides="true"
     inkscape:guide-bbox="true"
     fit-margin-top="0"
     fit-margin-left="0"
     fit-margin-right="0"
     fit-margin-bottom="0" />
  <metadata
     id="metadata5">
    <rdf:RDF>
      <cc:Work
         rdf:about="">
        <dc:format>image/svg+xml</dc:format>
        <dc:type
           rdf:resource="http://purl.org/dc/dcmitype/StillImage" />
        <dc:title />
      </cc:Work>
    </rdf:RDF>
  </metadata>
  <g
     inkscape:label="Layer 1"
     inkscape:groupmode="layer"
     id="layer1"
     transform="translate(4.9375393,-280.62988)">
    <g
       id="g3749"
       transform="matrix(1.0649088,0,0,1.0649088,-38.331845,222.09515)">
      <g
         aria-label="Q"
         style="font-style:normal;font-variant:normal;font-weight:normal;font-stretch:normal;font-size:10.58333302px;line-height:1.25;font-family:WestBalaio;-inkscape-font-specification:'WestBalaio, Normal';font-variant-ligatures:normal;font-variant-caps:normal;font-variant-numeric:normal;font-feature-settings:normal;text-align:start;letter-spacing:0px;word-spacing:0px;writing-mode:lr-tb;text-anchor:start;fill:#784421;fill-opacity:1;stroke:none;stroke-width:0.26458332"
         id="text12" />
      <g
         id="g3794"
         style="fill:#cccccc;fill-opacity:1"
         inkscape:export-xdpi="601.14001"
         inkscape:export-ydpi="601.14001">
        <g
           id="text16-0"
           style="font-style:normal;font-variant:normal;font-weight:normal;font-stretch:normal;font-size:4.68567562px;line-height:1.25;font-family:'Trajan Pro';-inkscape-font-specification:'Trajan Pro, Normal';font-variant-ligatures:normal;font-variant-caps:normal;font-variant-numeric:normal;font-feature-settings:normal;text-align:start;letter-spacing:0px;word-spacing:0px;writing-mode:lr-tb;text-anchor:start;fill:#cccccc;fill-opacity:1;stroke:none;stroke-width:0.11714614"
           aria-label="Quaker Quilts">
          <g
             inkscape:groupmode="layer"
             id="layer2"
             inkscape:label="Layer 2">
            <rect
               style="fill:#cccccc;fill-opacity:0.98507463;stroke-width:0.10288858;stroke-linecap:butt;stroke-linejoin:round;stroke-miterlimit:4;stroke-dasharray:none"
               id="rect985"
               width="19.073072"
               height="20.30946"
               x="31.358841"
               y="54.966896" />
          </g>
          <g
             id="g39"
             style="fill:#440055;fill-opacity:1">
            <path
               inkscape:connector-curvature="0"
               d="m 43.731843,70.286293 q -0.02117,0.05292 -0.05292,0.05292 -0.03175,0 -0.05292,-0.05292 -0.02117,-0.05292 0.05292,-0.05292 0.07408,0 0.05292,0.05292 z M 39.816009,70.18046 q -0.02117,0.05292 -0.105833,0.05292 -0.08467,0 -0.105833,-0.05292 -0.01058,-0.02117 0.02117,-0.03175 0.04233,-0.01058 0.08467,-0.01058 0.04233,0 0.07408,0.01058 0.04233,0.01058 0.03175,0.03175 z m 2.116667,-0.105834 q -0.116417,0.116417 -0.28575,0.116417 -0.169333,0 -0.296333,0 -0.04233,0 -0.1905,0 -0.137584,-0.01058 -0.179917,-0.01058 0.04233,-0.01058 0.15875,-0.02117 0.127,-0.02117 0.264583,-0.03175 0.137584,-0.02117 0.254,-0.03175 0.116417,-0.02117 0.169334,-0.02117 h 0.05292 z m 1.481667,0.105834 q -0.03175,0.05292 -0.15875,0.05292 -0.127,0 -0.15875,-0.05292 -0.02117,-0.02117 0.03175,-0.03175 0.0635,-0.01058 0.127,-0.01058 0.0635,0 0.116416,0.01058 0.05292,0.01058 0.04233,0.03175 z m -3.915834,-0.105834 q -0.04233,0.05292 -0.15875,0.05292 -0.116416,0 -0.15875,-0.05292 -0.02117,-0.02117 0.03175,-0.03175 0.05292,-0.01058 0.127,-0.01058 0.07408,0 0.127,0.01058 0.05292,0.01058 0.03175,0.03175 z m 3.4925,-0.105833 q 0.08467,0 0.08467,0.105833 0,0.105834 -0.08467,0.105834 -0.08467,0 -0.08467,-0.105834 0,-0.105833 0.08467,-0.105833 z m 2.434167,-0.423333 -0.529167,0.529166 h -0.105833 l 0.635,-0.635 z m -6.82625,0.211666 h 0.05292 q 0.02117,0.01058 0.08467,0.04233 0.0635,0.02117 0.127,0.0635 0.0635,0.03175 0.127,0.0635 0.0635,0.03175 0.08467,0.04233 -0.01058,0 -0.05292,0.01058 -0.03175,0 -0.05292,0 -0.264584,0 -0.423334,-0.22225 z m 3.96875,0.105834 q -0.02117,0.02117 -0.105833,0.0635 -0.08467,0.03175 -0.105834,0.04233 h -0.05292 -0.05292 q 0.02117,-0.02117 0.105833,-0.05292 0.08467,-0.04233 0.105834,-0.05292 h 0.05292 z m 0.211667,0 q 0.08467,0 0.08467,0.105833 0,0.105833 -0.08467,0.105833 -0.08467,0 -0.08467,-0.105833 0,-0.105833 0.08467,-0.105833 z m -5.609167,-1.375834 q -0.243417,-0.465666 -0.465667,-0.889 -0.211666,-0.433916 -0.370416,-0.867833 -0.15875,-0.4445 -0.254,-0.899583 -0.08467,-0.465667 -0.08467,-0.994833 0,-0.518584 0.116417,-1.0795 0.127,-0.560917 0.359833,-1.100667 0.232833,-0.53975 0.5715,-1.016 0.338667,-0.47625 0.762,-0.836083 0.433917,-0.359834 0.9525,-0.5715 0.518583,-0.211667 1.11125,-0.211667 h 0.15875 q -0.338667,0.148167 -0.613833,0.328083 -0.264584,0.179917 -0.4445,0.518584 0,-0.02117 -0.04233,-0.105834 -0.04233,-0.08467 -0.0635,-0.105833 h -0.02117 q -0.01058,0 -0.02117,0 0,-0.01058 -0.01058,-0.01058 -0.01058,0 -0.02117,0.01058 0,0 -0.01058,0 h -0.02117 q -0.09525,0.05292 -0.148167,0.1905 -0.04233,0.127 -0.0635,0.275167 -0.01058,0.137583 -0.01058,0.254 0.01058,0.116416 0.01058,0.127 -0.137583,-0.03175 -0.275166,0.05292 -0.137584,0.08467 -0.243417,0.22225 -0.105833,0.137584 -0.169333,0.296334 -0.0635,0.15875 -0.0635,0.275166 0,0.02117 0,0.0635 0.01058,0.03175 0.01058,0.04233 0.1905,0.02117 0.381,0.07408 0.1905,0.05292 0.338667,0.148167 0.15875,0.09525 0.254,0.243416 0.09525,0.148167 0.09525,0.381 0,0.1905 -0.04233,0.328084 -0.03175,0.127 -0.179916,0.306916 l 0.211666,-0.105833 q -0.105833,0.15875 -0.28575,0.264583 -0.179916,0.105834 -0.34925,0.15875 0.02117,0 0.07408,0.01058 0.0635,0 0.08467,0 0.264584,0 0.402167,-0.169334 0.148167,-0.179916 0.211667,-0.465666 0.07408,-0.28575 0.105833,-0.645584 0.03175,-0.359833 0.0635,-0.740833 0.03175,-0.381 0.09525,-0.740833 0.0635,-0.359834 0.211667,-0.645584 0.15875,-0.28575 0.41275,-0.455083 0.254,-0.179917 0.677333,-0.179917 0.01058,0 0.07408,0 0.0635,-0.01058 0.137584,0 0.07408,0 0.127,0.03175 0.0635,0.02117 0.07408,0.08467 -0.34925,-0.05292 -0.60325,0.0635 -0.243417,0.105833 -0.41275,0.328083 -0.15875,0.211667 -0.254,0.508 -0.08467,0.28575 -0.105833,0.582084 -0.01058,0.1905 -0.03175,0.518583 -0.02117,0.3175 -0.04233,0.6985 -0.02117,0.370417 -0.05292,0.762 -0.02117,0.381 -0.04233,0.719667 -0.01058,0.338666 -0.03175,0.582083 -0.01058,0.243417 -0.01058,0.3175 0,0.09525 0.01058,0.455083 0.02117,0.34925 0.03175,0.762 0.02117,0.41275 0.04233,0.772583 0.02117,0.34925 0.02117,0.4445 0,0.03175 0,0.127 0,0.08467 0,0.1905 0.01058,0.105834 0.01058,0.201084 0,0.08467 0,0.116416 h -0.116417 q -0.04233,-0.105833 -0.116417,-0.201083 -0.0635,-0.105833 -0.116416,-0.201083 -0.05292,-0.105834 -0.08467,-0.211667 -0.03175,-0.105833 0,-0.232833 l -0.211667,0.105833 q 0.02117,-0.03175 0.05292,-0.148167 0.04233,-0.127 0.05292,-0.169333 v -0.05292 -0.05292 q -0.01058,-0.02117 -0.05292,-0.05292 -0.03175,-0.04233 -0.05292,-0.05292 0.02117,-0.01058 0.05292,-0.04233 0.04233,-0.04233 0.05292,-0.0635 v -0.02117 q 0,-0.01058 0,-0.01058 0.01058,-0.01058 0.01058,-0.02117 0,-0.01058 -0.01058,-0.02117 0,-0.02117 0,-0.03175 -0.116417,0.09525 -0.296334,0.232833 -0.169333,0.137583 -0.338666,0.1905 0.179916,-0.201083 0.306916,-0.328083 0.127,-0.137584 0.201084,-0.264584 0.08467,-0.137583 0.116416,-0.28575 0.03175,-0.15875 0.03175,-0.402166 0,-0.05292 -0.01058,-0.169334 -0.01058,-0.116416 -0.01058,-0.137583 L 38.863509,65.73546 q -0.148166,0.179916 -0.201083,0.338666 -0.05292,0.15875 -0.07408,0.28575 -0.02117,0.127 -0.04233,0.232834 -0.01058,0.09525 -0.09525,0.179916 -0.07408,0.07408 -0.254,0.137584 -0.169333,0.05292 -0.497416,0.09525 0.02117,0.02117 0.05292,0.08467 0.04233,0.05292 0.07408,0.116417 0.03175,0.0635 0.05292,0.127 0.03175,0.0635 0.03175,0.09525 0,0.01058 -0.03175,0.04233 -0.03175,0.03175 -0.07408,0.07408 -0.03175,0.03175 -0.0635,0.0635 -0.03175,0.02117 -0.04233,0.03175 -0.01058,0.01058 -0.01058,0.02117 v 0.03175 q 0,0.116417 0.08467,0.169334 0.09525,0.04233 0.201083,0.07408 0.116417,0.02117 0.22225,0.04233 0.105834,0.02117 0.137584,0.08467 0.02117,0.03175 0.02117,0.169333 0,0.137584 0.03175,0.275167 0.03175,0.137583 0.105834,0.211667 0.08467,0.07408 0.264583,-0.02117 0.370417,0.370417 0.783167,0.613833 0.423333,0.232834 0.963083,0.232834 0.264583,0 0.53975,-0.169334 0.28575,-0.169333 0.508,-0.359833 0.22225,-0.201083 0.370417,-0.370417 0.148166,-0.169333 0.15875,-0.169333 0.01058,0 0.02117,0.01058 0.01058,0 0.02117,0 h 0.02117 q 0.02117,0.01058 0.105833,0.0635 0.08467,0.04233 0.105833,0.04233 0.08467,0 0.127,-0.105834 0.05292,-0.116416 0.07408,-0.254 0.02117,-0.148166 0.02117,-0.28575 0.01058,-0.137583 0.01058,-0.201083 h 0.635 q 0,-0.243417 0.03175,-0.4445 0.03175,-0.201083 0.03175,-0.4445 -0.127,0 -0.306917,0.01058 -0.169333,0 -0.328083,-0.02117 -0.15875,-0.03175 -0.275167,-0.105834 -0.105833,-0.08467 -0.105833,-0.264583 h -0.137584 q 0,-0.116417 0.03175,-0.275167 0.03175,-0.169333 0.105834,-0.3175 0.07408,-0.148166 0.179916,-0.253999 0.116417,-0.105834 0.275167,-0.105834 0.15875,0 0.211667,0.127 0.0635,0.116417 0.0635,0.232833 0,0.07408 -0.01058,0.169334 0,0.08467 -0.105833,0.105833 0,0.02117 0.04233,0.0635 0.04233,0.04233 0.0635,0.04233 0.01058,0 0.05292,-0.01058 0.05292,-0.02117 0.105833,-0.03175 0.05292,-0.02117 0.09525,-0.04233 0.05292,-0.02117 0.0635,-0.02117 h 0.0635 0.04233 q 0.03175,0.02117 0.105833,0.105833 0.08467,0.07408 0.105833,0.105834 0.02117,-0.01058 0.05292,-0.04233 0.04233,-0.04233 0.05292,-0.0635 0,-0.01058 0.01058,-0.05292 0.02117,-0.05292 0.03175,-0.105834 0.02117,-0.0635 0.03175,-0.105833 0.02117,-0.04233 0.03175,-0.05292 0.03175,-0.02117 0.137583,0.04233 0.105834,0.0635 0.137584,0.0635 0,-0.148167 -0.03175,-0.243417 -0.03175,-0.09525 -0.0635,-0.15875 -0.03175,-0.07408 -0.0635,-0.137583 -0.03175,-0.0635 -0.03175,-0.15875 0.09525,0 0.22225,-0.05292 0.137583,-0.05292 0.254,-0.137583 0.127,-0.08467 0.211666,-0.1905 0.08467,-0.116417 0.08467,-0.243417 0,-0.148166 -0.07408,-0.264583 -0.0635,-0.127 -0.179917,-0.211667 -0.105833,-0.09525 -0.243417,-0.148166 -0.127,-0.05292 -0.254,-0.0635 0.03175,-0.03175 0.105834,-0.148167 0.08467,-0.127 0.105833,-0.169333 v -0.05292 q 0,-0.07408 -0.03175,-0.169333 -0.02117,-0.105834 -0.07408,-0.201084 -0.04233,-0.09525 -0.116417,-0.15875 -0.0635,-0.0635 -0.137583,-0.0635 -0.03175,0 -0.09525,0.01058 -0.0635,0 -0.07408,0 -0.02117,0 -0.105833,0.05292 -0.08467,0.05292 -0.105833,0.05292 -0.01058,0 -0.05292,-0.05292 -0.04233,-0.05292 -0.05292,-0.05292 h -0.04233 q -0.02117,0 -0.04233,0 -0.01058,-0.01058 -0.02117,-0.01058 -0.02117,0 -0.0635,0.01058 -0.03175,0 -0.04233,0 0.07408,0.08467 0.09525,0.15875 0.02117,0.0635 0.02117,0.15875 0,0.211666 -0.116416,0.328083 -0.116417,0.105833 -0.3175,0.105833 -0.116417,0 -0.22225,-0.01058 -0.105834,-0.01058 -0.201084,-0.105833 0,0.01058 -0.01058,0.03175 0,0.01058 0,0.02117 0,0.211667 0.179917,0.306917 0.1905,0.08467 0.359833,0.08467 0.04233,0 0.105833,0 0.0635,0 0.116417,-0.02117 0.05292,-0.02117 0.08467,-0.0635 0.03175,-0.05292 0.01058,-0.148167 0,0.01058 0,0.05292 0.01058,0.03175 0.01058,0.05292 0,0.09525 -0.05292,0.137583 -0.05292,0.04233 -0.116417,0.07408 -0.0635,0.03175 -0.116417,0.0635 -0.05292,0.03175 -0.05292,0.09525 0,0.105834 0.127,0.179917 0.127,0.0635 0.201083,0.08467 l -0.211667,0.211666 0.105834,0.105834 -0.105834,0.105833 h 0.3175 q -0.127,0.09525 -0.338666,0.127 -0.211667,0.03175 -0.423334,0.07408 -0.201083,0.04233 -0.359833,0.148167 -0.148167,0.09525 -0.148167,0.338666 v 0.05292 q 0.02117,-0.03175 0.07408,-0.08467 0.0635,-0.0635 0.127,-0.126999 0.07408,-0.07408 0.127,-0.127 0.0635,-0.0635 0.09525,-0.08467 h 0.02117 q 0.01058,0 0.01058,0 0.01058,-0.01058 0.02117,-0.01058 0.01058,0 0.02117,0.01058 0.02117,0 0.03175,0 -0.211667,0.169333 -0.3175,0.34925 -0.09525,0.179916 -0.148167,0.381 -0.05292,0.201083 -0.08467,0.41275 -0.02117,0.211666 -0.08467,0.4445 -0.02117,0.08467 -0.07408,0.296333 -0.04233,0.211667 -0.09525,0.4445 -0.04233,0.232833 -0.09525,0.4445 -0.04233,0.211667 -0.05292,0.296333 -0.137583,0.105834 -0.232833,0.254 -0.09525,0.137584 -0.201084,0.275167 -0.09525,0.127 -0.232833,0.22225 -0.127,0.09525 -0.338667,0.09525 h -0.05292 q 0.169333,-0.05292 0.34925,-0.15875 0.179916,-0.105833 0.28575,-0.264583 -0.02117,-0.01058 -0.105834,-0.01058 -0.08467,-0.01058 -0.105833,-0.01058 -0.148167,0 -0.232833,0.0635 -0.08467,0.05292 -0.15875,0.116417 -0.07408,0.0635 -0.169334,0.127 -0.08467,0.05292 -0.232833,0.05292 -0.105833,0 -0.232833,-0.02117 -0.116417,-0.03175 -0.22225,-0.08467 -0.105834,-0.05292 -0.179917,-0.148167 -0.0635,-0.09525 -0.0635,-0.243416 v -0.03175 q 0,-0.01058 0.01058,-0.02117 0.01058,-0.02117 0.04233,-0.05292 0.04233,-0.04233 0.0635,-0.05292 0.02117,0.04233 0.09525,0.169333 0.08467,0.116417 0.116416,0.148167 0.01058,0.01058 0.02117,0.01058 h 0.03175 0.03175 q 0.01058,0 0.02117,-0.01058 l 0.423333,-0.846667 h 0.529167 q -0.09525,0.05292 -0.232834,0.137583 -0.127,0.08467 -0.243416,0.1905 -0.105834,0.09525 -0.1905,0.22225 -0.07408,0.116417 -0.07408,0.243417 v 0.05292 q 0.127,-0.179917 0.359834,-0.22225 0.232833,-0.04233 0.455083,-0.07408 0.232833,-0.03175 0.391583,-0.105833 0.169334,-0.08467 0.169334,-0.338667 0,-0.01058 -0.04233,-0.04233 -0.04233,-0.04233 -0.0635,-0.0635 -0.03175,-0.02117 -0.15875,-0.07408 -0.116416,-0.0635 -0.15875,-0.08467 h 0.624417 l 0.0635,-6.085416 v 0.635 h 0.15875 q 0.01058,-0.03175 0.05292,-0.105834 0.05292,-0.07408 0.09525,-0.15875 0.05292,-0.08467 0.09525,-0.15875 0.05292,-0.07408 0.07408,-0.105833 0.01058,-0.02117 0.04233,-0.05292 0.04233,-0.04233 0.0635,-0.05292 -0.148166,0.254 -0.243416,0.455083 -0.08467,0.1905 -0.08467,0.4445 0,0.02117 0,0.08467 0.01058,0.05292 0.01058,0.07408 0.0635,-0.127 0.15875,-0.306917 0.09525,-0.179916 0.201084,-0.359833 0.116416,-0.1905 0.232833,-0.34925 0.127,-0.169333 0.254,-0.254 -0.02117,-0.07408 -0.105833,-0.09525 -0.07408,-0.03175 -0.169334,-0.03175 -0.09525,0 -0.179916,0.01058 -0.07408,0.01058 -0.07408,0.01058 0,-0.03175 -0.01058,-0.116417 -0.01058,-0.09525 -0.03175,-0.201083 -0.01058,-0.105834 -0.03175,-0.1905 -0.02117,-0.09525 -0.03175,-0.127 -0.01058,-0.02117 -0.05292,-0.05292 -0.03175,-0.04233 -0.05292,-0.05292 -0.01058,0.02117 -0.05292,0.0635 -0.03175,0.03175 -0.05292,0.04233 -0.01058,0.01058 -0.02117,0.01058 h -0.03175 q -0.01058,0 -0.03175,0 -0.01058,-0.01058 -0.02117,-0.01058 -0.201083,-0.232834 -0.370417,-0.391584 -0.169333,-0.15875 -0.34925,-0.254 -0.169333,-0.105833 -0.381,-0.169333 -0.201083,-0.07408 -0.486833,-0.137583 0.03175,0 0.127,0 0.105833,-0.01058 0.137583,-0.01058 0.137584,0 0.4445,0.04233 0.3175,0.03175 0.645584,0.116416 0.328083,0.07408 0.5715,0.201084 0.254,0.116416 0.254,0.28575 h 0.254 v 0.148166 q 0.02117,0 0.105833,-0.02117 0.08467,-0.03175 0.105833,-0.02117 0.04233,0.02117 0.15875,0.105833 0.127,0.07408 0.15875,0.105834 l -0.105833,0.105833 q 0.148167,-0.03175 0.28575,0.03175 0.148167,0.0635 0.264583,0.179917 0.127,0.105833 0.232834,0.232833 0.105833,0.116417 0.169333,0.1905 -0.02117,0.07408 0,0.179917 0.03175,0.09525 0.07408,0.201083 0.04233,0.09525 0.07408,0.1905 0.04233,0.09525 0.04233,0.169333 h 0.127 q 0.01058,0 0.04233,0.07408 0.04233,0.07408 0.09525,0.179916 0.05292,0.09525 0.09525,0.201084 0.05292,0.105833 0.08467,0.179916 0.137583,0.338667 0.127,0.6985 -0.01058,0.359834 -0.01058,0.719667 0,0.47625 -0.0635,0.931333 -0.05292,0.455083 -0.05292,0.931333 V 66.3704 q 0.07408,-0.179917 0.116417,-0.370417 0.05292,-0.1905 0.09525,-0.370416 0,0.02117 0,0.105833 0.01058,0.08467 0.01058,0.105833 0,0.423333 -0.15875,0.85725 -0.148167,0.433917 -0.402167,0.836083 -0.243416,0.402167 -0.550333,0.762 -0.296333,0.34925 -0.592667,0.613834 0,0.01058 -0.01058,0.03175 0,0.01058 0,0.02117 v 0.03175 q 0,0.01058 0.01058,0.02117 0.02117,0.02117 0.05292,0.0635 0.03175,0.04233 0.05292,0.04233 h 0.740833 q 0,-0.04233 0.04233,-0.15875 0.04233,-0.127 0.0635,-0.15875 0.03175,-0.05292 0.148167,-0.07408 0.116417,-0.02117 0.243417,-0.04233 0.137583,-0.02117 0.264583,-0.0635 0.127,-0.04233 0.1905,-0.137584 0.0635,-0.105833 0.07408,-0.148166 0.02117,-0.04233 0.03175,-0.07408 0.02117,-0.03175 0.05292,-0.07408 0.04233,-0.04233 0.15875,-0.127 0.07408,0.08467 0.09525,0.15875 0.02117,0.0635 0.02117,0.15875 0,0.02117 -0.01058,0.0635 0,0.03175 0,0.04233 l -0.105833,-0.105833 q -0.264584,0.60325 -0.635,0.889 -0.359833,0.28575 -1.037167,0.28575 -0.148166,0 -0.275166,-0.03175 -0.127,-0.04233 -0.254,-0.07408 -0.116417,-0.04233 -0.243417,-0.07408 -0.116417,-0.04233 -0.254,-0.04233 -0.201083,0 -0.465667,0.07408 -0.254,0.0635 -0.550333,0.148167 -0.28575,0.07408 -0.592667,0.148167 -0.296333,0.0635 -0.582083,0.0635 -0.497417,0 -0.92075,-0.09525 -0.423333,-0.09525 -0.804333,-0.275167 -0.381,-0.179917 -0.73025,-0.433917 -0.34925,-0.254 -0.6985,-0.582083 z m 0.9525,0.9525 q 0.01058,0 0.02117,0 0.02117,-0.01058 0.03175,-0.01058 0,0.01058 0.01058,0.01058 h 0.02117 0.02117 q 0.03175,0.02117 0.105834,0.105834 0.08467,0.07408 0.105833,0.105833 -0.01058,0 -0.03175,0.01058 -0.01058,0 -0.02117,0 h -0.03175 q -0.01058,0 -0.02117,-0.01058 -0.03175,-0.02117 -0.116417,-0.09525 -0.07408,-0.08467 -0.09525,-0.116417 z m 3.704167,-0.105833 q 0.08467,0 0.08467,0.105833 0,0.105834 -0.08467,0.105834 -0.08467,0 -0.08467,-0.105834 0,-0.105833 0.08467,-0.105833 z m -3.81,-0.105833 q 0.08467,0 0.08467,0.105833 0,0.105833 -0.08467,0.105833 -0.08467,0 -0.08467,-0.105833 0,-0.105833 0.08467,-0.105833 z m 4.1275,0 q 0.08467,0 0.08467,0.105833 0,0.105833 -0.08467,0.105833 -0.08467,0 -0.08467,-0.105833 0,-0.105833 0.08467,-0.105833 z m -4.233334,-0.105834 q 0.08467,0 0.08467,0.105834 0,0.105833 -0.08467,0.105833 -0.08467,0 -0.08467,-0.105833 0,-0.105834 0.08467,-0.105834 z m 4.445,0 q -0.08467,0 -0.08467,0.105834 0,0.105833 0.08467,0.105833 0.08467,0 0.08467,-0.105833 0,-0.105834 -0.08467,-0.105834 z m 3.175,0 q 0.08467,0 0.08467,0.105834 0,0.105833 -0.08467,0.105833 -0.08467,0 -0.08467,-0.105833 0,-0.105834 0.08467,-0.105834 z m -7.725833,-0.105833 q 0.08467,0 0.08467,0.105833 0,0.105834 -0.08467,0.105834 -0.08467,0 -0.08467,-0.105834 0,-0.105833 0.08467,-0.105833 z m 5.08,-0.105833 q -0.08467,0.03175 -0.179917,0.08467 -0.08467,0.04233 -0.137583,0.127 0.08467,-0.03175 0.169333,-0.07408 0.09525,-0.05292 0.148167,-0.137583 z m -5.185833,0 q 0.08467,0 0.08467,0.105833 0,0.105833 -0.08467,0.105833 -0.08467,0 -0.08467,-0.105833 0,-0.105833 0.08467,-0.105833 z m -0.328084,-0.264584 q 0,-0.01058 0,-0.02117 0.01058,-0.02117 0.01058,-0.03175 0.03175,0.02117 0.105833,0.105833 0.08467,0.07408 0.105833,0.105833 v 0.02117 0.02117 q 0,0.01058 0.01058,0.01058 0,0.01058 -0.01058,0.03175 0,0.01058 0,0.02117 -0.03175,-0.02117 -0.116416,-0.09525 -0.07408,-0.08467 -0.09525,-0.116417 -0.01058,-0.01058 -0.01058,-0.02117 z m 7.313084,-2.06375 q -0.328084,0.624417 -0.709084,1.17475 -0.381,0.53975 -0.878416,1.04775 0.05292,-0.05292 0.1905,-0.179916 0.137583,-0.137584 0.28575,-0.28575 0.15875,-0.15875 0.28575,-0.296334 0.137583,-0.137583 0.1905,-0.1905 0.09525,-0.105833 0.201083,-0.264583 0.116417,-0.169333 0.211667,-0.34925 0.09525,-0.179917 0.15875,-0.338667 0.07408,-0.169333 0.07408,-0.264583 0,-0.01058 -0.01058,-0.02117 0,-0.02117 0,-0.03175 z m -2.8575,1.5875 q 0.05292,0.02117 0.05292,0.105834 0,0.08467 -0.05292,0.105833 -0.02117,0.01058 -0.04233,-0.02117 -0.01058,-0.04233 -0.01058,-0.08467 0,-0.04233 0.01058,-0.07408 0.02117,-0.04233 0.04233,-0.03175 z m 3.069166,0.211667 q -0.05292,0.05292 -0.211666,0.05292 -0.15875,0 -0.211667,-0.05292 -0.02117,-0.02117 0.04233,-0.03175 0.07408,-0.01058 0.169334,-0.01058 0.09525,0 0.15875,0.01058 0.07408,0.01058 0.05292,0.03175 z m -7.62,-0.211667 q -0.08467,0 -0.08467,0.105834 0,0.105833 0.08467,0.105833 0.08467,0 0.08467,-0.105833 0,-0.105834 -0.08467,-0.105834 z m 1.799167,0 q 0.08467,0 0.08467,0.105834 0,0.105833 -0.08467,0.105833 -0.08467,0 -0.08467,-0.105833 0,-0.105834 0.08467,-0.105834 z m 5.291667,0.105834 q -0.02117,0.05292 -0.05292,0.05292 -0.03175,0 -0.05292,-0.05292 -0.02117,-0.05292 0.05292,-0.05292 0.07408,0 0.05292,0.05292 z m -7.090834,-0.3175 q -0.01058,-0.02117 -0.04233,-0.01058 -0.02117,0 -0.05292,0.03175 -0.02117,0.02117 -0.03175,0.05292 0,0.02117 0.02117,0.03175 0.05292,0.02117 0.08467,-0.01058 0.04233,-0.04233 0.02117,-0.09525 z m 0.105834,0 q -0.08467,0 -0.08467,0.105833 0,0.105833 0.08467,0.105833 0.08467,0 0.08467,-0.105833 0,-0.105833 -0.08467,-0.105833 z m 4.656666,-0.105834 q 0.05292,0.02117 0.05292,0.105834 0,0.08467 -0.05292,0.105833 -0.02117,0.01058 -0.04233,-0.02117 -0.01058,-0.04233 -0.01058,-0.08467 0,-0.04233 0.01058,-0.07408 0.02117,-0.04233 0.04233,-0.03175 z m -1.799166,-0.635 q 0.02117,0.04233 0.03175,0.148167 0.01058,0.105833 0.01058,0.22225 0,0.116417 -0.01058,0.22225 -0.01058,0.105833 -0.03175,0.148167 -0.02117,0.04233 -0.04233,-0.08467 -0.01058,-0.127 -0.01058,-0.28575 0,-0.15875 0.01058,-0.28575 0.02117,-0.127 0.04233,-0.08467 z m 4.974166,0.423334 q 0.08467,0 0.08467,0.105833 0,0.105833 -0.08467,0.105833 -0.08467,0 -0.08467,-0.105833 0,-0.105833 0.08467,-0.105833 z m -3.280833,-0.105834 q 0.05292,0.01058 0.05292,0.05292 0,0.04233 -0.05292,0.05292 -0.05292,0.01058 -0.05292,-0.05292 0,-0.0635 0.05292,-0.05292 z m 3.386666,-0.105833 q 0.05292,0.01058 0.05292,0.05292 0,0.04233 -0.05292,0.05292 -0.05292,0.01058 -0.05292,-0.05292 0,-0.0635 0.05292,-0.05292 z m 0.105834,-0.3175 q 0.05292,0.01058 0.05292,0.05292 0,0.04233 -0.05292,0.05292 -0.05292,0.01058 -0.05292,-0.05292 0,-0.0635 0.05292,-0.05292 z M 38.228509,67.00546 q 0.08467,0 0.08467,0.105833 0,0.105833 -0.08467,0.105833 -0.08467,0 -0.08467,-0.105833 0,-0.105833 0.08467,-0.105833 z m 4.021667,0 q 0.08467,0 0.08467,0.105833 0,0.105833 -0.08467,0.105833 -0.08467,0 -0.08467,-0.105833 0,-0.105833 0.08467,-0.105833 z m 0.423333,0 q 0.08467,0 0.08467,0.105833 0,0.105833 -0.08467,0.105833 -0.08467,0 -0.08467,-0.105833 0,-0.105833 0.08467,-0.105833 z m -6.0325,-0.105834 q -0.08467,0 -0.08467,0.105834 0,0.105833 0.08467,0.105833 0.08467,0 0.08467,-0.105833 0,-0.105834 -0.08467,-0.105834 z m 5.503334,0 q 0.05292,0.01058 0.05292,0.05292 0,0.04233 -0.05292,0.05292 -0.05292,0.01058 -0.05292,-0.05292 0,-0.07408 0.05292,-0.05292 z m 0.423333,0 q 0.08467,0 0.08467,0.105834 0,0.105833 -0.08467,0.105833 -0.08467,0 -0.08467,-0.105833 0,-0.105834 0.08467,-0.105834 z m -3.915833,-0.105833 q 0.02117,0.05292 -0.02117,0.09525 -0.03175,0.03175 -0.08467,0.01058 -0.02117,-0.01058 -0.02117,-0.03175 0.01058,-0.03175 0.03175,-0.05292 0.03175,-0.03175 0.05292,-0.03175 0.03175,-0.01058 0.04233,0.01058 z m 3.704166,0 q 0.08467,0 0.08467,0.105833 0,0.105834 -0.08467,0.105834 -0.08467,0 -0.08467,-0.105834 0,-0.105833 0.08467,-0.105833 z m 3.175,-0.105833 q 0.05292,0.02117 0.05292,0.105833 0,0.08467 -0.05292,0.105833 -0.02117,0.01058 -0.04233,-0.02117 -0.01058,-0.04233 -0.01058,-0.08467 0,-0.04233 0.01058,-0.07408 0.02117,-0.04233 0.04233,-0.03175 z m 0.105833,-0.635 q 0.05292,0.05292 0.05292,0.211666 0,0.15875 -0.05292,0.211667 -0.02117,0.02117 -0.04233,-0.04233 -0.01058,-0.07408 -0.01058,-0.169334 0,-0.09525 0.01058,-0.15875 0.02117,-0.07408 0.04233,-0.05292 z m -8.688916,-0.370417 q 0,0.03175 0.01058,0.148167 0.02117,0.116416 0.05292,0.232833 0.03175,0.116417 0.0635,0.211667 0.04233,0.09525 0.09525,0.09525 h 0.762 q 0,-0.116417 -0.07408,-0.211667 -0.0635,-0.09525 -0.0635,-0.22225 0,-0.08467 0.04233,-0.127 0.05292,-0.04233 0.116417,-0.0635 0.0635,-0.02117 0.137583,-0.02117 0.07408,0 0.137583,0 0.116417,0 0.22225,0.01058 0.105834,0.01058 0.201084,0.105833 0.02117,-0.02117 0.05292,-0.105833 0.04233,-0.08467 0.05292,-0.105833 0,-0.02117 0.01058,-0.05292 0.01058,-0.03175 0.01058,-0.05292 h -0.338667 l 0.105833,-0.105833 q -0.02117,-0.02117 -0.105833,-0.05292 -0.08467,-0.04233 -0.105833,-0.05292 h -0.05292 -0.05292 q -0.02117,0.01058 -0.08467,0.04233 -0.0635,0.02117 -0.127,0.0635 -0.0635,0.03175 -0.127,0.0635 -0.0635,0.03175 -0.08467,0.04233 l 0.211667,-0.3175 h -0.211667 q 0.03175,-0.02117 0.105833,-0.09525 0.08467,-0.08467 0.105834,-0.116416 0.01058,-0.03175 0.02117,-0.07408 0.01058,-0.04233 0.02117,-0.08467 0.01058,-0.04233 0.01058,-0.105834 h -0.582083 q 0.03175,-0.01058 0.105833,-0.03175 0.07408,-0.02117 0.15875,-0.05292 0.08467,-0.03175 0.15875,-0.07408 0.07408,-0.04233 0.105834,-0.105833 H 37.784 q 0,-0.04233 0.01058,-0.0635 0.01058,-0.03175 0.01058,-0.05292 0,-0.02117 -0.02117,-0.04233 -0.02117,-0.02117 -0.08467,-0.05292 l 0.3175,-0.211666 q -0.05292,-0.01058 -0.08467,-0.05292 -0.02117,-0.04233 -0.03175,-0.08467 -0.01058,-0.05292 -0.01058,-0.105833 0.01058,-0.05292 0.01058,-0.08467 0,-0.169333 0.03175,-0.275166 0.03175,-0.116417 0.1905,-0.243417 l -0.105833,-0.105833 -0.423334,0.211666 q -0.02117,-0.148166 -0.105833,-0.211666 -0.08467,-0.0635 -0.211667,-0.105834 -0.02117,0 -0.05292,0 -0.02117,-0.01058 -0.04233,-0.01058 -0.03175,0 -0.0635,-0.01058 v 0.4445 H 36.91615 q 0,0.402166 0.254,0.740833 h -0.656167 q 0,0.148167 0.127,0.211667 -0.04233,0.03175 -0.169333,0.15875 -0.116417,0.116416 -0.148167,0.15875 -0.01058,0.01058 -0.01058,0.02117 v 0.03175 q 0,0.09525 0.04233,0.148167 0.04233,0.05292 0.09525,0.105833 0.0635,0.05292 0.105834,0.127 0.04233,0.07408 0.04233,0.201084 h 0.5715 q -0.03175,0.03175 -0.116417,0.15875 -0.07408,0.116416 -0.09525,0.15875 -0.01058,0.01058 -0.01058,0.02117 z m 1.915583,0.264583 q 0.05292,0.02117 0.05292,0.05292 0,0.03175 -0.05292,0.05292 -0.05292,0.02117 -0.05292,-0.05292 0,-0.07408 0.05292,-0.05292 z m 1.375834,-0.317499 q 0.05292,0.02117 0.05292,0.05292 0,0.03175 -0.05292,0.05292 -0.05292,0.02117 -0.05292,-0.05292 0,-0.07408 0.05292,-0.05292 z m -1.5875,-0.105834 q -0.08467,0 -0.08467,0.105834 0,0.105833 0.08467,0.105833 0.08467,0 0.08467,-0.105833 0,-0.105834 -0.08467,-0.105834 z m 4.868333,0 q 0.08467,0 0.08467,0.105834 0,0.105833 -0.08467,0.105833 -0.08467,0 -0.08467,-0.105833 0,-0.105834 0.08467,-0.105834 z M 38.228509,65.41796 q -0.01058,0.02117 -0.05292,0.0635 -0.03175,0.03175 -0.05292,0.04233 -0.01058,0.01058 -0.02117,0.01058 h -0.03175 q -0.01058,0 -0.03175,0 -0.01058,-0.01058 -0.02117,-0.01058 z m 5.185834,0 q 0.08467,0 0.08467,0.105833 0,0.105834 -0.08467,0.105834 -0.08467,0 -0.08467,-0.105834 0,-0.105833 0.08467,-0.105833 z m 2.328333,-0.211667 q 0.05292,0.04233 0.05292,0.15875 0,0.116417 -0.05292,0.15875 -0.02117,0.02117 -0.04233,-0.03175 -0.01058,-0.05292 -0.01058,-0.127 0,-0.07408 0.01058,-0.127 0.02117,-0.05292 0.04233,-0.03175 z m -2.751667,0.105834 q 0.08467,0 0.08467,0.105833 0,0.105833 -0.08467,0.105833 -0.08467,0 -0.08467,-0.105833 0,-0.105833 0.08467,-0.105833 z m 0.3175,0 q 0.08467,0 0.08467,0.105833 0,0.105833 -0.08467,0.105833 -0.08467,0 -0.08467,-0.105833 0,-0.105833 0.08467,-0.105833 z m 1.799167,-0.846667 q 0.02117,0.05292 0.03175,0.1905 0.01058,0.137583 0.01058,0.28575 0,0.148167 -0.01058,0.28575 -0.01058,0.137583 -0.03175,0.1905 -0.02117,0.05292 -0.04233,-0.105833 -0.01058,-0.169334 -0.01058,-0.370417 0,-0.201083 0.01058,-0.359833 0.02117,-0.169334 0.04233,-0.116417 z m -1.905,0.740833 q 0.08467,0 0.08467,0.105834 0,0.105833 -0.08467,0.105833 -0.08467,0 -0.08467,-0.105833 0,-0.105834 0.08467,-0.105834 z m 0.211667,-0.105833 q 0.08467,0 0.08467,0.105833 0,0.105834 -0.08467,0.105834 -0.08467,0 -0.08467,-0.105834 0,-0.105833 0.08467,-0.105833 z m -5.820834,-0.105833 q 0.08467,0 0.08467,0.105833 0,0.105833 -0.08467,0.105833 -0.08467,0 -0.08467,-0.105833 0,-0.105833 0.08467,-0.105833 z m 2.645834,-2.2225 q 0.02117,0.127 0.03175,0.465666 0.01058,0.328084 0.01058,0.6985 0,0.370417 -0.01058,0.709084 -0.01058,0.328083 -0.03175,0.455083 -0.02117,0.08467 -0.03175,-0.07408 0,-0.169334 -0.01058,-0.455084 -0.01058,-0.28575 -0.01058,-0.635 0,-0.34925 0.01058,-0.635 0.01058,-0.28575 0.01058,-0.4445 0.01058,-0.169333 0.03175,-0.08467 z m -2.434167,2.116666 q 0.08467,0 0.08467,0.105834 0,0.105833 -0.08467,0.105833 -0.08467,0 -0.08467,-0.105833 0,-0.105834 0.08467,-0.105834 z m 5.715,0 q 0.08467,0 0.08467,0.105834 0,0.105833 -0.08467,0.105833 -0.08467,0 -0.08467,-0.105833 0,-0.105834 0.08467,-0.105834 z m 2.116666,-0.423333 q 0.02117,0.03175 0.03175,0.105833 0.01058,0.07408 0.01058,0.15875 0,0.08467 -0.01058,0.15875 -0.01058,0.07408 -0.03175,0.105834 -0.02117,0.03175 -0.04233,-0.0635 -0.01058,-0.09525 -0.01058,-0.201084 0,-0.116416 0.01058,-0.201083 0.02117,-0.09525 0.04233,-0.0635 z m -2.222499,0.423333 q -0.02117,0.05292 -0.05292,0.05292 -0.03175,0 -0.05292,-0.05292 -0.02117,-0.05292 0.05292,-0.05292 0.07408,0 0.05292,0.05292 z M 38.863509,64.78296 h 0.105834 v -0.105833 h -0.105834 z m 3.175,-0.105833 h 0.211667 q -0.01058,-0.02117 -0.05292,-0.05292 -0.03175,-0.04233 -0.05292,-0.05292 h -0.02117 -0.02117 q -0.01058,0 -0.01058,-0.01058 -0.01058,0 -0.03175,0.01058 -0.01058,0 -0.02117,0 z m 1.375834,-0.105834 q 0.08467,0 0.08467,0.105834 0,0.105833 -0.08467,0.105833 -0.08467,0 -0.08467,-0.105833 0,-0.105834 0.08467,-0.105834 z m 0.211666,0 q 0.08467,0 0.08467,0.105834 0,0.105833 -0.08467,0.105833 -0.08467,0 -0.08467,-0.105833 0,-0.105834 0.08467,-0.105834 z m -0.211666,-0.3175 q 0.08467,0 0.08467,0.105834 0,0.105833 -0.08467,0.105833 -0.08467,0 -0.08467,-0.105833 0,-0.105834 0.08467,-0.105834 z m 2.116666,-0.211666 q 0.05292,0.04233 0.05292,0.15875 0,0.116416 -0.05292,0.15875 -0.02117,0.02117 -0.04233,-0.03175 -0.01058,-0.05292 -0.01058,-0.127 0,-0.07408 0.01058,-0.127 0.02117,-0.05292 0.04233,-0.03175 z m -7.9375,0 q 0.08467,0 0.08467,0.105833 0,0.105833 -0.08467,0.105833 -0.08467,0 -0.08467,-0.105833 0,-0.105833 0.08467,-0.105833 z m 0.423334,0.105833 q 0.01058,0 0.02117,0.01058 0.02117,0 0.03175,0 h 0.03175 q 0.01058,0 0.02117,-0.01058 0.02117,-0.01058 0.05292,-0.04233 0.04233,-0.04233 0.05292,-0.0635 z m -1.905,-0.211667 q -0.05292,-0.02117 -0.05292,0.05292 0,0.07408 0.05292,0.05292 0.05292,-0.02117 0.05292,-0.05292 0,-0.03175 -0.05292,-0.05292 z m 8.89,-0.105833 q 0.05292,0.02117 0.05292,0.105833 0,0.08467 -0.05292,0.105834 -0.02117,0.01058 -0.04233,-0.02117 -0.01058,-0.04233 -0.01058,-0.08467 0,-0.04233 0.01058,-0.07408 0.02117,-0.04233 0.04233,-0.03175 z m -1.5875,0 q 0.08467,0 0.08467,0.105833 0,0.105834 -0.08467,0.105834 -0.08467,0 -0.08467,-0.105834 0,-0.105833 0.08467,-0.105833 z m 2.010833,-0.211667 q 0.05292,0.02117 0.05292,0.105834 0,0.08467 -0.05292,0.105833 -0.02117,0.01058 -0.04233,-0.02117 -0.01058,-0.04233 -0.01058,-0.08467 0,-0.04233 0.01058,-0.07408 0.02117,-0.04233 0.04233,-0.03175 z m -3.291417,-0.370416 q 0,0.116416 0.01058,0.201083 0.02117,0.07408 0.105833,0.169333 0.03175,-0.3175 0.08467,-0.508 0.0635,-0.1905 0.169333,-0.328083 0.116417,-0.148167 0.28575,-0.264583 0.169333,-0.116417 0.41275,-0.275167 v -0.02117 q 0,-0.01058 0,-0.01058 0.01058,-0.01058 0.01058,-0.02117 -0.01058,0 -0.01058,-0.01058 v -0.02117 -0.02117 q -0.03175,-0.04233 -0.116417,-0.116417 -0.07408,-0.08467 -0.09525,-0.09525 -0.148166,-0.03175 -0.306916,0.127 -0.148167,0.15875 -0.275167,0.391583 -0.116417,0.22225 -0.201083,0.465667 -0.07408,0.232833 -0.07408,0.338667 z m 3.185583,0.15875 q 0.05292,0.02117 0.05292,0.05292 0,0.03175 -0.05292,0.05292 -0.05292,0.02117 -0.05292,-0.05292 0,-0.07408 0.05292,-0.05292 z m -0.105833,-0.3175 q 0.05292,0.02117 0.05292,0.105833 0,0.08467 -0.05292,0.105833 -0.02117,0.01058 -0.04233,-0.02117 -0.01058,-0.04233 -0.01058,-0.08467 0,-0.04233 0.01058,-0.07408 0.02117,-0.04233 0.04233,-0.03175 z M 45.107676,62.87796 q 0.05292,0.02117 0.05292,0.05292 0,0.03175 -0.05292,0.05292 -0.05292,0.02117 -0.05292,-0.05292 0,-0.07408 0.05292,-0.05292 z m -0.105833,-0.211667 q 0.05292,0.02117 0.05292,0.05292 0,0.03175 -0.05292,0.05292 -0.05292,0.02117 -0.05292,-0.05292 0,-0.07408 0.05292,-0.05292 z M 41.403509,60.94121 q -0.359833,0 -0.560916,0.137583 -0.201084,0.137584 -0.306917,0.370417 -0.09525,0.22225 -0.127,0.518583 -0.03175,0.28575 -0.0635,0.592667 0,-0.04233 -0.01058,-0.179917 0,-0.148166 0,-0.1905 0,-0.391583 0.05292,-0.613833 0.0635,-0.232833 0.1905,-0.370417 0.127,-0.148166 0.328084,-0.254 0.201083,-0.116416 0.497416,-0.296333 z m 3.4925,1.513417 q 0.08467,0 0.08467,0.105833 0,0.105833 -0.08467,0.105833 -0.08467,0 -0.08467,-0.105833 0,-0.105833 0.08467,-0.105833 z m -6.138333,-0.105834 q 0.08467,0 0.08467,0.105834 0,0.105833 -0.08467,0.105833 -0.08467,0 -0.08467,-0.105833 0,-0.105834 0.08467,-0.105834 z M 38.651843,62.24296 q 0.08467,0 0.08467,0.105833 0,0.105834 -0.08467,0.105834 -0.08467,0 -0.08467,-0.105834 0,-0.105833 0.08467,-0.105833 z m 0.3175,0 q 0.08467,0 0.08467,0.105833 0,0.105834 -0.08467,0.105834 -0.08467,0 -0.08467,-0.105834 0,-0.105833 0.08467,-0.105833 z m 5.820833,0 q 0.08467,0 0.08467,0.105833 0,0.105834 -0.08467,0.105834 -0.08467,0 -0.08467,-0.105834 0,-0.105833 0.08467,-0.105833 z m -6.773333,-0.105833 q 0.08467,0 0.08467,0.105833 0,0.105833 -0.08467,0.105833 -0.08467,0 -0.08467,-0.105833 0,-0.105833 0.08467,-0.105833 z m 0.423333,0.105833 q -0.01058,0.05292 -0.05292,0.05292 -0.04233,0 -0.05292,-0.05292 -0.01058,-0.05292 0.05292,-0.05292 0.0635,0 0.05292,0.05292 z m 0.423333,-0.105833 q 0.05292,0.02117 0.05292,0.05292 0,0.03175 -0.05292,0.05292 -0.05292,0.02117 -0.05292,-0.05292 0,-0.07408 0.05292,-0.05292 z m 5.820834,0 q 0.08467,0 0.08467,0.105833 0,0.105833 -0.08467,0.105833 -0.08467,0 -0.08467,-0.105833 0,-0.105833 0.08467,-0.105833 z m -7.62,-0.3175 q -0.08467,0.05292 -0.137584,0.148166 -0.04233,0.08467 -0.07408,0.169334 0.08467,-0.05292 0.127,-0.137584 0.05292,-0.09525 0.08467,-0.179916 z m 1.693333,0.105833 q 0.08467,0 0.08467,0.105833 0,0.105834 -0.08467,0.105834 -0.08467,0 -0.08467,-0.105834 0,-0.105833 0.08467,-0.105833 z m 0.3175,0 q 0.08467,0 0.08467,0.105833 0,0.105834 -0.08467,0.105834 -0.08467,0 -0.08467,-0.105834 0,-0.105833 0.08467,-0.105833 z m -0.423333,-0.105833 q 0.08467,0 0.08467,0.105833 0,0.105833 -0.08467,0.105833 -0.08467,0 -0.08467,-0.105833 0,-0.105833 0.08467,-0.105833 z m -0.105834,-0.105834 q 0.08467,0 0.08467,0.105834 0,0.105833 -0.08467,0.105833 -0.08467,0 -0.08467,-0.105833 0,-0.105834 0.08467,-0.105834 z m 0.423334,0 q 0.05292,0.02117 0.05292,0.05292 0,0.03175 -0.05292,0.05292 -0.05292,0.02117 -0.05292,-0.05292 0,-0.07408 0.05292,-0.05292 z m 2.645833,-0.3175 q 0.05292,0.02117 0.05292,0.105834 0,0.08467 -0.05292,0.105833 -0.02117,0.01058 -0.04233,-0.02117 -0.01058,-0.04233 -0.01058,-0.08467 0,-0.04233 0.01058,-0.07408 0.02117,-0.04233 0.04233,-0.03175 z m 2.2225,0.211667 h 0.105833 l -0.105833,-0.105833 z m -0.105833,-0.3175 q -0.08467,0 -0.08467,0.105833 0,0.105834 0.08467,0.105834 0.08467,0 0.08467,-0.105834 0,-0.105833 -0.08467,-0.105833 z m -6.0325,-0.105833 q -0.01058,-0.02117 -0.04233,-0.01058 -0.02117,0 -0.05292,0.03175 -0.02117,0.02117 -0.03175,0.05292 0,0.02117 0.02117,0.03175 0.05292,0.02117 0.08467,-0.01058 0.04233,-0.04233 0.02117,-0.09525 z m 4.233333,0 q 0.08467,0 0.08467,0.105833 0,0.105833 -0.08467,0.105833 -0.08467,0 -0.08467,-0.105833 0,-0.105833 0.08467,-0.105833 z m 1.693333,0 q -0.08467,0 -0.08467,0.105833 0,0.105833 0.08467,0.105833 0.08467,0 0.08467,-0.105833 0,-0.105833 -0.08467,-0.105833 z m -2.116666,-0.105834 q 0.05292,0.02117 0.05292,0.05292 0,0.03175 -0.05292,0.05292 -0.05292,0.02117 -0.05292,-0.05292 0,-0.07408 0.05292,-0.05292 z M 38.228509,60.65546 q -0.08467,0 -0.08467,0.105833 0,0.105834 0.08467,0.105834 0.08467,0 0.08467,-0.105834 0,-0.105833 -0.08467,-0.105833 z m 0.3175,-0.211667 q -0.08467,0 -0.08467,0.105834 0,0.105833 0.08467,0.105833 0.08467,0 0.08467,-0.105833 0,-0.105834 -0.08467,-0.105834 z m 2.645834,0 q 0.08467,0 0.08467,0.105834 0,0.105833 -0.08467,0.105833 -0.08467,0 -0.08467,-0.105833 0,-0.105834 0.08467,-0.105834 z M 41.086009,60.33796 q 0.08467,0 0.08467,0.105833 0,0.105834 -0.08467,0.105834 -0.08467,0 -0.08467,-0.105834 0,-0.105833 0.08467,-0.105833 z"
               style="font-style:normal;font-variant:normal;font-weight:normal;font-stretch:normal;font-size:10.58333302px;line-height:1.25;font-family:WestBalaio;-inkscape-font-specification:'WestBalaio, Normal';font-variant-ligatures:normal;font-variant-caps:normal;font-variant-numeric:normal;font-feature-settings:normal;text-align:start;letter-spacing:0px;word-spacing:0px;writing-mode:lr-tb;text-anchor:start;fill:#440055;fill-opacity:1;stroke:none;stroke-width:0.26458332"
               id="path3751" />
            <path
               style="display:inline;fill:#440055;fill-rule:evenodd;stroke:#000000;stroke-width:0.24845633px;stroke-linecap:butt;stroke-linejoin:miter;stroke-opacity:1;fill-opacity:1"
               d="m 39.92638,72.030177 v 0"
               id="path75"
               inkscape:connector-type="polyline"
               inkscape:connector-curvature="0" />
          </g>
        </g>
      </g>
    </g>
  </g>
</svg>
