<?xml version="1.0" encoding="UTF-8" standalone="no"?>
<!-- Created with Inkscape (http://www.inkscape.org/) -->

<svg
   xmlns:dc="http://purl.org/dc/elements/1.1/"
   xmlns:cc="http://creativecommons.org/ns#"
   xmlns:rdf="http://www.w3.org/1999/02/22-rdf-syntax-ns#"
   xmlns:svg="http://www.w3.org/2000/svg"
   xmlns="http://www.w3.org/2000/svg"
   xmlns:sodipodi="http://sodipodi.sourceforge.net/DTD/sodipodi-0.dtd"
   xmlns:inkscape="http://www.inkscape.org/namespaces/inkscape"
   width="1207.774"
   height="400"
   viewBox="0 0 319.55687 105.83334"
   version="1.1"
   id="svg351"
   inkscape:version="0.92.5 (2060ec1f9f, 2020-04-08)"
   sodipodi:docname="logo-black-social-hzt-outlines.svg"
   inkscape:export-filename="/home/david/Dropbox/Dave and Heather's Super Secret Documents of Love/bon-air-quilt/logo/instagram.png"
   inkscape:export-xdpi="96"
   inkscape:export-ydpi="96">
  <defs
     id="defs345" />
  <sodipodi:namedview
     id="base"
     pagecolor="#ffffff"
     bordercolor="#666666"
     borderopacity="1.0"
     inkscape:pageopacity="0.0"
     inkscape:pageshadow="2"
     inkscape:zoom="1.4031855"
     inkscape:cx="505.09425"
     inkscape:cy="250.24953"
     inkscape:document-units="px"
     inkscape:current-layer="g125"
     showgrid="false"
     inkscape:pagecheckerboard="true"
     units="px"
     inkscape:window-width="1920"
     inkscape:window-height="1016"
     inkscape:window-x="0"
     inkscape:window-y="27"
     inkscape:window-maximized="1" />
  <metadata
     id="metadata348">
    <rdf:RDF>
      <cc:Work
         rdf:about="">
        <dc:format>image/svg+xml</dc:format>
        <dc:type
           rdf:resource="http://purl.org/dc/dcmitype/StillImage" />
        <dc:title />
      </cc:Work>
    </rdf:RDF>
  </metadata>
  <g
     inkscape:label="Layer 1"
     inkscape:groupmode="layer"
     id="layer1"
     transform="translate(0,-191.16665)">
    <g
       id="g125"
       transform="matrix(1.9564492,0,0,1.9564492,-63.883893,-190.65253)">
      <g
         id="g3148"
         inkscape:export-filename="/home/david/Projects/baq/bon-air-quilt-brand/logo/png/gray/logo-gray-social-hzt.png"
         inkscape:export-xdpi="96"
         inkscape:export-ydpi="96">
        <g
           style="fill:#444444;fill-opacity:1"
           id="g3089">
          <g
             style="fill:#444444;fill-opacity:1"
             id="g44"
             transform="matrix(0.19765639,0,0,0.19765639,8.8413121,182.5725)">
            <path
               style="fill:#444444;fill-opacity:1"
               id="path42"
               d="m 394.58,137.9 c -37.54,0 -70.37,20.79 -87.38,51.62 -17.01,-30.82 -49.85,-51.62 -87.38,-51.62 -32.08,0 -59.14,17.01 -74.61,41.36 V 63.68 h -24.74 v 173.95 c 0,55.28 44.45,99.73 99.35,99.73 37.54,0 70.37,-20.79 87.38,-51.62 17.01,30.82 49.84,51.62 87.38,51.62 32.86,0 61.85,-18.94 74.61,-44.45 v 41.36 h 24.74 v -96.64 c 0,-55.27 -44.46,-99.73 -99.35,-99.73 z M 219.82,313.79 c -42.91,0 -74.99,-33.63 -74.99,-76.15 0,-42.52 32.86,-76.15 74.99,-76.15 41.75,0 74.99,33.63 74.99,76.15 0,42.52 -32.47,76.15 -74.99,76.15 z m 175.15,0 c -41.75,0 -75.38,-33.63 -75.38,-76.15 0,-42.52 32.86,-76.15 75.38,-76.15 42.52,0 74.61,33.63 74.61,76.15 0,42.52 -32.86,76.15 -74.61,76.15 z"
               inkscape:connector-curvature="0" />
          </g>
          <g
             aria-label="bon air quilt co."
             style="font-style:normal;font-variant:normal;font-weight:600;font-stretch:normal;font-size:12.91943169px;line-height:1.25;font-family:'Nordique Pro';-inkscape-font-specification:'Nordique Pro, Semi-Bold';font-variant-ligatures:normal;font-variant-caps:normal;font-variant-numeric:normal;font-feature-settings:normal;text-align:start;letter-spacing:0px;word-spacing:0px;writing-mode:lr-tb;text-anchor:start;fill:#444444;fill-opacity:1;stroke:none;stroke-width:0.36858743"
             id="text71">
            <path
               d="m 113.25794,200.97304 c 0,1.84748 1.48574,3.33321 3.3203,3.33321 1.83456,0 3.33321,-1.48573 3.33321,-3.33321 0,-1.84748 -1.49865,-3.33322 -3.33321,-3.33322 -0.8656,0 -1.56325,0.36175 -2.04127,0.9302 v -3.41073 h -1.27903 z m 3.3203,-2.10587 c 1.17567,0 2.06711,0.9302 2.06711,2.10587 0,1.17567 -0.87852,2.10587 -2.06711,2.10587 -1.17567,0 -2.06711,-0.9302 -2.06711,-2.10587 0,-1.17567 0.90436,-2.10587 2.06711,-2.10587 z"
               style="font-style:normal;font-variant:normal;font-weight:600;font-stretch:normal;font-size:12.91943169px;font-family:'Nordique Pro';-inkscape-font-specification:'Nordique Pro, Semi-Bold';font-variant-ligatures:normal;font-variant-caps:normal;font-variant-numeric:normal;font-feature-settings:normal;text-align:start;writing-mode:lr-tb;text-anchor:start;stroke-width:0.36858743;fill:#444444;fill-opacity:1"
               id="path3002" />
            <path
               d="m 123.76144,197.63982 c -1.84748,0 -3.33322,1.48574 -3.33322,3.33322 0,1.84748 1.48574,3.33321 3.33322,3.33321 1.84747,0 3.33321,-1.48573 3.33321,-3.33321 0,-1.84748 -1.48574,-3.33322 -3.33321,-3.33322 z m 0.0129,1.22735 c 1.18859,0 2.05419,0.9302 2.05419,2.10587 0,1.17567 -0.87852,2.10587 -2.05419,2.10587 -1.17566,0 -2.08002,-0.9302 -2.08002,-2.10587 0,-1.17567 0.89144,-2.10587 2.08002,-2.10587 z"
               style="font-style:normal;font-variant:normal;font-weight:600;font-stretch:normal;font-size:12.91943169px;font-family:'Nordique Pro';-inkscape-font-specification:'Nordique Pro, Semi-Bold';font-variant-ligatures:normal;font-variant-caps:normal;font-variant-numeric:normal;font-feature-settings:normal;text-align:start;writing-mode:lr-tb;text-anchor:start;stroke-width:0.36858743;fill:#444444;fill-opacity:1"
               id="path3004" />
            <path
               d="m 133.48977,204.2029 h -1.26611 v -3.39781 c 0,-1.31779 -0.56845,-1.93792 -1.57617,-1.93792 -1.00771,0 -1.57617,0.62013 -1.57617,1.93792 v 3.39781 h -1.2661 v -3.39781 c 0,-2.17047 1.18858,-3.16527 2.84227,-3.16527 1.65369,0 2.84228,0.9948 2.84228,3.16527 z"
               style="font-style:normal;font-variant:normal;font-weight:600;font-stretch:normal;font-size:12.91943169px;font-family:'Nordique Pro';-inkscape-font-specification:'Nordique Pro, Semi-Bold';font-variant-ligatures:normal;font-variant-caps:normal;font-variant-numeric:normal;font-feature-settings:normal;text-align:start;writing-mode:lr-tb;text-anchor:start;stroke-width:0.36858743;fill:#444444;fill-opacity:1"
               id="path3006" />
            <path
               d="m 140.95717,204.30625 c 0.91728,0 1.74412,-0.49094 2.05419,-1.12399 v 1.02064 h 1.2661 v -3.22986 c 0,-1.84748 -1.48574,-3.33322 -3.32029,-3.33322 -1.83456,0 -3.33322,1.48574 -3.33322,3.33322 0,1.84748 1.49866,3.33321 3.33322,3.33321 z m 0.0129,-1.22734 c -1.17566,0 -2.08002,-0.9302 -2.08002,-2.10587 0,-1.17567 0.89144,-2.10587 2.08002,-2.10587 1.18859,0 2.05419,0.9302 2.05419,2.10587 0,1.17567 -0.87852,2.10587 -2.05419,2.10587 z"
               style="font-style:normal;font-variant:normal;font-weight:600;font-stretch:normal;font-size:12.91943169px;font-family:'Nordique Pro';-inkscape-font-specification:'Nordique Pro, Semi-Bold';font-variant-ligatures:normal;font-variant-caps:normal;font-variant-numeric:normal;font-feature-settings:normal;text-align:start;writing-mode:lr-tb;text-anchor:start;stroke-width:0.36858743;fill:#444444;fill-opacity:1"
               id="path3008" />
            <path
               d="m 145.95696,196.85174 c 0.42634,0 0.76225,-0.33591 0.76225,-0.77517 0,-0.43926 -0.33591,-0.77516 -0.76225,-0.77516 -0.43926,0 -0.77517,0.3359 -0.77517,0.77516 0,0.43926 0.33591,0.77517 0.77517,0.77517 z m -0.63305,7.35116 h 1.2661 v -6.45972 h -1.2661 z"
               style="font-style:normal;font-variant:normal;font-weight:600;font-stretch:normal;font-size:12.91943169px;font-family:'Nordique Pro';-inkscape-font-specification:'Nordique Pro, Semi-Bold';font-variant-ligatures:normal;font-variant-caps:normal;font-variant-numeric:normal;font-feature-settings:normal;text-align:start;writing-mode:lr-tb;text-anchor:start;stroke-width:0.36858743;fill:#444444;fill-opacity:1"
               id="path3010" />
            <path
               d="m 147.75273,204.2029 h 1.2661 v -3.37198 c 0,-1.30486 0.54262,-1.88623 1.44698,-1.88623 h 0.12919 v -1.22735 h -0.12919 c -1.56325,0 -2.71308,0.96896 -2.71308,3.11358 z"
               style="font-style:normal;font-variant:normal;font-weight:600;font-stretch:normal;font-size:12.91943169px;font-family:'Nordique Pro';-inkscape-font-specification:'Nordique Pro, Semi-Bold';font-variant-ligatures:normal;font-variant-caps:normal;font-variant-numeric:normal;font-feature-settings:normal;text-align:start;writing-mode:lr-tb;text-anchor:start;stroke-width:0.36858743;fill:#444444;fill-opacity:1"
               id="path3012" />
            <path
               d="m 161.3827,200.97304 c 0,-1.84748 -1.48573,-3.33322 -3.32029,-3.33322 -1.83456,0 -3.33321,1.48574 -3.33321,3.33322 0,1.84748 1.49865,3.33321 3.33321,3.33321 0.8656,0 1.56325,-0.36174 2.04127,-0.9302 v 3.41073 h 1.27902 z m -3.32029,2.10587 c -1.17567,0 -2.06711,-0.9302 -2.06711,-2.10587 0,-1.17567 0.87852,-2.10587 2.06711,-2.10587 1.17567,0 2.06711,0.9302 2.06711,2.10587 0,1.17567 -0.90436,2.10587 -2.06711,2.10587 z"
               style="font-style:normal;font-variant:normal;font-weight:600;font-stretch:normal;font-size:12.91943169px;font-family:'Nordique Pro';-inkscape-font-specification:'Nordique Pro, Semi-Bold';font-variant-ligatures:normal;font-variant-caps:normal;font-variant-numeric:normal;font-feature-settings:normal;text-align:start;writing-mode:lr-tb;text-anchor:start;stroke-width:0.36858743;fill:#444444;fill-opacity:1"
               id="path3014" />
            <path
               d="m 167.84242,197.74318 v 3.39781 c 0,2.17047 -1.18859,3.16526 -2.84228,3.16526 -1.65368,0 -2.84227,-0.99479 -2.84227,-3.16526 v -3.39781 h 1.2661 v 3.39781 c 0,1.31778 0.56846,1.93792 1.57617,1.93792 1.00772,0 1.57618,-0.62014 1.57618,-1.93792 v -3.39781 z"
               style="font-style:normal;font-variant:normal;font-weight:600;font-stretch:normal;font-size:12.91943169px;font-family:'Nordique Pro';-inkscape-font-specification:'Nordique Pro, Semi-Bold';font-variant-ligatures:normal;font-variant-caps:normal;font-variant-numeric:normal;font-feature-settings:normal;text-align:start;writing-mode:lr-tb;text-anchor:start;stroke-width:0.36858743;fill:#444444;fill-opacity:1"
               id="path3016" />
            <path
               d="m 169.5219,196.85174 c 0.42634,0 0.76225,-0.33591 0.76225,-0.77517 0,-0.43926 -0.33591,-0.77516 -0.76225,-0.77516 -0.43926,0 -0.77517,0.3359 -0.77517,0.77516 0,0.43926 0.33591,0.77517 0.77517,0.77517 z m -0.63305,7.35116 h 1.2661 v -6.45972 h -1.2661 z"
               style="font-style:normal;font-variant:normal;font-weight:600;font-stretch:normal;font-size:12.91943169px;font-family:'Nordique Pro';-inkscape-font-specification:'Nordique Pro, Semi-Bold';font-variant-ligatures:normal;font-variant-caps:normal;font-variant-numeric:normal;font-feature-settings:normal;text-align:start;writing-mode:lr-tb;text-anchor:start;stroke-width:0.36858743;fill:#444444;fill-opacity:1"
               id="path3018" />
            <path
               d="m 172.58377,204.2029 v -9.04361 h -1.2661 v 9.04361 z"
               style="font-style:normal;font-variant:normal;font-weight:600;font-stretch:normal;font-size:12.91943169px;font-family:'Nordique Pro';-inkscape-font-specification:'Nordique Pro, Semi-Bold';font-variant-ligatures:normal;font-variant-caps:normal;font-variant-numeric:normal;font-feature-settings:normal;text-align:start;writing-mode:lr-tb;text-anchor:start;stroke-width:0.36858743;fill:#444444;fill-opacity:1"
               id="path3020" />
            <path
               d="m 176.6663,198.97053 v -1.22735 h -1.3953 v -2.31258 h -1.26611 v 2.31258 h -0.95604 v 1.22735 h 0.95604 v 2.18338 c 0.0129,2.08003 1.11107,3.02315 2.66141,3.08774 v -1.22734 c -0.91728,-0.0775 -1.3953,-0.64597 -1.3953,-1.87332 v -2.17046 z"
               style="font-style:normal;font-variant:normal;font-weight:600;font-stretch:normal;font-size:12.91943169px;font-family:'Nordique Pro';-inkscape-font-specification:'Nordique Pro, Semi-Bold';font-variant-ligatures:normal;font-variant-caps:normal;font-variant-numeric:normal;font-feature-settings:normal;text-align:start;writing-mode:lr-tb;text-anchor:start;stroke-width:0.36858743;fill:#444444;fill-opacity:1"
               id="path3022" />
            <path
               d="m 183.87533,204.30625 c 1.40822,0 2.60973,-0.8656 3.07483,-2.10587 h -1.38238 c -0.36175,0.5297 -0.95604,0.87853 -1.67953,0.87853 -1.17567,0 -2.08003,-0.9302 -2.08003,-2.10587 0,-1.17567 0.89144,-2.10587 2.08003,-2.10587 0.73641,0 1.34362,0.36174 1.70537,0.90436 h 1.35654 c -0.45218,-1.24026 -1.65369,-2.13171 -3.07483,-2.13171 -1.84748,0 -3.33321,1.48574 -3.33321,3.33322 0,1.84748 1.48573,3.33321 3.33321,3.33321 z"
               style="font-style:normal;font-variant:normal;font-weight:600;font-stretch:normal;font-size:12.91943169px;font-family:'Nordique Pro';-inkscape-font-specification:'Nordique Pro, Semi-Bold';font-variant-ligatures:normal;font-variant-caps:normal;font-variant-numeric:normal;font-feature-settings:normal;text-align:start;writing-mode:lr-tb;text-anchor:start;stroke-width:0.36858743;fill:#444444;fill-opacity:1"
               id="path3024" />
            <path
               d="m 190.94224,197.63982 c -1.84748,0 -3.33321,1.48574 -3.33321,3.33322 0,1.84748 1.48573,3.33321 3.33321,3.33321 1.84748,0 3.33321,-1.48573 3.33321,-3.33321 0,-1.84748 -1.48573,-3.33322 -3.33321,-3.33322 z m 0.0129,1.22735 c 1.18859,0 2.05419,0.9302 2.05419,2.10587 0,1.17567 -0.87852,2.10587 -2.05419,2.10587 -1.17567,0 -2.08003,-0.9302 -2.08003,-2.10587 0,-1.17567 0.89144,-2.10587 2.08003,-2.10587 z"
               style="font-style:normal;font-variant:normal;font-weight:600;font-stretch:normal;font-size:12.91943169px;font-family:'Nordique Pro';-inkscape-font-specification:'Nordique Pro, Semi-Bold';font-variant-ligatures:normal;font-variant-caps:normal;font-variant-numeric:normal;font-feature-settings:normal;text-align:start;writing-mode:lr-tb;text-anchor:start;stroke-width:0.36858743;fill:#444444;fill-opacity:1"
               id="path3026" />
            <path
               d="m 194.66304,202.62673 h 1.2661 v 1.57617 h -1.2661 z"
               style="font-style:normal;font-variant:normal;font-weight:600;font-stretch:normal;font-size:12.91943169px;font-family:'Nordique Pro';-inkscape-font-specification:'Nordique Pro, Semi-Bold';font-variant-ligatures:normal;font-variant-caps:normal;font-variant-numeric:normal;font-feature-settings:normal;text-align:start;writing-mode:lr-tb;text-anchor:start;stroke-width:0.36858743;fill:#444444;fill-opacity:1"
               id="path3028" />
          </g>
          <g
             aria-label="bonairquiltco.com"
             style="font-style:normal;font-variant:normal;font-weight:normal;font-stretch:normal;font-size:8.46670628px;line-height:1.25;font-family:'Nordique Pro';-inkscape-font-specification:'Nordique Pro, Normal';font-variant-ligatures:normal;font-variant-caps:normal;font-variant-numeric:normal;font-feature-settings:normal;text-align:center;letter-spacing:0px;word-spacing:0px;writing-mode:lr-tb;text-anchor:middle;fill:#444444;fill-opacity:1;stroke:none;stroke-width:0.26458335"
             id="text94">
            <path
               d="m 123.72,220.71868 c 0,1.21074 0.97367,2.18441 2.17594,2.18441 1.20228,0 2.18441,-0.97367 2.18441,-2.18441 0,-1.21074 -0.98213,-2.18441 -2.18441,-2.18441 -0.70273,0 -1.2954,0.37254 -1.63407,0.90594 v -2.53155 H 123.72 Z m 2.17594,-1.66794 c 0.91441,0 1.64254,0.7366 1.64254,1.66794 0,0.93134 -0.7112,1.66794 -1.64254,1.66794 -0.9398,0 -1.64254,-0.7366 -1.64254,-1.66794 0,-0.93134 0.71967,-1.66794 1.64254,-1.66794 z"
               style="font-style:normal;font-variant:normal;font-weight:normal;font-stretch:normal;font-size:8.46670628px;font-family:'Nordique Pro';-inkscape-font-specification:'Nordique Pro, Normal';font-variant-ligatures:normal;font-variant-caps:normal;font-variant-numeric:normal;font-feature-settings:normal;text-align:center;writing-mode:lr-tb;text-anchor:middle;stroke-width:0.26458335;fill:#444444;fill-opacity:1"
               id="path2967" />
            <path
               d="m 130.60343,218.53427 c -1.20227,0 -2.18441,0.97367 -2.18441,2.18441 0,1.21074 0.98214,2.18441 2.18441,2.18441 1.21074,0 2.18441,-0.97367 2.18441,-2.18441 0,-1.21074 -0.97367,-2.18441 -2.18441,-2.18441 z m 0.008,0.51647 c 0.93134,0 1.63408,0.7366 1.63408,1.66794 0,0.93134 -0.71967,1.66794 -1.63408,1.66794 -0.9144,0 -1.651,-0.7366 -1.651,-1.66794 0,-0.93134 0.71967,-1.66794 1.651,-1.66794 z"
               style="font-style:normal;font-variant:normal;font-weight:normal;font-stretch:normal;font-size:8.46670628px;font-family:'Nordique Pro';-inkscape-font-specification:'Nordique Pro, Normal';font-variant-ligatures:normal;font-variant-caps:normal;font-variant-numeric:normal;font-feature-settings:normal;text-align:center;writing-mode:lr-tb;text-anchor:middle;stroke-width:0.26458335;fill:#444444;fill-opacity:1"
               id="path2969" />
            <path
               d="m 136.97886,222.83536 h -0.54187 v -2.22675 c 0,-1.05833 -0.5334,-1.55787 -1.32081,-1.55787 -0.7874,0 -1.3208,0.49954 -1.3208,1.55787 v 2.22675 h -0.54187 v -2.22675 c 0,-1.4224 0.77893,-2.07434 1.86267,-2.07434 1.08374,0 1.86268,0.65194 1.86268,2.07434 z"
               style="font-style:normal;font-variant:normal;font-weight:normal;font-stretch:normal;font-size:8.46670628px;font-family:'Nordique Pro';-inkscape-font-specification:'Nordique Pro, Normal';font-variant-ligatures:normal;font-variant-caps:normal;font-variant-numeric:normal;font-feature-settings:normal;text-align:center;writing-mode:lr-tb;text-anchor:middle;stroke-width:0.26458335;fill:#444444;fill-opacity:1"
               id="path2971" />
            <path
               d="m 139.62892,222.90309 c 0.71967,0 1.35467,-0.41487 1.63407,-0.97367 v 0.90594 h 0.54187 v -2.11668 c 0,-1.21074 -0.97367,-2.18441 -2.17594,-2.18441 -1.20227,0 -2.18441,0.97367 -2.18441,2.18441 0,1.21074 0.98214,2.18441 2.18441,2.18441 z m 0.008,-0.51647 c -0.91441,0 -1.65101,-0.7366 -1.65101,-1.66794 0,-0.93134 0.71967,-1.66794 1.65101,-1.66794 0.93133,0 1.63407,0.7366 1.63407,1.66794 0,0.93134 -0.71967,1.66794 -1.63407,1.66794 z"
               style="font-style:normal;font-variant:normal;font-weight:normal;font-stretch:normal;font-size:8.46670628px;font-family:'Nordique Pro';-inkscape-font-specification:'Nordique Pro, Normal';font-variant-ligatures:normal;font-variant-caps:normal;font-variant-numeric:normal;font-feature-settings:normal;text-align:center;writing-mode:lr-tb;text-anchor:middle;stroke-width:0.26458335;fill:#444444;fill-opacity:1"
               id="path2973" />
            <path
               d="m 142.74465,217.8654 c 0.19474,0 0.34714,-0.14393 0.34714,-0.34713 0,-0.19474 -0.1524,-0.33867 -0.34714,-0.33867 -0.19473,0 -0.34713,0.14393 -0.34713,0.33867 0,0.2032 0.1524,0.34713 0.34713,0.34713 z m -0.27093,4.96996 h 0.54187 V 218.602 h -0.54187 z"
               style="font-style:normal;font-variant:normal;font-weight:normal;font-stretch:normal;font-size:8.46670628px;font-family:'Nordique Pro';-inkscape-font-specification:'Nordique Pro, Normal';font-variant-ligatures:normal;font-variant-caps:normal;font-variant-numeric:normal;font-feature-settings:normal;text-align:center;writing-mode:lr-tb;text-anchor:middle;stroke-width:0.26458335;fill:#444444;fill-opacity:1"
               id="path2975" />
            <path
               d="m 143.7691,222.83536 h 0.54186 v -2.20135 c 0,-1.04987 0.48261,-1.54094 1.19381,-1.54094 0.0423,0 0.0847,0 0.127,0.008 v -0.51647 c -0.0423,-0.008 -0.0847,-0.008 -0.127,-0.008 -1.016,0 -1.73567,0.64347 -1.73567,2.05741 z"
               style="font-style:normal;font-variant:normal;font-weight:normal;font-stretch:normal;font-size:8.46670628px;font-family:'Nordique Pro';-inkscape-font-specification:'Nordique Pro, Normal';font-variant-ligatures:normal;font-variant-caps:normal;font-variant-numeric:normal;font-feature-settings:normal;text-align:center;writing-mode:lr-tb;text-anchor:middle;stroke-width:0.26458335;fill:#444444;fill-opacity:1"
               id="path2977" />
            <path
               d="m 150.0683,220.71868 c 0,-1.21074 -0.97367,-2.18441 -2.17594,-2.18441 -1.20227,0 -2.18441,0.97367 -2.18441,2.18441 0,1.21074 0.98214,2.18441 2.18441,2.18441 0.70274,0 1.29541,-0.37253 1.63407,-0.90594 v 2.53155 h 0.54187 z m -2.17594,1.66794 c -0.9144,0 -1.64254,-0.7366 -1.64254,-1.66794 0,-0.93134 0.7112,-1.66794 1.64254,-1.66794 0.9398,0 1.64254,0.7366 1.64254,1.66794 0,0.93134 -0.71967,1.66794 -1.64254,1.66794 z"
               style="font-style:normal;font-variant:normal;font-weight:normal;font-stretch:normal;font-size:8.46670628px;font-family:'Nordique Pro';-inkscape-font-specification:'Nordique Pro, Normal';font-variant-ligatures:normal;font-variant-caps:normal;font-variant-numeric:normal;font-feature-settings:normal;text-align:center;writing-mode:lr-tb;text-anchor:middle;stroke-width:0.26458335;fill:#444444;fill-opacity:1"
               id="path2979" />
            <path
               d="m 154.30165,218.602 v 2.22675 c 0,1.4224 -0.77893,2.07434 -1.86267,2.07434 -1.08374,0 -1.86268,-0.65194 -1.86268,-2.07434 V 218.602 h 0.54187 v 2.22675 c 0,1.05834 0.5334,1.55787 1.32081,1.55787 0.7874,0 1.3208,-0.49953 1.3208,-1.55787 V 218.602 Z"
               style="font-style:normal;font-variant:normal;font-weight:normal;font-stretch:normal;font-size:8.46670628px;font-family:'Nordique Pro';-inkscape-font-specification:'Nordique Pro, Normal';font-variant-ligatures:normal;font-variant-caps:normal;font-variant-numeric:normal;font-feature-settings:normal;text-align:center;writing-mode:lr-tb;text-anchor:middle;stroke-width:0.26458335;fill:#444444;fill-opacity:1"
               id="path2981" />
            <path
               d="m 155.24143,217.8654 c 0.19473,0 0.34713,-0.14393 0.34713,-0.34713 0,-0.19474 -0.1524,-0.33867 -0.34713,-0.33867 -0.19474,0 -0.34714,0.14393 -0.34714,0.33867 0,0.2032 0.1524,0.34713 0.34714,0.34713 z m -0.27094,4.96996 h 0.54187 V 218.602 h -0.54187 z"
               style="font-style:normal;font-variant:normal;font-weight:normal;font-stretch:normal;font-size:8.46670628px;font-family:'Nordique Pro';-inkscape-font-specification:'Nordique Pro, Normal';font-variant-ligatures:normal;font-variant-caps:normal;font-variant-numeric:normal;font-feature-settings:normal;text-align:center;writing-mode:lr-tb;text-anchor:middle;stroke-width:0.26458335;fill:#444444;fill-opacity:1"
               id="path2983" />
            <path
               d="m 156.80774,222.83536 v -5.9267 h -0.54187 v 5.9267 z"
               style="font-style:normal;font-variant:normal;font-weight:normal;font-stretch:normal;font-size:8.46670628px;font-family:'Nordique Pro';-inkscape-font-specification:'Nordique Pro, Normal';font-variant-ligatures:normal;font-variant-caps:normal;font-variant-numeric:normal;font-feature-settings:normal;text-align:center;writing-mode:lr-tb;text-anchor:middle;stroke-width:0.26458335;fill:#444444;fill-opacity:1"
               id="path2985" />
            <path
               d="M 159.34774,219.11847 V 218.602 h -1.06681 v -1.33774 h -0.54187 v 1.33774 h -0.635 v 0.51647 h 0.635 v 1.71874 c 0,1.29541 0.66041,1.93041 1.60868,2.02355 v -0.52494 c -0.6604,-0.1016 -1.06681,-0.57573 -1.06681,-1.51554 v -1.70181 z"
               style="font-style:normal;font-variant:normal;font-weight:normal;font-stretch:normal;font-size:8.46670628px;font-family:'Nordique Pro';-inkscape-font-specification:'Nordique Pro, Normal';font-variant-ligatures:normal;font-variant-caps:normal;font-variant-numeric:normal;font-feature-settings:normal;text-align:center;writing-mode:lr-tb;text-anchor:middle;stroke-width:0.26458335;fill:#444444;fill-opacity:1"
               id="path2987" />
            <path
               d="m 161.65914,222.90309 c 0.85514,0 1.59174,-0.49107 1.93887,-1.20227 h -0.60113 c -0.29634,0.4064 -0.77047,0.6858 -1.32927,0.6858 -0.91441,0 -1.65101,-0.7366 -1.65101,-1.66794 0,-0.93134 0.71967,-1.66794 1.65101,-1.66794 0.5588,0 1.03293,0.26247 1.32927,0.67734 h 0.5842 c -0.33867,-0.70274 -1.0668,-1.19381 -1.92194,-1.19381 -1.20227,0 -2.18441,0.97367 -2.18441,2.18441 0,1.21074 0.98214,2.18441 2.18441,2.18441 z"
               style="font-style:normal;font-variant:normal;font-weight:normal;font-stretch:normal;font-size:8.46670628px;font-family:'Nordique Pro';-inkscape-font-specification:'Nordique Pro, Normal';font-variant-ligatures:normal;font-variant-caps:normal;font-variant-numeric:normal;font-feature-settings:normal;text-align:center;writing-mode:lr-tb;text-anchor:middle;stroke-width:0.26458335;fill:#444444;fill-opacity:1"
               id="path2989" />
            <path
               d="m 166.21421,218.53427 c -1.20227,0 -2.18441,0.97367 -2.18441,2.18441 0,1.21074 0.98214,2.18441 2.18441,2.18441 1.21074,0 2.18441,-0.97367 2.18441,-2.18441 0,-1.21074 -0.97367,-2.18441 -2.18441,-2.18441 z m 0.008,0.51647 c 0.93134,0 1.63407,0.7366 1.63407,1.66794 0,0.93134 -0.71967,1.66794 -1.63407,1.66794 -0.91441,0 -1.65101,-0.7366 -1.65101,-1.66794 0,-0.93134 0.71967,-1.66794 1.65101,-1.66794 z"
               style="font-style:normal;font-variant:normal;font-weight:normal;font-stretch:normal;font-size:8.46670628px;font-family:'Nordique Pro';-inkscape-font-specification:'Nordique Pro, Normal';font-variant-ligatures:normal;font-variant-caps:normal;font-variant-numeric:normal;font-feature-settings:normal;text-align:center;writing-mode:lr-tb;text-anchor:middle;stroke-width:0.26458335;fill:#444444;fill-opacity:1"
               id="path2991" />
            <path
               d="m 168.65262,221.87862 h 0.54187 v 0.95674 h -0.54187 z"
               style="font-style:normal;font-variant:normal;font-weight:normal;font-stretch:normal;font-size:8.46670628px;font-family:'Nordique Pro';-inkscape-font-specification:'Nordique Pro, Normal';font-variant-ligatures:normal;font-variant-caps:normal;font-variant-numeric:normal;font-feature-settings:normal;text-align:center;writing-mode:lr-tb;text-anchor:middle;stroke-width:0.26458335;fill:#444444;fill-opacity:1"
               id="path2993" />
            <path
               d="m 171.80222,222.90309 c 0.85514,0 1.59174,-0.49107 1.93888,-1.20227 h -0.60114 c -0.29633,0.4064 -0.77047,0.6858 -1.32927,0.6858 -0.91441,0 -1.65101,-0.7366 -1.65101,-1.66794 0,-0.93134 0.71967,-1.66794 1.65101,-1.66794 0.5588,0 1.03294,0.26247 1.32927,0.67734 h 0.5842 c -0.33867,-0.70274 -1.0668,-1.19381 -1.92194,-1.19381 -1.20227,0 -2.18441,0.97367 -2.18441,2.18441 0,1.21074 0.98214,2.18441 2.18441,2.18441 z"
               style="font-style:normal;font-variant:normal;font-weight:normal;font-stretch:normal;font-size:8.46670628px;font-family:'Nordique Pro';-inkscape-font-specification:'Nordique Pro, Normal';font-variant-ligatures:normal;font-variant-caps:normal;font-variant-numeric:normal;font-feature-settings:normal;text-align:center;writing-mode:lr-tb;text-anchor:middle;stroke-width:0.26458335;fill:#444444;fill-opacity:1"
               id="path2995" />
            <path
               d="m 176.35729,218.53427 c -1.20227,0 -2.18441,0.97367 -2.18441,2.18441 0,1.21074 0.98214,2.18441 2.18441,2.18441 1.21074,0 2.18441,-0.97367 2.18441,-2.18441 0,-1.21074 -0.97367,-2.18441 -2.18441,-2.18441 z m 0.008,0.51647 c 0.93134,0 1.63407,0.7366 1.63407,1.66794 0,0.93134 -0.71967,1.66794 -1.63407,1.66794 -0.9144,0 -1.65101,-0.7366 -1.65101,-1.66794 0,-0.93134 0.71967,-1.66794 1.65101,-1.66794 z"
               style="font-style:normal;font-variant:normal;font-weight:normal;font-stretch:normal;font-size:8.46670628px;font-family:'Nordique Pro';-inkscape-font-specification:'Nordique Pro, Normal';font-variant-ligatures:normal;font-variant-caps:normal;font-variant-numeric:normal;font-feature-settings:normal;text-align:center;writing-mode:lr-tb;text-anchor:middle;stroke-width:0.26458335;fill:#444444;fill-opacity:1"
               id="path2997" />
            <path
               d="m 183.76566,218.53427 c -0.67734,0 -1.26154,0.32174 -1.49861,1.00754 -0.23706,-0.6858 -0.82127,-1.00754 -1.49014,-1.00754 -1.03293,0 -1.76954,0.65194 -1.76954,2.07434 v 2.22675 h 0.54187 v -2.22675 c 0,-1.05833 0.49107,-1.55787 1.22767,-1.55787 0.72814,0 1.21921,0.49954 1.21921,1.55787 v 2.22675 h 0.54187 v -2.22675 c 0,-1.05833 0.49107,-1.55787 1.22767,-1.55787 0.72814,0 1.21921,0.49954 1.21921,1.55787 v 2.22675 h 0.54187 v -2.22675 c 0,-1.4224 -0.73661,-2.07434 -1.76108,-2.07434 z"
               style="font-style:normal;font-variant:normal;font-weight:normal;font-stretch:normal;font-size:8.46670628px;font-family:'Nordique Pro';-inkscape-font-specification:'Nordique Pro, Normal';font-variant-ligatures:normal;font-variant-caps:normal;font-variant-numeric:normal;font-feature-settings:normal;text-align:center;writing-mode:lr-tb;text-anchor:middle;stroke-width:0.26458335;fill:#444444;fill-opacity:1"
               id="path2999" />
          </g>
          <g
             style="fill:#444444;fill-opacity:1"
             id="g99">
            <g
               aria-label="@BonAirQuiltCo"
               style="font-style:normal;font-variant:normal;font-weight:normal;font-stretch:normal;font-size:8.46670628px;line-height:1.25;font-family:'Nordique Pro';-inkscape-font-specification:'Nordique Pro, Normal';font-variant-ligatures:normal;font-variant-caps:normal;font-variant-numeric:normal;font-feature-settings:normal;text-align:start;letter-spacing:0px;word-spacing:0px;writing-mode:lr-tb;text-anchor:start;fill:#444444;fill-opacity:1;stroke:none;stroke-width:0.1352365"
               id="text72">
              <path
                 d="m 130.21882,249.23692 c 0.92287,0 1.74414,-0.39793 2.29448,-1.02447 h -0.65194 c -0.44874,0.34714 -1.02447,0.56727 -1.64254,0.56727 -1.42241,0 -2.56541,-1.143 -2.56541,-2.57388 0,-1.43087 1.143,-2.57388 2.56541,-2.57388 1.43934,0 2.44688,1.05834 2.44688,2.36221 0,0.79587 -0.3048,1.48168 -0.93981,1.48168 -0.4318,0 -0.5842,-0.4318 -0.47413,-0.80434 l 0.57573,-1.90501 h -0.37253 l -0.0762,0.21167 c -0.1524,-0.18627 -0.44027,-0.38947 -0.84667,-0.38947 -1.25308,0 -1.95581,1.15147 -1.95581,1.99814 0,0.67734 0.38947,1.23614 1.1684,1.23614 0.65194,0 0.98214,-0.36407 1.16841,-0.61807 0.0931,0.254 0.31327,0.60961 0.7874,0.60961 0.92287,0 1.41394,-0.91441 1.41394,-1.80341 0,-1.60868 -1.1938,-2.83635 -2.89561,-2.83635 -1.68488,0 -3.04802,1.32927 -3.04802,3.03108 0,1.70181 1.36314,3.03108 3.04802,3.03108 z m -0.4826,-1.76954 c -0.51647,0 -0.78741,-0.32173 -0.78741,-0.88054 0,-0.7112 0.55881,-1.64254 1.59174,-1.64254 0.29634,0 0.56727,0.1524 0.73661,0.39794 l -0.3556,1.18534 c -0.12701,0.39793 -0.55034,0.9398 -1.18534,0.9398 z"
                 style="font-style:normal;font-variant:normal;font-weight:normal;font-stretch:normal;font-size:8.46670628px;font-family:'Nordique Pro';-inkscape-font-specification:'Nordique Pro, Normal';font-variant-ligatures:normal;font-variant-caps:normal;font-variant-numeric:normal;font-feature-settings:normal;text-align:start;writing-mode:lr-tb;text-anchor:start;stroke-width:0.1352365;fill:#444444;fill-opacity:1"
                 id="path2938" />
              <path
                 d="m 136.2217,245.93491 c 0.36407,-0.19474 0.72814,-0.65194 0.72814,-1.28694 0,-0.87207 -0.6096,-1.40547 -1.64254,-1.40547 h -1.72721 v 5.92669 h 2.12515 c 0.95673,0 1.7018,-0.6858 1.7018,-1.71028 0,-0.70273 -0.44027,-1.28693 -1.18534,-1.524 z m -0.9144,-2.20135 c 0.72814,0 1.10067,0.38947 1.10067,0.97368 0,0.5334 -0.44873,1.016 -1.016,1.016 h -1.27001 v -1.98968 z m 0.38947,4.94456 h -1.57481 v -2.42148 h 1.50707 c 0.79588,0 1.23614,0.52494 1.23614,1.13454 0,0.75354 -0.508,1.28694 -1.1684,1.28694 z"
                 style="font-style:normal;font-variant:normal;font-weight:normal;font-stretch:normal;font-size:8.46670628px;font-family:'Nordique Pro';-inkscape-font-specification:'Nordique Pro, Normal';font-variant-ligatures:normal;font-variant-caps:normal;font-variant-numeric:normal;font-feature-settings:normal;text-align:start;writing-mode:lr-tb;text-anchor:start;stroke-width:0.1352365;fill:#444444;fill-opacity:1"
                 id="path2940" />
              <path
                 d="m 140.01479,244.8681 c -1.20227,0 -2.18441,0.97367 -2.18441,2.18441 0,1.21074 0.98214,2.18441 2.18441,2.18441 1.21074,0 2.18441,-0.97367 2.18441,-2.18441 0,-1.21074 -0.97367,-2.18441 -2.18441,-2.18441 z m 0.008,0.51647 c 0.93133,0 1.63407,0.73661 1.63407,1.66794 0,0.93134 -0.71967,1.66794 -1.63407,1.66794 -0.91441,0 -1.65101,-0.7366 -1.65101,-1.66794 0,-0.93133 0.71967,-1.66794 1.65101,-1.66794 z"
                 style="font-style:normal;font-variant:normal;font-weight:normal;font-stretch:normal;font-size:8.46670628px;font-family:'Nordique Pro';-inkscape-font-specification:'Nordique Pro, Normal';font-variant-ligatures:normal;font-variant-caps:normal;font-variant-numeric:normal;font-feature-settings:normal;text-align:start;writing-mode:lr-tb;text-anchor:start;stroke-width:0.1352365;fill:#444444;fill-opacity:1"
                 id="path2942" />
              <path
                 d="m 146.39022,249.16919 h -0.54187 v -2.22674 c 0,-1.05834 -0.5334,-1.55788 -1.32081,-1.55788 -0.7874,0 -1.3208,0.49954 -1.3208,1.55788 v 2.22674 h -0.54187 v -2.22674 c 0,-1.42241 0.77893,-2.07435 1.86267,-2.07435 1.08374,0 1.86268,0.65194 1.86268,2.07435 z"
                 style="font-style:normal;font-variant:normal;font-weight:normal;font-stretch:normal;font-size:8.46670628px;font-family:'Nordique Pro';-inkscape-font-specification:'Nordique Pro, Normal';font-variant-ligatures:normal;font-variant-caps:normal;font-variant-numeric:normal;font-feature-settings:normal;text-align:start;writing-mode:lr-tb;text-anchor:start;stroke-width:0.1352365;fill:#444444;fill-opacity:1"
                 id="path2944" />
              <path
                 d="m 151.47869,249.16919 h 0.56727 l -2.43841,-5.92669 h -0.54187 l -2.42148,5.92669 h 0.56727 l 0.65194,-1.59174 h 2.96335 z m -3.42901,-2.09974 1.28694,-3.11575 1.2954,3.11575 z"
                 style="font-style:normal;font-variant:normal;font-weight:normal;font-stretch:normal;font-size:8.46670628px;font-family:'Nordique Pro';-inkscape-font-specification:'Nordique Pro, Normal';font-variant-ligatures:normal;font-variant-caps:normal;font-variant-numeric:normal;font-feature-settings:normal;text-align:start;writing-mode:lr-tb;text-anchor:start;stroke-width:0.1352365;fill:#444444;fill-opacity:1"
                 id="path2946" />
              <path
                 d="m 152.64709,244.19923 c 0.19473,0 0.34713,-0.14393 0.34713,-0.34713 0,-0.19474 -0.1524,-0.33867 -0.34713,-0.33867 -0.19474,0 -0.34714,0.14393 -0.34714,0.33867 0,0.2032 0.1524,0.34713 0.34714,0.34713 z m -0.27094,4.96996 h 0.54187 v -4.23335 h -0.54187 z"
                 style="font-style:normal;font-variant:normal;font-weight:normal;font-stretch:normal;font-size:8.46670628px;font-family:'Nordique Pro';-inkscape-font-specification:'Nordique Pro, Normal';font-variant-ligatures:normal;font-variant-caps:normal;font-variant-numeric:normal;font-feature-settings:normal;text-align:start;writing-mode:lr-tb;text-anchor:start;stroke-width:0.1352365;fill:#444444;fill-opacity:1"
                 id="path2948" />
              <path
                 d="m 153.67153,249.16919 h 0.54187 v -2.20134 c 0,-1.04988 0.4826,-1.54094 1.19381,-1.54094 0.0423,0 0.0847,0 0.127,0.008 v -0.51647 c -0.0423,-0.008 -0.0847,-0.008 -0.127,-0.008 -1.01601,0 -1.73568,0.64347 -1.73568,2.05741 z"
                 style="font-style:normal;font-variant:normal;font-weight:normal;font-stretch:normal;font-size:8.46670628px;font-family:'Nordique Pro';-inkscape-font-specification:'Nordique Pro, Normal';font-variant-ligatures:normal;font-variant-caps:normal;font-variant-numeric:normal;font-feature-settings:normal;text-align:start;writing-mode:lr-tb;text-anchor:start;stroke-width:0.1352365;fill:#444444;fill-opacity:1"
                 id="path2950" />
              <path
                 d="m 161.34236,249.25386 0.38946,-0.34714 -0.52493,-0.55033 c 0.55033,-0.54187 0.889,-1.29541 0.889,-2.15055 0,-1.70181 -1.3462,-3.03108 -3.04801,-3.03108 -1.69334,0 -3.04802,1.32927 -3.04802,3.03108 0,1.70181 1.35468,3.03108 3.04802,3.03108 0.6604,0 1.26154,-0.2032 1.75261,-0.54187 z m -2.29448,-0.55034 c -1.39701,0 -2.50615,-1.0922 -2.50615,-2.49768 0,-1.40547 1.10914,-2.49768 2.50615,-2.49768 1.40547,0 2.50614,1.09221 2.50614,2.49768 0,0.68581 -0.27093,1.29541 -0.7112,1.73568 l -0.57574,-0.60114 -0.39793,0.3556 0.56727,0.58421 c -0.38947,0.27093 -0.87207,0.42333 -1.38854,0.42333 z"
                 style="font-style:normal;font-variant:normal;font-weight:normal;font-stretch:normal;font-size:8.46670628px;font-family:'Nordique Pro';-inkscape-font-specification:'Nordique Pro, Normal';font-variant-ligatures:normal;font-variant-caps:normal;font-variant-numeric:normal;font-feature-settings:normal;text-align:start;writing-mode:lr-tb;text-anchor:start;stroke-width:0.1352365;fill:#444444;fill-opacity:1"
                 id="path2952" />
              <path
                 d="m 166.2869,244.93584 v 2.22674 c 0,1.42241 -0.77894,2.07434 -1.86267,2.07434 -1.08374,0 -1.86268,-0.65193 -1.86268,-2.07434 v -2.22674 h 0.54187 v 2.22674 c 0,1.05834 0.5334,1.55787 1.32081,1.55787 0.7874,0 1.3208,-0.49953 1.3208,-1.55787 v -2.22674 z"
                 style="font-style:normal;font-variant:normal;font-weight:normal;font-stretch:normal;font-size:8.46670628px;font-family:'Nordique Pro';-inkscape-font-specification:'Nordique Pro, Normal';font-variant-ligatures:normal;font-variant-caps:normal;font-variant-numeric:normal;font-feature-settings:normal;text-align:start;writing-mode:lr-tb;text-anchor:start;stroke-width:0.1352365;fill:#444444;fill-opacity:1"
                 id="path2954" />
              <path
                 d="m 167.22667,244.19923 c 0.19474,0 0.34714,-0.14393 0.34714,-0.34713 0,-0.19474 -0.1524,-0.33867 -0.34714,-0.33867 -0.19473,0 -0.34713,0.14393 -0.34713,0.33867 0,0.2032 0.1524,0.34713 0.34713,0.34713 z m -0.27093,4.96996 h 0.54187 v -4.23335 h -0.54187 z"
                 style="font-style:normal;font-variant:normal;font-weight:normal;font-stretch:normal;font-size:8.46670628px;font-family:'Nordique Pro';-inkscape-font-specification:'Nordique Pro, Normal';font-variant-ligatures:normal;font-variant-caps:normal;font-variant-numeric:normal;font-feature-settings:normal;text-align:start;writing-mode:lr-tb;text-anchor:start;stroke-width:0.1352365;fill:#444444;fill-opacity:1"
                 id="path2956" />
              <path
                 d="m 168.79299,249.16919 v -5.92669 h -0.54187 v 5.92669 z"
                 style="font-style:normal;font-variant:normal;font-weight:normal;font-stretch:normal;font-size:8.46670628px;font-family:'Nordique Pro';-inkscape-font-specification:'Nordique Pro, Normal';font-variant-ligatures:normal;font-variant-caps:normal;font-variant-numeric:normal;font-feature-settings:normal;text-align:start;writing-mode:lr-tb;text-anchor:start;stroke-width:0.1352365;fill:#444444;fill-opacity:1"
                 id="path2958" />
              <path
                 d="m 171.33299,245.45231 v -0.51647 h -1.06681 v -1.33774 h -0.54187 v 1.33774 h -0.635 v 0.51647 h 0.635 v 1.71874 c 0,1.2954 0.66041,1.93041 1.60868,2.02354 v -0.52494 c -0.6604,-0.1016 -1.06681,-0.57573 -1.06681,-1.51554 v -1.7018 z"
                 style="font-style:normal;font-variant:normal;font-weight:normal;font-stretch:normal;font-size:8.46670628px;font-family:'Nordique Pro';-inkscape-font-specification:'Nordique Pro, Normal';font-variant-ligatures:normal;font-variant-caps:normal;font-variant-numeric:normal;font-feature-settings:normal;text-align:start;writing-mode:lr-tb;text-anchor:start;stroke-width:0.1352365;fill:#444444;fill-opacity:1"
                 id="path2960" />
              <path
                 d="m 174.67733,249.23692 c 1.13454,0 2.11667,-0.6096 2.60774,-1.51554 H 176.667 c -0.44873,0.60114 -1.15994,0.98214 -1.98967,0.98214 -1.39701,0 -2.50615,-1.0922 -2.50615,-2.49768 0,-1.40547 1.10914,-2.49768 2.50615,-2.49768 0.8382,0 1.56634,0.38947 1.99814,1.00754 h 0.61807 c -0.4826,-0.92287 -1.46474,-1.54094 -2.61621,-1.54094 -1.69334,0 -3.04802,1.32927 -3.04802,3.03108 0,1.70181 1.35468,3.03108 3.04802,3.03108 z"
                 style="font-style:normal;font-variant:normal;font-weight:normal;font-stretch:normal;font-size:8.46670628px;font-family:'Nordique Pro';-inkscape-font-specification:'Nordique Pro, Normal';font-variant-ligatures:normal;font-variant-caps:normal;font-variant-numeric:normal;font-feature-settings:normal;text-align:start;writing-mode:lr-tb;text-anchor:start;stroke-width:0.1352365;fill:#444444;fill-opacity:1"
                 id="path2962" />
              <path
                 d="m 179.90128,244.8681 c -1.20227,0 -2.18441,0.97367 -2.18441,2.18441 0,1.21074 0.98214,2.18441 2.18441,2.18441 1.21074,0 2.18442,-0.97367 2.18442,-2.18441 0,-1.21074 -0.97368,-2.18441 -2.18442,-2.18441 z m 0.008,0.51647 c 0.93134,0 1.63408,0.73661 1.63408,1.66794 0,0.93134 -0.71967,1.66794 -1.63408,1.66794 -0.9144,0 -1.65101,-0.7366 -1.65101,-1.66794 0,-0.93133 0.71967,-1.66794 1.65101,-1.66794 z"
                 style="font-style:normal;font-variant:normal;font-weight:normal;font-stretch:normal;font-size:8.46670628px;font-family:'Nordique Pro';-inkscape-font-specification:'Nordique Pro, Normal';font-variant-ligatures:normal;font-variant-caps:normal;font-variant-numeric:normal;font-feature-settings:normal;text-align:start;writing-mode:lr-tb;text-anchor:start;stroke-width:0.1352365;fill:#444444;fill-opacity:1"
                 id="path2964" />
            </g>
            <g
               style="fill:#444444;fill-opacity:1"
               transform="translate(-0.2408627,4.919271)"
               id="g90">
              <path
                 inkscape:connector-curvature="0"
                 style="fill:#444444;stroke-width:0.02081352;fill-opacity:1"
                 d="m 166.80484,228.91268 c 0.007,0.0947 0.007,0.18944 0.007,0.284 0,2.88727 -2.19756,6.21404 -6.21404,6.21404 -1.23741,0 -2.3869,-0.3584 -3.35384,-0.98046 0.17599,0.0197 0.34484,0.0263 0.52743,0.0263 1.021,0 1.96089,-0.34483 2.71143,-0.93309 -0.96014,-0.0197 -1.76478,-0.64914 -2.04204,-1.51463 0.13523,0.0197 0.27056,0.0336 0.4125,0.0336 0.196,0 0.39216,-0.0263 0.57472,-0.0741 -1.00073,-0.2029 -1.75132,-1.08187 -1.75132,-2.14347 v -0.0264 c 0.29057,0.1622 0.62886,0.26364 0.98722,0.27711 -0.58827,-0.39221 -0.97367,-1.0616 -0.97367,-1.81894 0,-0.40568 0.1081,-0.77758 0.29747,-1.10214 1.07512,1.32529 2.69118,2.19078 4.50331,2.28547 -0.0336,-0.16219 -0.0542,-0.33131 -0.0542,-0.50035 0,-1.20361 0.97368,-2.18407 2.18404,-2.18407 0.62881,0 1.19683,0.26364 1.59576,0.68971 0.49357,-0.0947 0.9669,-0.27714 1.38615,-0.52743 -0.1622,0.50715 -0.50714,0.93315 -0.96016,1.20361 0.43953,-0.0473 0.86551,-0.16909 1.25768,-0.33807 -0.29745,0.43272 -0.66939,0.81811 -1.09541,1.12918 z"
                 id="path22" />
              <path
                 inkscape:connector-curvature="0"
                 style="fill:#444444;stroke-width:0.01931299;fill-opacity:1"
                 d="m 147.15664,228.86406 c -1.22831,0 -2.21906,0.99077 -2.21906,2.21907 0,1.22831 0.99075,2.21906 2.21906,2.21906 1.2283,0 2.21906,-0.99075 2.21906,-2.21906 0,-1.2283 -0.99076,-2.21907 -2.21906,-2.21907 z m 0,3.66176 c -0.79376,0 -1.44268,-0.647 -1.44268,-1.44269 0,-0.7957 0.64699,-1.44268 1.44268,-1.44268 0.7957,0 1.44268,0.64698 1.44268,1.44268 0,0.79569 -0.64891,1.44269 -1.44268,1.44269 z m 2.82742,-3.75252 c 0,0.28776 -0.23176,0.51759 -0.51759,0.51759 -0.28776,0 -0.51758,-0.23176 -0.51758,-0.51759 0,-0.28584 0.23176,-0.51759 0.51758,-0.51759 0.28583,0 0.51759,0.23175 0.51759,0.51759 z m 1.46972,0.52531 c -0.0328,-0.69333 -0.1912,-1.30749 -0.69913,-1.81349 -0.506,-0.506 -1.12015,-0.66437 -1.81349,-0.69913 -0.71458,-0.0406 -2.85639,-0.0406 -3.57097,0 -0.69141,0.0328 -1.30556,0.1912 -1.81349,0.6972 -0.50793,0.506 -0.66437,1.12015 -0.69913,1.81349 -0.0406,0.71458 -0.0406,2.85639 0,3.57097 0.0328,0.69334 0.1912,1.30749 0.69913,1.81349 0.50793,0.506 1.12015,0.66437 1.81349,0.69913 0.71458,0.0406 2.85639,0.0406 3.57097,0 0.69334,-0.0328 1.30749,-0.1912 1.81349,-0.69913 0.506,-0.506 0.66437,-1.12015 0.69913,-1.81349 0.0406,-0.71458 0.0406,-2.85446 0,-3.56904 z m -0.92316,4.33576 c -0.15064,0.37854 -0.44227,0.67017 -0.82273,0.82274 -0.56974,0.22596 -1.92164,0.17382 -2.55125,0.17382 -0.6296,0 -1.98345,0.0502 -2.55124,-0.17382 -0.37854,-0.15065 -0.67017,-0.44227 -0.82274,-0.82274 -0.22596,-0.56973 -0.17382,-1.92164 -0.17382,-2.55124 0,-0.62961 -0.0502,-1.98344 0.17382,-2.55125 0.15064,-0.37854 0.44227,-0.67016 0.82274,-0.82273 0.56972,-0.22596 1.92164,-0.17382 2.55124,-0.17382 0.62961,0 1.98345,-0.0502 2.55125,0.17382 0.37854,0.15064 0.67016,0.44226 0.82273,0.82273 0.22597,0.56974 0.17382,1.92164 0.17382,2.55125 0,0.6296 0.0521,1.98345 -0.17382,2.55124 z"
                 id="path12" />
              <path
                 inkscape:connector-curvature="0"
                 style="fill:#444444;stroke-width:0.0193195;fill-opacity:1"
                 d="m 182.3161,227.68281 v 6.80046 c 0,0.51197 -0.41537,0.92734 -0.92734,0.92734 h -4.74487 c 0.18933,-0.31684 0.43276,-0.77278 0.52936,-1.14565 0.058,-0.22217 0.29558,-1.12825 0.29558,-1.12825 0.15456,0.29558 0.60664,0.54481 1.08769,0.54481 1.43158,0 2.46131,-1.31566 2.46131,-2.95009 0,-1.56681 -1.27895,-2.73951 -2.92498,-2.73951 -2.04786,0 -3.13362,1.37362 -3.13362,2.87088 0,0.6955 0.37094,1.56102 0.96211,1.83728 0.0908,0.0425 0.13717,0.0232 0.15842,-0.0637 0.0155,-0.0657 0.0966,-0.38832 0.13137,-0.53708 0.0116,-0.0483 0.006,-0.0889 -0.0328,-0.13524 -0.19513,-0.23763 -0.35355,-0.67425 -0.35355,-1.08189 0,-1.04712 0.7921,-2.05946 2.14254,-2.05946 1.16496,0 1.98218,0.79403 1.98218,1.93002 0,1.28281 -0.64721,2.17151 -1.49147,2.17151 -0.4656,0 -0.81335,-0.38446 -0.70323,-0.85779 0.13331,-0.56412 0.39219,-1.17269 0.39219,-1.58033 0,-1.02393 -1.45862,-0.8829 -1.45862,0.48299 0,0.41923 0.14103,0.70516 0.14103,0.70516 -0.60663,2.56563 -0.69744,2.59847 -0.57186,3.72093 l 0.0425,0.0155 h -1.7117 c -0.51197,0 -0.92734,-0.41537 -0.92734,-0.92734 v -6.80046 c 0,-0.51197 0.41537,-0.92734 0.92734,-0.92734 h 6.80046 c 0.51197,0 0.92734,0.41537 0.92734,0.92734 z"
                 id="path12-9" />
              <path
                 inkscape:connector-curvature="0"
                 style="fill:#444444;stroke-width:0.0193195;fill-opacity:1"
                 d="M 135.13946,226.75557 H 128.339 a 0.92733598,0.92733598 0 0 0 -0.92734,0.92734 v 6.80046 a 0.92733598,0.92733598 0 0 0 0.92734,0.92734 h 2.6516 v -2.94255 h -1.21713 v -1.38502 h 1.21713 v -1.05562 c 0,-1.2007 0.71482,-1.86394 1.80966,-1.86394 0.52433,0 1.07261,0.0935 1.07261,0.0935 v 1.17849 h -0.60412 c -0.59523,0 -0.78089,0.36938 -0.78089,0.74824 v 0.89932 h 1.32879 l -0.21251,1.38502 h -1.11628 v 2.94255 h 2.6516 a 0.92733598,0.92733598 0 0 0 0.92734,-0.92734 v -6.80046 a 0.92733598,0.92733598 0 0 0 -0.92734,-0.92734 z"
                 id="path2" />
            </g>
          </g>
        </g>
      </g>
    </g>
  </g>
</svg>
