<?xml version="1.0" encoding="UTF-8" standalone="no"?>
<!-- Created with Inkscape (http://www.inkscape.org/) -->

<svg
   xmlns:dc="http://purl.org/dc/elements/1.1/"
   xmlns:cc="http://creativecommons.org/ns#"
   xmlns:rdf="http://www.w3.org/1999/02/22-rdf-syntax-ns#"
   xmlns:svg="http://www.w3.org/2000/svg"
   xmlns="http://www.w3.org/2000/svg"
   xmlns:sodipodi="http://sodipodi.sourceforge.net/DTD/sodipodi-0.dtd"
   xmlns:inkscape="http://www.inkscape.org/namespaces/inkscape"
   width="120.532"
   height="42"
   viewBox="0 0 31.890757 11.1125"
   version="1.1"
   id="svg8"
   sodipodi:docname="quaker-quilts.svg"
   inkscape:version="0.92.3 (2405546, 2018-03-11)"
   inkscape:export-filename="C:\Users\dstoc\Desktop\web-projects\quaker-quilts\quaker-quilts-brand\logo\quaker-quilts.png"
   inkscape:export-xdpi="598.85712"
   inkscape:export-ydpi="598.85712">
  <defs
     id="defs2">
    <pattern
       y="0"
       x="0"
       height="6"
       width="6"
       patternUnits="userSpaceOnUse"
       id="EMFhbasepattern" />
  </defs>
  <sodipodi:namedview
     id="base"
     pagecolor="#ffffff"
     bordercolor="#666666"
     borderopacity="0.39215686"
     inkscape:pageopacity="0.0"
     inkscape:pageshadow="2"
     inkscape:zoom="8"
     inkscape:cx="60.893524"
     inkscape:cy="6.9186946"
     inkscape:document-units="mm"
     inkscape:current-layer="text16-0"
     showgrid="false"
     units="px"
     inkscape:pagecheckerboard="true"
     inkscape:window-width="1920"
     inkscape:window-height="1025"
     inkscape:window-x="0"
     inkscape:window-y="28"
     inkscape:window-maximized="1"
     showborder="true" />
  <metadata
     id="metadata5">
    <rdf:RDF>
      <cc:Work
         rdf:about="">
        <dc:format>image/svg+xml</dc:format>
        <dc:type
           rdf:resource="http://purl.org/dc/dcmitype/StillImage" />
        <dc:title />
      </cc:Work>
    </rdf:RDF>
  </metadata>
  <g
     inkscape:label="Layer 1"
     inkscape:groupmode="layer"
     id="layer1"
     transform="translate(0,-285.88749)">
    <g
       id="g3749"
       transform="matrix(1.0649088,0,0,1.0649088,-38.331845,222.09515)">
      <g
         aria-label="Q"
         style="font-style:normal;font-variant:normal;font-weight:normal;font-stretch:normal;font-size:10.58333302px;line-height:1.25;font-family:WestBalaio;-inkscape-font-specification:'WestBalaio, Normal';font-variant-ligatures:normal;font-variant-caps:normal;font-variant-numeric:normal;font-feature-settings:normal;text-align:start;letter-spacing:0px;word-spacing:0px;writing-mode:lr-tb;text-anchor:start;fill:#784421;fill-opacity:1;stroke:none;stroke-width:0.26458332"
         id="text12" />
      <g
         id="g3794"
         style="fill:#cccccc;fill-opacity:1"
         inkscape:export-xdpi="601.14001"
         inkscape:export-ydpi="601.14001">
        <g
           id="text16-0"
           style="font-style:normal;font-variant:normal;font-weight:normal;font-stretch:normal;font-size:4.68567562px;line-height:1.25;font-family:'Trajan Pro';-inkscape-font-specification:'Trajan Pro, Normal';font-variant-ligatures:normal;font-variant-caps:normal;font-variant-numeric:normal;font-feature-settings:normal;text-align:start;letter-spacing:0px;word-spacing:0px;writing-mode:lr-tb;text-anchor:start;fill:#cccccc;fill-opacity:1;stroke:none;stroke-width:0.11714614"
           aria-label="Quaker Quilts">
          <g
             id="g52">
            <path
               inkscape:connector-curvature="0"
               d="m 43.731843,70.286293 q -0.02117,0.05292 -0.05292,0.05292 -0.03175,0 -0.05292,-0.05292 -0.02117,-0.05292 0.05292,-0.05292 0.07408,0 0.05292,0.05292 z M 39.816009,70.18046 q -0.02117,0.05292 -0.105833,0.05292 -0.08467,0 -0.105833,-0.05292 -0.01058,-0.02117 0.02117,-0.03175 0.04233,-0.01058 0.08467,-0.01058 0.04233,0 0.07408,0.01058 0.04233,0.01058 0.03175,0.03175 z m 2.116667,-0.105834 q -0.116417,0.116417 -0.28575,0.116417 -0.169333,0 -0.296333,0 -0.04233,0 -0.1905,0 -0.137584,-0.01058 -0.179917,-0.01058 0.04233,-0.01058 0.15875,-0.02117 0.127,-0.02117 0.264583,-0.03175 0.137584,-0.02117 0.254,-0.03175 0.116417,-0.02117 0.169334,-0.02117 h 0.05292 z m 1.481667,0.105834 q -0.03175,0.05292 -0.15875,0.05292 -0.127,0 -0.15875,-0.05292 -0.02117,-0.02117 0.03175,-0.03175 0.0635,-0.01058 0.127,-0.01058 0.0635,0 0.116416,0.01058 0.05292,0.01058 0.04233,0.03175 z m -3.915834,-0.105834 q -0.04233,0.05292 -0.15875,0.05292 -0.116416,0 -0.15875,-0.05292 -0.02117,-0.02117 0.03175,-0.03175 0.05292,-0.01058 0.127,-0.01058 0.07408,0 0.127,0.01058 0.05292,0.01058 0.03175,0.03175 z m 3.4925,-0.105833 q 0.08467,0 0.08467,0.105833 0,0.105834 -0.08467,0.105834 -0.08467,0 -0.08467,-0.105834 0,-0.105833 0.08467,-0.105833 z m 2.434167,-0.423333 -0.529167,0.529166 h -0.105833 l 0.635,-0.635 z m -6.82625,0.211666 h 0.05292 q 0.02117,0.01058 0.08467,0.04233 0.0635,0.02117 0.127,0.0635 0.0635,0.03175 0.127,0.0635 0.0635,0.03175 0.08467,0.04233 -0.01058,0 -0.05292,0.01058 -0.03175,0 -0.05292,0 -0.264584,0 -0.423334,-0.22225 z m 3.96875,0.105834 q -0.02117,0.02117 -0.105833,0.0635 -0.08467,0.03175 -0.105834,0.04233 h -0.05292 -0.05292 q 0.02117,-0.02117 0.105833,-0.05292 0.08467,-0.04233 0.105834,-0.05292 h 0.05292 z m 0.211667,0 q 0.08467,0 0.08467,0.105833 0,0.105833 -0.08467,0.105833 -0.08467,0 -0.08467,-0.105833 0,-0.105833 0.08467,-0.105833 z m -5.609167,-1.375834 q -0.243417,-0.465666 -0.465667,-0.889 -0.211666,-0.433916 -0.370416,-0.867833 -0.15875,-0.4445 -0.254,-0.899583 -0.08467,-0.465667 -0.08467,-0.994833 0,-0.518584 0.116417,-1.0795 0.127,-0.560917 0.359833,-1.100667 0.232833,-0.53975 0.5715,-1.016 0.338667,-0.47625 0.762,-0.836083 0.433917,-0.359834 0.9525,-0.5715 0.518583,-0.211667 1.11125,-0.211667 h 0.15875 q -0.338667,0.148167 -0.613833,0.328083 -0.264584,0.179917 -0.4445,0.518584 0,-0.02117 -0.04233,-0.105834 -0.04233,-0.08467 -0.0635,-0.105833 h -0.02117 q -0.01058,0 -0.02117,0 0,-0.01058 -0.01058,-0.01058 -0.01058,0 -0.02117,0.01058 0,0 -0.01058,0 h -0.02117 q -0.09525,0.05292 -0.148167,0.1905 -0.04233,0.127 -0.0635,0.275167 -0.01058,0.137583 -0.01058,0.254 0.01058,0.116416 0.01058,0.127 -0.137583,-0.03175 -0.275166,0.05292 -0.137584,0.08467 -0.243417,0.22225 -0.105833,0.137584 -0.169333,0.296334 -0.0635,0.15875 -0.0635,0.275166 0,0.02117 0,0.0635 0.01058,0.03175 0.01058,0.04233 0.1905,0.02117 0.381,0.07408 0.1905,0.05292 0.338667,0.148167 0.15875,0.09525 0.254,0.243416 0.09525,0.148167 0.09525,0.381 0,0.1905 -0.04233,0.328084 -0.03175,0.127 -0.179916,0.306916 l 0.211666,-0.105833 q -0.105833,0.15875 -0.28575,0.264583 -0.179916,0.105834 -0.34925,0.15875 0.02117,0 0.07408,0.01058 0.0635,0 0.08467,0 0.264584,0 0.402167,-0.169334 0.148167,-0.179916 0.211667,-0.465666 0.07408,-0.28575 0.105833,-0.645584 0.03175,-0.359833 0.0635,-0.740833 0.03175,-0.381 0.09525,-0.740833 0.0635,-0.359834 0.211667,-0.645584 0.15875,-0.28575 0.41275,-0.455083 0.254,-0.179917 0.677333,-0.179917 0.01058,0 0.07408,0 0.0635,-0.01058 0.137584,0 0.07408,0 0.127,0.03175 0.0635,0.02117 0.07408,0.08467 -0.34925,-0.05292 -0.60325,0.0635 -0.243417,0.105833 -0.41275,0.328083 -0.15875,0.211667 -0.254,0.508 -0.08467,0.28575 -0.105833,0.582084 -0.01058,0.1905 -0.03175,0.518583 -0.02117,0.3175 -0.04233,0.6985 -0.02117,0.370417 -0.05292,0.762 -0.02117,0.381 -0.04233,0.719667 -0.01058,0.338666 -0.03175,0.582083 -0.01058,0.243417 -0.01058,0.3175 0,0.09525 0.01058,0.455083 0.02117,0.34925 0.03175,0.762 0.02117,0.41275 0.04233,0.772583 0.02117,0.34925 0.02117,0.4445 0,0.03175 0,0.127 0,0.08467 0,0.1905 0.01058,0.105834 0.01058,0.201084 0,0.08467 0,0.116416 h -0.116417 q -0.04233,-0.105833 -0.116417,-0.201083 -0.0635,-0.105833 -0.116416,-0.201083 -0.05292,-0.105834 -0.08467,-0.211667 -0.03175,-0.105833 0,-0.232833 l -0.211667,0.105833 q 0.02117,-0.03175 0.05292,-0.148167 0.04233,-0.127 0.05292,-0.169333 v -0.05292 -0.05292 q -0.01058,-0.02117 -0.05292,-0.05292 -0.03175,-0.04233 -0.05292,-0.05292 0.02117,-0.01058 0.05292,-0.04233 0.04233,-0.04233 0.05292,-0.0635 v -0.02117 q 0,-0.01058 0,-0.01058 0.01058,-0.01058 0.01058,-0.02117 0,-0.01058 -0.01058,-0.02117 0,-0.02117 0,-0.03175 -0.116417,0.09525 -0.296334,0.232833 -0.169333,0.137583 -0.338666,0.1905 0.179916,-0.201083 0.306916,-0.328083 0.127,-0.137584 0.201084,-0.264584 0.08467,-0.137583 0.116416,-0.28575 0.03175,-0.15875 0.03175,-0.402166 0,-0.05292 -0.01058,-0.169334 -0.01058,-0.116416 -0.01058,-0.137583 L 38.863509,65.73546 q -0.148166,0.179916 -0.201083,0.338666 -0.05292,0.15875 -0.07408,0.28575 -0.02117,0.127 -0.04233,0.232834 -0.01058,0.09525 -0.09525,0.179916 -0.07408,0.07408 -0.254,0.137584 -0.169333,0.05292 -0.497416,0.09525 0.02117,0.02117 0.05292,0.08467 0.04233,0.05292 0.07408,0.116417 0.03175,0.0635 0.05292,0.127 0.03175,0.0635 0.03175,0.09525 0,0.01058 -0.03175,0.04233 -0.03175,0.03175 -0.07408,0.07408 -0.03175,0.03175 -0.0635,0.0635 -0.03175,0.02117 -0.04233,0.03175 -0.01058,0.01058 -0.01058,0.02117 v 0.03175 q 0,0.116417 0.08467,0.169334 0.09525,0.04233 0.201083,0.07408 0.116417,0.02117 0.22225,0.04233 0.105834,0.02117 0.137584,0.08467 0.02117,0.03175 0.02117,0.169333 0,0.137584 0.03175,0.275167 0.03175,0.137583 0.105834,0.211667 0.08467,0.07408 0.264583,-0.02117 0.370417,0.370417 0.783167,0.613833 0.423333,0.232834 0.963083,0.232834 0.264583,0 0.53975,-0.169334 0.28575,-0.169333 0.508,-0.359833 0.22225,-0.201083 0.370417,-0.370417 0.148166,-0.169333 0.15875,-0.169333 0.01058,0 0.02117,0.01058 0.01058,0 0.02117,0 h 0.02117 q 0.02117,0.01058 0.105833,0.0635 0.08467,0.04233 0.105833,0.04233 0.08467,0 0.127,-0.105834 0.05292,-0.116416 0.07408,-0.254 0.02117,-0.148166 0.02117,-0.28575 0.01058,-0.137583 0.01058,-0.201083 h 0.635 q 0,-0.243417 0.03175,-0.4445 0.03175,-0.201083 0.03175,-0.4445 -0.127,0 -0.306917,0.01058 -0.169333,0 -0.328083,-0.02117 -0.15875,-0.03175 -0.275167,-0.105834 -0.105833,-0.08467 -0.105833,-0.264583 h -0.137584 q 0,-0.116417 0.03175,-0.275167 0.03175,-0.169333 0.105834,-0.3175 0.07408,-0.148166 0.179916,-0.253999 0.116417,-0.105834 0.275167,-0.105834 0.15875,0 0.211667,0.127 0.0635,0.116417 0.0635,0.232833 0,0.07408 -0.01058,0.169334 0,0.08467 -0.105833,0.105833 0,0.02117 0.04233,0.0635 0.04233,0.04233 0.0635,0.04233 0.01058,0 0.05292,-0.01058 0.05292,-0.02117 0.105833,-0.03175 0.05292,-0.02117 0.09525,-0.04233 0.05292,-0.02117 0.0635,-0.02117 h 0.0635 0.04233 q 0.03175,0.02117 0.105833,0.105833 0.08467,0.07408 0.105833,0.105834 0.02117,-0.01058 0.05292,-0.04233 0.04233,-0.04233 0.05292,-0.0635 0,-0.01058 0.01058,-0.05292 0.02117,-0.05292 0.03175,-0.105834 0.02117,-0.0635 0.03175,-0.105833 0.02117,-0.04233 0.03175,-0.05292 0.03175,-0.02117 0.137583,0.04233 0.105834,0.0635 0.137584,0.0635 0,-0.148167 -0.03175,-0.243417 -0.03175,-0.09525 -0.0635,-0.15875 -0.03175,-0.07408 -0.0635,-0.137583 -0.03175,-0.0635 -0.03175,-0.15875 0.09525,0 0.22225,-0.05292 0.137583,-0.05292 0.254,-0.137583 0.127,-0.08467 0.211666,-0.1905 0.08467,-0.116417 0.08467,-0.243417 0,-0.148166 -0.07408,-0.264583 -0.0635,-0.127 -0.179917,-0.211667 -0.105833,-0.09525 -0.243417,-0.148166 -0.127,-0.05292 -0.254,-0.0635 0.03175,-0.03175 0.105834,-0.148167 0.08467,-0.127 0.105833,-0.169333 v -0.05292 q 0,-0.07408 -0.03175,-0.169333 -0.02117,-0.105834 -0.07408,-0.201084 -0.04233,-0.09525 -0.116417,-0.15875 -0.0635,-0.0635 -0.137583,-0.0635 -0.03175,0 -0.09525,0.01058 -0.0635,0 -0.07408,0 -0.02117,0 -0.105833,0.05292 -0.08467,0.05292 -0.105833,0.05292 -0.01058,0 -0.05292,-0.05292 -0.04233,-0.05292 -0.05292,-0.05292 h -0.04233 q -0.02117,0 -0.04233,0 -0.01058,-0.01058 -0.02117,-0.01058 -0.02117,0 -0.0635,0.01058 -0.03175,0 -0.04233,0 0.07408,0.08467 0.09525,0.15875 0.02117,0.0635 0.02117,0.15875 0,0.211666 -0.116416,0.328083 -0.116417,0.105833 -0.3175,0.105833 -0.116417,0 -0.22225,-0.01058 -0.105834,-0.01058 -0.201084,-0.105833 0,0.01058 -0.01058,0.03175 0,0.01058 0,0.02117 0,0.211667 0.179917,0.306917 0.1905,0.08467 0.359833,0.08467 0.04233,0 0.105833,0 0.0635,0 0.116417,-0.02117 0.05292,-0.02117 0.08467,-0.0635 0.03175,-0.05292 0.01058,-0.148167 0,0.01058 0,0.05292 0.01058,0.03175 0.01058,0.05292 0,0.09525 -0.05292,0.137583 -0.05292,0.04233 -0.116417,0.07408 -0.0635,0.03175 -0.116417,0.0635 -0.05292,0.03175 -0.05292,0.09525 0,0.105834 0.127,0.179917 0.127,0.0635 0.201083,0.08467 l -0.211667,0.211666 0.105834,0.105834 -0.105834,0.105833 h 0.3175 q -0.127,0.09525 -0.338666,0.127 -0.211667,0.03175 -0.423334,0.07408 -0.201083,0.04233 -0.359833,0.148167 -0.148167,0.09525 -0.148167,0.338666 v 0.05292 q 0.02117,-0.03175 0.07408,-0.08467 0.0635,-0.0635 0.127,-0.126999 0.07408,-0.07408 0.127,-0.127 0.0635,-0.0635 0.09525,-0.08467 h 0.02117 q 0.01058,0 0.01058,0 0.01058,-0.01058 0.02117,-0.01058 0.01058,0 0.02117,0.01058 0.02117,0 0.03175,0 -0.211667,0.169333 -0.3175,0.34925 -0.09525,0.179916 -0.148167,0.381 -0.05292,0.201083 -0.08467,0.41275 -0.02117,0.211666 -0.08467,0.4445 -0.02117,0.08467 -0.07408,0.296333 -0.04233,0.211667 -0.09525,0.4445 -0.04233,0.232833 -0.09525,0.4445 -0.04233,0.211667 -0.05292,0.296333 -0.137583,0.105834 -0.232833,0.254 -0.09525,0.137584 -0.201084,0.275167 -0.09525,0.127 -0.232833,0.22225 -0.127,0.09525 -0.338667,0.09525 h -0.05292 q 0.169333,-0.05292 0.34925,-0.15875 0.179916,-0.105833 0.28575,-0.264583 -0.02117,-0.01058 -0.105834,-0.01058 -0.08467,-0.01058 -0.105833,-0.01058 -0.148167,0 -0.232833,0.0635 -0.08467,0.05292 -0.15875,0.116417 -0.07408,0.0635 -0.169334,0.127 -0.08467,0.05292 -0.232833,0.05292 -0.105833,0 -0.232833,-0.02117 -0.116417,-0.03175 -0.22225,-0.08467 -0.105834,-0.05292 -0.179917,-0.148167 -0.0635,-0.09525 -0.0635,-0.243416 v -0.03175 q 0,-0.01058 0.01058,-0.02117 0.01058,-0.02117 0.04233,-0.05292 0.04233,-0.04233 0.0635,-0.05292 0.02117,0.04233 0.09525,0.169333 0.08467,0.116417 0.116416,0.148167 0.01058,0.01058 0.02117,0.01058 h 0.03175 0.03175 q 0.01058,0 0.02117,-0.01058 l 0.423333,-0.846667 h 0.529167 q -0.09525,0.05292 -0.232834,0.137583 -0.127,0.08467 -0.243416,0.1905 -0.105834,0.09525 -0.1905,0.22225 -0.07408,0.116417 -0.07408,0.243417 v 0.05292 q 0.127,-0.179917 0.359834,-0.22225 0.232833,-0.04233 0.455083,-0.07408 0.232833,-0.03175 0.391583,-0.105833 0.169334,-0.08467 0.169334,-0.338667 0,-0.01058 -0.04233,-0.04233 -0.04233,-0.04233 -0.0635,-0.0635 -0.03175,-0.02117 -0.15875,-0.07408 -0.116416,-0.0635 -0.15875,-0.08467 h 0.624417 l 0.0635,-6.085416 v 0.635 h 0.15875 q 0.01058,-0.03175 0.05292,-0.105834 0.05292,-0.07408 0.09525,-0.15875 0.05292,-0.08467 0.09525,-0.15875 0.05292,-0.07408 0.07408,-0.105833 0.01058,-0.02117 0.04233,-0.05292 0.04233,-0.04233 0.0635,-0.05292 -0.148166,0.254 -0.243416,0.455083 -0.08467,0.1905 -0.08467,0.4445 0,0.02117 0,0.08467 0.01058,0.05292 0.01058,0.07408 0.0635,-0.127 0.15875,-0.306917 0.09525,-0.179916 0.201084,-0.359833 0.116416,-0.1905 0.232833,-0.34925 0.127,-0.169333 0.254,-0.254 -0.02117,-0.07408 -0.105833,-0.09525 -0.07408,-0.03175 -0.169334,-0.03175 -0.09525,0 -0.179916,0.01058 -0.07408,0.01058 -0.07408,0.01058 0,-0.03175 -0.01058,-0.116417 -0.01058,-0.09525 -0.03175,-0.201083 -0.01058,-0.105834 -0.03175,-0.1905 -0.02117,-0.09525 -0.03175,-0.127 -0.01058,-0.02117 -0.05292,-0.05292 -0.03175,-0.04233 -0.05292,-0.05292 -0.01058,0.02117 -0.05292,0.0635 -0.03175,0.03175 -0.05292,0.04233 -0.01058,0.01058 -0.02117,0.01058 h -0.03175 q -0.01058,0 -0.03175,0 -0.01058,-0.01058 -0.02117,-0.01058 -0.201083,-0.232834 -0.370417,-0.391584 -0.169333,-0.15875 -0.34925,-0.254 -0.169333,-0.105833 -0.381,-0.169333 -0.201083,-0.07408 -0.486833,-0.137583 0.03175,0 0.127,0 0.105833,-0.01058 0.137583,-0.01058 0.137584,0 0.4445,0.04233 0.3175,0.03175 0.645584,0.116416 0.328083,0.07408 0.5715,0.201084 0.254,0.116416 0.254,0.28575 h 0.254 v 0.148166 q 0.02117,0 0.105833,-0.02117 0.08467,-0.03175 0.105833,-0.02117 0.04233,0.02117 0.15875,0.105833 0.127,0.07408 0.15875,0.105834 l -0.105833,0.105833 q 0.148167,-0.03175 0.28575,0.03175 0.148167,0.0635 0.264583,0.179917 0.127,0.105833 0.232834,0.232833 0.105833,0.116417 0.169333,0.1905 -0.02117,0.07408 0,0.179917 0.03175,0.09525 0.07408,0.201083 0.04233,0.09525 0.07408,0.1905 0.04233,0.09525 0.04233,0.169333 h 0.127 q 0.01058,0 0.04233,0.07408 0.04233,0.07408 0.09525,0.179916 0.05292,0.09525 0.09525,0.201084 0.05292,0.105833 0.08467,0.179916 0.137583,0.338667 0.127,0.6985 -0.01058,0.359834 -0.01058,0.719667 0,0.47625 -0.0635,0.931333 -0.05292,0.455083 -0.05292,0.931333 V 66.3704 q 0.07408,-0.179917 0.116417,-0.370417 0.05292,-0.1905 0.09525,-0.370416 0,0.02117 0,0.105833 0.01058,0.08467 0.01058,0.105833 0,0.423333 -0.15875,0.85725 -0.148167,0.433917 -0.402167,0.836083 -0.243416,0.402167 -0.550333,0.762 -0.296333,0.34925 -0.592667,0.613834 0,0.01058 -0.01058,0.03175 0,0.01058 0,0.02117 v 0.03175 q 0,0.01058 0.01058,0.02117 0.02117,0.02117 0.05292,0.0635 0.03175,0.04233 0.05292,0.04233 h 0.740833 q 0,-0.04233 0.04233,-0.15875 0.04233,-0.127 0.0635,-0.15875 0.03175,-0.05292 0.148167,-0.07408 0.116417,-0.02117 0.243417,-0.04233 0.137583,-0.02117 0.264583,-0.0635 0.127,-0.04233 0.1905,-0.137584 0.0635,-0.105833 0.07408,-0.148166 0.02117,-0.04233 0.03175,-0.07408 0.02117,-0.03175 0.05292,-0.07408 0.04233,-0.04233 0.15875,-0.127 0.07408,0.08467 0.09525,0.15875 0.02117,0.0635 0.02117,0.15875 0,0.02117 -0.01058,0.0635 0,0.03175 0,0.04233 l -0.105833,-0.105833 q -0.264584,0.60325 -0.635,0.889 -0.359833,0.28575 -1.037167,0.28575 -0.148166,0 -0.275166,-0.03175 -0.127,-0.04233 -0.254,-0.07408 -0.116417,-0.04233 -0.243417,-0.07408 -0.116417,-0.04233 -0.254,-0.04233 -0.201083,0 -0.465667,0.07408 -0.254,0.0635 -0.550333,0.148167 -0.28575,0.07408 -0.592667,0.148167 -0.296333,0.0635 -0.582083,0.0635 -0.497417,0 -0.92075,-0.09525 -0.423333,-0.09525 -0.804333,-0.275167 -0.381,-0.179917 -0.73025,-0.433917 -0.34925,-0.254 -0.6985,-0.582083 z m 0.9525,0.9525 q 0.01058,0 0.02117,0 0.02117,-0.01058 0.03175,-0.01058 0,0.01058 0.01058,0.01058 h 0.02117 0.02117 q 0.03175,0.02117 0.105834,0.105834 0.08467,0.07408 0.105833,0.105833 -0.01058,0 -0.03175,0.01058 -0.01058,0 -0.02117,0 h -0.03175 q -0.01058,0 -0.02117,-0.01058 -0.03175,-0.02117 -0.116417,-0.09525 -0.07408,-0.08467 -0.09525,-0.116417 z m 3.704167,-0.105833 q 0.08467,0 0.08467,0.105833 0,0.105834 -0.08467,0.105834 -0.08467,0 -0.08467,-0.105834 0,-0.105833 0.08467,-0.105833 z m -3.81,-0.105833 q 0.08467,0 0.08467,0.105833 0,0.105833 -0.08467,0.105833 -0.08467,0 -0.08467,-0.105833 0,-0.105833 0.08467,-0.105833 z m 4.1275,0 q 0.08467,0 0.08467,0.105833 0,0.105833 -0.08467,0.105833 -0.08467,0 -0.08467,-0.105833 0,-0.105833 0.08467,-0.105833 z m -4.233334,-0.105834 q 0.08467,0 0.08467,0.105834 0,0.105833 -0.08467,0.105833 -0.08467,0 -0.08467,-0.105833 0,-0.105834 0.08467,-0.105834 z m 4.445,0 q -0.08467,0 -0.08467,0.105834 0,0.105833 0.08467,0.105833 0.08467,0 0.08467,-0.105833 0,-0.105834 -0.08467,-0.105834 z m 3.175,0 q 0.08467,0 0.08467,0.105834 0,0.105833 -0.08467,0.105833 -0.08467,0 -0.08467,-0.105833 0,-0.105834 0.08467,-0.105834 z m -7.725833,-0.105833 q 0.08467,0 0.08467,0.105833 0,0.105834 -0.08467,0.105834 -0.08467,0 -0.08467,-0.105834 0,-0.105833 0.08467,-0.105833 z m 5.08,-0.105833 q -0.08467,0.03175 -0.179917,0.08467 -0.08467,0.04233 -0.137583,0.127 0.08467,-0.03175 0.169333,-0.07408 0.09525,-0.05292 0.148167,-0.137583 z m -5.185833,0 q 0.08467,0 0.08467,0.105833 0,0.105833 -0.08467,0.105833 -0.08467,0 -0.08467,-0.105833 0,-0.105833 0.08467,-0.105833 z m -0.328084,-0.264584 q 0,-0.01058 0,-0.02117 0.01058,-0.02117 0.01058,-0.03175 0.03175,0.02117 0.105833,0.105833 0.08467,0.07408 0.105833,0.105833 v 0.02117 0.02117 q 0,0.01058 0.01058,0.01058 0,0.01058 -0.01058,0.03175 0,0.01058 0,0.02117 -0.03175,-0.02117 -0.116416,-0.09525 -0.07408,-0.08467 -0.09525,-0.116417 -0.01058,-0.01058 -0.01058,-0.02117 z m 7.313084,-2.06375 q -0.328084,0.624417 -0.709084,1.17475 -0.381,0.53975 -0.878416,1.04775 0.05292,-0.05292 0.1905,-0.179916 0.137583,-0.137584 0.28575,-0.28575 0.15875,-0.15875 0.28575,-0.296334 0.137583,-0.137583 0.1905,-0.1905 0.09525,-0.105833 0.201083,-0.264583 0.116417,-0.169333 0.211667,-0.34925 0.09525,-0.179917 0.15875,-0.338667 0.07408,-0.169333 0.07408,-0.264583 0,-0.01058 -0.01058,-0.02117 0,-0.02117 0,-0.03175 z m -2.8575,1.5875 q 0.05292,0.02117 0.05292,0.105834 0,0.08467 -0.05292,0.105833 -0.02117,0.01058 -0.04233,-0.02117 -0.01058,-0.04233 -0.01058,-0.08467 0,-0.04233 0.01058,-0.07408 0.02117,-0.04233 0.04233,-0.03175 z m 3.069166,0.211667 q -0.05292,0.05292 -0.211666,0.05292 -0.15875,0 -0.211667,-0.05292 -0.02117,-0.02117 0.04233,-0.03175 0.07408,-0.01058 0.169334,-0.01058 0.09525,0 0.15875,0.01058 0.07408,0.01058 0.05292,0.03175 z m -7.62,-0.211667 q -0.08467,0 -0.08467,0.105834 0,0.105833 0.08467,0.105833 0.08467,0 0.08467,-0.105833 0,-0.105834 -0.08467,-0.105834 z m 1.799167,0 q 0.08467,0 0.08467,0.105834 0,0.105833 -0.08467,0.105833 -0.08467,0 -0.08467,-0.105833 0,-0.105834 0.08467,-0.105834 z m 5.291667,0.105834 q -0.02117,0.05292 -0.05292,0.05292 -0.03175,0 -0.05292,-0.05292 -0.02117,-0.05292 0.05292,-0.05292 0.07408,0 0.05292,0.05292 z m -7.090834,-0.3175 q -0.01058,-0.02117 -0.04233,-0.01058 -0.02117,0 -0.05292,0.03175 -0.02117,0.02117 -0.03175,0.05292 0,0.02117 0.02117,0.03175 0.05292,0.02117 0.08467,-0.01058 0.04233,-0.04233 0.02117,-0.09525 z m 0.105834,0 q -0.08467,0 -0.08467,0.105833 0,0.105833 0.08467,0.105833 0.08467,0 0.08467,-0.105833 0,-0.105833 -0.08467,-0.105833 z m 4.656666,-0.105834 q 0.05292,0.02117 0.05292,0.105834 0,0.08467 -0.05292,0.105833 -0.02117,0.01058 -0.04233,-0.02117 -0.01058,-0.04233 -0.01058,-0.08467 0,-0.04233 0.01058,-0.07408 0.02117,-0.04233 0.04233,-0.03175 z m -1.799166,-0.635 q 0.02117,0.04233 0.03175,0.148167 0.01058,0.105833 0.01058,0.22225 0,0.116417 -0.01058,0.22225 -0.01058,0.105833 -0.03175,0.148167 -0.02117,0.04233 -0.04233,-0.08467 -0.01058,-0.127 -0.01058,-0.28575 0,-0.15875 0.01058,-0.28575 0.02117,-0.127 0.04233,-0.08467 z m 4.974166,0.423334 q 0.08467,0 0.08467,0.105833 0,0.105833 -0.08467,0.105833 -0.08467,0 -0.08467,-0.105833 0,-0.105833 0.08467,-0.105833 z m -3.280833,-0.105834 q 0.05292,0.01058 0.05292,0.05292 0,0.04233 -0.05292,0.05292 -0.05292,0.01058 -0.05292,-0.05292 0,-0.0635 0.05292,-0.05292 z m 3.386666,-0.105833 q 0.05292,0.01058 0.05292,0.05292 0,0.04233 -0.05292,0.05292 -0.05292,0.01058 -0.05292,-0.05292 0,-0.0635 0.05292,-0.05292 z m 0.105834,-0.3175 q 0.05292,0.01058 0.05292,0.05292 0,0.04233 -0.05292,0.05292 -0.05292,0.01058 -0.05292,-0.05292 0,-0.0635 0.05292,-0.05292 z M 38.228509,67.00546 q 0.08467,0 0.08467,0.105833 0,0.105833 -0.08467,0.105833 -0.08467,0 -0.08467,-0.105833 0,-0.105833 0.08467,-0.105833 z m 4.021667,0 q 0.08467,0 0.08467,0.105833 0,0.105833 -0.08467,0.105833 -0.08467,0 -0.08467,-0.105833 0,-0.105833 0.08467,-0.105833 z m 0.423333,0 q 0.08467,0 0.08467,0.105833 0,0.105833 -0.08467,0.105833 -0.08467,0 -0.08467,-0.105833 0,-0.105833 0.08467,-0.105833 z m -6.0325,-0.105834 q -0.08467,0 -0.08467,0.105834 0,0.105833 0.08467,0.105833 0.08467,0 0.08467,-0.105833 0,-0.105834 -0.08467,-0.105834 z m 5.503334,0 q 0.05292,0.01058 0.05292,0.05292 0,0.04233 -0.05292,0.05292 -0.05292,0.01058 -0.05292,-0.05292 0,-0.07408 0.05292,-0.05292 z m 0.423333,0 q 0.08467,0 0.08467,0.105834 0,0.105833 -0.08467,0.105833 -0.08467,0 -0.08467,-0.105833 0,-0.105834 0.08467,-0.105834 z m -3.915833,-0.105833 q 0.02117,0.05292 -0.02117,0.09525 -0.03175,0.03175 -0.08467,0.01058 -0.02117,-0.01058 -0.02117,-0.03175 0.01058,-0.03175 0.03175,-0.05292 0.03175,-0.03175 0.05292,-0.03175 0.03175,-0.01058 0.04233,0.01058 z m 3.704166,0 q 0.08467,0 0.08467,0.105833 0,0.105834 -0.08467,0.105834 -0.08467,0 -0.08467,-0.105834 0,-0.105833 0.08467,-0.105833 z m 3.175,-0.105833 q 0.05292,0.02117 0.05292,0.105833 0,0.08467 -0.05292,0.105833 -0.02117,0.01058 -0.04233,-0.02117 -0.01058,-0.04233 -0.01058,-0.08467 0,-0.04233 0.01058,-0.07408 0.02117,-0.04233 0.04233,-0.03175 z m 0.105833,-0.635 q 0.05292,0.05292 0.05292,0.211666 0,0.15875 -0.05292,0.211667 -0.02117,0.02117 -0.04233,-0.04233 -0.01058,-0.07408 -0.01058,-0.169334 0,-0.09525 0.01058,-0.15875 0.02117,-0.07408 0.04233,-0.05292 z m -8.688916,-0.370417 q 0,0.03175 0.01058,0.148167 0.02117,0.116416 0.05292,0.232833 0.03175,0.116417 0.0635,0.211667 0.04233,0.09525 0.09525,0.09525 h 0.762 q 0,-0.116417 -0.07408,-0.211667 -0.0635,-0.09525 -0.0635,-0.22225 0,-0.08467 0.04233,-0.127 0.05292,-0.04233 0.116417,-0.0635 0.0635,-0.02117 0.137583,-0.02117 0.07408,0 0.137583,0 0.116417,0 0.22225,0.01058 0.105834,0.01058 0.201084,0.105833 0.02117,-0.02117 0.05292,-0.105833 0.04233,-0.08467 0.05292,-0.105833 0,-0.02117 0.01058,-0.05292 0.01058,-0.03175 0.01058,-0.05292 h -0.338667 l 0.105833,-0.105833 q -0.02117,-0.02117 -0.105833,-0.05292 -0.08467,-0.04233 -0.105833,-0.05292 h -0.05292 -0.05292 q -0.02117,0.01058 -0.08467,0.04233 -0.0635,0.02117 -0.127,0.0635 -0.0635,0.03175 -0.127,0.0635 -0.0635,0.03175 -0.08467,0.04233 l 0.211667,-0.3175 h -0.211667 q 0.03175,-0.02117 0.105833,-0.09525 0.08467,-0.08467 0.105834,-0.116416 0.01058,-0.03175 0.02117,-0.07408 0.01058,-0.04233 0.02117,-0.08467 0.01058,-0.04233 0.01058,-0.105834 h -0.582083 q 0.03175,-0.01058 0.105833,-0.03175 0.07408,-0.02117 0.15875,-0.05292 0.08467,-0.03175 0.15875,-0.07408 0.07408,-0.04233 0.105834,-0.105833 H 37.784 q 0,-0.04233 0.01058,-0.0635 0.01058,-0.03175 0.01058,-0.05292 0,-0.02117 -0.02117,-0.04233 -0.02117,-0.02117 -0.08467,-0.05292 l 0.3175,-0.211666 q -0.05292,-0.01058 -0.08467,-0.05292 -0.02117,-0.04233 -0.03175,-0.08467 -0.01058,-0.05292 -0.01058,-0.105833 0.01058,-0.05292 0.01058,-0.08467 0,-0.169333 0.03175,-0.275166 0.03175,-0.116417 0.1905,-0.243417 l -0.105833,-0.105833 -0.423334,0.211666 q -0.02117,-0.148166 -0.105833,-0.211666 -0.08467,-0.0635 -0.211667,-0.105834 -0.02117,0 -0.05292,0 -0.02117,-0.01058 -0.04233,-0.01058 -0.03175,0 -0.0635,-0.01058 v 0.4445 H 36.91615 q 0,0.402166 0.254,0.740833 h -0.656167 q 0,0.148167 0.127,0.211667 -0.04233,0.03175 -0.169333,0.15875 -0.116417,0.116416 -0.148167,0.15875 -0.01058,0.01058 -0.01058,0.02117 v 0.03175 q 0,0.09525 0.04233,0.148167 0.04233,0.05292 0.09525,0.105833 0.0635,0.05292 0.105834,0.127 0.04233,0.07408 0.04233,0.201084 h 0.5715 q -0.03175,0.03175 -0.116417,0.15875 -0.07408,0.116416 -0.09525,0.15875 -0.01058,0.01058 -0.01058,0.02117 z m 1.915583,0.264583 q 0.05292,0.02117 0.05292,0.05292 0,0.03175 -0.05292,0.05292 -0.05292,0.02117 -0.05292,-0.05292 0,-0.07408 0.05292,-0.05292 z m 1.375834,-0.317499 q 0.05292,0.02117 0.05292,0.05292 0,0.03175 -0.05292,0.05292 -0.05292,0.02117 -0.05292,-0.05292 0,-0.07408 0.05292,-0.05292 z m -1.5875,-0.105834 q -0.08467,0 -0.08467,0.105834 0,0.105833 0.08467,0.105833 0.08467,0 0.08467,-0.105833 0,-0.105834 -0.08467,-0.105834 z m 4.868333,0 q 0.08467,0 0.08467,0.105834 0,0.105833 -0.08467,0.105833 -0.08467,0 -0.08467,-0.105833 0,-0.105834 0.08467,-0.105834 z M 38.228509,65.41796 q -0.01058,0.02117 -0.05292,0.0635 -0.03175,0.03175 -0.05292,0.04233 -0.01058,0.01058 -0.02117,0.01058 h -0.03175 q -0.01058,0 -0.03175,0 -0.01058,-0.01058 -0.02117,-0.01058 z m 5.185834,0 q 0.08467,0 0.08467,0.105833 0,0.105834 -0.08467,0.105834 -0.08467,0 -0.08467,-0.105834 0,-0.105833 0.08467,-0.105833 z m 2.328333,-0.211667 q 0.05292,0.04233 0.05292,0.15875 0,0.116417 -0.05292,0.15875 -0.02117,0.02117 -0.04233,-0.03175 -0.01058,-0.05292 -0.01058,-0.127 0,-0.07408 0.01058,-0.127 0.02117,-0.05292 0.04233,-0.03175 z m -2.751667,0.105834 q 0.08467,0 0.08467,0.105833 0,0.105833 -0.08467,0.105833 -0.08467,0 -0.08467,-0.105833 0,-0.105833 0.08467,-0.105833 z m 0.3175,0 q 0.08467,0 0.08467,0.105833 0,0.105833 -0.08467,0.105833 -0.08467,0 -0.08467,-0.105833 0,-0.105833 0.08467,-0.105833 z m 1.799167,-0.846667 q 0.02117,0.05292 0.03175,0.1905 0.01058,0.137583 0.01058,0.28575 0,0.148167 -0.01058,0.28575 -0.01058,0.137583 -0.03175,0.1905 -0.02117,0.05292 -0.04233,-0.105833 -0.01058,-0.169334 -0.01058,-0.370417 0,-0.201083 0.01058,-0.359833 0.02117,-0.169334 0.04233,-0.116417 z m -1.905,0.740833 q 0.08467,0 0.08467,0.105834 0,0.105833 -0.08467,0.105833 -0.08467,0 -0.08467,-0.105833 0,-0.105834 0.08467,-0.105834 z m 0.211667,-0.105833 q 0.08467,0 0.08467,0.105833 0,0.105834 -0.08467,0.105834 -0.08467,0 -0.08467,-0.105834 0,-0.105833 0.08467,-0.105833 z m -5.820834,-0.105833 q 0.08467,0 0.08467,0.105833 0,0.105833 -0.08467,0.105833 -0.08467,0 -0.08467,-0.105833 0,-0.105833 0.08467,-0.105833 z m 2.645834,-2.2225 q 0.02117,0.127 0.03175,0.465666 0.01058,0.328084 0.01058,0.6985 0,0.370417 -0.01058,0.709084 -0.01058,0.328083 -0.03175,0.455083 -0.02117,0.08467 -0.03175,-0.07408 0,-0.169334 -0.01058,-0.455084 -0.01058,-0.28575 -0.01058,-0.635 0,-0.34925 0.01058,-0.635 0.01058,-0.28575 0.01058,-0.4445 0.01058,-0.169333 0.03175,-0.08467 z m -2.434167,2.116666 q 0.08467,0 0.08467,0.105834 0,0.105833 -0.08467,0.105833 -0.08467,0 -0.08467,-0.105833 0,-0.105834 0.08467,-0.105834 z m 5.715,0 q 0.08467,0 0.08467,0.105834 0,0.105833 -0.08467,0.105833 -0.08467,0 -0.08467,-0.105833 0,-0.105834 0.08467,-0.105834 z m 2.116666,-0.423333 q 0.02117,0.03175 0.03175,0.105833 0.01058,0.07408 0.01058,0.15875 0,0.08467 -0.01058,0.15875 -0.01058,0.07408 -0.03175,0.105834 -0.02117,0.03175 -0.04233,-0.0635 -0.01058,-0.09525 -0.01058,-0.201084 0,-0.116416 0.01058,-0.201083 0.02117,-0.09525 0.04233,-0.0635 z m -2.222499,0.423333 q -0.02117,0.05292 -0.05292,0.05292 -0.03175,0 -0.05292,-0.05292 -0.02117,-0.05292 0.05292,-0.05292 0.07408,0 0.05292,0.05292 z M 38.863509,64.78296 h 0.105834 v -0.105833 h -0.105834 z m 3.175,-0.105833 h 0.211667 q -0.01058,-0.02117 -0.05292,-0.05292 -0.03175,-0.04233 -0.05292,-0.05292 h -0.02117 -0.02117 q -0.01058,0 -0.01058,-0.01058 -0.01058,0 -0.03175,0.01058 -0.01058,0 -0.02117,0 z m 1.375834,-0.105834 q 0.08467,0 0.08467,0.105834 0,0.105833 -0.08467,0.105833 -0.08467,0 -0.08467,-0.105833 0,-0.105834 0.08467,-0.105834 z m 0.211666,0 q 0.08467,0 0.08467,0.105834 0,0.105833 -0.08467,0.105833 -0.08467,0 -0.08467,-0.105833 0,-0.105834 0.08467,-0.105834 z m -0.211666,-0.3175 q 0.08467,0 0.08467,0.105834 0,0.105833 -0.08467,0.105833 -0.08467,0 -0.08467,-0.105833 0,-0.105834 0.08467,-0.105834 z m 2.116666,-0.211666 q 0.05292,0.04233 0.05292,0.15875 0,0.116416 -0.05292,0.15875 -0.02117,0.02117 -0.04233,-0.03175 -0.01058,-0.05292 -0.01058,-0.127 0,-0.07408 0.01058,-0.127 0.02117,-0.05292 0.04233,-0.03175 z m -7.9375,0 q 0.08467,0 0.08467,0.105833 0,0.105833 -0.08467,0.105833 -0.08467,0 -0.08467,-0.105833 0,-0.105833 0.08467,-0.105833 z m 0.423334,0.105833 q 0.01058,0 0.02117,0.01058 0.02117,0 0.03175,0 h 0.03175 q 0.01058,0 0.02117,-0.01058 0.02117,-0.01058 0.05292,-0.04233 0.04233,-0.04233 0.05292,-0.0635 z m -1.905,-0.211667 q -0.05292,-0.02117 -0.05292,0.05292 0,0.07408 0.05292,0.05292 0.05292,-0.02117 0.05292,-0.05292 0,-0.03175 -0.05292,-0.05292 z m 8.89,-0.105833 q 0.05292,0.02117 0.05292,0.105833 0,0.08467 -0.05292,0.105834 -0.02117,0.01058 -0.04233,-0.02117 -0.01058,-0.04233 -0.01058,-0.08467 0,-0.04233 0.01058,-0.07408 0.02117,-0.04233 0.04233,-0.03175 z m -1.5875,0 q 0.08467,0 0.08467,0.105833 0,0.105834 -0.08467,0.105834 -0.08467,0 -0.08467,-0.105834 0,-0.105833 0.08467,-0.105833 z m 2.010833,-0.211667 q 0.05292,0.02117 0.05292,0.105834 0,0.08467 -0.05292,0.105833 -0.02117,0.01058 -0.04233,-0.02117 -0.01058,-0.04233 -0.01058,-0.08467 0,-0.04233 0.01058,-0.07408 0.02117,-0.04233 0.04233,-0.03175 z m -3.291417,-0.370416 q 0,0.116416 0.01058,0.201083 0.02117,0.07408 0.105833,0.169333 0.03175,-0.3175 0.08467,-0.508 0.0635,-0.1905 0.169333,-0.328083 0.116417,-0.148167 0.28575,-0.264583 0.169333,-0.116417 0.41275,-0.275167 v -0.02117 q 0,-0.01058 0,-0.01058 0.01058,-0.01058 0.01058,-0.02117 -0.01058,0 -0.01058,-0.01058 v -0.02117 -0.02117 q -0.03175,-0.04233 -0.116417,-0.116417 -0.07408,-0.08467 -0.09525,-0.09525 -0.148166,-0.03175 -0.306916,0.127 -0.148167,0.15875 -0.275167,0.391583 -0.116417,0.22225 -0.201083,0.465667 -0.07408,0.232833 -0.07408,0.338667 z m 3.185583,0.15875 q 0.05292,0.02117 0.05292,0.05292 0,0.03175 -0.05292,0.05292 -0.05292,0.02117 -0.05292,-0.05292 0,-0.07408 0.05292,-0.05292 z m -0.105833,-0.3175 q 0.05292,0.02117 0.05292,0.105833 0,0.08467 -0.05292,0.105833 -0.02117,0.01058 -0.04233,-0.02117 -0.01058,-0.04233 -0.01058,-0.08467 0,-0.04233 0.01058,-0.07408 0.02117,-0.04233 0.04233,-0.03175 z M 45.107676,62.87796 q 0.05292,0.02117 0.05292,0.05292 0,0.03175 -0.05292,0.05292 -0.05292,0.02117 -0.05292,-0.05292 0,-0.07408 0.05292,-0.05292 z m -0.105833,-0.211667 q 0.05292,0.02117 0.05292,0.05292 0,0.03175 -0.05292,0.05292 -0.05292,0.02117 -0.05292,-0.05292 0,-0.07408 0.05292,-0.05292 z M 41.403509,60.94121 q -0.359833,0 -0.560916,0.137583 -0.201084,0.137584 -0.306917,0.370417 -0.09525,0.22225 -0.127,0.518583 -0.03175,0.28575 -0.0635,0.592667 0,-0.04233 -0.01058,-0.179917 0,-0.148166 0,-0.1905 0,-0.391583 0.05292,-0.613833 0.0635,-0.232833 0.1905,-0.370417 0.127,-0.148166 0.328084,-0.254 0.201083,-0.116416 0.497416,-0.296333 z m 3.4925,1.513417 q 0.08467,0 0.08467,0.105833 0,0.105833 -0.08467,0.105833 -0.08467,0 -0.08467,-0.105833 0,-0.105833 0.08467,-0.105833 z m -6.138333,-0.105834 q 0.08467,0 0.08467,0.105834 0,0.105833 -0.08467,0.105833 -0.08467,0 -0.08467,-0.105833 0,-0.105834 0.08467,-0.105834 z M 38.651843,62.24296 q 0.08467,0 0.08467,0.105833 0,0.105834 -0.08467,0.105834 -0.08467,0 -0.08467,-0.105834 0,-0.105833 0.08467,-0.105833 z m 0.3175,0 q 0.08467,0 0.08467,0.105833 0,0.105834 -0.08467,0.105834 -0.08467,0 -0.08467,-0.105834 0,-0.105833 0.08467,-0.105833 z m 5.820833,0 q 0.08467,0 0.08467,0.105833 0,0.105834 -0.08467,0.105834 -0.08467,0 -0.08467,-0.105834 0,-0.105833 0.08467,-0.105833 z m -6.773333,-0.105833 q 0.08467,0 0.08467,0.105833 0,0.105833 -0.08467,0.105833 -0.08467,0 -0.08467,-0.105833 0,-0.105833 0.08467,-0.105833 z m 0.423333,0.105833 q -0.01058,0.05292 -0.05292,0.05292 -0.04233,0 -0.05292,-0.05292 -0.01058,-0.05292 0.05292,-0.05292 0.0635,0 0.05292,0.05292 z m 0.423333,-0.105833 q 0.05292,0.02117 0.05292,0.05292 0,0.03175 -0.05292,0.05292 -0.05292,0.02117 -0.05292,-0.05292 0,-0.07408 0.05292,-0.05292 z m 5.820834,0 q 0.08467,0 0.08467,0.105833 0,0.105833 -0.08467,0.105833 -0.08467,0 -0.08467,-0.105833 0,-0.105833 0.08467,-0.105833 z m -7.62,-0.3175 q -0.08467,0.05292 -0.137584,0.148166 -0.04233,0.08467 -0.07408,0.169334 0.08467,-0.05292 0.127,-0.137584 0.05292,-0.09525 0.08467,-0.179916 z m 1.693333,0.105833 q 0.08467,0 0.08467,0.105833 0,0.105834 -0.08467,0.105834 -0.08467,0 -0.08467,-0.105834 0,-0.105833 0.08467,-0.105833 z m 0.3175,0 q 0.08467,0 0.08467,0.105833 0,0.105834 -0.08467,0.105834 -0.08467,0 -0.08467,-0.105834 0,-0.105833 0.08467,-0.105833 z m -0.423333,-0.105833 q 0.08467,0 0.08467,0.105833 0,0.105833 -0.08467,0.105833 -0.08467,0 -0.08467,-0.105833 0,-0.105833 0.08467,-0.105833 z m -0.105834,-0.105834 q 0.08467,0 0.08467,0.105834 0,0.105833 -0.08467,0.105833 -0.08467,0 -0.08467,-0.105833 0,-0.105834 0.08467,-0.105834 z m 0.423334,0 q 0.05292,0.02117 0.05292,0.05292 0,0.03175 -0.05292,0.05292 -0.05292,0.02117 -0.05292,-0.05292 0,-0.07408 0.05292,-0.05292 z m 2.645833,-0.3175 q 0.05292,0.02117 0.05292,0.105834 0,0.08467 -0.05292,0.105833 -0.02117,0.01058 -0.04233,-0.02117 -0.01058,-0.04233 -0.01058,-0.08467 0,-0.04233 0.01058,-0.07408 0.02117,-0.04233 0.04233,-0.03175 z m 2.2225,0.211667 h 0.105833 l -0.105833,-0.105833 z m -0.105833,-0.3175 q -0.08467,0 -0.08467,0.105833 0,0.105834 0.08467,0.105834 0.08467,0 0.08467,-0.105834 0,-0.105833 -0.08467,-0.105833 z m -6.0325,-0.105833 q -0.01058,-0.02117 -0.04233,-0.01058 -0.02117,0 -0.05292,0.03175 -0.02117,0.02117 -0.03175,0.05292 0,0.02117 0.02117,0.03175 0.05292,0.02117 0.08467,-0.01058 0.04233,-0.04233 0.02117,-0.09525 z m 4.233333,0 q 0.08467,0 0.08467,0.105833 0,0.105833 -0.08467,0.105833 -0.08467,0 -0.08467,-0.105833 0,-0.105833 0.08467,-0.105833 z m 1.693333,0 q -0.08467,0 -0.08467,0.105833 0,0.105833 0.08467,0.105833 0.08467,0 0.08467,-0.105833 0,-0.105833 -0.08467,-0.105833 z m -2.116666,-0.105834 q 0.05292,0.02117 0.05292,0.05292 0,0.03175 -0.05292,0.05292 -0.05292,0.02117 -0.05292,-0.05292 0,-0.07408 0.05292,-0.05292 z M 38.228509,60.65546 q -0.08467,0 -0.08467,0.105833 0,0.105834 0.08467,0.105834 0.08467,0 0.08467,-0.105834 0,-0.105833 -0.08467,-0.105833 z m 0.3175,-0.211667 q -0.08467,0 -0.08467,0.105834 0,0.105833 0.08467,0.105833 0.08467,0 0.08467,-0.105833 0,-0.105834 -0.08467,-0.105834 z m 2.645834,0 q 0.08467,0 0.08467,0.105834 0,0.105833 -0.08467,0.105833 -0.08467,0 -0.08467,-0.105833 0,-0.105834 0.08467,-0.105834 z M 41.086009,60.33796 q 0.08467,0 0.08467,0.105833 0,0.105834 -0.08467,0.105834 -0.08467,0 -0.08467,-0.105834 0,-0.105833 0.08467,-0.105833 z"
               style="font-style:normal;font-variant:normal;font-weight:normal;font-stretch:normal;font-size:10.58333302px;line-height:1.25;font-family:WestBalaio;-inkscape-font-specification:'WestBalaio, Normal';font-variant-ligatures:normal;font-variant-caps:normal;font-variant-numeric:normal;font-feature-settings:normal;text-align:start;letter-spacing:0px;word-spacing:0px;writing-mode:lr-tb;text-anchor:start;fill:#000000;fill-opacity:1;stroke:none;stroke-width:0.26458332"
               id="path3751" />
            <path
               d="m 49.811542,63.854151 c 0.75908,0.42171 1.363532,0.62788 1.930499,0.62788 0.69348,0 1.218275,-0.201484 1.485359,-0.323311 0.02811,-0.01406 0.03748,-0.02811 0.03748,-0.04686 0,-0.01406 -0.0094,-0.02811 -0.02811,-0.02811 -0.01406,0 -0.03748,0.0094 -0.0656,0.01874 -0.323312,0.131199 -0.688795,0.182742 -0.923078,0.182742 -0.234284,0 -0.946507,-0.02343 -1.97267,-0.55291 L 49.314859,63.23564 c 0.309254,-0.201484 0.829364,-0.749708 0.829364,-1.574387 0,-1.087076 -0.787193,-1.757128 -1.84147,-1.757128 -1.293247,0 -1.846156,1.07302 -1.846156,1.832099 0,0.843422 0.534167,1.841471 1.832099,1.841471 0.248341,0 0.566967,-0.07029 0.735651,-0.159313 z m -2.909804,-2.249125 c 0,-1.026163 0.585709,-1.541587 1.368217,-1.541587 0.740337,0 1.424445,0.604452 1.424445,1.729014 0,1.363532 -0.871535,1.607187 -1.293246,1.607187 -0.843422,0 -1.499416,-0.702851 -1.499416,-1.794614 z"
               style="font-style:normal;font-variant:normal;font-weight:normal;font-stretch:normal;font-size:4.68567562px;font-family:'Trajan Pro';-inkscape-font-specification:'Trajan Pro, Normal';font-variant-ligatures:normal;font-variant-caps:normal;font-variant-numeric:normal;font-feature-settings:normal;text-align:start;writing-mode:lr-tb;text-anchor:start;fill:#000000;fill-opacity:1;stroke-width:0.11714614"
               inkscape:connector-curvature="0"
               id="path3754" />
            <path
               d="m 50.982595,62.237593 c 0,0.581023 0.159313,0.857478 0.360797,1.044905 0.290512,0.271769 0.721594,0.281141 0.857479,0.281141 0.243655,0 0.562281,-0.0328 0.862164,-0.290512 0.327997,-0.281141 0.384225,-0.763765 0.384225,-1.194847 v -0.426397 c 0,-0.618509 -0.0047,-0.730965 0.0047,-0.857479 0.0094,-0.131199 0.0328,-0.196798 0.145256,-0.220226 0.05154,-0.0094 0.07497,-0.0094 0.103085,-0.0094 0.01874,0 0.0328,-0.01874 0.0328,-0.0328 0,-0.02343 -0.01874,-0.0328 -0.0656,-0.0328 -0.121827,0 -0.318626,0.0094 -0.34674,0.0094 -0.02343,0 -0.262398,-0.0094 -0.445139,-0.0094 -0.04686,0 -0.0656,0.0094 -0.0656,0.0328 0,0.01406 0.01406,0.0328 0.0328,0.0328 0.03749,0 0.107771,0.0047 0.140571,0.0094 0.135884,0.01874 0.159312,0.09371 0.163998,0.220226 0.0047,0.126514 0.0094,0.23897 0.0094,0.857479 v 0.501367 c 0,0.407654 -0.04217,0.735651 -0.234284,0.96525 -0.140571,0.168684 -0.384226,0.28114 -0.637252,0.28114 -0.234284,0 -0.41234,-0.0328 -0.613824,-0.215541 -0.178055,-0.159313 -0.304569,-0.398282 -0.304569,-0.974621 v -0.557595 c 0,-0.618509 0,-0.730965 0.0094,-0.857479 0.0094,-0.131199 0.0328,-0.201484 0.14057,-0.220226 0.05154,-0.0094 0.07497,-0.0094 0.103085,-0.0094 0.01874,0 0.03748,-0.01874 0.03748,-0.0328 0,-0.02343 -0.02343,-0.0328 -0.07028,-0.0328 -0.121827,0 -0.37954,0.0094 -0.417025,0.0094 -0.03749,0 -0.285826,-0.0094 -0.473253,-0.0094 -0.04686,0 -0.0656,0.0094 -0.0656,0.0328 0,0.01406 0.01874,0.0328 0.0328,0.0328 0.03748,0 0.107771,0.0047 0.14057,0.0094 0.135885,0.01874 0.159313,0.09371 0.168685,0.220226 0.0094,0.126514 0.0094,0.23897 0.0094,0.857479 z"
               style="font-style:normal;font-variant:normal;font-weight:normal;font-stretch:normal;font-size:4.68567562px;font-family:'Trajan Pro';-inkscape-font-specification:'Trajan Pro, Normal';font-variant-ligatures:normal;font-variant-caps:normal;font-variant-numeric:normal;font-feature-settings:normal;text-align:start;writing-mode:lr-tb;text-anchor:start;fill:#000000;fill-opacity:1;stroke-width:0.11714614"
               inkscape:connector-curvature="0"
               id="path3756" />
            <path
               d="m 54.210074,63.071643 c -0.07966,0.201484 -0.159313,0.342054 -0.34674,0.365482 -0.0328,0.0047 -0.09371,0.0094 -0.121828,0.0094 -0.01874,0 -0.03749,0.01406 -0.03749,0.0328 0,0.02343 0.02811,0.0328 0.07966,0.0328 0.168685,0 0.374855,-0.01406 0.417026,-0.01406 0.04686,0 0.271769,0.01406 0.370168,0.01406 0.03749,0 0.06091,-0.0094 0.06091,-0.0328 0,-0.01874 -0.0094,-0.0328 -0.04217,-0.0328 h -0.03749 c -0.07029,0 -0.14057,-0.02811 -0.14057,-0.107771 0,-0.07028 0.02343,-0.168684 0.06091,-0.267083 l 0.234284,-0.637252 c 0.0094,-0.02343 0.02343,-0.0328 0.04217,-0.0328 h 0.951192 c 0.02343,0 0.02811,0.0047 0.03748,0.02343 l 0.370169,0.913706 c 0.02811,0.0656 -0.01406,0.0984 -0.03749,0.107771 -0.01874,0.0094 -0.02811,0.0094 -0.02811,0.02811 0,0.02343 0.0656,0.02343 0.145256,0.02811 0.285826,0.0094 0.590395,0.0094 0.651309,0.0094 0.04686,0 0.09371,-0.0094 0.09371,-0.0328 0,-0.02343 -0.02811,-0.0328 -0.05154,-0.0328 -0.04217,0 -0.103085,-0.0047 -0.163999,-0.02343 -0.08903,-0.02811 -0.201484,-0.07966 -0.351425,-0.435767 -0.253027,-0.604453 -0.913707,-2.249125 -0.988678,-2.417809 -0.04217,-0.08903 -0.05623,-0.145256 -0.0984,-0.145256 -0.02811,0 -0.04686,0.02343 -0.0984,0.154627 z m 0.595081,-0.83405 c -0.01406,0 -0.01874,-0.0094 -0.01406,-0.02811 l 0.384225,-1.091762 c 0.02343,-0.06091 0.04686,-0.06091 0.07028,0 l 0.407654,1.091762 c 0.0047,0.01874 0.0047,0.02811 -0.01406,0.02811 z"
               style="font-style:normal;font-variant:normal;font-weight:normal;font-stretch:normal;font-size:4.68567562px;font-family:'Trajan Pro';-inkscape-font-specification:'Trajan Pro, Normal';font-variant-ligatures:normal;font-variant-caps:normal;font-variant-numeric:normal;font-feature-settings:normal;text-align:start;writing-mode:lr-tb;text-anchor:start;fill:#000000;fill-opacity:1;stroke-width:0.11714614"
               inkscape:connector-curvature="0"
               id="path3758" />
            <path
               d="m 57.471524,62.354734 c 0,0.384226 0,0.698166 -0.02343,0.862165 -0.01874,0.117142 -0.02811,0.192112 -0.10777,0.210855 -0.03749,0.0094 -0.08903,0.01874 -0.126513,0.01874 -0.02343,0 -0.0328,0.01874 -0.0328,0.0328 0,0.02343 0.02343,0.0328 0.0656,0.0328 0.126514,0 0.374854,-0.01406 0.407654,-0.01406 0.0328,0 0.281141,0.01406 0.482625,0.01406 0.04686,0 0.0656,-0.01406 0.0656,-0.0328 0,-0.01406 -0.0094,-0.0328 -0.0328,-0.0328 -0.03748,0 -0.103084,-0.0094 -0.159313,-0.01874 -0.126513,-0.01874 -0.145256,-0.09371 -0.159313,-0.210855 -0.01874,-0.163999 -0.01874,-0.477939 -0.01874,-0.862165 v -0.388911 h 0.01874 c 0.196799,0.234284 1.063649,1.147991 1.251076,1.293247 0.178056,0.135884 0.285826,0.224912 0.501367,0.243655 0.09371,0.0094 0.168684,0.0094 0.285826,0.0094 h 0.210856 c 0.07028,0 0.08903,-0.01406 0.08903,-0.0328 0,-0.01874 -0.02343,-0.0328 -0.05154,-0.0328 -0.02811,0 -0.145256,-0.01406 -0.253026,-0.05623 -0.196799,-0.07966 -0.243655,-0.131199 -0.590395,-0.440454 -0.168685,-0.154627 -1.026163,-1.012106 -1.133934,-1.129248 0.08903,-0.0984 0.791879,-0.773136 0.894964,-0.86685 0.182741,-0.17337 0.262398,-0.262397 0.431082,-0.337368 0.07966,-0.0328 0.168685,-0.05623 0.229598,-0.05623 0.0328,0 0.04217,-0.01406 0.04217,-0.0328 0,-0.01874 -0.01874,-0.02811 -0.06091,-0.02811 -0.103085,0 -0.374854,0.0094 -0.398283,0.0094 -0.0984,0 -0.224912,-0.0094 -0.309254,-0.0094 -0.02811,0 -0.04686,0.0094 -0.04686,0.02811 0,0.01406 0.01406,0.0328 0.03749,0.03748 0.0328,0.0047 0.05154,0.02811 0.05154,0.07966 0,0.0656 -0.107771,0.168684 -0.224913,0.285826 -0.154627,0.159313 -0.890278,0.885593 -0.955878,0.960564 h -0.01874 v -0.23897 c 0,-0.618509 0,-0.730965 0.0094,-0.857479 0.0094,-0.14057 0.03749,-0.196798 0.145256,-0.220226 0.05154,-0.0094 0.07497,-0.0094 0.103085,-0.0094 0.01874,0 0.0328,-0.01874 0.0328,-0.0328 0,-0.02343 -0.01874,-0.0328 -0.0656,-0.0328 -0.121827,0 -0.370168,0.0094 -0.407654,0.0094 -0.02343,0 -0.276454,-0.0094 -0.463881,-0.0094 -0.04686,0 -0.0656,0.0094 -0.0656,0.0328 0,0.01406 0.01874,0.0328 0.0328,0.0328 0.03748,0 0.10777,0.0047 0.14057,0.0094 0.135885,0.01874 0.159313,0.08434 0.168684,0.220226 0.0094,0.126514 0.0094,0.23897 0.0094,0.857479 z"
               style="font-style:normal;font-variant:normal;font-weight:normal;font-stretch:normal;font-size:4.68567562px;font-family:'Trajan Pro';-inkscape-font-specification:'Trajan Pro, Normal';font-variant-ligatures:normal;font-variant-caps:normal;font-variant-numeric:normal;font-feature-settings:normal;text-align:start;writing-mode:lr-tb;text-anchor:start;fill:#000000;fill-opacity:1;stroke-width:0.11714614"
               inkscape:connector-curvature="0"
               id="path3760" />
            <path
               d="m 60.592257,62.354734 c 0,0.384226 0,0.698166 -0.02343,0.862165 -0.01874,0.117142 -0.02811,0.196798 -0.107771,0.210855 -0.03749,0.0047 -0.08903,0.01874 -0.126513,0.01874 -0.02343,0 -0.0328,0.01874 -0.0328,0.0328 0,0.02343 0.02343,0.0328 0.0656,0.0328 0.0656,0 0.159313,-0.0047 0.238969,-0.0094 0.08903,-0.0047 0.168684,-0.0047 0.178056,-0.0047 0.06091,0 0.168684,0 0.342054,0.0094 0.168684,0.0047 0.407654,0.01406 0.716908,0.01406 0.159313,0 0.201484,0 0.229599,-0.103085 0.02343,-0.08434 0.05623,-0.356112 0.05623,-0.384226 0,-0.02811 -0.0047,-0.06091 -0.02811,-0.06091 -0.02343,0 -0.0328,0.01406 -0.04217,0.06091 -0.02343,0.159313 -0.07966,0.229598 -0.187427,0.276455 -0.10777,0.04217 -0.304568,0.04217 -0.412339,0.04217 -0.407654,0 -0.482625,-0.05154 -0.491996,-0.318626 -0.0047,-0.07966 0,-0.543538 0,-0.679423 v -0.332683 c 0,-0.01406 0.0047,-0.02811 0.02811,-0.02811 0.07029,0 0.510739,0.0047 0.623195,0.01874 0.159313,0.01874 0.196798,0.0656 0.210855,0.121828 0.01874,0.05154 0.01874,0.09371 0.01874,0.131199 0,0.02343 0.0094,0.03749 0.02811,0.03749 0.02811,0 0.03749,-0.04217 0.03749,-0.07497 0,-0.02811 0.0094,-0.178056 0.01874,-0.257712 0.0094,-0.131199 0.0328,-0.196798 0.0328,-0.220227 0,-0.02343 -0.0094,-0.0328 -0.02343,-0.0328 -0.01406,0 -0.0328,0.02343 -0.06091,0.05154 -0.04217,0.04217 -0.103085,0.04686 -0.201484,0.05623 -0.09371,0.0094 -0.637252,0.0094 -0.688795,0.0094 -0.02343,0 -0.02343,-0.01406 -0.02343,-0.04217 v -1.082391 c 0,-0.02811 0.0047,-0.04217 0.02343,-0.04217 0.04686,0 0.524796,0.0047 0.595081,0.01406 0.224913,0.02811 0.267084,0.05623 0.295198,0.121828 0.01874,0.04686 0.02343,0.112456 0.02343,0.14057 0,0.0328 0.0094,0.05154 0.0328,0.05154 0.01874,0 0.0328,-0.02343 0.03748,-0.04217 0.0094,-0.04686 0.01874,-0.224912 0.02343,-0.262397 0.0094,-0.112457 0.0328,-0.159313 0.0328,-0.187427 0,-0.01874 -0.0047,-0.03749 -0.01874,-0.03749 -0.01874,0 -0.03749,0.01406 -0.05623,0.01874 -0.0328,0.0047 -0.107771,0.01874 -0.187427,0.02343 -0.09371,0.0047 -0.955878,0 -0.983992,0 -0.02343,0 -0.290512,-0.0094 -0.477939,-0.0094 -0.04686,0 -0.0656,0.0094 -0.0656,0.0328 0,0.01406 0.01874,0.0328 0.0328,0.0328 0.03748,0 0.107771,0.0047 0.14057,0.0094 0.135885,0.01874 0.159313,0.08434 0.168685,0.220226 0.0094,0.126514 0.0094,0.23897 0.0094,0.857479 z"
               style="font-style:normal;font-variant:normal;font-weight:normal;font-stretch:normal;font-size:4.68567562px;font-family:'Trajan Pro';-inkscape-font-specification:'Trajan Pro, Normal';font-variant-ligatures:normal;font-variant-caps:normal;font-variant-numeric:normal;font-feature-settings:normal;text-align:start;writing-mode:lr-tb;text-anchor:start;fill:#000000;fill-opacity:1;stroke-width:0.11714614"
               inkscape:connector-curvature="0"
               id="path3762" />
            <path
               d="m 63.173038,62.354734 c 0,0.384226 0,0.698166 -0.02343,0.862165 -0.01874,0.117142 -0.02811,0.192112 -0.107771,0.210855 -0.03749,0.0094 -0.08903,0.01874 -0.126513,0.01874 -0.02343,0 -0.0328,0.01874 -0.0328,0.0328 0,0.02343 0.02343,0.0328 0.0656,0.0328 0.126513,0 0.402968,-0.01406 0.407653,-0.01406 0.01874,0 0.281141,0.01406 0.506053,0.01406 0.04686,0 0.0656,-0.01406 0.0656,-0.0328 0,-0.01406 -0.0047,-0.0328 -0.0328,-0.0328 -0.03749,0 -0.126513,-0.0094 -0.182741,-0.01874 -0.126514,-0.01874 -0.149942,-0.09371 -0.163999,-0.210855 C 63.52915,63.0529 63.52915,62.743645 63.52915,62.35942 v -0.09371 c 0,-0.02343 0.0094,-0.0328 0.02811,-0.0328 l 0.524796,0.0094 c 0.02811,0 0.03749,0.0047 0.05623,0.02343 0.08903,0.10777 0.271769,0.365482 0.445139,0.581023 0.234284,0.299884 0.384226,0.491996 0.562281,0.58571 0.103085,0.05623 0.20617,0.07966 0.440454,0.07966 h 0.257712 c 0.07497,0 0.0984,-0.0094 0.0984,-0.0328 0,-0.01406 -0.01406,-0.0328 -0.03749,-0.0328 -0.02343,0 -0.0656,0 -0.145256,-0.01406 -0.103085,-0.01406 -0.23897,-0.05154 -0.459196,-0.276455 -0.23897,-0.248341 -0.524796,-0.609138 -0.862165,-1.030849 0.384226,-0.327997 0.506053,-0.613823 0.506053,-0.909021 0,-0.276455 -0.182741,-0.468567 -0.285826,-0.543538 -0.215541,-0.149942 -0.506053,-0.17337 -0.768451,-0.17337 -0.126513,0 -0.473253,0.0094 -0.515424,0.0094 -0.02343,0 -0.299883,-0.0094 -0.48731,-0.0094 -0.04686,0 -0.0656,0.0094 -0.0656,0.0328 0,0.01406 0.01874,0.0328 0.0328,0.0328 0.03748,0 0.107771,0.0047 0.14057,0.0094 0.135885,0.01874 0.159313,0.08434 0.168685,0.220226 0.0094,0.126514 0.0094,0.23897 0.0094,0.857479 z m 0.356111,-1.644672 c 0,-0.02343 0.01406,-0.03749 0.0328,-0.04686 0.04217,-0.0094 0.17337,-0.02343 0.295198,-0.02343 0.440453,0 0.712222,0.285826 0.712222,0.782508 0,0.304569 -0.10777,0.515424 -0.24834,0.609138 -0.0984,0.0656 -0.210856,0.07029 -0.309255,0.07029 -0.182741,0 -0.393597,-0.02811 -0.454511,-0.06091 -0.01874,-0.01406 -0.02811,-0.02811 -0.02811,-0.05154 z"
               style="font-style:normal;font-variant:normal;font-weight:normal;font-stretch:normal;font-size:4.68567562px;font-family:'Trajan Pro';-inkscape-font-specification:'Trajan Pro, Normal';font-variant-ligatures:normal;font-variant-caps:normal;font-variant-numeric:normal;font-feature-settings:normal;text-align:start;writing-mode:lr-tb;text-anchor:start;fill:#000000;fill-opacity:1;stroke-width:0.11714614"
               inkscape:connector-curvature="0"
               id="path3764" />
            <path
               d="m 49.811542,69.711245 c 0.75908,0.421711 1.363532,0.627881 1.930499,0.627881 0.69348,0 1.218275,-0.201484 1.485359,-0.323312 0.02811,-0.01406 0.03748,-0.02811 0.03748,-0.04686 0,-0.01406 -0.0094,-0.02811 -0.02811,-0.02811 -0.01406,0 -0.03748,0.0094 -0.0656,0.01874 -0.323312,0.131199 -0.688795,0.182741 -0.923078,0.182741 -0.234284,0 -0.946507,-0.02343 -1.97267,-0.552909 l -0.960563,-0.496682 c 0.309254,-0.201484 0.829364,-0.749708 0.829364,-1.574387 0,-1.087077 -0.787193,-1.757128 -1.84147,-1.757128 -1.293247,0 -1.846156,1.073019 -1.846156,1.832099 0,0.843421 0.534167,1.84147 1.832099,1.84147 0.248341,0 0.566967,-0.07029 0.735651,-0.159313 z m -2.909804,-2.249124 c 0,-1.026163 0.585709,-1.541587 1.368217,-1.541587 0.740337,0 1.424445,0.604452 1.424445,1.729014 0,1.363531 -0.871535,1.607187 -1.293246,1.607187 -0.843422,0 -1.499416,-0.702852 -1.499416,-1.794614 z"
               style="font-style:normal;font-variant:normal;font-weight:normal;font-stretch:normal;font-size:4.68567562px;font-family:'Trajan Pro';-inkscape-font-specification:'Trajan Pro, Normal';font-variant-ligatures:normal;font-variant-caps:normal;font-variant-numeric:normal;font-feature-settings:normal;text-align:start;writing-mode:lr-tb;text-anchor:start;fill:#000000;fill-opacity:1;stroke-width:0.11714614"
               inkscape:connector-curvature="0"
               id="path3766" />
            <path
               d="m 50.982595,68.094687 c 0,0.581024 0.159313,0.857479 0.360797,1.044906 0.290512,0.271769 0.721594,0.28114 0.857479,0.28114 0.243655,0 0.562281,-0.0328 0.862164,-0.290512 0.327997,-0.28114 0.384225,-0.763765 0.384225,-1.194847 v -0.426396 c 0,-0.61851 -0.0047,-0.730966 0.0047,-0.857479 0.0094,-0.131199 0.0328,-0.196798 0.145256,-0.220227 0.05154,-0.0094 0.07497,-0.0094 0.103085,-0.0094 0.01874,0 0.0328,-0.01874 0.0328,-0.0328 0,-0.02343 -0.01874,-0.0328 -0.0656,-0.0328 -0.121827,0 -0.318626,0.0094 -0.34674,0.0094 -0.02343,0 -0.262398,-0.0094 -0.445139,-0.0094 -0.04686,0 -0.0656,0.0094 -0.0656,0.0328 0,0.01406 0.01406,0.0328 0.0328,0.0328 0.03749,0 0.107771,0.0047 0.140571,0.0094 0.135884,0.01874 0.159312,0.09371 0.163998,0.220227 0.0047,0.126513 0.0094,0.238969 0.0094,0.857479 v 0.501367 c 0,0.407654 -0.04217,0.735651 -0.234284,0.965249 -0.140571,0.168684 -0.384226,0.281141 -0.637252,0.281141 -0.234284,0 -0.41234,-0.0328 -0.613824,-0.215541 -0.178055,-0.159313 -0.304569,-0.398283 -0.304569,-0.974621 v -0.557595 c 0,-0.61851 0,-0.730966 0.0094,-0.857479 0.0094,-0.131199 0.0328,-0.201484 0.14057,-0.220227 0.05154,-0.0094 0.07497,-0.0094 0.103085,-0.0094 0.01874,0 0.03748,-0.01874 0.03748,-0.0328 0,-0.02343 -0.02343,-0.0328 -0.07028,-0.0328 -0.121827,0 -0.37954,0.0094 -0.417025,0.0094 -0.03749,0 -0.285826,-0.0094 -0.473253,-0.0094 -0.04686,0 -0.0656,0.0094 -0.0656,0.0328 0,0.01406 0.01874,0.0328 0.0328,0.0328 0.03748,0 0.107771,0.0047 0.14057,0.0094 0.135885,0.01874 0.159313,0.09371 0.168685,0.220227 0.0094,0.126513 0.0094,0.238969 0.0094,0.857479 z"
               style="font-style:normal;font-variant:normal;font-weight:normal;font-stretch:normal;font-size:4.68567562px;font-family:'Trajan Pro';-inkscape-font-specification:'Trajan Pro, Normal';font-variant-ligatures:normal;font-variant-caps:normal;font-variant-numeric:normal;font-feature-settings:normal;text-align:start;writing-mode:lr-tb;text-anchor:start;fill:#000000;fill-opacity:1;stroke-width:0.11714614"
               inkscape:connector-curvature="0"
               id="path3768" />
            <path
               d="m 55.000196,67.508978 c 0,-0.61851 0,-0.730966 0.0047,-0.857479 0.0094,-0.14057 0.0328,-0.196798 0.145256,-0.220227 0.04686,-0.0094 0.07497,-0.0094 0.103084,-0.0094 0.01406,0 0.0328,-0.01874 0.0328,-0.0328 0,-0.02343 -0.01874,-0.0328 -0.0656,-0.0328 -0.126514,0 -0.393597,0.0094 -0.41234,0.0094 -0.02343,0 -0.28114,-0.0094 -0.417025,-0.0094 -0.04686,0 -0.0656,0.0094 -0.0656,0.0328 0,0.01406 0.01406,0.0328 0.0328,0.0328 0.02811,0 0.07966,0.0047 0.126514,0.01406 0.08903,0.01874 0.121827,0.07966 0.131199,0.215541 0.0094,0.126513 0.0094,0.238969 0.0094,0.857479 v 0.702851 c 0,0.384225 -0.0047,0.698166 -0.02343,0.862164 -0.01406,0.117142 -0.02811,0.192113 -0.10777,0.210856 -0.03749,0.0094 -0.08903,0.01874 -0.126513,0.01874 -0.02343,0 -0.0328,0.01874 -0.0328,0.0328 0,0.02343 0.02343,0.0328 0.0656,0.0328 0.126514,0 0.384226,-0.01406 0.407654,-0.01406 0.01874,0 0.285826,0.01406 0.515425,0.01406 0.04686,0 0.0656,-0.01406 0.0656,-0.0328 0,-0.01406 -0.0094,-0.0328 -0.0328,-0.0328 -0.03749,0 -0.126513,-0.0094 -0.187427,-0.01874 -0.121827,-0.01874 -0.135884,-0.09371 -0.149941,-0.210856 -0.01874,-0.163998 -0.01874,-0.477939 -0.01874,-0.862164 z"
               style="font-style:normal;font-variant:normal;font-weight:normal;font-stretch:normal;font-size:4.68567562px;font-family:'Trajan Pro';-inkscape-font-specification:'Trajan Pro, Normal';font-variant-ligatures:normal;font-variant-caps:normal;font-variant-numeric:normal;font-feature-settings:normal;text-align:start;writing-mode:lr-tb;text-anchor:start;fill:#000000;fill-opacity:1;stroke-width:0.11714614"
               inkscape:connector-curvature="0"
               id="path3770" />
            <path
               d="m 56.729869,67.508978 c 0,-0.61851 0,-0.730966 0.0047,-0.857479 0.0094,-0.14057 0.0328,-0.201484 0.154627,-0.224912 0.04686,-0.0047 0.107771,-0.0094 0.135885,-0.0094 0.01406,0 0.0328,-0.01406 0.0328,-0.02811 0,-0.02343 -0.02343,-0.0328 -0.0656,-0.0328 -0.126513,0 -0.435768,0.0094 -0.45451,0.0094 -0.02343,0 -0.281141,-0.0094 -0.468568,-0.0094 -0.04686,0 -0.0656,0.0094 -0.0656,0.0328 0,0.01406 0.01874,0.0328 0.0328,0.0328 0.03749,0 0.107771,0.0047 0.140571,0.0094 0.135884,0.01874 0.159313,0.08434 0.168684,0.220227 0.0094,0.126513 0.0094,0.238969 0.0094,0.857479 v 0.702851 c 0,0.384225 0,0.698166 -0.02343,0.862164 -0.01874,0.117142 -0.02811,0.192113 -0.107771,0.210856 -0.03748,0.0094 -0.08903,0.01874 -0.126513,0.01874 -0.02343,0 -0.0328,0.01874 -0.0328,0.0328 0,0.02343 0.02343,0.0328 0.0656,0.0328 0.0656,0 0.154627,-0.0047 0.238969,-0.0094 0.07966,-0.0047 0.149942,-0.0047 0.168685,-0.0047 0.121827,0 0.262397,0.0047 0.449824,0.0094 0.192113,0.0094 0.421711,0.01406 0.716909,0.01406 0.220227,0 0.234284,-0.01406 0.262398,-0.10777 0.0328,-0.117142 0.06091,-0.356112 0.06091,-0.398283 0,-0.04217 -0.0094,-0.06091 -0.02811,-0.06091 -0.02343,0 -0.03749,0.02343 -0.04217,0.05154 -0.01406,0.07966 -0.04686,0.163998 -0.0984,0.224912 -0.0984,0.117142 -0.28114,0.121828 -0.496681,0.121828 -0.323312,0 -0.482625,-0.02811 -0.548225,-0.09371 -0.07497,-0.07028 -0.08434,-0.309254 -0.08434,-0.894964 z"
               style="font-style:normal;font-variant:normal;font-weight:normal;font-stretch:normal;font-size:4.68567562px;font-family:'Trajan Pro';-inkscape-font-specification:'Trajan Pro, Normal';font-variant-ligatures:normal;font-variant-caps:normal;font-variant-numeric:normal;font-feature-settings:normal;text-align:start;writing-mode:lr-tb;text-anchor:start;fill:#000000;fill-opacity:1;stroke-width:0.11714614"
               inkscape:connector-curvature="0"
               id="path3772" />
            <path
               d="m 59.505986,66.539043 0.515424,0.0094 c 0.393597,0.0094 0.482625,0.0984 0.496682,0.220227 l 0.0047,0.04217 c 0.0047,0.05623 0.01406,0.07028 0.0328,0.07028 0.01874,0 0.03749,-0.01874 0.03749,-0.05154 0,-0.04686 0.01406,-0.332683 0.01406,-0.454511 0,-0.02343 0,-0.04686 -0.01874,-0.04686 -0.01874,0 -0.05623,0.0094 -0.117142,0.01874 -0.0656,0.0094 -0.159313,0.01874 -0.295198,0.01874 h -1.555644 c -0.04686,0 -0.20617,-0.0047 -0.323311,-0.01874 -0.112457,-0.01406 -0.154628,-0.04686 -0.182742,-0.04686 -0.01406,0 -0.0328,0.05154 -0.04217,0.07497 -0.0047,0.0328 -0.08903,0.388911 -0.08903,0.431082 0,0.02343 0.01874,0.0328 0.02811,0.0328 0.01874,0 0.0328,-0.0047 0.04217,-0.03749 0.01406,-0.02811 0.01874,-0.05623 0.0656,-0.126514 0.06091,-0.09371 0.159313,-0.121827 0.417025,-0.126513 l 0.595081,-0.0094 v 1.672786 c 0,0.384225 0,0.698166 -0.01874,0.862164 -0.01406,0.117142 -0.03749,0.196799 -0.121827,0.215541 -0.03749,0.0094 -0.08434,0.01874 -0.121828,0.01874 -0.02343,0 -0.0328,0.01406 -0.0328,0.02811 0,0.02343 0.01874,0.0328 0.0656,0.0328 0.121827,0 0.407653,-0.01406 0.426396,-0.01406 0.02343,0 0.285826,0.01406 0.510739,0.01406 0.04686,0 0.0656,-0.01406 0.0656,-0.0328 0,-0.01406 -0.0047,-0.0328 -0.0328,-0.0328 -0.03749,0 -0.131199,-0.0094 -0.187428,-0.01874 -0.126513,-0.01874 -0.145255,-0.09371 -0.159312,-0.210856 -0.01874,-0.163998 -0.01874,-0.477939 -0.01874,-0.862164 z"
               style="font-style:normal;font-variant:normal;font-weight:normal;font-stretch:normal;font-size:4.68567562px;font-family:'Trajan Pro';-inkscape-font-specification:'Trajan Pro, Normal';font-variant-ligatures:normal;font-variant-caps:normal;font-variant-numeric:normal;font-feature-settings:normal;text-align:start;writing-mode:lr-tb;text-anchor:start;fill:#000000;fill-opacity:1;stroke-width:0.11714614"
               inkscape:connector-curvature="0"
               id="path3774" />
            <path
               d="m 61.659785,69.420733 c 0.224913,0 0.482625,-0.02811 0.655995,-0.14057 0.295197,-0.192113 0.384225,-0.445139 0.384225,-0.679423 0,-0.342054 -0.17337,-0.618509 -0.674737,-0.960564 l -0.117142,-0.07966 c -0.407654,-0.276455 -0.534167,-0.421711 -0.534167,-0.674737 0,-0.281141 0.248341,-0.431082 0.548224,-0.431082 0.370168,0 0.506053,0.149941 0.534167,0.196798 0.02343,0.04217 0.05623,0.149942 0.06091,0.196798 0.0047,0.0328 0.0094,0.05154 0.03749,0.05154 0.02811,0 0.0328,-0.02811 0.0328,-0.08903 0,-0.271769 0.01874,-0.402968 0.01874,-0.421711 0,-0.02343 -0.0094,-0.02811 -0.04217,-0.02811 -0.0328,0 -0.0656,0 -0.145256,-0.01874 -0.0984,-0.02343 -0.262398,-0.04686 -0.426397,-0.04686 -0.543538,0 -0.913707,0.28114 -0.913707,0.749708 0,0.276455 0.145256,0.52011 0.590396,0.852793 l 0.187427,0.14057 c 0.365482,0.271769 0.52011,0.407654 0.52011,0.69348 0,0.299883 -0.210856,0.529481 -0.61851,0.529481 -0.276454,0 -0.585709,-0.103085 -0.651308,-0.393596 -0.01406,-0.05623 -0.01406,-0.112457 -0.01406,-0.145256 0,-0.0328 -0.01406,-0.04686 -0.03749,-0.04686 -0.02343,0 -0.0328,0.02343 -0.0328,0.0656 -0.0047,0.0656 -0.02343,0.224913 -0.02343,0.421711 0,0.107771 0.0047,0.121828 0.06091,0.149942 0.168684,0.07966 0.407654,0.10777 0.599766,0.10777 z"
               style="font-style:normal;font-variant:normal;font-weight:normal;font-stretch:normal;font-size:4.68567562px;font-family:'Trajan Pro';-inkscape-font-specification:'Trajan Pro, Normal';font-variant-ligatures:normal;font-variant-caps:normal;font-variant-numeric:normal;font-feature-settings:normal;text-align:start;writing-mode:lr-tb;text-anchor:start;fill:#000000;fill-opacity:1;stroke-width:0.11714614"
               inkscape:connector-curvature="0"
               id="path3776" />
          </g>
        </g>
      </g>
    </g>
  </g>
</svg>
