<?xml version="1.0" encoding="UTF-8" standalone="no"?>
<!-- Created with Inkscape (http://www.inkscape.org/) -->

<svg
   xmlns:dc="http://purl.org/dc/elements/1.1/"
   xmlns:cc="http://creativecommons.org/ns#"
   xmlns:rdf="http://www.w3.org/1999/02/22-rdf-syntax-ns#"
   xmlns:svg="http://www.w3.org/2000/svg"
   xmlns="http://www.w3.org/2000/svg"
   xmlns:sodipodi="http://sodipodi.sourceforge.net/DTD/sodipodi-0.dtd"
   xmlns:inkscape="http://www.inkscape.org/namespaces/inkscape"
   width="81.875191"
   height="60.000004"
   viewBox="0 0 21.66281 15.875002"
   version="1.1"
   id="svg351"
   inkscape:version="0.92.5 (2060ec1f9f, 2020-04-08)"
   sodipodi:docname="baq-email.svg"
   inkscape:export-filename="/home/david/Documents/web-projects/bon-air-quilt/bon-air-quilt-brand/logo/png/black/email-sig/baq-email.png"
   inkscape:export-xdpi="96"
   inkscape:export-ydpi="96">
  <defs
     id="defs345" />
  <sodipodi:namedview
     id="base"
     pagecolor="#ffffff"
     bordercolor="#666666"
     borderopacity="1.0"
     inkscape:pageopacity="0.0"
     inkscape:pageshadow="2"
     inkscape:zoom="0.99220198"
     inkscape:cx="62.633028"
     inkscape:cy="44.628689"
     inkscape:document-units="px"
     inkscape:current-layer="g125"
     showgrid="false"
     inkscape:pagecheckerboard="true"
     units="px"
     inkscape:window-width="1920"
     inkscape:window-height="1024"
     inkscape:window-x="0"
     inkscape:window-y="0"
     inkscape:window-maximized="1"
     fit-margin-top="0"
     fit-margin-left="0"
     fit-margin-right="0"
     fit-margin-bottom="0" />
  <metadata
     id="metadata348">
    <rdf:RDF>
      <cc:Work
         rdf:about="">
        <dc:format>image/svg+xml</dc:format>
        <dc:type
           rdf:resource="http://purl.org/dc/dcmitype/StillImage" />
        <dc:title></dc:title>
      </cc:Work>
    </rdf:RDF>
  </metadata>
  <g
     inkscape:label="Layer 1"
     inkscape:groupmode="layer"
     id="layer1"
     transform="translate(3.6084589e-7,-281.12499)">
    <g
       id="g125"
       transform="matrix(1.9564492,0,0,1.9564492,-63.883893,-190.65253)">
      <g
         style="fill:#444444;stroke-width:6.66666698;fill-opacity:1"
         id="g44"
         transform="matrix(0.02964846,0,0,0.02964846,29.081228,239.25166)"
         inkscape:export-filename="/home/david/Documents/web-projects/bon-air-quilt/bon-air-quilt-brand/logo/png/black/email-sig/baq-email.png"
         inkscape:export-xdpi="96"
         inkscape:export-ydpi="96">
        <path
           style="fill:#444444;stroke-width:6.66666698;fill-opacity:1"
           id="path42"
           d="m 394.58,137.9 c -37.54,0 -70.37,20.79 -87.38,51.62 -17.01,-30.82 -49.85,-51.62 -87.38,-51.62 -32.08,0 -59.14,17.01 -74.61,41.36 V 63.68 h -24.74 v 173.95 c 0,55.28 44.45,99.73 99.35,99.73 37.54,0 70.37,-20.79 87.38,-51.62 17.01,30.82 49.84,51.62 87.38,51.62 32.86,0 61.85,-18.94 74.61,-44.45 v 41.36 h 24.74 v -96.64 c 0,-55.27 -44.46,-99.73 -99.35,-99.73 z M 219.82,313.79 c -42.91,0 -74.99,-33.63 -74.99,-76.15 0,-42.52 32.86,-76.15 74.99,-76.15 41.75,0 74.99,33.63 74.99,76.15 0,42.52 -32.47,76.15 -74.99,76.15 z m 175.15,0 c -41.75,0 -75.38,-33.63 -75.38,-76.15 0,-42.52 32.86,-76.15 75.38,-76.15 42.52,0 74.61,33.63 74.61,76.15 0,42.52 -32.86,76.15 -74.61,76.15 z"
           inkscape:connector-curvature="0" />
      </g>
    </g>
  </g>
</svg>
