<?xml version="1.0" encoding="UTF-8" standalone="no"?>
<!-- Created with Inkscape (http://www.inkscape.org/) -->

<svg
   xmlns:dc="http://purl.org/dc/elements/1.1/"
   xmlns:cc="http://creativecommons.org/ns#"
   xmlns:rdf="http://www.w3.org/1999/02/22-rdf-syntax-ns#"
   xmlns:svg="http://www.w3.org/2000/svg"
   xmlns="http://www.w3.org/2000/svg"
   xmlns:sodipodi="http://sodipodi.sourceforge.net/DTD/sodipodi-0.dtd"
   xmlns:inkscape="http://www.inkscape.org/namespaces/inkscape"
   width="1207.774"
   height="400"
   viewBox="0 0 319.55687 105.83334"
   version="1.1"
   id="svg351"
   inkscape:version="0.92.3 (2405546, 2018-03-11)"
   sodipodi:docname="logo-black-contact-hzt-outlines.svg"
   inkscape:export-filename="/home/david/Desktop/web-projects/bon-air-quilt/bon-air-quilt-brand/logo/png/black/logo-black-contact-hzt.png"
   inkscape:export-xdpi="96"
   inkscape:export-ydpi="96">
  <defs
     id="defs345" />
  <sodipodi:namedview
     id="base"
     pagecolor="#ffffff"
     bordercolor="#666666"
     borderopacity="1.0"
     inkscape:pageopacity="0.0"
     inkscape:pageshadow="2"
     inkscape:zoom="1.6513968"
     inkscape:cx="864.85373"
     inkscape:cy="195.66188"
     inkscape:document-units="px"
     inkscape:current-layer="layer1"
     showgrid="false"
     inkscape:pagecheckerboard="true"
     units="px"
     inkscape:window-width="1920"
     inkscape:window-height="972"
     inkscape:window-x="1600"
     inkscape:window-y="28"
     inkscape:window-maximized="1" />
  <metadata
     id="metadata348">
    <rdf:RDF>
      <cc:Work
         rdf:about="">
        <dc:format>image/svg+xml</dc:format>
        <dc:type
           rdf:resource="http://purl.org/dc/dcmitype/StillImage" />
        <dc:title></dc:title>
      </cc:Work>
    </rdf:RDF>
  </metadata>
  <g
     inkscape:label="Layer 1"
     inkscape:groupmode="layer"
     id="layer1"
     transform="translate(0,-191.16665)">
    <g
       id="g44"
       transform="matrix(0.38670469,0,0,0.38670469,-46.586314,166.5413)">
      <path
         id="path42"
         d="m 394.58,137.9 c -37.54,0 -70.37,20.79 -87.38,51.62 -17.01,-30.82 -49.85,-51.62 -87.38,-51.62 -32.08,0 -59.14,17.01 -74.61,41.36 V 63.68 h -24.74 v 173.95 c 0,55.28 44.45,99.73 99.35,99.73 37.54,0 70.37,-20.79 87.38,-51.62 17.01,30.82 49.84,51.62 87.38,51.62 32.86,0 61.85,-18.94 74.61,-44.45 v 41.36 h 24.74 v -96.64 c 0,-55.27 -44.46,-99.73 -99.35,-99.73 z M 219.82,313.79 c -42.91,0 -74.99,-33.63 -74.99,-76.15 0,-42.52 32.86,-76.15 74.99,-76.15 41.75,0 74.99,33.63 74.99,76.15 0,42.52 -32.47,76.15 -74.99,76.15 z m 175.15,0 c -41.75,0 -75.38,-33.63 -75.38,-76.15 0,-42.52 32.86,-76.15 75.38,-76.15 42.52,0 74.61,33.63 74.61,76.15 0,42.52 -32.86,76.15 -74.61,76.15 z"
         inkscape:connector-curvature="0" />
    </g>
    <g
       id="g125"
       transform="matrix(1.9564492,0,0,1.9564492,-63.883893,-190.65253)">
      <g
         aria-label="bon air quilt co."
         style="font-style:normal;font-variant:normal;font-weight:600;font-stretch:normal;font-size:12.91943169px;line-height:1.25;font-family:'Nordique Pro';-inkscape-font-specification:'Nordique Pro, Semi-Bold';font-variant-ligatures:normal;font-variant-caps:normal;font-variant-numeric:normal;font-feature-settings:normal;text-align:start;letter-spacing:0px;word-spacing:0px;writing-mode:lr-tb;text-anchor:start;fill:#000000;fill-opacity:1;stroke:none;stroke-width:0.36858743"
         id="text71">
        <path
           d="m 113.25794,200.97304 c 0,1.84748 1.48574,3.33321 3.3203,3.33321 1.83456,0 3.33321,-1.48573 3.33321,-3.33321 0,-1.84748 -1.49865,-3.33322 -3.33321,-3.33322 -0.8656,0 -1.56325,0.36175 -2.04127,0.9302 v -3.41073 h -1.27903 z m 3.3203,-2.10587 c 1.17567,0 2.06711,0.9302 2.06711,2.10587 0,1.17567 -0.87852,2.10587 -2.06711,2.10587 -1.17567,0 -2.06711,-0.9302 -2.06711,-2.10587 0,-1.17567 0.90436,-2.10587 2.06711,-2.10587 z"
           style="font-style:normal;font-variant:normal;font-weight:600;font-stretch:normal;font-size:12.91943169px;font-family:'Nordique Pro';-inkscape-font-specification:'Nordique Pro, Semi-Bold';font-variant-ligatures:normal;font-variant-caps:normal;font-variant-numeric:normal;font-feature-settings:normal;text-align:start;writing-mode:lr-tb;text-anchor:start;stroke-width:0.36858743"
           id="path530" />
        <path
           d="m 123.76851,197.63982 c -1.84748,0 -3.33322,1.48574 -3.33322,3.33322 0,1.84748 1.48574,3.33321 3.33322,3.33321 1.84748,0 3.33321,-1.48573 3.33321,-3.33321 0,-1.84748 -1.48573,-3.33322 -3.33321,-3.33322 z m 0.0129,1.22735 c 1.18858,0 2.05419,0.9302 2.05419,2.10587 0,1.17567 -0.87852,2.10587 -2.05419,2.10587 -1.17567,0 -2.08003,-0.9302 -2.08003,-2.10587 0,-1.17567 0.89144,-2.10587 2.08003,-2.10587 z"
           style="font-style:normal;font-variant:normal;font-weight:600;font-stretch:normal;font-size:12.91943169px;font-family:'Nordique Pro';-inkscape-font-specification:'Nordique Pro, Semi-Bold';font-variant-ligatures:normal;font-variant-caps:normal;font-variant-numeric:normal;font-feature-settings:normal;text-align:start;writing-mode:lr-tb;text-anchor:start;stroke-width:0.36858743"
           id="path532" />
        <path
           d="m 133.50209,204.2029 h -1.26611 v -3.39781 c 0,-1.31779 -0.56845,-1.93792 -1.57617,-1.93792 -1.00771,0 -1.57617,0.62013 -1.57617,1.93792 v 3.39781 h -1.2661 v -3.39781 c 0,-2.17047 1.18859,-3.16527 2.84227,-3.16527 1.65369,0 2.84228,0.9948 2.84228,3.16527 z"
           style="font-style:normal;font-variant:normal;font-weight:600;font-stretch:normal;font-size:12.91943169px;font-family:'Nordique Pro';-inkscape-font-specification:'Nordique Pro, Semi-Bold';font-variant-ligatures:normal;font-variant-caps:normal;font-variant-numeric:normal;font-feature-settings:normal;text-align:start;writing-mode:lr-tb;text-anchor:start;stroke-width:0.36858743"
           id="path534" />
        <path
           d="m 140.9776,204.30625 c 0.91727,0 1.74412,-0.49094 2.05418,-1.12399 v 1.02064 h 1.26611 v -3.22986 c 0,-1.84748 -1.48574,-3.33322 -3.32029,-3.33322 -1.83456,0 -3.33322,1.48574 -3.33322,3.33322 0,1.84748 1.49866,3.33321 3.33322,3.33321 z m 0.0129,-1.22734 c -1.17566,0 -2.08002,-0.9302 -2.08002,-2.10587 0,-1.17567 0.89144,-2.10587 2.08002,-2.10587 1.18859,0 2.05419,0.9302 2.05419,2.10587 0,1.17567 -0.87852,2.10587 -2.05419,2.10587 z"
           style="font-style:normal;font-variant:normal;font-weight:600;font-stretch:normal;font-size:12.91943169px;font-family:'Nordique Pro';-inkscape-font-specification:'Nordique Pro, Semi-Bold';font-variant-ligatures:normal;font-variant-caps:normal;font-variant-numeric:normal;font-feature-settings:normal;text-align:start;writing-mode:lr-tb;text-anchor:start;stroke-width:0.36858743"
           id="path536" />
        <path
           d="m 145.97842,196.85174 c 0.42635,0 0.76225,-0.33591 0.76225,-0.77517 0,-0.43926 -0.3359,-0.77516 -0.76225,-0.77516 -0.43926,0 -0.77516,0.3359 -0.77516,0.77516 0,0.43926 0.3359,0.77517 0.77516,0.77517 z m -0.63305,7.35116 h 1.26611 v -6.45972 h -1.26611 z"
           style="font-style:normal;font-variant:normal;font-weight:600;font-stretch:normal;font-size:12.91943169px;font-family:'Nordique Pro';-inkscape-font-specification:'Nordique Pro, Semi-Bold';font-variant-ligatures:normal;font-variant-caps:normal;font-variant-numeric:normal;font-feature-settings:normal;text-align:start;writing-mode:lr-tb;text-anchor:start;stroke-width:0.36858743"
           id="path538" />
        <path
           d="m 147.77705,204.2029 h 1.26611 v -3.37198 c 0,-1.30486 0.54261,-1.88623 1.44697,-1.88623 h 0.1292 v -1.22735 h -0.1292 c -1.56325,0 -2.71308,0.96896 -2.71308,3.11358 z"
           style="font-style:normal;font-variant:normal;font-weight:600;font-stretch:normal;font-size:12.91943169px;font-family:'Nordique Pro';-inkscape-font-specification:'Nordique Pro, Semi-Bold';font-variant-ligatures:normal;font-variant-caps:normal;font-variant-numeric:normal;font-feature-settings:normal;text-align:start;writing-mode:lr-tb;text-anchor:start;stroke-width:0.36858743"
           id="path540" />
        <path
           d="m 161.40604,200.97304 c 0,-1.84748 -1.48573,-3.33322 -3.32029,-3.33322 -1.83456,0 -3.33321,1.48574 -3.33321,3.33322 0,1.84748 1.49865,3.33321 3.33321,3.33321 0.8656,0 1.56325,-0.36174 2.04127,-0.9302 v 3.41073 h 1.27902 z m -3.32029,2.10587 c -1.17567,0 -2.06711,-0.9302 -2.06711,-2.10587 0,-1.17567 0.87852,-2.10587 2.06711,-2.10587 1.17567,0 2.06711,0.9302 2.06711,2.10587 0,1.17567 -0.90436,2.10587 -2.06711,2.10587 z"
           style="font-style:normal;font-variant:normal;font-weight:600;font-stretch:normal;font-size:12.91943169px;font-family:'Nordique Pro';-inkscape-font-specification:'Nordique Pro, Semi-Bold';font-variant-ligatures:normal;font-variant-caps:normal;font-variant-numeric:normal;font-feature-settings:normal;text-align:start;writing-mode:lr-tb;text-anchor:start;stroke-width:0.36858743"
           id="path542" />
        <path
           d="m 167.86979,197.74318 v 3.39781 c 0,2.17047 -1.18858,3.16526 -2.84227,3.16526 -1.65369,0 -2.84228,-0.99479 -2.84228,-3.16526 v -3.39781 h 1.26611 v 3.39781 c 0,1.31778 0.56845,1.93792 1.57617,1.93792 1.00771,0 1.57617,-0.62014 1.57617,-1.93792 v -3.39781 z"
           style="font-style:normal;font-variant:normal;font-weight:600;font-stretch:normal;font-size:12.91943169px;font-family:'Nordique Pro';-inkscape-font-specification:'Nordique Pro, Semi-Bold';font-variant-ligatures:normal;font-variant-caps:normal;font-variant-numeric:normal;font-feature-settings:normal;text-align:start;writing-mode:lr-tb;text-anchor:start;stroke-width:0.36858743"
           id="path544" />
        <path
           d="m 169.54629,196.85174 c 0.42635,0 0.76225,-0.33591 0.76225,-0.77517 0,-0.43926 -0.3359,-0.77516 -0.76225,-0.77516 -0.43926,0 -0.77516,0.3359 -0.77516,0.77516 0,0.43926 0.3359,0.77517 0.77516,0.77517 z m -0.63305,7.35116 h 1.26611 v -6.45972 h -1.26611 z"
           style="font-style:normal;font-variant:normal;font-weight:600;font-stretch:normal;font-size:12.91943169px;font-family:'Nordique Pro';-inkscape-font-specification:'Nordique Pro, Semi-Bold';font-variant-ligatures:normal;font-variant-caps:normal;font-variant-numeric:normal;font-feature-settings:normal;text-align:start;writing-mode:lr-tb;text-anchor:start;stroke-width:0.36858743"
           id="path546" />
        <path
           d="m 172.61102,204.2029 v -9.04361 h -1.2661 v 9.04361 z"
           style="font-style:normal;font-variant:normal;font-weight:600;font-stretch:normal;font-size:12.91943169px;font-family:'Nordique Pro';-inkscape-font-specification:'Nordique Pro, Semi-Bold';font-variant-ligatures:normal;font-variant-caps:normal;font-variant-numeric:normal;font-feature-settings:normal;text-align:start;writing-mode:lr-tb;text-anchor:start;stroke-width:0.36858743"
           id="path548" />
        <path
           d="m 176.69922,198.97053 v -1.22735 h -1.3953 v -2.31258 h -1.26611 v 2.31258 h -0.95603 v 1.22735 h 0.95603 v 2.18338 c 0.0129,2.08003 1.11107,3.02315 2.66141,3.08774 v -1.22734 c -0.91728,-0.0775 -1.3953,-0.64597 -1.3953,-1.87332 v -2.17046 z"
           style="font-style:normal;font-variant:normal;font-weight:600;font-stretch:normal;font-size:12.91943169px;font-family:'Nordique Pro';-inkscape-font-specification:'Nordique Pro, Semi-Bold';font-variant-ligatures:normal;font-variant-caps:normal;font-variant-numeric:normal;font-feature-settings:normal;text-align:start;writing-mode:lr-tb;text-anchor:start;stroke-width:0.36858743"
           id="path550" />
        <path
           d="m 183.92461,204.30625 c 1.40822,0 2.60972,-0.8656 3.07482,-2.10587 h -1.38238 c -0.36174,0.5297 -0.95603,0.87853 -1.67952,0.87853 -1.17567,0 -2.08003,-0.9302 -2.08003,-2.10587 0,-1.17567 0.89144,-2.10587 2.08003,-2.10587 0.73641,0 1.34362,0.36174 1.70536,0.90436 h 1.35654 c -0.45218,-1.24026 -1.65368,-2.13171 -3.07482,-2.13171 -1.84748,0 -3.33321,1.48574 -3.33321,3.33322 0,1.84748 1.48573,3.33321 3.33321,3.33321 z"
           style="font-style:normal;font-variant:normal;font-weight:600;font-stretch:normal;font-size:12.91943169px;font-family:'Nordique Pro';-inkscape-font-specification:'Nordique Pro, Semi-Bold';font-variant-ligatures:normal;font-variant-caps:normal;font-variant-numeric:normal;font-feature-settings:normal;text-align:start;writing-mode:lr-tb;text-anchor:start;stroke-width:0.36858743"
           id="path552" />
        <path
           d="m 190.98992,197.63982 c -1.84747,0 -3.33321,1.48574 -3.33321,3.33322 0,1.84748 1.48574,3.33321 3.33321,3.33321 1.84748,0 3.33322,-1.48573 3.33322,-3.33321 0,-1.84748 -1.48574,-3.33322 -3.33322,-3.33322 z m 0.0129,1.22735 c 1.18859,0 2.05419,0.9302 2.05419,2.10587 0,1.17567 -0.87852,2.10587 -2.05419,2.10587 -1.17566,0 -2.08002,-0.9302 -2.08002,-2.10587 0,-1.17567 0.89144,-2.10587 2.08002,-2.10587 z"
           style="font-style:normal;font-variant:normal;font-weight:600;font-stretch:normal;font-size:12.91943169px;font-family:'Nordique Pro';-inkscape-font-specification:'Nordique Pro, Semi-Bold';font-variant-ligatures:normal;font-variant-caps:normal;font-variant-numeric:normal;font-feature-settings:normal;text-align:start;writing-mode:lr-tb;text-anchor:start;stroke-width:0.36858743"
           id="path554" />
        <path
           d="m 194.72203,202.62673 h 1.2661 v 1.57617 h -1.2661 z"
           style="font-style:normal;font-variant:normal;font-weight:600;font-stretch:normal;font-size:12.91943169px;font-family:'Nordique Pro';-inkscape-font-specification:'Nordique Pro, Semi-Bold';font-variant-ligatures:normal;font-variant-caps:normal;font-variant-numeric:normal;font-feature-settings:normal;text-align:start;writing-mode:lr-tb;text-anchor:start;stroke-width:0.36858743"
           id="path556" />
      </g>
      <g
         aria-label="1506 n. bon view dr.
n. chesterfield, va 23235
(804) 335-6042
bonairquiltco.com"
         style="font-style:normal;font-variant:normal;font-weight:normal;font-stretch:normal;font-size:8.46666718px;line-height:1.25;font-family:'Nordique Pro';-inkscape-font-specification:'Nordique Pro, Normal';font-variant-ligatures:normal;font-variant-caps:normal;font-variant-numeric:normal;font-feature-settings:normal;text-align:start;letter-spacing:0px;word-spacing:0px;writing-mode:lr-tb;text-anchor:start;fill:#000000;fill-opacity:1;stroke:none;stroke-width:0.26458335"
         id="text94">
        <path
           d="m 114.32476,209.88383 c -0.0593,0.4572 -0.70274,0.6858 -1.0668,0.71967 v 0.508 c 0.33866,-0.0254 0.80433,-0.13547 1.0668,-0.381 v 5.08 h 0.54186 v -5.92667 z"
           style="font-style:normal;font-variant:normal;font-weight:normal;font-stretch:normal;font-size:8.46666718px;font-family:'Nordique Pro';-inkscape-font-specification:'Nordique Pro, Normal';font-variant-ligatures:normal;font-variant-caps:normal;font-variant-numeric:normal;font-feature-settings:normal;text-align:start;writing-mode:lr-tb;text-anchor:start;stroke-width:0.26458335"
           id="path559" />
        <path
           d="m 117.57067,215.87823 c 1.23613,0 2.1844,-0.93133 2.1844,-2.16746 0,-1.2446 -0.9652,-2.17594 -2.20134,-2.17594 -0.28786,0 -0.5588,0.0677 -0.7874,0.2032 l 0.3556,-1.33773 h 2.21827 v -0.51647 h -2.60773 l -0.62654,2.29447 0.4318,0.2286 c 0.2794,-0.2286 0.62654,-0.3556 1.02447,-0.3556 0.95673,0 1.651,0.70273 1.651,1.65947 0,0.9398 -0.70273,1.651 -1.63407,1.651 -0.93133,0 -1.651,-0.71967 -1.651,-1.66794 h -0.54186 c 0,1.23614 0.94826,2.1844 2.1844,2.1844 z"
           style="font-style:normal;font-variant:normal;font-weight:normal;font-stretch:normal;font-size:8.46666718px;font-family:'Nordique Pro';-inkscape-font-specification:'Nordique Pro, Normal';font-variant-ligatures:normal;font-variant-caps:normal;font-variant-numeric:normal;font-feature-settings:normal;text-align:start;writing-mode:lr-tb;text-anchor:start;stroke-width:0.26458335"
           id="path561" />
        <path
           d="m 122.44244,209.80763 c -1.3716,0 -2.2606,1.27 -2.2606,3.03954 0,1.76953 0.889,3.03953 2.2606,3.03953 1.3716,0 2.25213,-1.27 2.25213,-3.03953 0,-1.76954 -0.88053,-3.03954 -2.25213,-3.03954 z m 0,0.51647 c 1.00753,0 1.71027,1.016 1.71027,2.52307 0,1.50706 -0.70274,2.52306 -1.71027,2.52306 -1.016,0 -1.71873,-1.00753 -1.71873,-2.52306 0,-1.51554 0.70273,-2.52307 1.71873,-2.52307 z"
           style="font-style:normal;font-variant:normal;font-weight:normal;font-stretch:normal;font-size:8.46666718px;font-family:'Nordique Pro';-inkscape-font-specification:'Nordique Pro, Normal';font-variant-ligatures:normal;font-variant-caps:normal;font-variant-numeric:normal;font-feature-settings:normal;text-align:start;writing-mode:lr-tb;text-anchor:start;stroke-width:0.26458335"
           id="path563" />
        <path
           d="m 127.31064,215.87823 c 1.21073,0 2.1844,-0.97366 2.1844,-2.1844 0,-1.1684 -0.9144,-2.159 -2.12513,-2.159 -0.44027,0 -0.8382,0.1778 -1.0922,0.381 0.42333,-0.6096 1.1176,-1.2446 1.89653,-1.53246 v -0.49954 c -1.38853,0.33867 -3.048,2.15054 -3.048,3.81 0,1.23614 0.98213,2.1844 2.1844,2.1844 z m 0.008,-0.51646 c -0.9144,0 -1.651,-0.7366 -1.651,-1.6764 0.008,-0.92287 0.72813,-1.65947 1.651,-1.65947 0.93133,0 1.63406,0.7366 1.63406,1.66793 0,0.92287 -0.72813,1.66794 -1.63406,1.66794 z"
           style="font-style:normal;font-variant:normal;font-weight:normal;font-stretch:normal;font-size:8.46666718px;font-family:'Nordique Pro';-inkscape-font-specification:'Nordique Pro, Normal';font-variant-ligatures:normal;font-variant-caps:normal;font-variant-numeric:normal;font-feature-settings:normal;text-align:start;writing-mode:lr-tb;text-anchor:start;stroke-width:0.26458335"
           id="path565" />
        <path
           d="m 135.85576,215.8105 h -0.54187 v -2.22673 c 0,-1.05834 -0.5334,-1.55787 -1.3208,-1.55787 -0.7874,0 -1.3208,0.49953 -1.3208,1.55787 v 2.22673 h -0.54187 v -2.22673 c 0,-1.4224 0.77894,-2.07434 1.86267,-2.07434 1.08373,0 1.86267,0.65194 1.86267,2.07434 z"
           style="font-style:normal;font-variant:normal;font-weight:normal;font-stretch:normal;font-size:8.46666718px;font-family:'Nordique Pro';-inkscape-font-specification:'Nordique Pro, Normal';font-variant-ligatures:normal;font-variant-caps:normal;font-variant-numeric:normal;font-feature-settings:normal;text-align:start;writing-mode:lr-tb;text-anchor:start;stroke-width:0.26458335"
           id="path567" />
        <path
           d="m 136.32142,214.85377 h 0.54187 v 0.95673 h -0.54187 z"
           style="font-style:normal;font-variant:normal;font-weight:normal;font-stretch:normal;font-size:8.46666718px;font-family:'Nordique Pro';-inkscape-font-specification:'Nordique Pro, Normal';font-variant-ligatures:normal;font-variant-caps:normal;font-variant-numeric:normal;font-feature-settings:normal;text-align:start;writing-mode:lr-tb;text-anchor:start;stroke-width:0.26458335"
           id="path569" />
        <path
           d="m 139.48915,213.69383 c 0,1.21074 0.97366,2.1844 2.17593,2.1844 1.20227,0 2.1844,-0.97366 2.1844,-2.1844 0,-1.21073 -0.98213,-2.1844 -2.1844,-2.1844 -0.70273,0 -1.2954,0.37254 -1.63407,0.90594 v -2.53154 h -0.54186 z m 2.17593,-1.66793 c 0.9144,0 1.64253,0.7366 1.64253,1.66793 0,0.93134 -0.7112,1.66794 -1.64253,1.66794 -0.9398,0 -1.64253,-0.7366 -1.64253,-1.66794 0,-0.93133 0.71966,-1.66793 1.64253,-1.66793 z"
           style="font-style:normal;font-variant:normal;font-weight:normal;font-stretch:normal;font-size:8.46666718px;font-family:'Nordique Pro';-inkscape-font-specification:'Nordique Pro, Normal';font-variant-ligatures:normal;font-variant-caps:normal;font-variant-numeric:normal;font-feature-settings:normal;text-align:start;writing-mode:lr-tb;text-anchor:start;stroke-width:0.26458335"
           id="path571" />
        <path
           d="m 146.37718,211.50943 c -1.20227,0 -2.1844,0.97367 -2.1844,2.1844 0,1.21074 0.98213,2.1844 2.1844,2.1844 1.21073,0 2.1844,-0.97366 2.1844,-2.1844 0,-1.21073 -0.97367,-2.1844 -2.1844,-2.1844 z m 0.008,0.51647 c 0.93133,0 1.63406,0.7366 1.63406,1.66793 0,0.93134 -0.71966,1.66794 -1.63406,1.66794 -0.91441,0 -1.65101,-0.7366 -1.65101,-1.66794 0,-0.93133 0.71967,-1.66793 1.65101,-1.66793 z"
           style="font-style:normal;font-variant:normal;font-weight:normal;font-stretch:normal;font-size:8.46666718px;font-family:'Nordique Pro';-inkscape-font-specification:'Nordique Pro, Normal';font-variant-ligatures:normal;font-variant-caps:normal;font-variant-numeric:normal;font-feature-settings:normal;text-align:start;writing-mode:lr-tb;text-anchor:start;stroke-width:0.26458335"
           id="path573" />
        <path
           d="m 152.75602,215.8105 h -0.54187 v -2.22673 c 0,-1.05834 -0.5334,-1.55787 -1.3208,-1.55787 -0.7874,0 -1.3208,0.49953 -1.3208,1.55787 v 2.22673 h -0.54187 v -2.22673 c 0,-1.4224 0.77894,-2.07434 1.86267,-2.07434 1.08373,0 1.86267,0.65194 1.86267,2.07434 z"
           style="font-style:normal;font-variant:normal;font-weight:normal;font-stretch:normal;font-size:8.46666718px;font-family:'Nordique Pro';-inkscape-font-specification:'Nordique Pro, Normal';font-variant-ligatures:normal;font-variant-caps:normal;font-variant-numeric:normal;font-feature-settings:normal;text-align:start;writing-mode:lr-tb;text-anchor:start;stroke-width:0.26458335"
           id="path575" />
        <path
           d="m 157.02203,215.8105 h 0.54186 l 1.8542,-4.23333 h -0.56726 l -1.55787,3.54753 -1.5494,-3.54753 h -0.56727 z"
           style="font-style:normal;font-variant:normal;font-weight:normal;font-stretch:normal;font-size:8.46666718px;font-family:'Nordique Pro';-inkscape-font-specification:'Nordique Pro, Normal';font-variant-ligatures:normal;font-variant-caps:normal;font-variant-numeric:normal;font-feature-settings:normal;text-align:start;writing-mode:lr-tb;text-anchor:start;stroke-width:0.26458335"
           id="path577" />
        <path
           d="m 160.0273,210.84057 c 0.19473,0 0.34713,-0.14394 0.34713,-0.34714 0,-0.19473 -0.1524,-0.33866 -0.34713,-0.33866 -0.19474,0 -0.34714,0.14393 -0.34714,0.33866 0,0.2032 0.1524,0.34714 0.34714,0.34714 z m -0.27094,4.96993 h 0.54187 v -4.23333 h -0.54187 z"
           style="font-style:normal;font-variant:normal;font-weight:normal;font-stretch:normal;font-size:8.46666718px;font-family:'Nordique Pro';-inkscape-font-specification:'Nordique Pro, Normal';font-variant-ligatures:normal;font-variant-caps:normal;font-variant-numeric:normal;font-feature-settings:normal;text-align:start;writing-mode:lr-tb;text-anchor:start;stroke-width:0.26458335"
           id="path579" />
        <path
           d="m 160.84499,213.7023 c 0,1.20227 0.9398,2.17593 2.159,2.17593 0.8128,0 1.5748,-0.44026 1.96427,-1.12606 h -0.6604 c -0.29633,0.36406 -0.77047,0.6096 -1.31233,0.6096 -0.889,0 -1.5494,-0.6604 -1.58327,-1.4986 h 3.72533 c 0.008,-0.0677 0.0169,-0.14394 0.008,-0.2286 -0.0339,-1.27 -1.00753,-2.12514 -2.15053,-2.12514 -1.2192,0 -2.15054,0.9906 -2.15054,2.19287 z m 0.56727,-0.29633 c 0.127,-0.762 0.75353,-1.38007 1.59173,-1.38007 0.8128,0 1.43087,0.60113 1.56634,1.38007 z"
           style="font-style:normal;font-variant:normal;font-weight:normal;font-stretch:normal;font-size:8.46666718px;font-family:'Nordique Pro';-inkscape-font-specification:'Nordique Pro, Normal';font-variant-ligatures:normal;font-variant-caps:normal;font-variant-numeric:normal;font-feature-settings:normal;text-align:start;writing-mode:lr-tb;text-anchor:start;stroke-width:0.26458335"
           id="path581" />
        <path
           d="m 170.99705,211.57717 -1.20226,3.52213 -1.143,-3.52213 h -0.5588 l -1.143,3.52213 -1.20227,-3.52213 h -0.55033 l 1.48166,4.23333 h 0.54187 l 1.15147,-3.43747 1.15146,3.43747 h 0.54187 l 1.48167,-4.23333 z"
           style="font-style:normal;font-variant:normal;font-weight:normal;font-stretch:normal;font-size:8.46666718px;font-family:'Nordique Pro';-inkscape-font-specification:'Nordique Pro, Normal';font-variant-ligatures:normal;font-variant-caps:normal;font-variant-numeric:normal;font-feature-settings:normal;text-align:start;writing-mode:lr-tb;text-anchor:start;stroke-width:0.26458335"
           id="path583" />
        <path
           d="m 178.28567,213.69383 v -3.81 h -0.54187 v 2.53154 c -0.33867,-0.5334 -0.93133,-0.90594 -1.63407,-0.90594 -1.20226,0 -2.1844,0.97367 -2.1844,2.1844 0,1.21074 0.98214,2.1844 2.1844,2.1844 1.20227,0 2.17594,-0.97366 2.17594,-2.1844 z m -2.17594,-1.66793 c 0.92287,0 1.64254,0.7366 1.64254,1.66793 0,0.93134 -0.70274,1.66794 -1.64254,1.66794 -0.93133,0 -1.64253,-0.7366 -1.64253,-1.66794 0,-0.93133 0.72813,-1.66793 1.64253,-1.66793 z"
           style="font-style:normal;font-variant:normal;font-weight:normal;font-stretch:normal;font-size:8.46666718px;font-family:'Nordique Pro';-inkscape-font-specification:'Nordique Pro, Normal';font-variant-ligatures:normal;font-variant-caps:normal;font-variant-numeric:normal;font-feature-settings:normal;text-align:start;writing-mode:lr-tb;text-anchor:start;stroke-width:0.26458335"
           id="path585" />
        <path
           d="m 178.79631,215.8105 h 0.54187 v -2.20133 c 0,-1.04987 0.4826,-1.54094 1.1938,-1.54094 0.0423,0 0.0847,0 0.127,0.008 v -0.51647 c -0.0423,-0.008 -0.0847,-0.008 -0.127,-0.008 -1.016,0 -1.73567,0.64346 -1.73567,2.0574 z"
           style="font-style:normal;font-variant:normal;font-weight:normal;font-stretch:normal;font-size:8.46666718px;font-family:'Nordique Pro';-inkscape-font-specification:'Nordique Pro, Normal';font-variant-ligatures:normal;font-variant-caps:normal;font-variant-numeric:normal;font-feature-settings:normal;text-align:start;writing-mode:lr-tb;text-anchor:start;stroke-width:0.26458335"
           id="path587" />
        <path
           d="m 180.52338,214.85377 h 0.54187 v 0.95673 h -0.54187 z"
           style="font-style:normal;font-variant:normal;font-weight:normal;font-stretch:normal;font-size:8.46666718px;font-family:'Nordique Pro';-inkscape-font-specification:'Nordique Pro, Normal';font-variant-ligatures:normal;font-variant-caps:normal;font-variant-numeric:normal;font-feature-settings:normal;text-align:start;writing-mode:lr-tb;text-anchor:start;stroke-width:0.26458335"
           id="path589" />
        <path
           d="m 117.16956,226.39384 h -0.54187 v -2.22674 c 0,-1.05833 -0.5334,-1.55787 -1.3208,-1.55787 -0.7874,0 -1.3208,0.49954 -1.3208,1.55787 v 2.22674 h -0.54187 v -2.22674 c 0,-1.4224 0.77894,-2.07433 1.86267,-2.07433 1.08373,0 1.86267,0.65193 1.86267,2.07433 z"
           style="font-style:normal;font-variant:normal;font-weight:normal;font-stretch:normal;font-size:8.46666718px;font-family:'Nordique Pro';-inkscape-font-specification:'Nordique Pro, Normal';font-variant-ligatures:normal;font-variant-caps:normal;font-variant-numeric:normal;font-feature-settings:normal;text-align:start;writing-mode:lr-tb;text-anchor:start;stroke-width:0.26458335"
           id="path591" />
        <path
           d="m 117.63522,225.4371 h 0.54187 v 0.95674 h -0.54187 z"
           style="font-style:normal;font-variant:normal;font-weight:normal;font-stretch:normal;font-size:8.46666718px;font-family:'Nordique Pro';-inkscape-font-specification:'Nordique Pro, Normal';font-variant-ligatures:normal;font-variant-caps:normal;font-variant-numeric:normal;font-feature-settings:normal;text-align:start;writing-mode:lr-tb;text-anchor:start;stroke-width:0.26458335"
           id="path593" />
        <path
           d="m 122.94502,226.46157 c 0.85513,0 1.59173,-0.49107 1.93886,-1.20227 h -0.60113 c -0.29633,0.4064 -0.77047,0.6858 -1.32927,0.6858 -0.9144,0 -1.651,-0.7366 -1.651,-1.66793 0,-0.93134 0.71967,-1.66794 1.651,-1.66794 0.5588,0 1.03294,0.26247 1.32927,0.67734 h 0.5842 c -0.33867,-0.70274 -1.0668,-1.1938 -1.92193,-1.1938 -1.20227,0 -2.18441,0.97366 -2.18441,2.1844 0,1.21073 0.98214,2.1844 2.18441,2.1844 z"
           style="font-style:normal;font-variant:normal;font-weight:normal;font-stretch:normal;font-size:8.46666718px;font-family:'Nordique Pro';-inkscape-font-specification:'Nordique Pro, Normal';font-variant-ligatures:normal;font-variant-caps:normal;font-variant-numeric:normal;font-feature-settings:normal;text-align:start;writing-mode:lr-tb;text-anchor:start;stroke-width:0.26458335"
           id="path595" />
        <path
           d="m 127.21314,222.09277 c -0.56727,0 -0.99907,0.16933 -1.3208,0.69426 v -2.31986 h -0.54187 v 5.92667 h 0.54187 v -2.26907 c 0,-1.016 0.5334,-1.51554 1.3208,-1.51554 0.7874,0 1.3208,0.49954 1.3208,1.55787 v 2.22674 h 0.54187 v -2.22674 c 0,-1.4224 -0.77894,-2.07433 -1.86267,-2.07433 z"
           style="font-style:normal;font-variant:normal;font-weight:normal;font-stretch:normal;font-size:8.46666718px;font-family:'Nordique Pro';-inkscape-font-specification:'Nordique Pro, Normal';font-variant-ligatures:normal;font-variant-caps:normal;font-variant-numeric:normal;font-feature-settings:normal;text-align:start;writing-mode:lr-tb;text-anchor:start;stroke-width:0.26458335"
           id="path597" />
        <path
           d="m 129.54147,224.28563 c 0,1.20227 0.9398,2.17594 2.159,2.17594 0.8128,0 1.5748,-0.44027 1.96427,-1.12607 h -0.6604 c -0.29633,0.36407 -0.77047,0.6096 -1.31233,0.6096 -0.889,0 -1.5494,-0.6604 -1.58327,-1.4986 h 3.72533 c 0.008,-0.0677 0.0169,-0.14393 0.008,-0.2286 -0.0339,-1.27 -1.00753,-2.12513 -2.15053,-2.12513 -1.2192,0 -2.15054,0.9906 -2.15054,2.19286 z m 0.56727,-0.29633 c 0.127,-0.762 0.75353,-1.38007 1.59173,-1.38007 0.8128,0 1.43087,0.60114 1.56634,1.38007 z"
           style="font-style:normal;font-variant:normal;font-weight:normal;font-stretch:normal;font-size:8.46666718px;font-family:'Nordique Pro';-inkscape-font-specification:'Nordique Pro, Normal';font-variant-ligatures:normal;font-variant-caps:normal;font-variant-numeric:normal;font-feature-settings:normal;text-align:start;writing-mode:lr-tb;text-anchor:start;stroke-width:0.26458335"
           id="path599" />
        <path
           d="m 135.71023,226.46157 c 0.87207,0 1.4986,-0.4318 1.49014,-1.21074 -0.0254,-1.66793 -2.34527,-0.9144 -2.34527,-2.01506 0,-0.42334 0.36407,-0.6604 0.82973,-0.6604 0.46567,0 0.84667,0.23706 0.84667,0.66886 h 0.52493 c 0,-0.7366 -0.6096,-1.15146 -1.3716,-1.15146 -0.75353,0 -1.3716,0.4318 -1.3716,1.10913 0,1.60867 2.32834,0.82973 2.34527,2.04047 0,0.4572 -0.33867,0.7366 -0.9398,0.7366 -0.5334,0 -0.9652,-0.2794 -0.9652,-0.75354 h -0.52493 c 0,0.77894 0.70273,1.23614 1.48166,1.23614 z"
           style="font-style:normal;font-variant:normal;font-weight:normal;font-stretch:normal;font-size:8.46666718px;font-family:'Nordique Pro';-inkscape-font-specification:'Nordique Pro, Normal';font-variant-ligatures:normal;font-variant-caps:normal;font-variant-numeric:normal;font-feature-settings:normal;text-align:start;writing-mode:lr-tb;text-anchor:start;stroke-width:0.26458335"
           id="path601" />
        <path
           d="m 139.57183,222.67697 v -0.51647 h -1.0668 v -1.33773 h -0.54187 v 1.33773 h -0.635 v 0.51647 h 0.635 v 1.71873 c 0,1.2954 0.6604,1.9304 1.60867,2.02354 v -0.52494 c -0.6604,-0.1016 -1.0668,-0.57573 -1.0668,-1.51553 v -1.7018 z"
           style="font-style:normal;font-variant:normal;font-weight:normal;font-stretch:normal;font-size:8.46666718px;font-family:'Nordique Pro';-inkscape-font-specification:'Nordique Pro, Normal';font-variant-ligatures:normal;font-variant-caps:normal;font-variant-numeric:normal;font-feature-settings:normal;text-align:start;writing-mode:lr-tb;text-anchor:start;stroke-width:0.26458335"
           id="path603" />
        <path
           d="m 139.74447,224.28563 c 0,1.20227 0.9398,2.17594 2.159,2.17594 0.8128,0 1.5748,-0.44027 1.96427,-1.12607 h -0.6604 c -0.29634,0.36407 -0.77047,0.6096 -1.31234,0.6096 -0.889,0 -1.5494,-0.6604 -1.58326,-1.4986 h 3.72533 c 0.008,-0.0677 0.0169,-0.14393 0.008,-0.2286 -0.0339,-1.27 -1.00754,-2.12513 -2.15054,-2.12513 -1.2192,0 -2.15053,0.9906 -2.15053,2.19286 z m 0.56727,-0.29633 c 0.127,-0.762 0.75353,-1.38007 1.59173,-1.38007 0.8128,0 1.43087,0.60114 1.56633,1.38007 z"
           style="font-style:normal;font-variant:normal;font-weight:normal;font-stretch:normal;font-size:8.46666718px;font-family:'Nordique Pro';-inkscape-font-specification:'Nordique Pro, Normal';font-variant-ligatures:normal;font-variant-caps:normal;font-variant-numeric:normal;font-feature-settings:normal;text-align:start;writing-mode:lr-tb;text-anchor:start;stroke-width:0.26458335"
           id="path605" />
        <path
           d="m 144.51623,226.39384 h 0.54187 v -2.20134 c 0,-1.04987 0.4826,-1.54093 1.1938,-1.54093 0.0423,0 0.0847,0 0.127,0.008 v -0.51646 c -0.0423,-0.008 -0.0847,-0.008 -0.127,-0.008 -1.016,0 -1.73567,0.64347 -1.73567,2.0574 z"
           style="font-style:normal;font-variant:normal;font-weight:normal;font-stretch:normal;font-size:8.46666718px;font-family:'Nordique Pro';-inkscape-font-specification:'Nordique Pro, Normal';font-variant-ligatures:normal;font-variant-caps:normal;font-variant-numeric:normal;font-feature-settings:normal;text-align:start;writing-mode:lr-tb;text-anchor:start;stroke-width:0.26458335"
           id="path607" />
        <path
           d="m 147.43128,226.39384 h 0.54187 v -3.71687 h 1.0668 v -0.51647 h -1.04987 c 0.0593,-0.7112 0.4826,-1.10913 1.04987,-1.20227 v -0.51646 c -0.9144,0.0847 -1.4986,0.67733 -1.59174,1.71873 h -0.65193 v 0.51647 h 0.635 z m 2.45533,-4.96994 c 0.19474,0 0.34714,-0.14393 0.34714,-0.34713 0,-0.19474 -0.1524,-0.33867 -0.34714,-0.33867 -0.19473,0 -0.34713,0.14393 -0.34713,0.33867 0,0.2032 0.1524,0.34713 0.34713,0.34713 z m -0.27093,4.96994 h 0.54187 v -4.23334 h -0.54187 z"
           style="font-style:normal;font-variant:normal;font-weight:normal;font-stretch:normal;font-size:8.46666718px;font-family:'Nordique Pro';-inkscape-font-specification:'Nordique Pro, Normal';font-variant-ligatures:normal;font-variant-caps:normal;font-variant-numeric:normal;font-feature-settings:normal;text-align:start;writing-mode:lr-tb;text-anchor:start;stroke-width:0.26458335"
           id="path609" />
        <path
           d="m 150.69161,224.28563 c 0,1.20227 0.9398,2.17594 2.159,2.17594 0.8128,0 1.5748,-0.44027 1.96426,-1.12607 h -0.6604 c -0.29633,0.36407 -0.77046,0.6096 -1.31233,0.6096 -0.889,0 -1.5494,-0.6604 -1.58327,-1.4986 h 3.72534 c 0.008,-0.0677 0.0169,-0.14393 0.008,-0.2286 -0.0339,-1.27 -1.00753,-2.12513 -2.15053,-2.12513 -1.2192,0 -2.15053,0.9906 -2.15053,2.19286 z m 0.56726,-0.29633 c 0.127,-0.762 0.75354,-1.38007 1.59174,-1.38007 0.8128,0 1.43086,0.60114 1.56633,1.38007 z"
           style="font-style:normal;font-variant:normal;font-weight:normal;font-stretch:normal;font-size:8.46666718px;font-family:'Nordique Pro';-inkscape-font-specification:'Nordique Pro, Normal';font-variant-ligatures:normal;font-variant-caps:normal;font-variant-numeric:normal;font-feature-settings:normal;text-align:start;writing-mode:lr-tb;text-anchor:start;stroke-width:0.26458335"
           id="path611" />
        <path
           d="m 156.00523,226.39384 v -5.92667 h -0.54186 v 5.92667 z"
           style="font-style:normal;font-variant:normal;font-weight:normal;font-stretch:normal;font-size:8.46666718px;font-family:'Nordique Pro';-inkscape-font-specification:'Nordique Pro, Normal';font-variant-ligatures:normal;font-variant-caps:normal;font-variant-numeric:normal;font-feature-settings:normal;text-align:start;writing-mode:lr-tb;text-anchor:start;stroke-width:0.26458335"
           id="path613" />
        <path
           d="m 160.82316,224.27717 v -3.81 h -0.54186 v 2.53153 c -0.33867,-0.5334 -0.93134,-0.90593 -1.63407,-0.90593 -1.20227,0 -2.1844,0.97366 -2.1844,2.1844 0,1.21073 0.98213,2.1844 2.1844,2.1844 1.20227,0 2.17593,-0.97367 2.17593,-2.1844 z m -2.17593,-1.66794 c 0.92287,0 1.64253,0.7366 1.64253,1.66794 0,0.93133 -0.70273,1.66793 -1.64253,1.66793 -0.93133,0 -1.64253,-0.7366 -1.64253,-1.66793 0,-0.93134 0.72813,-1.66794 1.64253,-1.66794 z"
           style="font-style:normal;font-variant:normal;font-weight:normal;font-stretch:normal;font-size:8.46666718px;font-family:'Nordique Pro';-inkscape-font-specification:'Nordique Pro, Normal';font-variant-ligatures:normal;font-variant-caps:normal;font-variant-numeric:normal;font-feature-settings:normal;text-align:start;writing-mode:lr-tb;text-anchor:start;stroke-width:0.26458335"
           id="path615" />
        <path
           d="m 161.17294,226.96957 v -0.28787 c 0.2286,-0.0847 0.24554,-0.31326 0.24554,-0.60113 v -0.5334 h 0.54186 v 0.59267 c 0,0.54186 -0.31326,0.7874 -0.7874,0.82973 z"
           style="font-style:normal;font-variant:normal;font-weight:normal;font-stretch:normal;font-size:8.46666718px;font-family:'Nordique Pro';-inkscape-font-specification:'Nordique Pro, Normal';font-variant-ligatures:normal;font-variant-caps:normal;font-variant-numeric:normal;font-feature-settings:normal;text-align:start;writing-mode:lr-tb;text-anchor:start;stroke-width:0.26458335"
           id="path617" />
        <path
           d="m 166.18323,226.39384 h 0.54186 l 1.8542,-4.23334 h -0.56726 l -1.55787,3.54754 -1.5494,-3.54754 h -0.56727 z"
           style="font-style:normal;font-variant:normal;font-weight:normal;font-stretch:normal;font-size:8.46666718px;font-family:'Nordique Pro';-inkscape-font-specification:'Nordique Pro, Normal';font-variant-ligatures:normal;font-variant-caps:normal;font-variant-numeric:normal;font-feature-settings:normal;text-align:start;writing-mode:lr-tb;text-anchor:start;stroke-width:0.26458335"
           id="path619" />
        <path
           d="m 170.73538,226.46157 c 0.71967,0 1.35467,-0.41487 1.63407,-0.97367 v 0.90594 h 0.54186 v -2.11667 c 0,-1.21074 -0.97366,-2.1844 -2.17593,-2.1844 -1.20227,0 -2.1844,0.97366 -2.1844,2.1844 0,1.21073 0.98213,2.1844 2.1844,2.1844 z m 0.008,-0.51647 c -0.9144,0 -1.651,-0.7366 -1.651,-1.66793 0,-0.93134 0.71966,-1.66794 1.651,-1.66794 0.93133,0 1.63406,0.7366 1.63406,1.66794 0,0.93133 -0.71966,1.66793 -1.63406,1.66793 z"
           style="font-style:normal;font-variant:normal;font-weight:normal;font-stretch:normal;font-size:8.46666718px;font-family:'Nordique Pro';-inkscape-font-specification:'Nordique Pro, Normal';font-variant-ligatures:normal;font-variant-caps:normal;font-variant-numeric:normal;font-feature-settings:normal;text-align:start;writing-mode:lr-tb;text-anchor:start;stroke-width:0.26458335"
           id="path621" />
        <path
           d="m 175.5459,226.39384 h 3.54754 v -0.51647 h -2.9464 c 0.16933,-1.7272 2.921,-1.88807 2.921,-3.71687 0,-0.95673 -0.7874,-1.76107 -1.76107,-1.76107 -0.97367,0 -1.76107,0.7874 -1.76107,1.76107 h 0.54187 c 0,-0.66887 0.5588,-1.2446 1.2192,-1.2446 0.67733,0 1.2192,0.5588 1.2192,1.2446 0,1.6256 -2.98027,1.778 -2.98027,4.00474 z"
           style="font-style:normal;font-variant:normal;font-weight:normal;font-stretch:normal;font-size:8.46666718px;font-family:'Nordique Pro';-inkscape-font-specification:'Nordique Pro, Normal';font-variant-ligatures:normal;font-variant-caps:normal;font-variant-numeric:normal;font-feature-settings:normal;text-align:start;writing-mode:lr-tb;text-anchor:start;stroke-width:0.26458335"
           id="path623" />
        <path
           d="m 181.34345,226.4531 c 1.02447,0 1.83727,-0.762 1.83727,-1.778 0,-0.82127 -0.49107,-1.40547 -1.15993,-1.64253 0.508,-0.254 0.77893,-0.70274 0.77893,-1.25307 0,-0.82127 -0.64347,-1.38007 -1.46473,-1.38007 -0.8128,0 -1.46474,0.59267 -1.46474,1.40547 h 0.54187 c 0,-0.49107 0.36407,-0.89747 0.93133,-0.89747 0.54187,0 0.9144,0.39794 0.9144,0.9398 0,0.5588 -0.4572,0.9652 -1.016,0.9652 h -0.127 l 0.008,0.46567 h 0.13547 c 0.7874,0 1.38006,0.5588 1.38006,1.33773 0,0.77047 -0.5334,1.32081 -1.30386,1.32081 -0.71967,0 -1.30387,-0.52494 -1.30387,-1.24461 h -0.54187 c 0,1.02447 0.8382,1.76107 1.8542,1.76107 z"
           style="font-style:normal;font-variant:normal;font-weight:normal;font-stretch:normal;font-size:8.46666718px;font-family:'Nordique Pro';-inkscape-font-specification:'Nordique Pro, Normal';font-variant-ligatures:normal;font-variant-caps:normal;font-variant-numeric:normal;font-feature-settings:normal;text-align:start;writing-mode:lr-tb;text-anchor:start;stroke-width:0.26458335"
           id="path625" />
        <path
           d="m 183.58262,226.39384 h 3.54754 v -0.51647 h -2.9464 c 0.16933,-1.7272 2.921,-1.88807 2.921,-3.71687 0,-0.95673 -0.7874,-1.76107 -1.76107,-1.76107 -0.97367,0 -1.76107,0.7874 -1.76107,1.76107 h 0.54187 c 0,-0.66887 0.5588,-1.2446 1.2192,-1.2446 0.67733,0 1.2192,0.5588 1.2192,1.2446 0,1.6256 -2.98027,1.778 -2.98027,4.00474 z"
           style="font-style:normal;font-variant:normal;font-weight:normal;font-stretch:normal;font-size:8.46666718px;font-family:'Nordique Pro';-inkscape-font-specification:'Nordique Pro, Normal';font-variant-ligatures:normal;font-variant-caps:normal;font-variant-numeric:normal;font-feature-settings:normal;text-align:start;writing-mode:lr-tb;text-anchor:start;stroke-width:0.26458335"
           id="path627" />
        <path
           d="m 189.38017,226.4531 c 1.02447,0 1.83727,-0.762 1.83727,-1.778 0,-0.82127 -0.49107,-1.40547 -1.15993,-1.64253 0.508,-0.254 0.77893,-0.70274 0.77893,-1.25307 0,-0.82127 -0.64347,-1.38007 -1.46473,-1.38007 -0.8128,0 -1.46474,0.59267 -1.46474,1.40547 h 0.54187 c 0,-0.49107 0.36407,-0.89747 0.93133,-0.89747 0.54187,0 0.9144,0.39794 0.9144,0.9398 0,0.5588 -0.4572,0.9652 -1.016,0.9652 h -0.127 l 0.008,0.46567 h 0.13547 c 0.7874,0 1.38006,0.5588 1.38006,1.33773 0,0.77047 -0.5334,1.32081 -1.30386,1.32081 -0.71967,0 -1.30387,-0.52494 -1.30387,-1.24461 h -0.54187 c 0,1.02447 0.8382,1.76107 1.8542,1.76107 z"
           style="font-style:normal;font-variant:normal;font-weight:normal;font-stretch:normal;font-size:8.46666718px;font-family:'Nordique Pro';-inkscape-font-specification:'Nordique Pro, Normal';font-variant-ligatures:normal;font-variant-caps:normal;font-variant-numeric:normal;font-feature-settings:normal;text-align:start;writing-mode:lr-tb;text-anchor:start;stroke-width:0.26458335"
           id="path629" />
        <path
           d="m 193.80374,226.46157 c 1.23614,0 2.1844,-0.93133 2.1844,-2.16747 0,-1.2446 -0.9652,-2.17593 -2.20133,-2.17593 -0.28787,0 -0.5588,0.0677 -0.7874,0.2032 l 0.3556,-1.33774 h 2.21827 v -0.51646 h -2.60774 l -0.62653,2.29446 0.4318,0.2286 c 0.2794,-0.2286 0.62653,-0.3556 1.02447,-0.3556 0.95673,0 1.651,0.70274 1.651,1.65947 0,0.9398 -0.70274,1.651 -1.63407,1.651 -0.93133,0 -1.651,-0.71967 -1.651,-1.66793 h -0.54187 c 0,1.23613 0.94827,2.1844 2.1844,2.1844 z"
           style="font-style:normal;font-variant:normal;font-weight:normal;font-stretch:normal;font-size:8.46666718px;font-family:'Nordique Pro';-inkscape-font-specification:'Nordique Pro, Normal';font-variant-ligatures:normal;font-variant-caps:normal;font-variant-numeric:normal;font-feature-settings:normal;text-align:start;writing-mode:lr-tb;text-anchor:start;stroke-width:0.26458335"
           id="path631" />
        <path
           d="m 115.26456,230.73724 h -0.60114 c -0.69426,0.80433 -1.26153,2.3876 -1.26153,3.9624 0,1.58326 0.56727,3.16653 1.26153,3.97086 h 0.60114 c -0.6858,-0.80433 -1.3208,-2.3876 -1.3208,-3.97086 0,-1.5748 0.635,-3.15807 1.3208,-3.9624 z"
           style="font-style:normal;font-variant:normal;font-weight:normal;font-stretch:normal;font-size:8.46666718px;font-family:'Nordique Pro';-inkscape-font-specification:'Nordique Pro, Normal';font-variant-ligatures:normal;font-variant-caps:normal;font-variant-numeric:normal;font-feature-settings:normal;text-align:start;writing-mode:lr-tb;text-anchor:start;stroke-width:0.26458335"
           id="path633" />
        <path
           d="m 117.11743,237.0449 c 1.08374,0 1.89654,-0.8128 1.89654,-1.83726 0,-0.7366 -0.42334,-1.3462 -1.04987,-1.63407 0.4064,-0.24553 0.6604,-0.67733 0.6604,-1.1684 0,-0.77893 -0.64347,-1.4224 -1.50707,-1.4224 -0.87206,0 -1.50706,0.64347 -1.50706,1.4224 0,0.49107 0.254,0.92287 0.65193,1.17687 -0.61807,0.2794 -1.0414,0.89746 -1.0414,1.6256 0,1.02446 0.82127,1.83726 1.89653,1.83726 z m -0.008,-3.7084 c -0.55034,0 -0.94827,-0.39793 -0.94827,-0.92286 0,-0.51647 0.39793,-0.9144 0.94827,-0.9144 0.5588,0 0.94826,0.39793 0.94826,0.9144 0,0.52493 -0.38946,0.92286 -0.94826,0.92286 z m 0.008,3.19194 c -0.762,0 -1.33773,-0.5842 -1.33773,-1.33774 0,-0.75353 0.57573,-1.32926 1.33773,-1.32926 0.77047,0 1.3462,0.57573 1.3462,1.32926 0,0.762 -0.57573,1.33774 -1.3462,1.33774 z"
           style="font-style:normal;font-variant:normal;font-weight:normal;font-stretch:normal;font-size:8.46666718px;font-family:'Nordique Pro';-inkscape-font-specification:'Nordique Pro, Normal';font-variant-ligatures:normal;font-variant-caps:normal;font-variant-numeric:normal;font-feature-settings:normal;text-align:start;writing-mode:lr-tb;text-anchor:start;stroke-width:0.26458335"
           id="path635" />
        <path
           d="m 121.6983,230.9743 c -1.3716,0 -2.2606,1.27 -2.2606,3.03954 0,1.76953 0.889,3.03953 2.2606,3.03953 1.3716,0 2.25213,-1.27 2.25213,-3.03953 0,-1.76954 -0.88053,-3.03954 -2.25213,-3.03954 z m 0,0.51647 c 1.00753,0 1.71026,1.016 1.71026,2.52307 0,1.50706 -0.70273,2.52306 -1.71026,2.52306 -1.016,0 -1.71874,-1.00753 -1.71874,-2.52306 0,-1.51554 0.70274,-2.52307 1.71874,-2.52307 z"
           style="font-style:normal;font-variant:normal;font-weight:normal;font-stretch:normal;font-size:8.46666718px;font-family:'Nordique Pro';-inkscape-font-specification:'Nordique Pro, Normal';font-variant-ligatures:normal;font-variant-caps:normal;font-variant-numeric:normal;font-feature-settings:normal;text-align:start;writing-mode:lr-tb;text-anchor:start;stroke-width:0.26458335"
           id="path637" />
        <path
           d="m 128.46303,234.9113 h -0.74506 v -3.8608 h -0.54187 l -2.83633,3.8608 v 0.49954 h 2.83633 v 1.56633 h 0.54187 v -1.56633 h 0.74506 z m -3.48826,0 2.20133,-2.96333 v 2.96333 z"
           style="font-style:normal;font-variant:normal;font-weight:normal;font-stretch:normal;font-size:8.46666718px;font-family:'Nordique Pro';-inkscape-font-specification:'Nordique Pro, Normal';font-variant-ligatures:normal;font-variant-caps:normal;font-variant-numeric:normal;font-feature-settings:normal;text-align:start;writing-mode:lr-tb;text-anchor:start;stroke-width:0.26458335"
           id="path639" />
        <path
           d="m 128.58567,230.73724 c 0.6858,0.80433 1.3208,2.3876 1.3208,3.9624 0,1.58326 -0.635,3.16653 -1.3208,3.97086 h 0.60113 c 0.69427,-0.80433 1.26153,-2.3876 1.26153,-3.97086 0,-1.5748 -0.56726,-3.15807 -1.26153,-3.9624 z"
           style="font-style:normal;font-variant:normal;font-weight:normal;font-stretch:normal;font-size:8.46666718px;font-family:'Nordique Pro';-inkscape-font-specification:'Nordique Pro, Normal';font-variant-ligatures:normal;font-variant-caps:normal;font-variant-numeric:normal;font-feature-settings:normal;text-align:start;writing-mode:lr-tb;text-anchor:start;stroke-width:0.26458335"
           id="path641" />
        <path
           d="m 134.85947,237.03644 c 1.02446,0 1.83726,-0.762 1.83726,-1.778 0,-0.82127 -0.49106,-1.40547 -1.15993,-1.64254 0.508,-0.254 0.77893,-0.70273 0.77893,-1.25306 0,-0.82127 -0.64346,-1.38007 -1.46473,-1.38007 -0.8128,0 -1.46473,0.59267 -1.46473,1.40547 h 0.54186 c 0,-0.49107 0.36407,-0.89747 0.93134,-0.89747 0.54186,0 0.9144,0.39793 0.9144,0.9398 0,0.5588 -0.4572,0.9652 -1.016,0.9652 h -0.127 l 0.008,0.46567 h 0.13547 c 0.7874,0 1.38007,0.5588 1.38007,1.33773 0,0.77047 -0.5334,1.3208 -1.30387,1.3208 -0.71967,0 -1.30387,-0.52493 -1.30387,-1.2446 h -0.54186 c 0,1.02447 0.8382,1.76107 1.8542,1.76107 z"
           style="font-style:normal;font-variant:normal;font-weight:normal;font-stretch:normal;font-size:8.46666718px;font-family:'Nordique Pro';-inkscape-font-specification:'Nordique Pro, Normal';font-variant-ligatures:normal;font-variant-caps:normal;font-variant-numeric:normal;font-feature-settings:normal;text-align:start;writing-mode:lr-tb;text-anchor:start;stroke-width:0.26458335"
           id="path643" />
        <path
           d="m 138.92744,237.03644 c 1.02446,0 1.83726,-0.762 1.83726,-1.778 0,-0.82127 -0.49106,-1.40547 -1.15993,-1.64254 0.508,-0.254 0.77893,-0.70273 0.77893,-1.25306 0,-0.82127 -0.64346,-1.38007 -1.46473,-1.38007 -0.8128,0 -1.46473,0.59267 -1.46473,1.40547 h 0.54186 c 0,-0.49107 0.36407,-0.89747 0.93134,-0.89747 0.54186,0 0.9144,0.39793 0.9144,0.9398 0,0.5588 -0.4572,0.9652 -1.016,0.9652 h -0.127 l 0.008,0.46567 h 0.13547 c 0.7874,0 1.38007,0.5588 1.38007,1.33773 0,0.77047 -0.5334,1.3208 -1.30387,1.3208 -0.71967,0 -1.30387,-0.52493 -1.30387,-1.2446 h -0.54186 c 0,1.02447 0.8382,1.76107 1.8542,1.76107 z"
           style="font-style:normal;font-variant:normal;font-weight:normal;font-stretch:normal;font-size:8.46666718px;font-family:'Nordique Pro';-inkscape-font-specification:'Nordique Pro, Normal';font-variant-ligatures:normal;font-variant-caps:normal;font-variant-numeric:normal;font-feature-settings:normal;text-align:start;writing-mode:lr-tb;text-anchor:start;stroke-width:0.26458335"
           id="path645" />
        <path
           d="m 143.35101,237.0449 c 1.23613,0 2.1844,-0.93133 2.1844,-2.16746 0,-1.2446 -0.9652,-2.17594 -2.20134,-2.17594 -0.28786,0 -0.5588,0.0677 -0.7874,0.2032 l 0.3556,-1.33773 h 2.21827 v -0.51647 h -2.60773 l -0.62654,2.29447 0.4318,0.2286 c 0.2794,-0.2286 0.62654,-0.3556 1.02447,-0.3556 0.95673,0 1.651,0.70273 1.651,1.65947 0,0.9398 -0.70273,1.651 -1.63407,1.651 -0.93133,0 -1.651,-0.71967 -1.651,-1.66794 h -0.54186 c 0,1.23614 0.94826,2.1844 2.1844,2.1844 z"
           style="font-style:normal;font-variant:normal;font-weight:normal;font-stretch:normal;font-size:8.46666718px;font-family:'Nordique Pro';-inkscape-font-specification:'Nordique Pro, Normal';font-variant-ligatures:normal;font-variant-caps:normal;font-variant-numeric:normal;font-feature-settings:normal;text-align:start;writing-mode:lr-tb;text-anchor:start;stroke-width:0.26458335"
           id="path647" />
        <path
           d="m 148.26511,234.52184 h -2.30293 v 0.51646 h 2.30293 z"
           style="font-style:normal;font-variant:normal;font-weight:normal;font-stretch:normal;font-size:8.46666718px;font-family:'Nordique Pro';-inkscape-font-specification:'Nordique Pro, Normal';font-variant-ligatures:normal;font-variant-caps:normal;font-variant-numeric:normal;font-feature-settings:normal;text-align:start;writing-mode:lr-tb;text-anchor:start;stroke-width:0.26458335"
           id="path649" />
        <path
           d="m 150.87509,237.0449 c 1.21074,0 2.1844,-0.97366 2.1844,-2.1844 0,-1.1684 -0.9144,-2.159 -2.12513,-2.159 -0.44027,0 -0.8382,0.1778 -1.0922,0.381 0.42333,-0.6096 1.1176,-1.2446 1.89653,-1.53246 v -0.49954 c -1.38853,0.33867 -3.048,2.15054 -3.048,3.81 0,1.23614 0.98214,2.1844 2.1844,2.1844 z m 0.008,-0.51646 c -0.9144,0 -1.651,-0.7366 -1.651,-1.6764 0.008,-0.92287 0.72813,-1.65947 1.651,-1.65947 0.93133,0 1.63407,0.7366 1.63407,1.66793 0,0.92287 -0.72814,1.66794 -1.63407,1.66794 z"
           style="font-style:normal;font-variant:normal;font-weight:normal;font-stretch:normal;font-size:8.46666718px;font-family:'Nordique Pro';-inkscape-font-specification:'Nordique Pro, Normal';font-variant-ligatures:normal;font-variant-caps:normal;font-variant-numeric:normal;font-feature-settings:normal;text-align:start;writing-mode:lr-tb;text-anchor:start;stroke-width:0.26458335"
           id="path651" />
        <path
           d="m 155.74687,230.9743 c -1.3716,0 -2.2606,1.27 -2.2606,3.03954 0,1.76953 0.889,3.03953 2.2606,3.03953 1.3716,0 2.25213,-1.27 2.25213,-3.03953 0,-1.76954 -0.88053,-3.03954 -2.25213,-3.03954 z m 0,0.51647 c 1.00753,0 1.71026,1.016 1.71026,2.52307 0,1.50706 -0.70273,2.52306 -1.71026,2.52306 -1.016,0 -1.71874,-1.00753 -1.71874,-2.52306 0,-1.51554 0.70274,-2.52307 1.71874,-2.52307 z"
           style="font-style:normal;font-variant:normal;font-weight:normal;font-stretch:normal;font-size:8.46666718px;font-family:'Nordique Pro';-inkscape-font-specification:'Nordique Pro, Normal';font-variant-ligatures:normal;font-variant-caps:normal;font-variant-numeric:normal;font-feature-settings:normal;text-align:start;writing-mode:lr-tb;text-anchor:start;stroke-width:0.26458335"
           id="path653" />
        <path
           d="m 162.5116,234.9113 h -0.74506 v -3.8608 h -0.54187 l -2.83633,3.8608 v 0.49954 h 2.83633 v 1.56633 h 0.54187 v -1.56633 h 0.74506 z m -3.48826,0 2.20133,-2.96333 v 2.96333 z"
           style="font-style:normal;font-variant:normal;font-weight:normal;font-stretch:normal;font-size:8.46666718px;font-family:'Nordique Pro';-inkscape-font-specification:'Nordique Pro, Normal';font-variant-ligatures:normal;font-variant-caps:normal;font-variant-numeric:normal;font-feature-settings:normal;text-align:start;writing-mode:lr-tb;text-anchor:start;stroke-width:0.26458335"
           id="path655" />
        <path
           d="m 162.8459,236.97717 h 3.54754 v -0.51647 h -2.9464 c 0.16933,-1.7272 2.921,-1.88806 2.921,-3.71686 0,-0.95674 -0.7874,-1.76107 -1.76107,-1.76107 -0.97367,0 -1.76107,0.7874 -1.76107,1.76107 h 0.54187 c 0,-0.66887 0.5588,-1.2446 1.2192,-1.2446 0.67733,0 1.2192,0.5588 1.2192,1.2446 0,1.6256 -2.98027,1.778 -2.98027,4.00473 z"
           style="font-style:normal;font-variant:normal;font-weight:normal;font-stretch:normal;font-size:8.46666718px;font-family:'Nordique Pro';-inkscape-font-specification:'Nordique Pro, Normal';font-variant-ligatures:normal;font-variant-caps:normal;font-variant-numeric:normal;font-feature-settings:normal;text-align:start;writing-mode:lr-tb;text-anchor:start;stroke-width:0.26458335"
           id="path657" />
        <path
           d="m 113.44422,245.44384 c 0,1.21073 0.97367,2.1844 2.17594,2.1844 1.20226,0 2.1844,-0.97367 2.1844,-2.1844 0,-1.21074 -0.98214,-2.1844 -2.1844,-2.1844 -0.70274,0 -1.2954,0.37253 -1.63407,0.90593 v -2.53153 h -0.54187 z m 2.17594,-1.66794 c 0.9144,0 1.64253,0.7366 1.64253,1.66794 0,0.93133 -0.7112,1.66793 -1.64253,1.66793 -0.9398,0 -1.64254,-0.7366 -1.64254,-1.66793 0,-0.93134 0.71967,-1.66794 1.64254,-1.66794 z"
           style="font-style:normal;font-variant:normal;font-weight:normal;font-stretch:normal;font-size:8.46666718px;font-family:'Nordique Pro';-inkscape-font-specification:'Nordique Pro, Normal';font-variant-ligatures:normal;font-variant-caps:normal;font-variant-numeric:normal;font-feature-settings:normal;text-align:start;writing-mode:lr-tb;text-anchor:start;stroke-width:0.26458335"
           id="path659" />
        <path
           d="m 120.33225,243.25944 c -1.20226,0 -2.1844,0.97366 -2.1844,2.1844 0,1.21073 0.98214,2.1844 2.1844,2.1844 1.21074,0 2.1844,-0.97367 2.1844,-2.1844 0,-1.21074 -0.97366,-2.1844 -2.1844,-2.1844 z m 0.008,0.51646 c 0.93133,0 1.63407,0.7366 1.63407,1.66794 0,0.93133 -0.71967,1.66793 -1.63407,1.66793 -0.9144,0 -1.651,-0.7366 -1.651,-1.66793 0,-0.93134 0.71967,-1.66794 1.651,-1.66794 z"
           style="font-style:normal;font-variant:normal;font-weight:normal;font-stretch:normal;font-size:8.46666718px;font-family:'Nordique Pro';-inkscape-font-specification:'Nordique Pro, Normal';font-variant-ligatures:normal;font-variant-caps:normal;font-variant-numeric:normal;font-feature-settings:normal;text-align:start;writing-mode:lr-tb;text-anchor:start;stroke-width:0.26458335"
           id="path661" />
        <path
           d="m 126.71109,247.5605 h -0.54186 v -2.22673 c 0,-1.05833 -0.5334,-1.55787 -1.3208,-1.55787 -0.7874,0 -1.3208,0.49954 -1.3208,1.55787 v 2.22673 h -0.54187 v -2.22673 c 0,-1.4224 0.77893,-2.07433 1.86267,-2.07433 1.08373,0 1.86266,0.65193 1.86266,2.07433 z"
           style="font-style:normal;font-variant:normal;font-weight:normal;font-stretch:normal;font-size:8.46666718px;font-family:'Nordique Pro';-inkscape-font-specification:'Nordique Pro, Normal';font-variant-ligatures:normal;font-variant-caps:normal;font-variant-numeric:normal;font-feature-settings:normal;text-align:start;writing-mode:lr-tb;text-anchor:start;stroke-width:0.26458335"
           id="path663" />
        <path
           d="m 129.36116,247.62824 c 0.71967,0 1.35467,-0.41487 1.63407,-0.97367 v 0.90593 h 0.54186 v -2.11666 c 0,-1.21074 -0.97366,-2.1844 -2.17593,-2.1844 -1.20227,0 -2.1844,0.97366 -2.1844,2.1844 0,1.21073 0.98213,2.1844 2.1844,2.1844 z m 0.008,-0.51647 c -0.9144,0 -1.651,-0.7366 -1.651,-1.66793 0,-0.93134 0.71966,-1.66794 1.651,-1.66794 0.93133,0 1.63406,0.7366 1.63406,1.66794 0,0.93133 -0.71966,1.66793 -1.63406,1.66793 z"
           style="font-style:normal;font-variant:normal;font-weight:normal;font-stretch:normal;font-size:8.46666718px;font-family:'Nordique Pro';-inkscape-font-specification:'Nordique Pro, Normal';font-variant-ligatures:normal;font-variant-caps:normal;font-variant-numeric:normal;font-feature-settings:normal;text-align:start;writing-mode:lr-tb;text-anchor:start;stroke-width:0.26458335"
           id="path665" />
        <path
           d="m 132.47756,242.59057 c 0.19473,0 0.34713,-0.14393 0.34713,-0.34713 0,-0.19474 -0.1524,-0.33867 -0.34713,-0.33867 -0.19474,0 -0.34714,0.14393 -0.34714,0.33867 0,0.2032 0.1524,0.34713 0.34714,0.34713 z m -0.27094,4.96993 h 0.54187 v -4.23333 h -0.54187 z"
           style="font-style:normal;font-variant:normal;font-weight:normal;font-stretch:normal;font-size:8.46666718px;font-family:'Nordique Pro';-inkscape-font-specification:'Nordique Pro, Normal';font-variant-ligatures:normal;font-variant-caps:normal;font-variant-numeric:normal;font-feature-settings:normal;text-align:start;writing-mode:lr-tb;text-anchor:start;stroke-width:0.26458335"
           id="path667" />
        <path
           d="m 133.50295,247.5605 h 0.54187 v -2.20133 c 0,-1.04987 0.4826,-1.54093 1.1938,-1.54093 0.0423,0 0.0847,0 0.127,0.008 v -0.51646 c -0.0423,-0.008 -0.0847,-0.008 -0.127,-0.008 -1.016,0 -1.73567,0.64347 -1.73567,2.0574 z"
           style="font-style:normal;font-variant:normal;font-weight:normal;font-stretch:normal;font-size:8.46666718px;font-family:'Nordique Pro';-inkscape-font-specification:'Nordique Pro, Normal';font-variant-ligatures:normal;font-variant-caps:normal;font-variant-numeric:normal;font-feature-settings:normal;text-align:start;writing-mode:lr-tb;text-anchor:start;stroke-width:0.26458335"
           id="path669" />
        <path
           d="m 139.78879,245.44384 c 0,-1.21074 -0.97367,-2.1844 -2.17594,-2.1844 -1.20226,0 -2.1844,0.97366 -2.1844,2.1844 0,1.21073 0.98214,2.1844 2.1844,2.1844 0.70274,0 1.2954,-0.37254 1.63407,-0.90594 v 2.53154 h 0.54187 z m -2.17594,1.66793 c -0.9144,0 -1.64253,-0.7366 -1.64253,-1.66793 0,-0.93134 0.7112,-1.66794 1.64253,-1.66794 0.9398,0 1.64254,0.7366 1.64254,1.66794 0,0.93133 -0.71967,1.66793 -1.64254,1.66793 z"
           style="font-style:normal;font-variant:normal;font-weight:normal;font-stretch:normal;font-size:8.46666718px;font-family:'Nordique Pro';-inkscape-font-specification:'Nordique Pro, Normal';font-variant-ligatures:normal;font-variant-caps:normal;font-variant-numeric:normal;font-feature-settings:normal;text-align:start;writing-mode:lr-tb;text-anchor:start;stroke-width:0.26458335"
           id="path671" />
        <path
           d="m 144.02477,243.32717 v 2.22673 c 0,1.4224 -0.77894,2.07434 -1.86267,2.07434 -1.08373,0 -1.86267,-0.65194 -1.86267,-2.07434 v -2.22673 h 0.54187 v 2.22673 c 0,1.05834 0.5334,1.55787 1.3208,1.55787 0.7874,0 1.3208,-0.49953 1.3208,-1.55787 v -2.22673 z"
           style="font-style:normal;font-variant:normal;font-weight:normal;font-stretch:normal;font-size:8.46666718px;font-family:'Nordique Pro';-inkscape-font-specification:'Nordique Pro, Normal';font-variant-ligatures:normal;font-variant-caps:normal;font-variant-numeric:normal;font-feature-settings:normal;text-align:start;writing-mode:lr-tb;text-anchor:start;stroke-width:0.26458335"
           id="path673" />
        <path
           d="m 144.96258,242.59057 c 0.19474,0 0.34714,-0.14393 0.34714,-0.34713 0,-0.19474 -0.1524,-0.33867 -0.34714,-0.33867 -0.19473,0 -0.34713,0.14393 -0.34713,0.33867 0,0.2032 0.1524,0.34713 0.34713,0.34713 z m -0.27093,4.96993 h 0.54187 v -4.23333 h -0.54187 z"
           style="font-style:normal;font-variant:normal;font-weight:normal;font-stretch:normal;font-size:8.46666718px;font-family:'Nordique Pro';-inkscape-font-specification:'Nordique Pro, Normal';font-variant-ligatures:normal;font-variant-caps:normal;font-variant-numeric:normal;font-feature-settings:normal;text-align:start;writing-mode:lr-tb;text-anchor:start;stroke-width:0.26458335"
           id="path675" />
        <path
           d="m 146.52984,247.5605 v -5.92666 h -0.54187 v 5.92666 z"
           style="font-style:normal;font-variant:normal;font-weight:normal;font-stretch:normal;font-size:8.46666718px;font-family:'Nordique Pro';-inkscape-font-specification:'Nordique Pro, Normal';font-variant-ligatures:normal;font-variant-caps:normal;font-variant-numeric:normal;font-feature-settings:normal;text-align:start;writing-mode:lr-tb;text-anchor:start;stroke-width:0.26458335"
           id="path677" />
        <path
           d="m 149.06376,243.84364 v -0.51647 h -1.0668 v -1.33773 h -0.54187 v 1.33773 h -0.635 v 0.51647 h 0.635 v 1.71873 c 0,1.2954 0.6604,1.9304 1.60867,2.02353 v -0.52493 c -0.6604,-0.1016 -1.0668,-0.57573 -1.0668,-1.51553 v -1.7018 z"
           style="font-style:normal;font-variant:normal;font-weight:normal;font-stretch:normal;font-size:8.46666718px;font-family:'Nordique Pro';-inkscape-font-specification:'Nordique Pro, Normal';font-variant-ligatures:normal;font-variant-caps:normal;font-variant-numeric:normal;font-feature-settings:normal;text-align:start;writing-mode:lr-tb;text-anchor:start;stroke-width:0.26458335"
           id="path679" />
        <path
           d="m 151.37119,247.62824 c 0.85513,0 1.59173,-0.49107 1.93886,-1.20227 h -0.60113 c -0.29633,0.4064 -0.77047,0.6858 -1.32927,0.6858 -0.9144,0 -1.651,-0.7366 -1.651,-1.66793 0,-0.93134 0.71967,-1.66794 1.651,-1.66794 0.5588,0 1.03294,0.26247 1.32927,0.67734 h 0.5842 c -0.33867,-0.70274 -1.0668,-1.1938 -1.92193,-1.1938 -1.20227,0 -2.1844,0.97366 -2.1844,2.1844 0,1.21073 0.98213,2.1844 2.1844,2.1844 z"
           style="font-style:normal;font-variant:normal;font-weight:normal;font-stretch:normal;font-size:8.46666718px;font-family:'Nordique Pro';-inkscape-font-specification:'Nordique Pro, Normal';font-variant-ligatures:normal;font-variant-caps:normal;font-variant-numeric:normal;font-feature-settings:normal;text-align:start;writing-mode:lr-tb;text-anchor:start;stroke-width:0.26458335"
           id="path681" />
        <path
           d="m 155.91871,243.25944 c -1.20226,0 -2.1844,0.97366 -2.1844,2.1844 0,1.21073 0.98214,2.1844 2.1844,2.1844 1.21074,0 2.1844,-0.97367 2.1844,-2.1844 0,-1.21074 -0.97366,-2.1844 -2.1844,-2.1844 z m 0.008,0.51646 c 0.93133,0 1.63407,0.7366 1.63407,1.66794 0,0.93133 -0.71967,1.66793 -1.63407,1.66793 -0.9144,0 -1.651,-0.7366 -1.651,-1.66793 0,-0.93134 0.71967,-1.66794 1.651,-1.66794 z"
           style="font-style:normal;font-variant:normal;font-weight:normal;font-stretch:normal;font-size:8.46666718px;font-family:'Nordique Pro';-inkscape-font-specification:'Nordique Pro, Normal';font-variant-ligatures:normal;font-variant-caps:normal;font-variant-numeric:normal;font-feature-settings:normal;text-align:start;writing-mode:lr-tb;text-anchor:start;stroke-width:0.26458335"
           id="path683" />
        <path
           d="m 158.36452,246.60377 h 0.54187 v 0.95673 h -0.54187 z"
           style="font-style:normal;font-variant:normal;font-weight:normal;font-stretch:normal;font-size:8.46666718px;font-family:'Nordique Pro';-inkscape-font-specification:'Nordique Pro, Normal';font-variant-ligatures:normal;font-variant-caps:normal;font-variant-numeric:normal;font-feature-settings:normal;text-align:start;writing-mode:lr-tb;text-anchor:start;stroke-width:0.26458335"
           id="path685" />
        <path
           d="m 161.50804,247.62824 c 0.85513,0 1.59173,-0.49107 1.93887,-1.20227 h -0.60114 c -0.29633,0.4064 -0.77046,0.6858 -1.32926,0.6858 -0.9144,0 -1.651,-0.7366 -1.651,-1.66793 0,-0.93134 0.71966,-1.66794 1.651,-1.66794 0.5588,0 1.03293,0.26247 1.32926,0.67734 h 0.5842 c -0.33866,-0.70274 -1.0668,-1.1938 -1.92193,-1.1938 -1.20227,0 -2.1844,0.97366 -2.1844,2.1844 0,1.21073 0.98213,2.1844 2.1844,2.1844 z"
           style="font-style:normal;font-variant:normal;font-weight:normal;font-stretch:normal;font-size:8.46666718px;font-family:'Nordique Pro';-inkscape-font-specification:'Nordique Pro, Normal';font-variant-ligatures:normal;font-variant-caps:normal;font-variant-numeric:normal;font-feature-settings:normal;text-align:start;writing-mode:lr-tb;text-anchor:start;stroke-width:0.26458335"
           id="path687" />
        <path
           d="m 166.05556,243.25944 c -1.20226,0 -2.1844,0.97366 -2.1844,2.1844 0,1.21073 0.98214,2.1844 2.1844,2.1844 1.21074,0 2.1844,-0.97367 2.1844,-2.1844 0,-1.21074 -0.97366,-2.1844 -2.1844,-2.1844 z m 0.008,0.51646 c 0.93133,0 1.63407,0.7366 1.63407,1.66794 0,0.93133 -0.71967,1.66793 -1.63407,1.66793 -0.9144,0 -1.651,-0.7366 -1.651,-1.66793 0,-0.93134 0.71967,-1.66794 1.651,-1.66794 z"
           style="font-style:normal;font-variant:normal;font-weight:normal;font-stretch:normal;font-size:8.46666718px;font-family:'Nordique Pro';-inkscape-font-specification:'Nordique Pro, Normal';font-variant-ligatures:normal;font-variant-caps:normal;font-variant-numeric:normal;font-feature-settings:normal;text-align:start;writing-mode:lr-tb;text-anchor:start;stroke-width:0.26458335"
           id="path689" />
        <path
           d="m 173.46734,243.25944 c -0.67734,0 -1.26154,0.32173 -1.4986,1.00753 -0.23707,-0.6858 -0.82127,-1.00753 -1.49014,-1.00753 -1.03293,0 -1.76953,0.65193 -1.76953,2.07433 v 2.22673 h 0.54187 v -2.22673 c 0,-1.05833 0.49106,-1.55787 1.22766,-1.55787 0.72814,0 1.2192,0.49954 1.2192,1.55787 v 2.22673 h 0.54187 v -2.22673 c 0,-1.05833 0.49107,-1.55787 1.22767,-1.55787 0.72813,0 1.2192,0.49954 1.2192,1.55787 v 2.22673 h 0.54186 v -2.22673 c 0,-1.4224 -0.7366,-2.07433 -1.76106,-2.07433 z"
           style="font-style:normal;font-variant:normal;font-weight:normal;font-stretch:normal;font-size:8.46666718px;font-family:'Nordique Pro';-inkscape-font-specification:'Nordique Pro, Normal';font-variant-ligatures:normal;font-variant-caps:normal;font-variant-numeric:normal;font-feature-settings:normal;text-align:start;writing-mode:lr-tb;text-anchor:start;stroke-width:0.26458335"
           id="path691" />
      </g>
    </g>
  </g>
</svg>
