<?xml version="1.0" encoding="UTF-8" standalone="no"?>
<!-- Created with Inkscape (http://www.inkscape.org/) -->

<svg
   xmlns:dc="http://purl.org/dc/elements/1.1/"
   xmlns:cc="http://creativecommons.org/ns#"
   xmlns:rdf="http://www.w3.org/1999/02/22-rdf-syntax-ns#"
   xmlns:svg="http://www.w3.org/2000/svg"
   xmlns="http://www.w3.org/2000/svg"
   xmlns:sodipodi="http://sodipodi.sourceforge.net/DTD/sodipodi-0.dtd"
   xmlns:inkscape="http://www.inkscape.org/namespaces/inkscape"
   width="1207.774"
   height="400"
   viewBox="0 0 319.55687 105.83334"
   version="1.1"
   id="svg351"
   inkscape:version="0.92.5 (2060ec1f9f, 2020-04-08)"
   sodipodi:docname="logo-black-social-hzt-2-raw.svg"
   inkscape:export-filename="/home/david/Dropbox/Dave and Heather's Super Secret Documents of Love/bon-air-quilt/logo/instagram.png"
   inkscape:export-xdpi="96"
   inkscape:export-ydpi="96">
  <defs
     id="defs345" />
  <sodipodi:namedview
     id="base"
     pagecolor="#ffffff"
     bordercolor="#666666"
     borderopacity="1.0"
     inkscape:pageopacity="0.0"
     inkscape:pageshadow="2"
     inkscape:zoom="0.99220198"
     inkscape:cx="685.50342"
     inkscape:cy="122.26498"
     inkscape:document-units="px"
     inkscape:current-layer="layer1"
     showgrid="false"
     inkscape:pagecheckerboard="true"
     units="px"
     inkscape:window-width="1920"
     inkscape:window-height="1016"
     inkscape:window-x="0"
     inkscape:window-y="27"
     inkscape:window-maximized="1" />
  <metadata
     id="metadata348">
    <rdf:RDF>
      <cc:Work
         rdf:about="">
        <dc:format>image/svg+xml</dc:format>
        <dc:type
           rdf:resource="http://purl.org/dc/dcmitype/StillImage" />
        <dc:title></dc:title>
      </cc:Work>
    </rdf:RDF>
  </metadata>
  <g
     inkscape:label="Layer 1"
     inkscape:groupmode="layer"
     id="layer1"
     transform="translate(0,-191.16665)">
    <g
       id="g44"
       transform="matrix(0.38670469,0,0,0.38670469,-46.586314,166.5413)">
      <path
         id="path42"
         d="m 394.58,137.9 c -37.54,0 -70.37,20.79 -87.38,51.62 -17.01,-30.82 -49.85,-51.62 -87.38,-51.62 -32.08,0 -59.14,17.01 -74.61,41.36 V 63.68 h -24.74 v 173.95 c 0,55.28 44.45,99.73 99.35,99.73 37.54,0 70.37,-20.79 87.38,-51.62 17.01,30.82 49.84,51.62 87.38,51.62 32.86,0 61.85,-18.94 74.61,-44.45 v 41.36 h 24.74 v -96.64 c 0,-55.27 -44.46,-99.73 -99.35,-99.73 z M 219.82,313.79 c -42.91,0 -74.99,-33.63 -74.99,-76.15 0,-42.52 32.86,-76.15 74.99,-76.15 41.75,0 74.99,33.63 74.99,76.15 0,42.52 -32.47,76.15 -74.99,76.15 z m 175.15,0 c -41.75,0 -75.38,-33.63 -75.38,-76.15 0,-42.52 32.86,-76.15 75.38,-76.15 42.52,0 74.61,33.63 74.61,76.15 0,42.52 -32.86,76.15 -74.61,76.15 z"
         inkscape:connector-curvature="0" />
    </g>
    <g
       id="g125"
       transform="matrix(1.9564492,0,0,1.9564492,-63.883893,-190.65253)">
      <text
         id="text71"
         y="204.2029"
         x="112.87036"
         style="font-style:normal;font-variant:normal;font-weight:600;font-stretch:normal;font-size:12.91943169px;line-height:1.25;font-family:'Nordique Pro';-inkscape-font-specification:'Nordique Pro, Semi-Bold';font-variant-ligatures:normal;font-variant-caps:normal;font-variant-numeric:normal;font-feature-settings:normal;text-align:start;letter-spacing:0px;word-spacing:0px;writing-mode:lr-tb;text-anchor:start;fill:#000000;fill-opacity:1;stroke:none;stroke-width:0.36858743"
         xml:space="preserve"><tspan
           id="tspan79"
           style="font-style:normal;font-variant:normal;font-weight:600;font-stretch:normal;font-size:12.91943169px;font-family:'Nordique Pro';-inkscape-font-specification:'Nordique Pro, Semi-Bold';font-variant-ligatures:normal;font-variant-caps:normal;font-variant-numeric:normal;font-feature-settings:normal;text-align:start;writing-mode:lr-tb;text-anchor:start;stroke-width:0.36858743"
           y="204.2029"
           x="112.87036"
           sodipodi:role="line">bon air quilt co.</tspan></text>
      <text
         id="text94"
         y="222.83536"
         x="154.62337"
         style="font-style:normal;font-variant:normal;font-weight:normal;font-stretch:normal;font-size:8.46670628px;line-height:1.25;font-family:'Nordique Pro';-inkscape-font-specification:'Nordique Pro, Normal';font-variant-ligatures:normal;font-variant-caps:normal;font-variant-numeric:normal;font-feature-settings:normal;text-align:center;letter-spacing:0px;word-spacing:0px;writing-mode:lr-tb;text-anchor:middle;fill:#000000;fill-opacity:1;stroke:none;stroke-width:0.26458335"
         xml:space="preserve"><tspan
           id="tspan100"
           style="font-style:normal;font-variant:normal;font-weight:normal;font-stretch:normal;font-size:8.46670628px;font-family:'Nordique Pro';-inkscape-font-specification:'Nordique Pro, Normal';font-variant-ligatures:normal;font-variant-caps:normal;font-variant-numeric:normal;font-feature-settings:normal;text-align:center;writing-mode:lr-tb;text-anchor:middle;stroke-width:0.26458335"
           y="222.83536"
           x="154.62337"
           sodipodi:role="line">bonairquiltco.com</tspan></text>
      <g
         id="g99">
        <text
           id="text72"
           y="249.16919"
           x="126.95914"
           style="font-style:normal;font-variant:normal;font-weight:normal;font-stretch:normal;font-size:8.46670628px;line-height:1.25;font-family:'Nordique Pro';-inkscape-font-specification:'Nordique Pro, Normal';font-variant-ligatures:normal;font-variant-caps:normal;font-variant-numeric:normal;font-feature-settings:normal;text-align:start;letter-spacing:0px;word-spacing:0px;writing-mode:lr-tb;text-anchor:start;fill:#000000;fill-opacity:1;stroke:none;stroke-width:0.1352365"
           xml:space="preserve"><tspan
             style="font-style:normal;font-variant:normal;font-weight:normal;font-stretch:normal;font-size:8.46670628px;font-family:'Nordique Pro';-inkscape-font-specification:'Nordique Pro, Normal';font-variant-ligatures:normal;font-variant-caps:normal;font-variant-numeric:normal;font-feature-settings:normal;text-align:start;writing-mode:lr-tb;text-anchor:start;stroke-width:0.1352365"
             y="249.16919"
             x="126.95914"
             id="tspan70"
             sodipodi:role="line">@BonAirQuiltCo</tspan></text>
        <g
           transform="translate(-0.2408627,4.919271)"
           id="g90">
          <path
             inkscape:connector-curvature="0"
             style="fill:currentColor;stroke-width:0.02081352"
             d="m 166.80484,228.91268 c 0.007,0.0947 0.007,0.18944 0.007,0.284 0,2.88727 -2.19756,6.21404 -6.21404,6.21404 -1.23741,0 -2.3869,-0.3584 -3.35384,-0.98046 0.17599,0.0197 0.34484,0.0263 0.52743,0.0263 1.021,0 1.96089,-0.34483 2.71143,-0.93309 -0.96014,-0.0197 -1.76478,-0.64914 -2.04204,-1.51463 0.13523,0.0197 0.27056,0.0336 0.4125,0.0336 0.196,0 0.39216,-0.0263 0.57472,-0.0741 -1.00073,-0.2029 -1.75132,-1.08187 -1.75132,-2.14347 v -0.0264 c 0.29057,0.1622 0.62886,0.26364 0.98722,0.27711 -0.58827,-0.39221 -0.97367,-1.0616 -0.97367,-1.81894 0,-0.40568 0.1081,-0.77758 0.29747,-1.10214 1.07512,1.32529 2.69118,2.19078 4.50331,2.28547 -0.0336,-0.16219 -0.0542,-0.33131 -0.0542,-0.50035 0,-1.20361 0.97368,-2.18407 2.18404,-2.18407 0.62881,0 1.19683,0.26364 1.59576,0.68971 0.49357,-0.0947 0.9669,-0.27714 1.38615,-0.52743 -0.1622,0.50715 -0.50714,0.93315 -0.96016,1.20361 0.43953,-0.0473 0.86551,-0.16909 1.25768,-0.33807 -0.29745,0.43272 -0.66939,0.81811 -1.09541,1.12918 z"
             id="path22" />
          <path
             inkscape:connector-curvature="0"
             style="fill:currentColor;stroke-width:0.01931299"
             d="m 147.15664,228.86406 c -1.22831,0 -2.21906,0.99077 -2.21906,2.21907 0,1.22831 0.99075,2.21906 2.21906,2.21906 1.2283,0 2.21906,-0.99075 2.21906,-2.21906 0,-1.2283 -0.99076,-2.21907 -2.21906,-2.21907 z m 0,3.66176 c -0.79376,0 -1.44268,-0.647 -1.44268,-1.44269 0,-0.7957 0.64699,-1.44268 1.44268,-1.44268 0.7957,0 1.44268,0.64698 1.44268,1.44268 0,0.79569 -0.64891,1.44269 -1.44268,1.44269 z m 2.82742,-3.75252 c 0,0.28776 -0.23176,0.51759 -0.51759,0.51759 -0.28776,0 -0.51758,-0.23176 -0.51758,-0.51759 0,-0.28584 0.23176,-0.51759 0.51758,-0.51759 0.28583,0 0.51759,0.23175 0.51759,0.51759 z m 1.46972,0.52531 c -0.0328,-0.69333 -0.1912,-1.30749 -0.69913,-1.81349 -0.506,-0.506 -1.12015,-0.66437 -1.81349,-0.69913 -0.71458,-0.0406 -2.85639,-0.0406 -3.57097,0 -0.69141,0.0328 -1.30556,0.1912 -1.81349,0.6972 -0.50793,0.506 -0.66437,1.12015 -0.69913,1.81349 -0.0406,0.71458 -0.0406,2.85639 0,3.57097 0.0328,0.69334 0.1912,1.30749 0.69913,1.81349 0.50793,0.506 1.12015,0.66437 1.81349,0.69913 0.71458,0.0406 2.85639,0.0406 3.57097,0 0.69334,-0.0328 1.30749,-0.1912 1.81349,-0.69913 0.506,-0.506 0.66437,-1.12015 0.69913,-1.81349 0.0406,-0.71458 0.0406,-2.85446 0,-3.56904 z m -0.92316,4.33576 c -0.15064,0.37854 -0.44227,0.67017 -0.82273,0.82274 -0.56974,0.22596 -1.92164,0.17382 -2.55125,0.17382 -0.6296,0 -1.98345,0.0502 -2.55124,-0.17382 -0.37854,-0.15065 -0.67017,-0.44227 -0.82274,-0.82274 -0.22596,-0.56973 -0.17382,-1.92164 -0.17382,-2.55124 0,-0.62961 -0.0502,-1.98344 0.17382,-2.55125 0.15064,-0.37854 0.44227,-0.67016 0.82274,-0.82273 0.56972,-0.22596 1.92164,-0.17382 2.55124,-0.17382 0.62961,0 1.98345,-0.0502 2.55125,0.17382 0.37854,0.15064 0.67016,0.44226 0.82273,0.82273 0.22597,0.56974 0.17382,1.92164 0.17382,2.55125 0,0.6296 0.0521,1.98345 -0.17382,2.55124 z"
             id="path12" />
          <path
             inkscape:connector-curvature="0"
             style="fill:currentColor;stroke-width:0.0193195"
             d="m 182.3161,227.68281 v 6.80046 c 0,0.51197 -0.41537,0.92734 -0.92734,0.92734 h -4.74487 c 0.18933,-0.31684 0.43276,-0.77278 0.52936,-1.14565 0.058,-0.22217 0.29558,-1.12825 0.29558,-1.12825 0.15456,0.29558 0.60664,0.54481 1.08769,0.54481 1.43158,0 2.46131,-1.31566 2.46131,-2.95009 0,-1.56681 -1.27895,-2.73951 -2.92498,-2.73951 -2.04786,0 -3.13362,1.37362 -3.13362,2.87088 0,0.6955 0.37094,1.56102 0.96211,1.83728 0.0908,0.0425 0.13717,0.0232 0.15842,-0.0637 0.0155,-0.0657 0.0966,-0.38832 0.13137,-0.53708 0.0116,-0.0483 0.006,-0.0889 -0.0328,-0.13524 -0.19513,-0.23763 -0.35355,-0.67425 -0.35355,-1.08189 0,-1.04712 0.7921,-2.05946 2.14254,-2.05946 1.16496,0 1.98218,0.79403 1.98218,1.93002 0,1.28281 -0.64721,2.17151 -1.49147,2.17151 -0.4656,0 -0.81335,-0.38446 -0.70323,-0.85779 0.13331,-0.56412 0.39219,-1.17269 0.39219,-1.58033 0,-1.02393 -1.45862,-0.8829 -1.45862,0.48299 0,0.41923 0.14103,0.70516 0.14103,0.70516 -0.60663,2.56563 -0.69744,2.59847 -0.57186,3.72093 l 0.0425,0.0155 h -1.7117 c -0.51197,0 -0.92734,-0.41537 -0.92734,-0.92734 v -6.80046 c 0,-0.51197 0.41537,-0.92734 0.92734,-0.92734 h 6.80046 c 0.51197,0 0.92734,0.41537 0.92734,0.92734 z"
             id="path12-9" />
          <path
             inkscape:connector-curvature="0"
             style="fill:currentColor;stroke-width:0.0193195"
             d="M 135.13946,226.75557 H 128.339 a 0.92733598,0.92733598 0 0 0 -0.92734,0.92734 v 6.80046 a 0.92733598,0.92733598 0 0 0 0.92734,0.92734 h 2.6516 v -2.94255 h -1.21713 v -1.38502 h 1.21713 v -1.05562 c 0,-1.2007 0.71482,-1.86394 1.80966,-1.86394 0.52433,0 1.07261,0.0935 1.07261,0.0935 v 1.17849 h -0.60412 c -0.59523,0 -0.78089,0.36938 -0.78089,0.74824 v 0.89932 h 1.32879 l -0.21251,1.38502 h -1.11628 v 2.94255 h 2.6516 a 0.92733598,0.92733598 0 0 0 0.92734,-0.92734 v -6.80046 a 0.92733598,0.92733598 0 0 0 -0.92734,-0.92734 z"
             id="path2" />
        </g>
      </g>
    </g>
  </g>
</svg>
