<?xml version="1.0" encoding="UTF-8" standalone="no"?>
<!-- Created with Inkscape (http://www.inkscape.org/) -->

<svg
   xmlns:dc="http://purl.org/dc/elements/1.1/"
   xmlns:cc="http://creativecommons.org/ns#"
   xmlns:rdf="http://www.w3.org/1999/02/22-rdf-syntax-ns#"
   xmlns:svg="http://www.w3.org/2000/svg"
   xmlns="http://www.w3.org/2000/svg"
   xmlns:sodipodi="http://sodipodi.sourceforge.net/DTD/sodipodi-0.dtd"
   xmlns:inkscape="http://www.inkscape.org/namespaces/inkscape"
   width="400"
   height="400"
   viewBox="0 0 105.83333 105.83334"
   version="1.1"
   id="svg351"
   inkscape:version="0.92.5 (2060ec1f9f, 2020-04-08)"
   sodipodi:docname="logo-black-pt-ig.svg"
   inkscape:export-filename="/home/david/Dropbox/Dave and Heather's Super Secret Documents of Love/bon-air-quilt/logo/instagram.png"
   inkscape:export-xdpi="96"
   inkscape:export-ydpi="96">
  <defs
     id="defs345" />
  <sodipodi:namedview
     id="base"
     pagecolor="#ffffff"
     bordercolor="#666666"
     borderopacity="1.0"
     inkscape:pageopacity="0.0"
     inkscape:pageshadow="2"
     inkscape:zoom="1.4031855"
     inkscape:cx="157.74991"
     inkscape:cy="195.54759"
     inkscape:document-units="px"
     inkscape:current-layer="layer1"
     showgrid="false"
     inkscape:pagecheckerboard="true"
     units="px"
     inkscape:window-width="1920"
     inkscape:window-height="1025"
     inkscape:window-x="0"
     inkscape:window-y="27"
     inkscape:window-maximized="1"
     fit-margin-top="0"
     fit-margin-left="0"
     fit-margin-right="0"
     fit-margin-bottom="0" />
  <metadata
     id="metadata348">
    <rdf:RDF>
      <cc:Work
         rdf:about="">
        <dc:format>image/svg+xml</dc:format>
        <dc:type
           rdf:resource="http://purl.org/dc/dcmitype/StillImage" />
        <dc:title></dc:title>
      </cc:Work>
    </rdf:RDF>
  </metadata>
  <g
     inkscape:label="Layer 1"
     inkscape:groupmode="layer"
     id="layer1"
     transform="translate(5.8e-7,-165.68661)">
    <g
       id="g923"
       transform="matrix(0.8125,0,0,0.8125,9.9218769,40.988117)"
       style="stroke-width:1.23076928">
      <g
         style="stroke-width:1.76784813"
         transform="matrix(0.19335234,0,0,0.19335234,-23.293157,153.37393)"
         id="g44">
        <path
           style="stroke-width:1.76784813"
           inkscape:connector-curvature="0"
           d="m 394.58,137.9 c -37.54,0 -70.37,20.79 -87.38,51.62 -17.01,-30.82 -49.85,-51.62 -87.38,-51.62 -32.08,0 -59.14,17.01 -74.61,41.36 V 63.68 h -24.74 v 173.95 c 0,55.28 44.45,99.73 99.35,99.73 37.54,0 70.37,-20.79 87.38,-51.62 17.01,30.82 49.84,51.62 87.38,51.62 32.86,0 61.85,-18.94 74.61,-44.45 v 41.36 h 24.74 v -96.64 c 0,-55.27 -44.46,-99.73 -99.35,-99.73 z M 219.82,313.79 c -42.91,0 -74.99,-33.63 -74.99,-76.15 0,-42.52 32.86,-76.15 74.99,-76.15 41.75,0 74.99,33.63 74.99,76.15 0,42.52 -32.47,76.15 -74.99,76.15 z m 175.15,0 c -41.75,0 -75.38,-33.63 -75.38,-76.15 0,-42.52 32.86,-76.15 75.38,-76.15 42.52,0 74.61,33.63 74.61,76.15 0,42.52 -32.86,76.15 -74.61,76.15 z"
           id="path42" />
      </g>
      <path
         id="path2"
         d="m 86.749278,218.60328 c -10.877914,0 -21.628599,7.25194 -21.628599,18.98863 0,7.46399 4.198493,11.70489 6.743033,11.70489 1.049624,0 1.653952,-2.92622 1.653952,-3.7532 0,-0.98601 -2.512734,-3.08525 -2.512734,-7.18832 0,-8.52422 6.488579,-14.5675 14.885563,-14.5675 7.220137,0 12.563673,4.10307 12.563673,11.64127 0,5.6298 -2.258282,16.18964 -9.573837,16.18964 -2.639959,0 -4.898241,-1.9084 -4.898241,-4.64378 0,-4.00766 2.798995,-7.88808 2.798995,-12.02296 0,-7.01869 -9.955516,-5.74642 -9.955516,2.73538 0,1.78118 0.222648,3.7532 1.017817,5.37535 -1.463111,6.29774 -4.452947,15.68073 -4.452947,22.16931 0,2.00382 0.286261,3.97584 0.477101,5.97967 0.360477,0.40288 0.180238,0.36048 0.731556,0.15903 5.343536,-7.31555 5.152695,-8.74686 7.570009,-18.32069 1.304077,2.48093 4.675593,3.81681 7.347361,3.81681 11.259596,0 16.316866,-10.97333 16.316866,-20.86523 0,-10.52804 -9.096729,-17.3983 -19.084052,-17.3983 z"
         style="fill:currentColor;stroke-width:0.32564104"
         inkscape:connector-curvature="0" />
    </g>
  </g>
</svg>
