<?xml version="1.0" encoding="UTF-8" standalone="no"?>
<!-- Created with Inkscape (http://www.inkscape.org/) -->

<svg
   xmlns:dc="http://purl.org/dc/elements/1.1/"
   xmlns:cc="http://creativecommons.org/ns#"
   xmlns:rdf="http://www.w3.org/1999/02/22-rdf-syntax-ns#"
   xmlns:svg="http://www.w3.org/2000/svg"
   xmlns="http://www.w3.org/2000/svg"
   xmlns:sodipodi="http://sodipodi.sourceforge.net/DTD/sodipodi-0.dtd"
   xmlns:inkscape="http://www.inkscape.org/namespaces/inkscape"
   width="400"
   height="400"
   viewBox="0 0 105.83333 105.83334"
   version="1.1"
   id="svg351"
   inkscape:version="0.92.5 (2060ec1f9f, 2020-04-08)"
   sodipodi:docname="logo-black-tw-ig.svg"
   inkscape:export-filename="/home/david/Dropbox/Dave and Heather's Super Secret Documents of Love/bon-air-quilt/logo/instagram.png"
   inkscape:export-xdpi="96"
   inkscape:export-ydpi="96">
  <defs
     id="defs345" />
  <sodipodi:namedview
     id="base"
     pagecolor="#ffffff"
     bordercolor="#666666"
     borderopacity="1.0"
     inkscape:pageopacity="0.0"
     inkscape:pageshadow="2"
     inkscape:zoom="1.4031855"
     inkscape:cx="26.619707"
     inkscape:cy="195.54759"
     inkscape:document-units="px"
     inkscape:current-layer="layer1"
     showgrid="false"
     inkscape:pagecheckerboard="true"
     units="px"
     inkscape:window-width="1920"
     inkscape:window-height="1025"
     inkscape:window-x="0"
     inkscape:window-y="27"
     inkscape:window-maximized="1"
     fit-margin-top="0"
     fit-margin-left="0"
     fit-margin-right="0"
     fit-margin-bottom="0" />
  <metadata
     id="metadata348">
    <rdf:RDF>
      <cc:Work
         rdf:about="">
        <dc:format>image/svg+xml</dc:format>
        <dc:type
           rdf:resource="http://purl.org/dc/dcmitype/StillImage" />
        <dc:title />
      </cc:Work>
    </rdf:RDF>
  </metadata>
  <g
     inkscape:label="Layer 1"
     inkscape:groupmode="layer"
     id="layer1"
     transform="translate(5.8e-7,-165.68661)">
    <g
       id="g818"
       transform="matrix(0.81249996,0,0,0.81249996,9.9218769,40.988123)"
       style="stroke-width:1.23076928">
      <g
         style="stroke-width:1.76784813"
         transform="matrix(0.19335234,0,0,0.19335234,-23.293157,153.37393)"
         id="g44">
        <path
           style="stroke-width:1.76784813"
           inkscape:connector-curvature="0"
           d="m 394.58,137.9 c -37.54,0 -70.37,20.79 -87.38,51.62 -17.01,-30.82 -49.85,-51.62 -87.38,-51.62 -32.08,0 -59.14,17.01 -74.61,41.36 V 63.68 h -24.74 v 173.95 c 0,55.28 44.45,99.73 99.35,99.73 37.54,0 70.37,-20.79 87.38,-51.62 17.01,30.82 49.84,51.62 87.38,51.62 32.86,0 61.85,-18.94 74.61,-44.45 v 41.36 h 24.74 v -96.64 c 0,-55.27 -44.46,-99.73 -99.35,-99.73 z M 219.82,313.79 c -42.91,0 -74.99,-33.63 -74.99,-76.15 0,-42.52 32.86,-76.15 74.99,-76.15 41.75,0 74.99,33.63 74.99,76.15 0,42.52 -32.47,76.15 -74.99,76.15 z m 175.15,0 c -41.75,0 -75.38,-33.63 -75.38,-76.15 0,-42.52 32.86,-76.15 75.38,-76.15 42.52,0 74.61,33.63 74.61,76.15 0,42.52 -32.86,76.15 -74.61,76.15 z"
           id="path42" />
      </g>
      <path
         id="path2-2"
         d="m 82.020826,235.497 c -6.758786,0 -12.210449,5.45166 -12.210449,12.21044 0,6.7588 5.451663,12.21046 12.210449,12.21046 6.758786,0 12.210449,-5.45166 12.210449,-12.21046 0,-6.75878 -5.451663,-12.21044 -12.210449,-12.21044 z m 0,20.14884 c -4.367705,0 -7.938385,-3.56006 -7.938385,-7.9384 0,-4.37833 3.560052,-7.93838 7.938385,-7.93838 4.378334,0 7.938387,3.56005 7.938387,7.93838 0,4.37834 -3.57068,7.9384 -7.938387,7.9384 z m 15.557962,-20.64832 c 0,1.58344 -1.275243,2.84805 -2.848042,2.84805 -1.583426,0 -2.848042,-1.27524 -2.848042,-2.84805 0,-1.57279 1.275242,-2.84804 2.848042,-2.84804 1.572799,0 2.848042,1.27525 2.848042,2.84804 z m 8.087162,2.89056 c -0.18065,-3.8151 -1.05207,-7.1945 -3.84699,-9.97878 -2.784271,-2.78428 -6.163663,-3.65569 -9.978764,-3.84697 -3.931999,-0.22318 -15.717367,-0.22318 -19.649366,0 -3.804473,0.18065 -7.183866,1.05207 -9.978778,3.83634 -2.794905,2.78429 -3.655692,6.16368 -3.846978,9.97878 -0.223164,3.932 -0.223164,15.71737 0,19.64936 0.180657,3.8151 1.052073,7.1945 3.846978,9.97878 2.794912,2.78428 6.163677,3.65569 9.978778,3.84698 3.931999,0.22317 15.717367,0.22317 19.649366,0 3.815101,-0.18066 7.194493,-1.05208 9.978764,-3.84698 2.78429,-2.78428 3.65571,-6.16368 3.84699,-9.97878 0.22318,-3.93199 0.22318,-15.70674 0,-19.63873 z m -5.07972,23.85766 c -0.828902,2.0829 -2.433583,3.68758 -4.527107,4.52712 -3.134971,1.24336 -10.573887,0.95643 -14.038297,0.95643 -3.464409,0 -10.913952,0.2763 -14.038297,-0.95643 -2.082896,-0.82891 -3.687576,-2.43359 -4.527112,-4.52712 -1.243365,-3.13497 -0.956427,-10.57388 -0.956427,-14.0383 0,-3.4644 -0.276309,-10.91395 0.956427,-14.03829 0.828909,-2.0829 2.433589,-3.68758 4.527112,-4.52712 3.134972,-1.24336 10.573888,-0.95643 14.038297,-0.95643 3.46441,0 10.913952,-0.2763 14.038297,0.95643 2.082896,0.82891 3.687577,2.4336 4.527107,4.52712 1.24336,3.13497 0.95643,10.57389 0.95643,14.03829 0,3.46442 0.28693,10.91396 -0.95643,14.0383 z"
         style="fill:currentColor;stroke-width:0.32564107"
         inkscape:connector-curvature="0" />
    </g>
  </g>
</svg>
