<?xml version="1.0" encoding="UTF-8" standalone="no"?>
<!-- Created with Inkscape (http://www.inkscape.org/) -->

<svg
   xmlns:dc="http://purl.org/dc/elements/1.1/"
   xmlns:cc="http://creativecommons.org/ns#"
   xmlns:rdf="http://www.w3.org/1999/02/22-rdf-syntax-ns#"
   xmlns:svg="http://www.w3.org/2000/svg"
   xmlns="http://www.w3.org/2000/svg"
   xmlns:sodipodi="http://sodipodi.sourceforge.net/DTD/sodipodi-0.dtd"
   xmlns:inkscape="http://www.inkscape.org/namespaces/inkscape"
   width="400"
   height="400"
   viewBox="0 0 105.83333 105.83334"
   version="1.1"
   id="svg351"
   inkscape:version="0.92.5 (2060ec1f9f, 2020-04-08)"
   sodipodi:docname="logo-black-email-qr.svg"
   inkscape:export-filename="/home/david/Dropbox/Dave and Heather's Super Secret Documents of Love/bon-air-quilt/logo/instagram.png"
   inkscape:export-xdpi="96"
   inkscape:export-ydpi="96">
  <defs
     id="defs345" />
  <sodipodi:namedview
     id="base"
     pagecolor="#ffffff"
     bordercolor="#666666"
     borderopacity="1.0"
     inkscape:pageopacity="0.0"
     inkscape:pageshadow="2"
     inkscape:zoom="1.4031855"
     inkscape:cx="200.50976"
     inkscape:cy="125.20418"
     inkscape:document-units="px"
     inkscape:current-layer="layer1"
     showgrid="false"
     inkscape:pagecheckerboard="true"
     units="px"
     inkscape:window-width="1920"
     inkscape:window-height="1012"
     inkscape:window-x="0"
     inkscape:window-y="32"
     inkscape:window-maximized="1"
     fit-margin-top="0"
     fit-margin-left="0"
     fit-margin-right="0"
     fit-margin-bottom="0" />
  <metadata
     id="metadata348">
    <rdf:RDF>
      <cc:Work
         rdf:about="">
        <dc:format>image/svg+xml</dc:format>
        <dc:type
           rdf:resource="http://purl.org/dc/dcmitype/StillImage" />
        <dc:title></dc:title>
      </cc:Work>
    </rdf:RDF>
  </metadata>
  <g
     inkscape:label="Layer 1"
     inkscape:groupmode="layer"
     id="layer1"
     transform="translate(5.8e-7,-165.68661)">
    <g
       id="g859">
      <g
         style="stroke-width:1.76784801"
         transform="matrix(0.15709878,0,0,0.15709878,-9.0038163,165.60443)"
         id="g44">
        <path
           style="stroke-width:1.76784801"
           inkscape:connector-curvature="0"
           d="m 394.58,137.9 c -37.54,0 -70.37,20.79 -87.38,51.62 -17.01,-30.82 -49.85,-51.62 -87.38,-51.62 -32.08,0 -59.14,17.01 -74.61,41.36 V 63.68 h -24.74 v 173.95 c 0,55.28 44.45,99.73 99.35,99.73 37.54,0 70.37,-20.79 87.38,-51.62 17.01,30.82 49.84,51.62 87.38,51.62 32.86,0 61.85,-18.94 74.61,-44.45 v 41.36 h 24.74 v -96.64 c 0,-55.27 -44.46,-99.73 -99.35,-99.73 z M 219.82,313.79 c -42.91,0 -74.99,-33.63 -74.99,-76.15 0,-42.52 32.86,-76.15 74.99,-76.15 41.75,0 74.99,33.63 74.99,76.15 0,42.52 -32.47,76.15 -74.99,76.15 z m 175.15,0 c -41.75,0 -75.38,-33.63 -75.38,-76.15 0,-42.52 32.86,-76.15 75.38,-76.15 42.52,0 74.61,33.63 74.61,76.15 0,42.52 -32.86,76.15 -74.61,76.15 z"
           id="path42" />
      </g>
      <path
         style="stroke-width:0.26458335"
         id="path2-4"
         d="m 72.751448,251.46949 c -1.494871,0 -2.989741,-0.49033 -4.264857,-1.48401 L 49.600404,235.29994 v 20.51037 c 0,2.3965 1.943421,4.34082 4.34082,4.34082 h 37.620444 c 2.397397,0 4.34082,-1.94342 4.34082,-4.34082 v -20.51037 l -18.882569,14.69548 c -1.275114,0.98573 -2.776317,1.47407 -4.268471,1.47407 z M 51.07357,232.77684 70.263614,247.70745 c 1.464122,1.13946 3.515159,1.13946 4.979284,0 l 19.190041,-14.93061 c 0.845555,-0.72348 1.469549,-1.83581 1.469549,-3.01145 0,-2.3974 -1.944325,-4.34082 -4.34082,-4.34082 H 53.941224 c -2.397399,0 -4.34082,1.94342 -4.34082,4.34082 0,1.17564 0.543507,2.28797 1.473166,3.01145 z"
         inkscape:connector-curvature="0" />
    </g>
  </g>
</svg>
