<?xml version="1.0" encoding="UTF-8" standalone="no"?>
<!-- Created with Inkscape (http://www.inkscape.org/) -->

<svg
   xmlns:dc="http://purl.org/dc/elements/1.1/"
   xmlns:cc="http://creativecommons.org/ns#"
   xmlns:rdf="http://www.w3.org/1999/02/22-rdf-syntax-ns#"
   xmlns:svg="http://www.w3.org/2000/svg"
   xmlns="http://www.w3.org/2000/svg"
   xmlns:sodipodi="http://sodipodi.sourceforge.net/DTD/sodipodi-0.dtd"
   xmlns:inkscape="http://www.inkscape.org/namespaces/inkscape"
   width="400"
   height="400"
   viewBox="0 0 105.83333 105.83334"
   version="1.1"
   id="svg351"
   inkscape:version="0.92.5 (2060ec1f9f, 2020-04-08)"
   sodipodi:docname="logo-black-tw-qr.svg"
   inkscape:export-filename="/home/david/Dropbox/Dave and Heather's Super Secret Documents of Love/bon-air-quilt/logo/instagram.png"
   inkscape:export-xdpi="96"
   inkscape:export-ydpi="96">
  <defs
     id="defs345" />
  <sodipodi:namedview
     id="base"
     pagecolor="#ffffff"
     bordercolor="#666666"
     borderopacity="1.0"
     inkscape:pageopacity="0.0"
     inkscape:pageshadow="2"
     inkscape:zoom="1.4031855"
     inkscape:cx="26.619707"
     inkscape:cy="195.54759"
     inkscape:document-units="px"
     inkscape:current-layer="layer1"
     showgrid="false"
     inkscape:pagecheckerboard="true"
     units="px"
     inkscape:window-width="1920"
     inkscape:window-height="1025"
     inkscape:window-x="0"
     inkscape:window-y="27"
     inkscape:window-maximized="1"
     fit-margin-top="0"
     fit-margin-left="0"
     fit-margin-right="0"
     fit-margin-bottom="0" />
  <metadata
     id="metadata348">
    <rdf:RDF>
      <cc:Work
         rdf:about="">
        <dc:format>image/svg+xml</dc:format>
        <dc:type
           rdf:resource="http://purl.org/dc/dcmitype/StillImage" />
        <dc:title />
      </cc:Work>
    </rdf:RDF>
  </metadata>
  <g
     inkscape:label="Layer 1"
     inkscape:groupmode="layer"
     id="layer1"
     transform="translate(5.8e-7,-165.68661)">
    <g
       id="g818"
       transform="matrix(0.81250002,0,0,0.81250002,9.9218742,40.988113)"
       style="stroke-width:1.23076916">
      <g
         style="stroke-width:1.76784801"
         transform="matrix(0.19335234,0,0,0.19335234,-23.293157,153.37393)"
         id="g44">
        <path
           style="stroke-width:1.76784801"
           inkscape:connector-curvature="0"
           d="m 394.58,137.9 c -37.54,0 -70.37,20.79 -87.38,51.62 -17.01,-30.82 -49.85,-51.62 -87.38,-51.62 -32.08,0 -59.14,17.01 -74.61,41.36 V 63.68 h -24.74 v 173.95 c 0,55.28 44.45,99.73 99.35,99.73 37.54,0 70.37,-20.79 87.38,-51.62 17.01,30.82 49.84,51.62 87.38,51.62 32.86,0 61.85,-18.94 74.61,-44.45 v 41.36 h 24.74 v -96.64 c 0,-55.27 -44.46,-99.73 -99.35,-99.73 z M 219.82,313.79 c -42.91,0 -74.99,-33.63 -74.99,-76.15 0,-42.52 32.86,-76.15 74.99,-76.15 41.75,0 74.99,33.63 74.99,76.15 0,42.52 -32.47,76.15 -74.99,76.15 z m 175.15,0 c -41.75,0 -75.38,-33.63 -75.38,-76.15 0,-42.52 32.86,-76.15 75.38,-76.15 42.52,0 74.61,33.63 74.61,76.15 0,42.52 -32.86,76.15 -74.61,76.15 z"
           id="path42" />
      </g>
      <path
         id="path2"
         d="m 99.973384,236.75716 c 0.03619,0.5064 0.03619,1.01292 0.03619,1.51933 0,15.44601 -11.756293,33.24345 -33.243424,33.24345 -6.619786,0 -12.769242,-1.91728 -17.942076,-5.2451 0.940546,0.10845 1.844792,0.14464 2.821526,0.14464 5.462113,0 10.490308,-1.84479 14.505581,-4.99189 -5.136646,-0.10857 -9.44131,-3.47269 -10.924449,-8.10293 0.723532,0.10845 1.446951,0.18083 2.20667,0.18083 1.048998,0 2.098106,-0.14475 3.074728,-0.39784 -5.353666,-1.0853 -9.36905,-5.7878 -9.36905,-11.46704 v -0.14465 c 1.555402,0.86818 3.364229,1.41076 5.281285,1.48303 -3.147103,-2.0981 -5.20891,-5.67924 -5.20891,-9.7307 0,-2.17037 0.578669,-4.15991 1.59159,-5.89625 5.751614,7.09 14.39713,11.72013 24.091531,12.22665 -0.180828,-0.86817 -0.28939,-1.77242 -0.28939,-2.67678 0,-6.43895 5.209022,-11.68405 11.684056,-11.68405 3.364118,0 6.40266,1.41076 8.536953,3.6897 2.640585,-0.50641 5.172699,-1.48315 7.415549,-2.82153 -0.86828,2.71307 -2.71306,4.99201 -5.136615,6.43885 2.351285,-0.2531 4.630225,-0.90437 6.728205,-1.80861 -1.59136,2.315 -3.58101,4.37681 -5.859924,6.04089 z"
         style="fill:currentColor;stroke-width:0.32564104"
         inkscape:connector-curvature="0" />
    </g>
  </g>
</svg>
